<svg width="50" height="50" viewBox="0 0 50 50" fill="none" xmlns="http://www.w3.org/2000/svg">
<path d="M11.8164 12.5488C11.748 12.6269 11.6699 12.8906 11.6406 13.1348L11.5918 13.5742H8.30078C5.23438 13.5742 5 13.584 4.85352 13.75C4.64844 13.9746 4.64844 14.1016 4.84375 14.2969C4.9707 14.4336 5.42969 14.4531 8.31055 14.4531H11.6211V16.3574V18.2617L5.89844 18.2812C0.566406 18.3105 0.15625 18.3203 0.0585938 18.4766C-0.0195312 18.6035 -0.0195312 18.7012 0.0585938 18.8184C0.15625 18.9844 0.566406 18.9941 5.89844 19.0234L11.6211 19.043V21.0449V23.0469H9.72656C8.01758 23.0469 7.8125 23.0664 7.60742 23.2324C7.40234 23.3887 7.39258 23.4473 7.5 23.6719L7.61719 23.9258H9.59961H11.5918L11.6504 24.4141C11.6797 24.6875 11.7383 24.9512 11.7676 25C11.8652 25.1562 24.1504 25.127 24.2969 24.9805C24.3848 24.8926 24.4141 23.3789 24.4141 18.7891C24.4141 13.3887 24.3945 12.6953 24.2578 12.5586C24.1211 12.4219 23.4277 12.4023 18.0273 12.4023C12.7344 12.4023 11.9238 12.4219 11.8164 12.5488ZM16.3086 14.9219C16.3086 16.0644 16.3477 16.6016 16.4258 16.6797C16.6016 16.8555 16.9043 16.8164 17.1484 16.5918L17.373 16.377L17.6758 16.6406C18.0566 16.9531 18.0762 16.9531 18.457 16.6406L18.7598 16.377L18.9844 16.5918C19.2285 16.8262 19.5508 16.8555 19.7168 16.6699C19.7754 16.5918 19.834 15.918 19.8438 14.9316L19.873 13.3301L21.709 13.3008L23.5352 13.2812V18.7988V24.3164H18.0664H12.5977V18.7988V13.2812H14.4531H16.3086V14.9219ZM18.9453 14.3066C18.9453 15.293 18.9355 15.332 18.7305 15.332C18.6133 15.332 18.3984 15.4395 18.2617 15.5762L18.0078 15.8203L17.7734 15.5762C17.6465 15.4395 17.4414 15.332 17.3145 15.332C17.0898 15.332 17.0898 15.3125 17.0898 14.3066V13.2812H18.0176H18.9453V14.3066Z" fill="#49A9EF"/>
<path d="M25.7031 15.9375C25.6152 16.0254 25.5859 17.1777 25.5859 20.5273C25.5859 24.8438 25.5957 25 25.7715 25.0977C25.8984 25.1562 27.5 25.1953 30.3125 25.1953H34.6582L34.8047 24.9805C34.9414 24.7852 34.9609 24.1895 34.9609 20.4395C34.9609 16.6504 34.9414 16.1133 34.8047 15.9766C34.668 15.8398 34.1211 15.8203 30.2344 15.8203C26.9336 15.8203 25.791 15.8496 25.7031 15.9375ZM28.8086 17.7734C28.8086 18.7207 28.8281 18.8672 29.0039 19.043C29.1895 19.2285 29.2188 19.2285 29.4922 19.0918C29.7559 18.9551 29.8047 18.9551 30.0098 19.082C30.2051 19.2188 30.2637 19.2188 30.498 19.0918C30.7422 18.9648 30.8008 18.9648 31.0059 19.1016C31.1816 19.2188 31.2793 19.2285 31.4355 19.1406C31.6211 19.043 31.6406 18.9453 31.6406 17.8711V16.6992H32.8613H34.082V20.5078V24.3164H30.2734H26.4648V20.5078V16.6992H27.6367H28.8086V17.7734ZM30.8594 17.2266C30.8594 17.7148 30.8398 17.7734 30.5469 17.9492C30.2637 18.125 30.2051 18.1348 30.0684 18.0078C29.9902 17.9395 29.8633 17.8711 29.8047 17.8711C29.7266 17.8711 29.6875 17.666 29.6875 17.2852V16.6992H30.2734H30.8594V17.2266Z" fill="#49A9EF"/>
<path d="M36.582 18.3202C36.4453 18.4472 36.4258 18.9648 36.4258 22.4706V26.4648H22.8223C12.373 26.4648 9.18945 26.4941 9.10156 26.5819C8.93555 26.748 8.93555 33.2128 9.10156 33.3788C9.17969 33.4569 9.70703 33.496 10.8105 33.496H12.4023L12.4609 33.7597C12.7051 34.9023 13.0762 35.6054 13.75 36.2694C14.6387 37.1386 15.5859 37.5292 16.8457 37.539C17.7832 37.5487 18.418 37.3827 19.1504 36.953C20.1953 36.328 20.957 35.2831 21.2305 34.1015L21.3574 33.5448H30.0195H38.6914L38.9062 34.287C39.4141 36.0448 40.7715 37.246 42.5684 37.5292C43.9062 37.7343 45.4883 37.2167 46.416 36.2694C46.9336 35.7421 47.5098 34.6581 47.6172 34.0038L47.6855 33.5937H48.623C49.3164 33.5937 49.6191 33.5546 49.7851 33.4374L50 33.2909V29.3847V25.4784L47.9394 21.9921C46.8066 20.078 45.791 18.4276 45.6836 18.33C45.498 18.1737 45.1367 18.164 41.1133 18.164C37.2656 18.164 36.7187 18.1835 36.582 18.3202ZM47.1387 22.3632L49.1113 25.6347L49.1211 29.1698V32.7148H48.3887C47.6758 32.7148 47.6562 32.7148 47.5976 32.4413C47.2851 31.0058 46.5039 29.8437 45.4687 29.2675C43.623 28.2421 41.4746 28.5155 40.0586 29.9511C39.4238 30.5956 39.1309 31.1327 38.8965 32.0702L38.7402 32.7245L38.0469 32.6952L37.3535 32.6659L37.3242 25.9765C37.3144 22.2948 37.3242 19.2284 37.3535 19.1601C37.3828 19.0624 38.2227 19.0429 41.2793 19.0624L45.166 19.0917L47.1387 22.3632ZM36.4258 30.0292V32.7148L28.8379 32.6952L21.25 32.6659L21.1719 32.246C21.0547 31.5526 20.4492 30.4198 19.9121 29.8827C18.2227 28.1933 15.3906 28.1933 13.7109 29.873C13.1445 30.4394 12.6465 31.3769 12.4707 32.1776L12.3633 32.7148H11.0645H9.76562V30.0292V27.3437H23.0957H36.4258V30.0292ZM18.3789 29.8046C20.4395 30.7616 21.1328 33.2714 19.8633 35.1366C18.7305 36.7773 16.4941 37.1972 14.8535 36.0644C13.7695 35.3124 13.2422 34.2675 13.3008 32.9589C13.3691 31.3769 14.2383 30.2343 15.8105 29.6288C16.3965 29.4042 17.7148 29.4921 18.3789 29.8046ZM44.1211 29.6288C47.3535 30.498 47.7734 34.912 44.7461 36.3964C43.9746 36.7773 42.7832 36.8358 41.9629 36.5233C40.8008 36.0839 39.9805 35.1562 39.6777 33.9355C39.3848 32.7538 39.7559 31.4648 40.6445 30.5761C41.5625 29.6483 42.8613 29.2968 44.1211 29.6288Z" fill="#49A9EF"/>
</svg>
