<svg width="25" height="30" viewBox="0 0 25 30" fill="none" xmlns="http://www.w3.org/2000/svg">
<path d="M19.6429 9.10714V7.28571C19.6429 3.26833 16.4386 0 12.5 0C8.56138 0 5.35714 3.26833 5.35714 7.28571V9.10714H0V24.5893C0 27.1042 1.99872 29.1429 4.46429 29.1429H20.5357C23.0013 29.1429 25 27.1042 25 24.5893V9.10714H19.6429ZM8.92857 7.28571C8.92857 5.27702 10.5307 3.64286 12.5 3.64286C14.4693 3.64286 16.0714 5.27702 16.0714 7.28571V9.10714H8.92857V7.28571ZM17.8571 14.1161C17.1175 14.1161 16.5179 13.5045 16.5179 12.75C16.5179 11.9955 17.1175 11.3839 17.8571 11.3839C18.5968 11.3839 19.1964 11.9955 19.1964 12.75C19.1964 13.5045 18.5968 14.1161 17.8571 14.1161ZM7.14286 14.1161C6.40318 14.1161 5.80357 13.5045 5.80357 12.75C5.80357 11.9955 6.40318 11.3839 7.14286 11.3839C7.88253 11.3839 8.48214 11.9955 8.48214 12.75C8.48214 13.5045 7.88253 14.1161 7.14286 14.1161Z" fill="#BDBDBD"/>
</svg>
