<svg width="21" height="22" viewBox="0 0 21 22" fill="none" xmlns="http://www.w3.org/2000/svg">
<path d="M7.84959 0.336567C5.98883 0.821302 4.62844 1.63441 3.11169 3.15116C0.969471 5.2621 0 7.57633 0 10.516C0 13.2837 0.906925 15.6605 2.72077 17.6463C6.45793 21.7275 12.5406 22.2591 16.9814 18.8972C18.6389 17.6307 19.8898 15.8325 20.5934 13.7059C20.9375 12.6426 21 12.1891 21 10.5786C21 8.96799 20.9375 8.51453 20.5934 7.45123C18.8109 2.0566 13.2286 -1.07073 7.84959 0.336567ZM12.7282 1.43113C17.4192 2.63515 20.4214 6.95086 19.8429 11.6888C19.2487 16.411 15.3239 19.898 10.5547 19.9136C8.92852 19.9293 7.8965 19.6947 6.33284 18.9442C4.76917 18.178 3.67461 17.2241 2.67386 15.723C1.72003 14.3001 1.25093 12.8928 1.14147 11.0946C1.03202 9.32763 1.26657 8.09234 2.06404 6.43485C2.56441 5.37156 2.93969 4.85555 3.90916 3.91735C6.33284 1.50931 9.52271 0.602388 12.7282 1.43113Z" fill="#D7D7D7"/>
<path d="M10.1169 3.26061C10.0543 3.30752 10.0074 5.05882 10.0074 7.13849V10.9069L12.0089 12.8928C13.1191 13.9873 14.1042 14.8786 14.198 14.8786C14.4013 14.8786 14.8548 14.4408 14.8548 14.2219C14.8548 14.1437 14.0104 13.2055 12.9784 12.1579L11.102 10.2345V6.88831C11.102 4.48027 11.0551 3.47952 10.9143 3.33879C10.7111 3.13552 10.2732 3.08861 10.1169 3.26061Z" fill="#D7D7D7"/>
</svg>
