<svg width="28" height="29" viewBox="0 0 28 29" fill="none" xmlns="http://www.w3.org/2000/svg">
<ellipse cx="13.894" cy="14.2948" rx="13.894" ry="14.2948" fill="#7F9D87"/>
<path d="M19.429 12.0337C19.3055 12.0337 19.1871 12.0866 19.0998 12.1807C19.0125 12.2748 18.9634 12.4025 18.9634 12.5356V16.5507C18.9634 16.6838 18.9143 16.8115 18.827 16.9056C18.7397 16.9997 18.6212 17.0526 18.4977 17.0526H9.18489C9.0614 17.0526 8.94296 16.9997 8.85563 16.9056C8.76831 16.8115 8.71925 16.6838 8.71925 16.5507V12.5356C8.71925 12.4025 8.67019 12.2748 8.58287 12.1807C8.49554 12.0866 8.3771 12.0337 8.25361 12.0337C8.13011 12.0337 8.01167 12.0866 7.92435 12.1807C7.83702 12.2748 7.78796 12.4025 7.78796 12.5356V16.5507C7.78829 16.9499 7.93568 17.3326 8.19773 17.6147C8.45945 17.8971 8.81453 18.056 9.18489 18.0564H18.4977C18.8681 18.056 19.2232 17.8971 19.4849 17.6147C19.747 17.3326 19.8944 16.9499 19.8947 16.5507V12.5356C19.8947 12.4025 19.8456 12.2748 19.7583 12.1807C19.671 12.0866 19.5525 12.0337 19.429 12.0337Z" fill="white"/>
<path d="M13.562 14.9447C13.6426 15.0099 13.7406 15.0451 13.8414 15.0451C13.9421 15.0451 14.0401 15.0099 14.1207 14.9447L19.62 10.498C19.7058 10.4283 19.7665 10.3287 19.792 10.2162C19.8175 10.1037 19.806 9.98516 19.7597 9.88069C19.6903 9.72627 19.5975 9.58546 19.4849 9.46412C19.2232 9.18168 18.8681 9.02281 18.4978 9.02246H9.18493C8.81456 9.02281 8.45949 9.18168 8.19777 9.46412C8.08525 9.58546 7.99238 9.72627 7.92304 9.88069C7.87667 9.98516 7.86524 10.1037 7.8907 10.2162C7.91616 10.3287 7.97694 10.4283 8.06273 10.498L13.562 14.9447ZM9.18493 10.0262H18.4978C18.541 10.0189 18.585 10.0189 18.6282 10.0262L13.8414 13.9159L9.05455 10.0262C9.09774 10.0189 9.14173 10.0189 9.18493 10.0262V10.0262Z" fill="white"/>
</svg>
