<svg width="50" height="50" viewBox="0 0 50 50" fill="none" xmlns="http://www.w3.org/2000/svg">
<path d="M23.5352 7.37295C23.4277 7.4999 23.4863 7.80264 23.8867 9.14053C24.375 10.8105 24.5117 11.0448 24.8535 10.8007C25.0293 10.6737 25.0098 10.5956 24.5605 9.07217C24.3066 8.19326 24.0527 7.41201 23.9941 7.34365C23.8672 7.1874 23.6816 7.19717 23.5352 7.37295Z" fill="#49A9EF"/>
<path d="M29.0234 7.35355C28.916 7.4805 28.0273 10.3907 28.0273 10.6153C28.0273 10.8203 28.3887 10.9571 28.5352 10.8008C28.6133 10.7325 28.877 9.96097 29.1406 9.08207C29.502 7.84183 29.5801 7.47074 29.4824 7.36331C29.3457 7.1973 29.1602 7.18753 29.0234 7.35355Z" fill="#49A9EF"/>
<path d="M18.8672 10.4394C18.5742 10.6152 18.8379 10.9472 20.0586 11.9531C21.3769 13.0371 21.7285 13.1933 21.7285 12.7051C21.7285 12.5097 21.4551 12.2363 20.459 11.4062C19.7656 10.8301 19.1504 10.3613 19.0918 10.3613C19.043 10.3515 18.9355 10.3906 18.8672 10.4394Z" fill="#49A9EF"/>
<path d="M32.5391 11.4354C31.5039 12.2948 31.2402 12.5584 31.2695 12.7245C31.3281 13.1737 31.6602 13.0174 32.9395 11.9627C33.6231 11.3963 34.209 10.869 34.2481 10.7811C34.3067 10.6248 34.1211 10.3514 33.9453 10.3514C33.8867 10.3514 33.252 10.8397 32.5391 11.4354Z" fill="#49A9EF"/>
<path d="M25.7129 13.6523C25.5469 13.7402 24.0918 15.205 22.4805 16.8945C20.8789 18.5839 19.2773 20.1953 18.9355 20.4687C17.0703 21.9531 15.127 22.9394 12.9688 23.4863C11.6992 23.8183 11.6211 23.8085 11.3574 23.3495C10.9668 22.6757 10.8594 22.6562 7.39258 22.6562C4.375 22.6562 4.31641 22.6562 4.00391 22.871C3.82812 22.998 3.60352 23.2519 3.50586 23.4374C3.33008 23.7597 3.32031 24.1992 3.32031 32.666C3.32031 42.5781 3.28125 41.9726 3.99414 42.4511C4.32617 42.6757 4.36523 42.6757 7.44141 42.6757C10.9375 42.6757 10.9473 42.6757 11.377 41.9921C11.582 41.6601 11.6699 41.6015 11.9629 41.6015C12.1484 41.6015 13.5547 41.8652 15.0977 42.1874L17.9004 42.7734H25.8203C34.6094 42.7734 34.3652 42.7929 35.127 42.1386C35.6836 41.6601 35.9766 41.0253 35.9766 40.2831C35.9668 39.6679 35.7129 38.9355 35.4199 38.6816C35.2051 38.5058 35.2148 38.3788 35.4395 38.3788C35.7422 38.3788 36.2988 38.1054 36.6699 37.7734C37.5977 36.9726 37.7539 35.6054 37.0508 34.5605C36.6602 33.9843 36.6602 33.9843 36.8945 33.9843C37.2461 33.9843 37.9883 33.3886 38.2813 32.871C38.7988 31.9726 38.7598 30.9765 38.1738 30.1757L37.8906 29.7851H41.2793C44.4824 29.7851 44.707 29.7656 45.1172 29.58C45.9863 29.1894 46.5527 28.4179 46.6504 27.4999C46.7578 26.4648 46.2207 25.4492 45.3125 24.9706L44.7754 24.6874L34.0332 24.746L23.291 24.8046L23.7305 24.4433C25.2246 23.1835 27.1094 21.2597 27.7539 20.332C28.4277 19.3652 28.9063 17.9687 28.9063 16.9921C28.9063 15.6249 28.1445 14.082 27.2363 13.6132C26.8652 13.4277 26.0938 13.4472 25.7129 13.6523ZM26.8945 14.1992C27.0898 14.2773 27.334 14.5214 27.5488 14.8535C28.0957 15.6933 28.1738 15.9667 28.1641 17.041C28.1641 18.2128 27.9785 18.7597 27.2168 19.8925C26.5723 20.8593 24.375 23.0761 22.9785 24.1601C22.373 24.6386 21.875 25.0781 21.875 25.1464C21.875 25.2148 21.9336 25.3222 22.002 25.3808C22.0996 25.4589 25.0977 25.4687 33.1641 25.4101C39.2285 25.371 44.3652 25.371 44.5801 25.4199C46.2109 25.7519 46.5039 28.2226 44.9902 28.916C44.5996 29.0917 44.2285 29.1015 36.5039 29.1015C28.4473 29.1015 28.4277 29.1015 28.3203 29.3066C28.0664 29.7753 28.1348 29.7851 32.4219 29.7851C35.1172 29.7851 36.5039 29.8242 36.7285 29.8925C37.168 30.039 37.7637 30.6152 37.9004 31.0351C38.1641 31.8261 37.7441 32.832 36.9922 33.2128C36.6016 33.4081 36.416 33.4277 33.3496 33.4667C31.582 33.4863 30.0684 33.5253 30 33.5546C29.9316 33.5742 29.8828 33.6913 29.9023 33.8085L29.9316 34.0331L32.7148 34.082C35.7422 34.1406 35.791 34.1503 36.3477 34.7363C36.8164 35.2343 36.9531 36.0058 36.6797 36.6503C36.5137 37.0703 35.9375 37.5585 35.4785 37.6855C35.2539 37.7538 33.9551 37.7929 32.2949 37.7929C29.7852 37.7929 29.4824 37.8124 29.4238 37.9492C29.3945 38.037 29.4043 38.1835 29.4629 38.2714C29.5508 38.4081 29.8828 38.4374 31.8457 38.4765C34.4043 38.5351 34.5703 38.5742 35.0098 39.2382C35.6348 40.1953 35.2832 41.4257 34.2285 41.9042C33.8574 42.08 33.3887 42.0898 25.8691 42.0898H17.8906L15.332 41.5527C13.8965 41.2499 12.5195 41.0156 12.1973 41.0156H11.6211V32.7245V24.4433L12.1191 24.3749C13.6816 24.1699 16.377 23.0566 18.0664 21.9238C19.4727 20.9863 20.0684 20.4199 23.0762 17.246C25.4688 14.707 26.1426 14.082 26.4941 14.0624C26.5332 14.0624 26.709 14.121 26.8945 14.1992ZM10.6543 23.5253L10.8887 23.7109L10.918 32.5976L10.9375 41.4941L10.7031 41.7675L10.4688 42.041H7.4707H4.47266L4.23828 41.7675L4.00391 41.4941V32.6757C4.00391 23.8964 4.00391 23.8574 4.20898 23.5937L4.4043 23.3398H7.42188C10.2344 23.3398 10.4395 23.3495 10.6543 23.5253Z" fill="#49A9EF"/>
<path d="M15.2246 40.0488C15.0488 40.3906 15.2734 40.498 16.8066 40.8203C18.2227 41.1133 18.2617 41.1133 21.3184 41.1133C23.9941 41.1133 24.4238 41.0938 24.5508 40.957C24.7363 40.7715 24.7461 40.7031 24.5899 40.5469C24.502 40.459 23.6426 40.4297 21.3379 40.4297C18.2227 40.4297 18.1836 40.4297 16.8164 40.1367C16.0547 39.9707 15.4102 39.8438 15.3809 39.8438C15.3613 39.8438 15.293 39.9414 15.2246 40.0488Z" fill="#49A9EF"/>
<path d="M4.85352 25.9961C4.69727 26.1133 4.6875 26.4258 4.70703 29.7852C4.73633 33.3105 4.74609 33.4473 4.92188 33.4766C5.35156 33.5645 5.37109 33.3594 5.37109 29.6777C5.37109 26.6309 5.35156 26.1621 5.21484 26.0352C5.0293 25.8496 5.05859 25.8496 4.85352 25.9961Z" fill="#49A9EF"/>
<path d="M4.80469 34.4531C4.7168 34.5117 4.6875 34.8046 4.70703 35.5566C4.73633 36.4648 4.75586 36.5722 4.92188 36.6015C5.24414 36.6699 5.3711 36.3574 5.3711 35.5175C5.3711 34.5214 5.20508 34.2089 4.80469 34.4531Z" fill="#49A9EF"/>
<path d="M6.73828 37.4902C5.71289 38.0274 5.67383 39.5313 6.66015 40.1367C7.05078 40.3711 7.70508 40.3906 8.16406 40.1758C8.59375 39.9707 8.98437 39.3164 8.98437 38.8184C8.98437 37.7149 7.72461 36.9629 6.73828 37.4902ZM8.05664 38.2324C8.60351 38.7695 8.21289 39.6485 7.4414 39.6485C6.94336 39.6485 6.62109 39.3164 6.62109 38.8086C6.62109 38.0664 7.53906 37.7051 8.05664 38.2324Z" fill="#49A9EF"/>
</svg>
