<svg width="50" height="50" viewBox="0 0 50 50" fill="none" xmlns="http://www.w3.org/2000/svg">
<path d="M23.6523 3.42773C21.9824 3.64258 19.7852 4.54102 18.4473 5.55664C16.3574 7.14844 14.7461 9.47266 14.0039 11.9629C13.7598 12.7734 13.7402 12.9883 13.7305 14.668L13.7207 16.4844L13.3789 16.543C12.8223 16.6309 12.4121 16.9531 12.1875 17.4512C12.0117 17.8418 11.9922 18.0371 12.041 18.8867C12.1094 20.293 12.2949 20.8105 12.9785 21.4941C13.5449 22.0605 14.1895 22.3633 14.834 22.3633C15.0586 22.3633 15.1465 22.4805 15.5762 23.4082C16.4355 25.2441 17.7832 27.0605 19.0527 28.0859C19.6582 28.5742 20.6445 29.2578 20.8301 29.3262C21.0645 29.4043 20.1563 30.498 19.5703 30.8691C18.9551 31.25 18.6523 31.2793 15.2344 31.3379L11.8652 31.4063L10.8984 31.7383C8.61328 32.5195 6.85547 34.043 5.81055 36.1621C4.98047 37.8418 4.95118 38.0762 4.90235 42.5098C4.87305 45.4395 4.89258 46.4355 4.98047 46.543C5.08789 46.6602 7.74414 46.6797 25 46.6797C42.2559 46.6797 44.9121 46.6602 45.0195 46.543C45.1074 46.4355 45.127 45.4395 45.0977 42.5098C45.0586 38.877 45.0391 38.5742 44.8438 37.8418C44.043 34.9414 42.002 32.7539 39.1406 31.7578L38.1348 31.4063L34.7656 31.3379C30.9375 31.2695 30.8203 31.25 29.9902 30.5078C29.4043 29.9805 29.0039 29.375 29.1895 29.3164C29.2578 29.2969 29.6484 29.0527 30.0586 28.7793C30.9766 28.1641 32.207 26.9629 32.9395 25.9668C33.5352 25.1563 34.4434 23.5645 34.7266 22.832C34.9023 22.3926 34.9316 22.3633 35.2637 22.3633C35.9961 22.3633 36.6211 22.0801 37.2168 21.4941C37.9004 20.8008 38.0762 20.3027 38.1543 18.8477C38.1934 17.9004 38.1836 17.793 37.9688 17.3828C37.7148 16.9043 37.0898 16.5039 36.6016 16.5039H36.3281L36.3379 14.9609C36.3477 12.6563 35.9375 11.0742 34.8438 9.23828C32.373 5.09766 28.0566 2.85156 23.6523 3.42773ZM26.4258 4.11133C27.998 4.32617 29.9219 5.13672 31.2598 6.14258C32.627 7.17773 34.082 8.97461 34.7656 10.4688C35.3613 11.8066 35.8691 14.0723 35.6055 14.2383C35.3516 14.3945 32.3535 14.375 31.3477 14.2188C28.5742 13.7793 26.1328 12.4707 24.7168 10.6641C24.3652 10.2246 24.0137 9.86328 23.9258 9.86328C23.8281 9.86328 23.5645 10.0098 23.3301 10.1953C21.8262 11.3379 19.8828 12.4219 18.6035 12.8125C17.3242 13.2129 14.7754 13.0469 14.5898 12.5488C14.5117 12.3438 15.0195 10.957 15.5176 9.99024C16.6309 7.88086 18.2422 6.26953 20.3613 5.16602C22.2559 4.16992 24.3066 3.81836 26.4258 4.11133ZM24.1113 10.9863C24.4922 11.5527 25.6934 12.627 26.4941 13.125C27.9785 14.0527 29.834 14.6973 31.709 14.9512C32.2363 15.0195 33.1836 15.0488 34.1504 15.0098L35.7324 14.9609L35.6836 15.6152C35.5078 17.9199 35.2344 19.3848 34.668 21.1133C33.9453 23.3008 32.832 25.2344 31.4453 26.6992C30.4883 27.7051 29.6484 28.3398 28.5645 28.8672C27.3535 29.4531 26.7188 29.6094 25.2832 29.6582C24.2383 29.707 23.9355 29.6777 23.1836 29.4922C18.0273 28.2129 14.3555 22.0801 14.3555 14.7266C14.3555 13.3691 14.3652 13.2617 14.5313 13.3301C15.7031 13.8477 17.4023 13.8867 18.8477 13.4277C19.9512 13.0762 21.709 12.1582 22.8516 11.3379C23.3594 10.9668 23.7988 10.6543 23.8281 10.6543C23.8574 10.6543 23.9844 10.8008 24.1113 10.9863ZM13.9941 18.3594C14.0918 18.9746 14.3164 19.9707 14.4922 20.5762C14.8535 21.8359 14.8438 21.8555 13.9844 21.4258C13.3496 21.1133 13.0371 20.7129 12.8418 19.9707C12.666 19.2773 12.6465 18.0176 12.8223 17.6758C12.959 17.4023 13.3398 17.1777 13.6133 17.207C13.7793 17.2363 13.8281 17.4023 13.9941 18.3594ZM37.2461 17.4805C37.4316 17.666 37.4512 17.793 37.4512 18.7793C37.4414 19.9121 37.2754 20.5371 36.8359 21.0352C36.6113 21.2793 35.7617 21.6797 35.4395 21.6797H35.1855L35.4199 20.9668C35.625 20.3418 36.0059 18.6133 36.1816 17.5391L36.2402 17.168L36.6406 17.2168C36.8652 17.2461 37.1289 17.3633 37.2461 17.4805ZM22.6563 30.0488C24.2188 30.5078 26.1719 30.459 27.7539 29.9219C28.1445 29.7949 28.457 29.6875 28.4668 29.6875C28.5156 29.6875 29.1211 30.6836 29.0918 30.7031C29.0723 30.7227 28.1445 31.377 27.0313 32.168L25.0098 33.5938L22.9785 32.168C21.8652 31.377 20.9375 30.7227 20.918 30.7129C20.9082 30.7031 21.0352 30.459 21.2012 30.1855C21.4258 29.8242 21.5625 29.6973 21.6699 29.7363C21.7578 29.7754 22.1973 29.9121 22.6563 30.0488ZM22.3242 32.5195C23.3984 33.2812 24.2676 33.9355 24.2676 33.9844C24.2676 34.0332 23.7598 34.3945 23.125 34.7949L21.9922 35.5273L20.7129 33.6133L19.4434 31.6992L19.9023 31.4355C20.1563 31.2793 20.3711 31.1621 20.3711 31.1621C20.3809 31.1523 21.2598 31.7676 22.3242 32.5195ZM30.0293 31.3867C30.2246 31.5234 30.4199 31.6406 30.4785 31.6602C30.5371 31.6797 30 32.5586 29.2969 33.6035L28.0078 35.5176L26.8652 34.7949C26.2402 34.3945 25.7324 34.0332 25.7324 33.9844C25.7324 33.916 29.5508 31.1523 29.6484 31.1523C29.668 31.1523 29.834 31.2598 30.0293 31.3867ZM20.2148 34.082C20.9961 35.2637 21.6992 36.25 21.7871 36.2793C21.875 36.3086 22.168 36.1914 22.4414 36.0254L22.9395 35.7227L23.4375 36.084C23.8184 36.3672 23.916 36.4844 23.877 36.6504C23.7598 37.1582 22.2656 44.4727 22.2656 44.541C22.2656 44.5801 22.6367 44.9023 23.0957 45.2637C23.5547 45.6152 23.9258 45.9277 23.9258 45.957C23.9258 45.9766 21.2012 45.9961 17.8711 45.9961H11.8164L11.7969 42.6953L11.7676 39.4043H11.5234H11.2793L11.25 42.7051L11.2305 45.9961H8.38868H5.55664L5.58594 42.3047C5.625 38.3594 5.63477 38.2715 6.19141 36.8945C7.07032 34.7363 9.07227 32.9492 11.3867 32.2754C12.3145 32.0117 12.998 31.9629 15.9668 31.9531L18.7988 31.9336L20.2148 34.082ZM38.2617 32.168C41.4258 32.9785 43.7598 35.5078 44.3262 38.7109C44.3848 39.043 44.4336 40.7324 44.4336 42.6465V45.9961H41.6016H38.7695L38.75 42.7051L38.7207 39.4043H38.4766H38.2324L38.2031 42.7051L38.1836 45.9961H32.1289C28.7988 45.9961 26.0742 45.9766 26.0742 45.957C26.0742 45.9375 26.4453 45.625 26.9043 45.2637C27.3633 44.9121 27.7344 44.5801 27.7344 44.541C27.7344 44.4727 26.2402 37.168 26.123 36.6504C26.084 36.4844 26.1816 36.3672 26.5625 36.084L27.0605 35.7227L27.5586 36.0254C27.832 36.1914 28.125 36.3086 28.2129 36.2793C28.3008 36.25 29.0039 35.2637 29.7852 34.0723L31.2012 31.9238L34.4238 31.9629C36.9727 32.002 37.7734 32.041 38.2617 32.168ZM25.8105 34.9023L26.4648 35.332L25.7813 35.8301C25.4102 36.1035 25.0586 36.3281 25 36.3281C24.8535 36.3281 23.6816 35.4492 23.6816 35.332C23.6816 35.2148 24.8047 34.4824 25 34.4824C25.0781 34.4824 25.4395 34.668 25.8105 34.9023ZM25.2441 37.0313C25.459 36.9336 25.4883 36.9434 25.5371 37.1387C25.5664 37.2559 25.8984 38.8477 26.2695 40.6738C26.6406 42.5 26.9727 44.0723 26.9922 44.1602C27.0215 44.2773 26.7285 44.5605 26.0156 45.1172L25 45.9082L23.9844 45.1172C23.418 44.6777 22.9785 44.2676 22.998 44.209C23.0176 44.1406 23.3496 42.5488 23.7305 40.6738C24.1113 38.7891 24.4434 37.1777 24.4727 37.0898C24.5117 36.9531 24.5605 36.9434 24.7656 37.0313C24.9414 37.1094 25.0684 37.1094 25.2441 37.0313Z" fill="#49A9EF"/>
<path d="M19.9707 17.1093C19.541 17.2558 19.0527 17.7636 18.9844 18.1347C18.7402 19.4335 20.9961 20.1757 22.0898 19.1601C22.793 18.5058 22.5879 17.6171 21.6309 17.1776C21.2012 16.9823 20.4395 16.9433 19.9707 17.1093ZM21.4941 17.8417C22.2266 18.2714 21.7676 18.9452 20.752 18.9452C20.0098 18.9452 19.541 18.5937 19.6777 18.1542C19.8242 17.705 20.9375 17.5194 21.4941 17.8417Z" fill="#49A9EF"/>
<path d="M28.3594 17.168C27.8027 17.4316 27.5391 17.8027 27.5391 18.3105C27.5391 19.082 28.2617 19.6191 29.2871 19.6289C30.9277 19.6289 31.6797 18.0664 30.4102 17.2852C29.9121 16.9727 28.9062 16.9141 28.3594 17.168ZM30.0586 17.8711C30.2637 17.998 30.3711 18.1348 30.3711 18.291C30.3711 18.6816 30.0391 18.8867 29.3457 18.9258C28.75 18.9648 28.7012 18.9551 28.4082 18.6621C28.125 18.3789 28.1152 18.3398 28.252 18.1348C28.5645 17.6465 29.4727 17.5195 30.0586 17.8711Z" fill="#49A9EF"/>
<path d="M21.9336 23.8867C21.7285 24.0918 21.7285 24.1406 22.0508 24.541C22.4414 25.0195 22.832 25.3418 23.4473 25.6543C23.9355 25.9082 24.0625 25.9277 25.0977 25.9277C26.1328 25.9277 26.2598 25.9082 26.7578 25.6543C27.3047 25.3711 27.8906 24.873 28.2324 24.3945C28.3887 24.1797 28.4082 24.082 28.3203 23.9258C28.1641 23.6328 28.0371 23.6816 27.5 24.248C27.2266 24.5312 26.8066 24.8633 26.5625 24.9805C25.1953 25.6348 23.7695 25.3613 22.6953 24.248C22.4316 23.9648 22.1777 23.7305 22.1484 23.7305C22.1094 23.7305 22.0117 23.7988 21.9336 23.8867Z" fill="#49A9EF"/>
</svg>
