<svg width="151" height="151" viewBox="0 0 151 151" fill="none" xmlns="http://www.w3.org/2000/svg">
<path d="M75.453 61.3059C72.5968 61.3091 69.8586 62.4452 67.839 64.4648C65.8194 66.4845 64.6835 69.2227 64.6803 72.0789V76.0612H58.4518C57.6128 76.0612 56.8032 76.3705 56.178 76.9301C55.5528 77.4896 55.1559 78.26 55.0631 79.0939L52.0249 106.41C51.8883 107.638 52.0123 108.881 52.3889 110.058C52.7654 111.235 53.3859 112.319 54.21 113.24C55.034 114.16 56.043 114.897 57.1711 115.401C58.2992 115.906 59.521 116.166 60.7567 116.166H90.0331C91.2834 116.166 92.5197 115.903 93.6611 115.392C94.8026 114.882 95.8235 114.137 96.6573 113.205C97.4912 112.273 98.1191 111.176 98.5 109.985C98.881 108.794 99.0065 107.537 98.8682 106.294L95.8428 79.0937C95.7501 78.2599 95.3532 77.4895 94.728 76.9299C94.1028 76.3704 93.2932 76.0611 92.4542 76.0611H86.226V72.0789C86.2227 69.2227 85.0867 66.4844 83.0671 64.4648C81.0474 62.4452 78.3092 61.3092 75.453 61.3059ZM68.2194 72.0789C68.2194 70.1604 68.9815 68.3204 70.3381 66.9638C71.6947 65.6072 73.5346 64.8451 75.4531 64.8451C77.3717 64.8451 79.2116 65.6072 80.5682 66.9638C81.9248 68.3204 82.6869 70.1604 82.6869 72.0789V76.0612H68.2194V72.0789ZM92.3384 79.6004L95.3511 106.685C95.4343 107.433 95.3588 108.19 95.1295 108.907C94.9002 109.624 94.5222 110.284 94.0204 110.845C93.5185 111.406 92.904 111.854 92.217 112.161C91.53 112.469 90.7859 112.627 90.0333 112.627H60.7568C60.0189 112.627 59.2893 112.472 58.6156 112.171C57.9419 111.869 57.3394 111.429 56.8473 110.88C56.3552 110.33 55.9846 109.682 55.7597 108.979C55.5349 108.277 55.4608 107.534 55.5424 106.801L58.5678 79.6002H64.6804V84.2259H68.2194V79.6003H82.687V84.2259H86.2261V79.6003L92.3384 79.6004Z" fill="#49A9EF"/>
<path d="M125.365 22.2075H117.089V22.2105H111.17V22.2075H82.2297C80.7648 22.2096 79.3606 22.7927 78.325 23.8288C77.2894 24.8649 76.7071 26.2695 76.7058 27.7344V45.5004C76.7072 46.965 77.2897 48.3692 78.3253 49.4049C79.3609 50.4405 80.7651 51.0229 82.2297 51.0243H83.952V55.7549C83.9505 56.3207 84.1189 56.874 84.4355 57.3431C84.752 57.8121 85.2021 58.1753 85.7275 58.3856C86.0667 58.5229 86.4291 58.594 86.7951 58.595C87.1753 58.5941 87.5515 58.5166 87.9011 58.3671C88.2508 58.2176 88.5667 57.9992 88.8301 57.725L93.7405 52.6405C94.2342 52.131 94.8249 51.7255 95.4778 51.448C96.1307 51.1704 96.8326 51.0263 97.542 51.0243H125.365C126.83 51.023 128.234 50.4407 129.271 49.4051C130.307 48.3696 130.89 46.9653 130.892 45.5004V27.7344C130.89 26.2692 130.307 24.8645 129.271 23.8285C128.235 22.7924 126.83 22.2095 125.365 22.2075ZM127.353 45.5004C127.352 46.0271 127.142 46.5319 126.769 46.904C126.397 47.2761 125.892 47.4852 125.365 47.4853H97.542C96.3573 47.4879 95.1851 47.7278 94.0945 48.1907C93.004 48.6537 92.0172 49.3304 91.1924 50.1809L87.4911 54.0148V50.4168C87.4901 49.6396 87.181 48.8945 86.6314 48.345C86.0819 47.7954 85.3368 47.4862 84.5596 47.4853H82.2297C81.7035 47.4846 81.1991 47.2752 80.827 46.9032C80.4549 46.5311 80.2456 46.0266 80.2449 45.5004V27.7344C80.2449 27.2077 80.454 26.7026 80.8261 26.3299C81.1982 25.9572 81.703 25.7474 82.2297 25.7466H125.365C125.892 25.7468 126.398 25.9563 126.77 26.3291C127.143 26.7018 127.353 27.2072 127.353 27.7344V45.5004Z" fill="#49A9EF"/>
<path d="M93.6197 34.094H91.8903C91.6837 34.094 91.4825 34.0286 91.3153 33.9072C91.1482 33.7857 91.0238 33.6145 90.9599 33.4181L90.4255 31.7733C90.3617 31.5769 90.2373 31.4057 90.0701 31.2842C89.903 31.1628 89.7017 31.0974 89.4952 31.0974C89.2886 31.0974 89.0873 31.1628 88.9202 31.2842C88.753 31.4057 88.6286 31.5769 88.5648 31.7733L88.0304 33.4181C87.9666 33.6145 87.8422 33.7858 87.6751 33.9072C87.508 34.0286 87.3067 34.094 87.1001 34.094H85.3708C85.1642 34.094 84.963 34.1594 84.7958 34.2808C84.6287 34.4022 84.5043 34.5734 84.4405 34.7699C84.3766 34.9663 84.3766 35.1779 84.4404 35.3744C84.5042 35.5709 84.6286 35.7421 84.7957 35.8635L86.1948 36.88C86.362 37.0014 86.4863 37.1727 86.5501 37.3691C86.614 37.5656 86.614 37.7772 86.5501 37.9737L86.0157 39.6184C85.9519 39.8149 85.9519 40.0265 86.0157 40.223C86.0796 40.4195 86.204 40.5907 86.3711 40.7121C86.5382 40.8335 86.7395 40.8989 86.9461 40.8989C87.1527 40.8989 87.354 40.8335 87.5211 40.7121L88.9201 39.6956C89.0873 39.5742 89.2886 39.5088 89.4951 39.5088C89.7017 39.5088 89.903 39.5742 90.0702 39.6956L91.4692 40.7121C91.6363 40.8335 91.8376 40.8989 92.0442 40.8989C92.2507 40.8989 92.452 40.8335 92.6191 40.7121C92.7863 40.5907 92.9107 40.4194 92.9745 40.223C93.0383 40.0265 93.0383 39.8149 92.9745 39.6184L92.4401 37.9737C92.3762 37.7772 92.3762 37.5656 92.4401 37.3691C92.5039 37.1726 92.6283 37.0014 92.7954 36.88L94.1946 35.8635C94.3617 35.7421 94.486 35.5709 94.5498 35.3744C94.6136 35.178 94.6136 34.9664 94.5498 34.77C94.486 34.5735 94.3616 34.4023 94.1945 34.2809C94.0274 34.1595 93.8262 34.0941 93.6197 34.094Z" fill="#49A9EF"/>
<path d="M107.922 34.094H106.193C105.987 34.094 105.785 34.0286 105.618 33.9072C105.451 33.7858 105.327 33.6145 105.263 33.4181L104.728 31.7733C104.665 31.5769 104.54 31.4057 104.373 31.2842C104.206 31.1628 104.005 31.0974 103.798 31.0974C103.592 31.0974 103.39 31.1628 103.223 31.2842C103.056 31.4057 102.932 31.5769 102.868 31.7733L102.333 33.4181C102.269 33.6145 102.145 33.7857 101.978 33.9072C101.811 34.0286 101.61 34.094 101.403 34.094H99.6736C99.467 34.094 99.2658 34.1594 99.0987 34.2808C98.9316 34.4023 98.8072 34.5734 98.7433 34.7699C98.6795 34.9663 98.6795 35.1779 98.7433 35.3744C98.8071 35.5708 98.9314 35.7421 99.0985 35.8635L100.498 36.88C100.665 37.0014 100.789 37.1726 100.853 37.3691C100.917 37.5656 100.917 37.7772 100.853 37.9737L100.319 39.6184C100.255 39.8148 100.255 40.0265 100.319 40.223C100.382 40.4194 100.507 40.5907 100.674 40.7121C100.841 40.8335 101.042 40.8989 101.249 40.8989C101.456 40.8989 101.657 40.8335 101.824 40.7121L103.223 39.6956C103.39 39.5742 103.591 39.5088 103.798 39.5088C104.005 39.5088 104.206 39.5742 104.373 39.6956L105.772 40.7121C105.939 40.8335 106.14 40.8989 106.347 40.8989C106.554 40.8989 106.755 40.8335 106.922 40.7121C107.089 40.5907 107.213 40.4195 107.277 40.223C107.341 40.0265 107.341 39.8149 107.277 39.6184L106.743 37.9737C106.679 37.7772 106.679 37.5656 106.743 37.3691C106.807 37.1726 106.931 37.0014 107.098 36.88L108.497 35.8635C108.664 35.7421 108.789 35.5709 108.853 35.3744C108.916 35.178 108.916 34.9664 108.853 34.7699C108.789 34.5735 108.664 34.4023 108.497 34.2809C108.33 34.1594 108.129 34.094 107.922 34.094Z" fill="#49A9EF"/>
<path d="M122.225 34.094H120.496C120.29 34.094 120.088 34.0286 119.921 33.9072C119.754 33.7858 119.63 33.6145 119.566 33.4181L119.031 31.7733C118.968 31.5769 118.843 31.4057 118.676 31.2842C118.509 31.1628 118.308 31.0974 118.101 31.0974C117.894 31.0974 117.693 31.1628 117.526 31.2842C117.359 31.4057 117.235 31.5769 117.171 31.7733L116.636 33.4181C116.572 33.6145 116.448 33.7857 116.281 33.9072C116.114 34.0286 115.913 34.094 115.706 34.094H113.977C113.77 34.094 113.569 34.1594 113.402 34.2808C113.235 34.4022 113.11 34.5734 113.046 34.7698C112.982 34.9663 112.982 35.1779 113.046 35.3744C113.11 35.5709 113.234 35.7421 113.402 35.8635L114.801 36.88C114.968 37.0014 115.092 37.1726 115.156 37.3691C115.22 37.5656 115.22 37.7772 115.156 37.9737L114.622 39.6184C114.558 39.8148 114.558 40.0265 114.622 40.2229C114.685 40.4194 114.81 40.5906 114.977 40.712C115.144 40.8335 115.345 40.8989 115.552 40.8989C115.758 40.8989 115.96 40.8335 116.127 40.7121L117.526 39.6956C117.693 39.5742 117.894 39.5088 118.101 39.5088C118.308 39.5088 118.509 39.5742 118.676 39.6956L120.075 40.7121C120.242 40.8335 120.443 40.8989 120.65 40.8989C120.857 40.8989 121.058 40.8335 121.225 40.7121C121.392 40.5907 121.517 40.4194 121.58 40.223C121.644 40.0265 121.644 39.8148 121.58 39.6184L121.046 37.9737C120.982 37.7772 120.982 37.5656 121.046 37.3691C121.11 37.1726 121.234 37.0014 121.401 36.88L122.8 35.8635C122.967 35.7421 123.092 35.5709 123.156 35.3744C123.219 35.178 123.219 34.9664 123.156 34.7699C123.092 34.5734 122.967 34.4022 122.8 34.2808C122.633 34.1594 122.432 34.094 122.225 34.094Z" fill="#49A9EF"/>
<path d="M109.584 126.449C109.584 127.231 109.273 127.981 108.72 128.535C108.167 129.088 107.417 129.398 106.634 129.398H44.3654C43.5832 129.398 42.833 129.088 42.28 128.535C41.7269 127.981 41.4162 127.231 41.4162 126.449V27.0788C41.4162 26.2966 41.7269 25.5465 42.28 24.9934C42.833 24.4403 43.5832 24.1296 44.3654 24.1296H73.916C74.6197 22.5088 75.7812 21.1286 77.258 20.1585C78.7348 19.1884 80.4628 18.6705 82.2297 18.6684H111.17L113.55 18.6704V18.6684H114.071C113.997 16.1621 112.95 13.7831 111.151 12.0363C109.352 10.2895 106.943 9.31229 104.436 9.31201H46.5642C45.2979 9.31201 44.044 9.56142 42.8742 10.046C41.7043 10.5306 40.6413 11.2408 39.7459 12.1362C38.8505 13.0316 38.1402 14.0946 37.6556 15.2645C37.1711 16.4344 36.9216 17.6882 36.9216 18.9545V134.73C36.9216 135.997 37.1711 137.251 37.6556 138.42C38.1402 139.59 38.8505 140.653 39.7459 141.549C40.6413 142.444 41.7043 143.154 42.8742 143.639C44.044 144.123 45.2979 144.373 46.5642 144.373H104.436C105.702 144.373 106.956 144.123 108.126 143.639C109.296 143.154 110.359 142.444 111.254 141.549C112.149 140.653 112.86 139.59 113.344 138.42C113.829 137.251 114.078 135.997 114.078 134.73V54.5634H109.584L109.584 126.449ZM82.2402 138.412H68.7438V134.873H82.2402V138.412Z" fill="#49A9EF"/>
</svg>
