<svg width="10" height="17" viewBox="0 0 10 17" fill="none" xmlns="http://www.w3.org/2000/svg">
<g clip-path="url(#clip0_3818_3097)">
<path d="M7.76892 0.890976C6.08647 -0.296522 3.9126 -0.296522 2.23113 0.890976C0.0641645 2.41895 -0.62954 5.39658 0.617747 7.81648L5.00002 16.3201L9.3823 7.81648C10.6296 5.39658 9.93687 2.41895 7.76892 0.890976ZM8.5169 7.31725L5.00101 14.1404L1.48414 7.31725C0.483545 5.37464 1.0391 2.98607 2.77879 1.75993C3.45374 1.28368 4.22639 1.04451 5.00002 1.04451C5.77366 1.04451 6.5463 1.28263 7.22126 1.75888C8.96095 2.98607 9.51749 5.37464 8.5169 7.31725Z" fill="#49A9EF"/>
<path d="M5.00002 2.17551C3.64024 2.17551 2.53308 3.34734 2.53308 4.78655C2.53308 6.22575 3.64024 7.39758 5.00002 7.39758C6.3598 7.39758 7.46697 6.22575 7.46697 4.78655C7.46697 3.34734 6.36079 2.17551 5.00002 2.17551ZM5.00002 6.35316C4.18396 6.35316 3.51986 5.65027 3.51986 4.78655C3.51986 3.92282 4.18396 3.21993 5.00002 3.21993C5.81609 3.21993 6.48019 3.92282 6.48019 4.78655C6.48019 5.65027 5.81609 6.35316 5.00002 6.35316Z" fill="#49A9EF"/>
</g>
<defs>
<clipPath id="clip0_3818_3097">
<rect width="10" height="16.32" fill="white"/>
</clipPath>
</defs>
</svg>
