<svg width="70" height="70" viewBox="0 0 70 70" fill="none" xmlns="http://www.w3.org/2000/svg">
<path d="M34.9993 0C15.7014 0 0 15.7001 0 34.9993C0 54.2986 15.7001 70 35.0006 70C54.2999 70 70.0013 54.2999 70.0013 34.9993C70.0003 15.7014 54.2999 0 35.0006 0H34.9993ZM35.8582 68.258V60.6221C35.8582 60.1482 35.4733 59.7632 34.9993 59.7632C34.5254 59.7632 34.1405 60.1482 34.1405 60.6221V68.258C16.4719 67.8071 2.19057 53.5264 1.74035 35.8579H9.37628C9.8502 35.8579 10.2352 35.4729 10.2352 34.999C10.2352 34.5251 9.8502 34.1401 9.37628 34.1401H1.74035C2.19126 16.4716 16.4719 2.19024 34.1405 1.74002V9.37596C34.1405 9.84988 34.5254 10.2348 34.9993 10.2348C35.4733 10.2348 35.8582 9.84988 35.8582 9.37596V1.74002C53.5267 2.19093 67.8081 16.4716 68.2583 34.1401H60.6224C60.1485 34.1401 59.7635 34.5251 59.7635 34.999C59.7635 35.4729 60.1485 35.8579 60.6224 35.8579H68.2583C67.8074 53.5264 53.5267 67.8078 35.8582 68.258Z" fill="#89A386"/>
<path d="M34.9994 28.9158C33.9401 28.9158 32.9585 29.2123 32.0895 29.6899L21.6648 17.2544C21.3591 16.8924 20.8197 16.8444 20.4542 17.148C20.0912 17.4527 20.0431 17.9941 20.3478 18.3587L30.6958 30.7025C29.5966 31.8043 28.9142 33.3236 28.9142 34.999C28.9142 37.0511 29.9413 38.8604 31.502 39.9621L25.8222 46.3076C25.5062 46.6614 25.5359 47.2033 25.8886 47.5203C26.0538 47.667 26.2572 47.7391 26.4612 47.7391C26.6969 47.7391 26.9321 47.643 27.1013 47.4528L33.1023 40.7488C33.7025 40.9482 34.3324 41.0822 34.9985 41.0822C38.3538 41.0822 41.0827 38.3531 41.0827 34.9979C41.0837 31.6447 38.3547 28.9156 34.9995 28.9156L34.9994 28.9158ZM34.9994 39.3656C32.5924 39.3656 30.6329 37.4076 30.6329 34.9992C30.6329 33.5805 31.3236 32.331 32.3748 31.533C32.4055 31.5136 32.4402 31.5033 32.4688 31.4793C32.4929 31.4589 32.5031 31.4313 32.5241 31.4093C33.2286 30.9215 34.0793 30.6327 34.999 30.6327C37.4074 30.6327 39.3654 32.5908 39.3654 34.9992C39.3659 37.4076 37.4078 39.3656 34.9994 39.3656Z" fill="#89A386"/>
</svg>
