<svg width="65" height="70" viewBox="0 0 65 70" fill="none" xmlns="http://www.w3.org/2000/svg">
<path d="M63.4037 63.4318H58.9084V3.28437C58.9084 1.47345 57.4361 0 55.6251 0H8.65358C6.8432 0 5.36921 1.47345 5.36921 3.28437V63.4318H0.874992C0.392183 63.4318 0 63.824 0 64.3068V69.125C0 69.6078 0.392183 70 0.874992 70H63.4024C63.8852 70 64.2774 69.6078 64.2774 69.125V64.3068C64.2779 63.8235 63.8857 63.4318 63.4029 63.4318H63.4037ZM7.11893 3.28437C7.11893 2.43854 7.80747 1.74998 8.65332 1.74998H55.6249C56.4707 1.74998 57.1576 2.43852 57.1576 3.28437V63.4318H44.3056V44.5373C44.3056 44.0545 43.9135 43.6623 43.4307 43.6623H20.8469C20.3641 43.6623 19.9719 44.0545 19.9719 44.5373V63.4318H7.11787L7.11893 3.28437ZM21.7228 63.4318V45.412H31.2639V63.4318H21.7228ZM33.0139 45.412H42.5559V63.4318H33.0139V45.412ZM62.5283 68.2504H1.75018V65.1822H62.5283V68.2504Z" fill="#89A386"/>
<path d="M15.1279 18.812H26.5705C27.0533 18.812 27.4454 18.4198 27.4454 17.937V6.59594C27.4454 6.11313 27.0533 5.72095 26.5705 5.72095H15.1279C14.6451 5.72095 14.2529 6.11313 14.2529 6.59594V17.937C14.2529 18.4198 14.6451 18.812 15.1279 18.812ZM16.0029 7.47093H25.6955V17.062H16.0029V7.47093Z" fill="#89A386"/>
<path d="M37.7097 18.812H49.1523C49.6351 18.812 50.0273 18.4198 50.0273 17.937V6.59594C50.0273 6.11313 49.6351 5.72095 49.1523 5.72095H37.7097C37.2269 5.72095 36.8347 6.11313 36.8347 6.59594V17.937C36.8347 18.4198 37.2264 18.812 37.7097 18.812ZM38.5847 7.47093H48.2773V17.062H38.5847V7.47093Z" fill="#89A386"/>
<path d="M26.5705 38.5839C27.0533 38.5839 27.4454 38.1917 27.4454 37.7089V26.3678C27.4454 25.885 27.0533 25.4928 26.5705 25.4928H15.1279C14.6451 25.4928 14.2529 25.885 14.2529 26.3678V37.7089C14.2529 38.1917 14.6451 38.5839 15.1279 38.5839H26.5705ZM16.0028 27.2438H25.6954V36.835H16.0028V27.2438Z" fill="#89A386"/>
<path d="M37.7097 38.5839H49.1523C49.6351 38.5839 50.0273 38.1917 50.0273 37.7089V26.3678C50.0273 25.885 49.6351 25.4928 49.1523 25.4928H37.7097C37.2269 25.4928 36.8347 25.885 36.8347 26.3678V37.7089C36.8347 38.1922 37.2264 38.5839 37.7097 38.5839ZM38.5847 27.2438H48.2773V36.835H38.5847V27.2438Z" fill="#89A386"/>
</svg>
