<svg width="49" height="70" viewBox="0 0 49 70" fill="none" xmlns="http://www.w3.org/2000/svg">
<path d="M12.6561 39.7668V50.595C12.6561 51.0606 13.0343 51.4388 13.4999 51.4388C13.9654 51.4388 14.3436 51.0606 14.3436 50.595V39.7668C14.3436 39.3013 13.9654 38.9231 13.4999 38.9231C13.0338 38.9231 12.6561 39.3013 12.6561 39.7668Z" fill="#89A386"/>
<path d="M46.8459 7.82649C41.0601 -1.6788 33.4179 -0.451325 24.567 0.967461C20.7767 1.57517 16.8542 2.20145 12.6812 2.0789C12.2322 2.06333 11.8274 2.43096 11.8128 2.89653C11.7983 3.3621 12.1649 3.75133 12.6305 3.76489C16.9718 3.89296 20.9665 3.25311 24.8347 2.63336C33.4209 1.25417 40.208 0.166332 45.4036 8.70386C47.0223 11.3632 47.3362 13.5986 46.3362 15.3469C43.1536 20.9121 28.2231 21.3004 21.9501 21.2024C19.1532 21.1617 16.9177 22.018 15.3126 23.7507C12.8874 26.3674 12.6171 30.2204 12.6271 31.935C5.59041 32.3886 0 38.2406 0 45.3913V55.7976C0 63.2417 6.05597 69.2976 13.5 69.2976C20.944 69.2976 27 63.2417 27 55.7976V45.3913C27 38.223 21.3795 32.3568 14.3157 31.9325C14.3091 30.4634 14.5296 27.0779 16.5501 24.8992C17.8167 23.5321 19.6313 22.8571 21.9255 22.8913C30.0864 23.0164 44.3034 22.3042 47.8031 16.1866C49.13 13.8638 48.8081 11.0513 46.8459 7.82687L46.8459 7.82649ZM25.3127 45.3912V55.7975C25.3127 62.3115 20.0141 67.61 13.5002 67.61C6.98626 67.61 1.68771 62.3115 1.68771 55.7975V45.3912C1.68771 38.8773 6.98626 33.5787 13.5002 33.5787C20.0136 33.5787 25.3127 38.8773 25.3127 45.3912Z" fill="#89A386"/>
</svg>
