<svg width="69" height="53" viewBox="0 0 69 53" fill="none" xmlns="http://www.w3.org/2000/svg">
<path d="M65.2989 0H3.22096C1.44422 0 0 1.44422 0 3.22096V49.779C0 51.5558 1.44422 53 3.22096 53H65.2989C67.0756 53 68.5198 51.5558 68.5198 49.779V3.22096C68.5198 1.44422 67.0756 0 65.2989 0ZM66.763 34.6994H47.3599C42.9619 34.6994 39.3837 31.0203 39.3837 26.5004C39.3837 21.9795 42.9618 18.3014 47.3599 18.3014H66.763V34.6994ZM65.2989 51.2432H3.22096C2.41414 51.2432 1.75679 50.5859 1.75679 49.779V3.22096C1.75679 2.41414 2.41407 1.75679 3.22096 1.75679H65.2989C66.1057 1.75679 66.763 2.41407 66.763 3.22096V16.5442H47.3599C41.9929 16.5442 37.6268 21.0102 37.6268 26.5001C37.6268 31.99 41.9934 36.456 47.3599 36.456H66.763V49.7793C66.763 50.5861 66.1057 51.2435 65.2989 51.2435V51.2432Z" fill="#89A386"/>
<path d="M43.2881 26.5003C43.2881 28.802 45.16 30.6735 47.4614 30.6735C49.7631 30.6735 51.6346 28.8016 51.6346 26.5003C51.6346 24.2 49.7627 22.327 47.4614 22.327C45.1596 22.327 43.2881 24.2 43.2881 26.5003ZM47.4614 24.085C48.7942 24.085 49.8777 25.1685 49.8777 26.5013C49.8777 27.8342 48.7942 28.9177 47.4614 28.9177C46.1285 28.9177 45.0451 27.8332 45.0451 26.5003C45.0451 25.1685 46.1285 24.085 47.4614 24.085Z" fill="#89A386"/>
</svg>
