<svg width="70" height="70" viewBox="0 0 70 70" fill="none" xmlns="http://www.w3.org/2000/svg">
<path d="M69.7637 34.4111L65.6946 30.1382L68.2454 24.8171C68.4426 24.406 68.282 23.9132 67.8811 23.6972L62.6885 20.8914L63.4705 15.0423C63.531 14.5916 63.2256 14.1713 62.7795 14.0895L56.9746 13.0255L55.909 7.22168C55.8288 6.77199 55.4075 6.45898 54.9568 6.52859L49.1088 7.30959L46.3019 2.11805C46.0869 1.71765 45.5951 1.55556 45.1819 1.75474L39.8598 4.30459L35.588 0.235521C35.2592 -0.0785071 34.7399 -0.0785071 34.4111 0.235521L30.1393 4.30459L24.8171 1.75474C24.4076 1.55657 23.9147 1.71815 23.6972 2.11907L20.8914 7.3106L15.0407 6.52961C14.5854 6.46 14.1698 6.77199 14.088 7.22168L13.0239 13.0255L7.22012 14.0895C6.77144 14.1713 6.46757 14.5905 6.52805 15.0423L7.30904 20.8914L2.11907 23.6972C1.71867 23.9137 1.55809 24.4066 1.75474 24.8171L4.30459 30.1382L0.235521 34.4111C-0.0785071 34.7414 -0.0785071 35.2592 0.235521 35.588L4.30459 39.8609L1.75474 45.182C1.55759 45.593 1.71815 46.0859 2.11805 46.3019L7.30959 49.1088L6.52859 54.9568C6.46813 55.4075 6.77199 55.8288 7.22066 55.9096L13.0245 56.9751L14.0885 62.78C14.1703 63.2271 14.586 63.5345 15.0413 63.471L20.8919 62.689L23.6978 67.8816C23.9142 68.282 24.4056 68.4426 24.8177 68.2459L30.1398 65.6952L34.4101 69.7642C34.5752 69.9212 34.7881 70 34.9995 70C35.2114 70 35.4243 69.9212 35.5879 69.7642L39.8598 65.6952L45.1819 68.2459C45.595 68.4431 46.0869 68.2825 46.3019 67.8816L49.1087 62.689L54.9568 63.471C55.4075 63.5361 55.8287 63.2261 55.9095 62.78L56.9751 56.9751L62.7799 55.9096C63.2271 55.8288 63.531 55.4085 63.471 54.9568L62.689 49.1088L67.8816 46.3019C68.2835 46.0854 68.4425 45.5915 68.2459 45.182L65.6951 39.8609L69.7642 35.588C70.0782 35.2592 70.0783 34.7399 69.7637 34.4111ZM64.0513 39.1098C63.8064 39.3669 63.7465 39.7485 63.8989 40.0681L66.3526 45.1865L61.3581 47.8862C61.0462 48.0549 60.8709 48.3984 60.9176 48.7511L61.6686 54.3771L56.0848 55.4005C55.7367 55.464 55.4633 55.7373 55.3998 56.0854L54.3764 61.6693L48.7504 60.9183C48.3998 60.868 48.0548 61.0448 47.8856 61.3588L45.1859 66.3533L40.066 63.8995C39.7474 63.7481 39.3658 63.8061 39.1077 64.052L34.9995 67.9667L30.8907 64.0525C30.7281 63.8975 30.5163 63.8167 30.3013 63.8167C30.1763 63.8167 30.0498 63.8442 29.9324 63.9001L24.8115 66.3538L22.1118 61.3593C21.9446 61.0473 21.6052 60.8675 21.248 60.9188L15.6204 61.6698L14.5971 56.0859C14.5336 55.7379 14.2602 55.4645 13.9106 55.401L8.32673 54.3776L9.07774 48.7516C9.12551 48.4 8.9502 48.056 8.63821 47.8868L3.64531 45.1866L6.09799 40.0681C6.25144 39.7485 6.19148 39.3669 5.94656 39.1098L2.03242 34.9995L5.94656 30.8883C6.19148 30.6312 6.25144 30.2496 6.09799 29.931L3.64531 24.8125L8.63977 22.1128C8.95176 21.9441 9.12707 21.6006 9.08032 21.249L8.32931 15.6214L13.9132 14.5981C14.2628 14.5346 14.5346 14.2612 14.5996 13.9116L15.623 8.32773L21.2506 9.07875C21.6032 9.12753 21.9462 8.95019 22.1144 8.6382L24.8141 3.64374L29.935 6.09642C30.2546 6.24886 30.6362 6.18839 30.8923 5.94499L34.9995 2.03241L39.1082 5.94655C39.3664 6.19248 39.749 6.25296 40.0666 6.09798L45.1864 3.6453L47.8861 8.63976C48.0548 8.95073 48.3993 9.12706 48.751 9.07929L54.377 8.32828L55.4003 13.9121C55.4638 14.2617 55.7372 14.5336 56.0853 14.5986L61.6691 15.622L60.9181 21.2496C60.8714 21.6012 61.0457 21.9452 61.3587 22.1134L66.3531 24.8131L63.8994 29.9329C63.747 30.2525 63.8075 30.6341 64.0519 30.8903L67.9665 34.9995L64.0513 39.1098Z" fill="#89A386"/>
<path d="M48.1858 23.9215L30.8161 44.2818L21.7546 35.6325C21.4142 35.3067 20.8746 35.3205 20.5468 35.6599C20.2211 36.0014 20.2338 36.542 20.5742 36.8677L30.2887 46.1405C30.2953 46.1472 30.3044 46.1487 30.3116 46.1553C30.3171 46.1599 30.3197 46.168 30.3253 46.1726C30.373 46.2137 30.4289 46.2361 30.4823 46.2635C30.5153 46.2818 30.5448 46.3077 30.5788 46.3204C30.6754 46.357 30.777 46.3773 30.8791 46.3773C30.9965 46.3773 31.1114 46.3524 31.2196 46.3047C31.2562 46.2889 31.2831 46.2579 31.3161 46.2376C31.3776 46.2 31.4437 46.168 31.496 46.1136C31.5016 46.107 31.5041 46.0979 31.5097 46.0918C31.5153 46.0852 31.5234 46.0836 31.529 46.077L49.4841 25.0299C49.7915 24.6712 49.7468 24.1321 49.3886 23.8257C49.0329 23.5228 48.4933 23.5635 48.1858 23.9222L48.1858 23.9215Z" fill="#89A386"/>
</svg>
