<svg width="93" height="70" viewBox="0 0 93 70" fill="none" xmlns="http://www.w3.org/2000/svg">
<path d="M92.6751 25.7464C92.7303 25.6087 92.7589 25.4595 92.7589 25.3082C92.7575 25.1569 92.7269 25.0091 92.6676 24.8714C92.6662 24.8701 92.6662 24.8687 92.6662 24.8667C92.6512 24.8312 92.6219 24.8074 92.6022 24.7754C92.5504 24.6779 92.4952 24.5818 92.4141 24.5021C92.3562 24.4456 92.2847 24.4135 92.2158 24.3706C92.1593 24.3338 92.1136 24.2854 92.0482 24.2575C92.0455 24.2561 92.0421 24.2575 92.0394 24.2561C91.9017 24.2009 91.7539 24.1723 91.606 24.1737C91.4547 24.1751 91.3082 24.2057 91.1712 24.2636C91.1699 24.2636 91.1665 24.2636 91.1651 24.265L62.6358 36.4681L47.4215 0.701409V0.700046L47.414 0.681648C47.3943 0.635994 47.3575 0.606695 47.335 0.564448C47.2859 0.479273 47.2389 0.393416 47.1687 0.321874C47.091 0.244195 46.9963 0.190363 46.9016 0.138574C46.8682 0.120176 46.8451 0.089514 46.8083 0.0745228C46.8069 0.0745228 46.8035 0.0745227 46.8021 0.07316C46.6005 -0.0106522 46.3763 -0.0167856 46.1534 0.0261435C46.0771 0.0411344 45.9981 0.0445417 45.9272 0.07316C45.9245 0.0745227 45.9197 0.0745229 45.9149 0.0758856C45.857 0.100417 45.8175 0.146068 45.765 0.178095C45.6935 0.222387 45.6172 0.260546 45.5559 0.321872C45.487 0.390692 45.4414 0.475867 45.3923 0.558322C45.3664 0.602613 45.3283 0.633275 45.3085 0.681653L30.1277 36.4676L1.59316 24.2658H1.5918C1.45416 24.2065 1.30629 24.1745 1.15502 24.1725C0.849756 24.1697 0.556752 24.2897 0.340065 24.5036C0.262386 24.5813 0.208556 24.676 0.155406 24.7721C0.137009 24.8055 0.106345 24.83 0.0913538 24.8668V24.8695C0.0334352 25.0072 0.00140881 25.1564 4.64549e-05 25.3077C-0.0013159 25.459 0.0273021 25.6068 0.0838584 25.7445V25.7492L13.0244 57.3574V68.8553C13.0244 69.4869 13.5374 70 14.1691 70H78.5489C79.1805 70 79.6936 69.4869 79.6936 68.8553L79.6929 57.4617L92.6729 25.7524C92.6729 25.751 92.6729 25.749 92.6749 25.7462L92.6751 25.7464ZM77.8207 55.9921H14.9358L3.25931 27.4681L30.278 39.0239H30.2793L30.2807 39.0252C30.4272 39.0879 30.5785 39.1165 30.7263 39.1165C31.1413 39.1165 31.529 38.8849 31.7307 38.4999C31.7457 38.4726 31.7662 38.4508 31.7798 38.4222V38.4208C31.7798 38.4208 31.7811 38.4208 31.7811 38.4195L46.3589 4.0552L60.9721 38.4212C61.0178 38.5295 61.0804 38.629 61.154 38.7142C61.3721 38.9704 61.693 39.1169 62.0256 39.1169C62.1768 39.1169 62.3281 39.0863 62.4746 39.0256C62.4759 39.0256 62.4759 39.0242 62.4773 39.0242L89.4942 27.4684L77.8207 55.9921ZM77.4037 67.7156H15.3125V58.2816H77.4037V67.7156Z" fill="#89A386"/>
<path d="M46.3583 26.0358C45.7267 26.0358 45.2136 26.5489 45.2136 27.1805V46.5326C45.2136 47.1643 45.7267 47.6774 46.3583 47.6774C46.99 47.6774 47.5031 47.1643 47.5031 46.5326V27.1805C47.5031 26.5489 46.99 26.0358 46.3583 26.0358Z" fill="#89A386"/>
</svg>
