<svg width="16" height="17" viewBox="0 0 16 17" fill="none" xmlns="http://www.w3.org/2000/svg">
<path d="M15.7824 14.1097L12.6666 10.9321C12.5259 10.7886 12.3353 10.709 12.1353 10.709H11.6259C12.4884 9.58388 13.001 8.16877 13.001 6.62936C13.001 2.96727 10.0914 0 6.50048 0C2.90959 0 0 2.96727 0 6.62936C0 10.2914 2.90959 13.2587 6.50048 13.2587C8.00996 13.2587 9.39756 12.736 10.5008 11.8563V12.3759C10.5008 12.5798 10.5789 12.7743 10.7195 12.9177L13.8354 16.0953C14.1292 16.3949 14.6042 16.3949 14.8948 16.0953L15.7793 15.1933C16.0731 14.8937 16.0731 14.4093 15.7824 14.1097ZM6.50048 10.709C4.29094 10.709 2.50018 8.88589 2.50018 6.62936C2.50018 4.37601 4.28781 2.54975 6.50048 2.54975C8.71001 2.54975 10.5008 4.37282 10.5008 6.62936C10.5008 8.8827 8.71314 10.709 6.50048 10.709Z" fill="white"/>
</svg>
