<svg width="50" height="50" viewBox="0 0 50 50" fill="none" xmlns="http://www.w3.org/2000/svg">
<path d="M17.5264 36.2063L16.8335 36.882L16.5397 37.168L16.6093 37.5734L17.321 41.725L13.5928 39.7648L13.2288 39.5734L12.8655 39.7648L9.13738 41.725L9.84988 37.5734L9.91941 37.168L9.62566 36.882L6.60925 33.943L10.7772 33.3359L11.1835 33.2773L11.3655 32.9086L13.2288 29.1328L15.0928 32.9086L15.2749 33.2773L15.6811 33.3359L17.9624 33.6687L18.0944 32.8984L15.7936 32.5633L13.2288 27.3672L10.6647 32.5633L4.92957 33.3977L9.08035 37.4414L8.09988 43.1539L13.2288 40.4555L18.3585 43.1539L17.3788 37.4414L17.5264 36.2063Z" fill="#49A9EF"/>
<path d="M47.3093 33.3977L41.5749 32.5633L39.01 27.3672L36.446 32.5633L33.9772 32.9227L34.1093 33.693L36.5585 33.3359L36.9647 33.2773L37.1468 32.9086L39.01 29.1328L40.8741 32.9086L41.0561 33.2773L41.4624 33.3359L45.6304 33.943L42.6147 36.882L42.321 37.168L42.3905 37.5734L43.1022 41.725L39.3741 39.7648L39.01 39.5734L38.6468 39.7648L34.9186 41.725L35.6311 37.5734L35.7007 37.168L35.4069 36.882L34.5061 36.0039L34.7304 37.3141L34.8616 37.4414L33.8811 43.1539L39.01 40.4555L44.1397 43.1539L43.16 37.4414L47.3093 33.3977Z" fill="#49A9EF"/>
<path d="M38.446 21.3617L29.8686 20.1148L26.0335 12.3445L22.1991 20.1148L13.6217 21.3617L19.8296 27.4085L18.3632 35.9515L26.0335 31.9187L33.7038 35.9515L32.2382 27.4085L38.446 21.3617ZM32.6882 34.5523L26.3905 31.2429L26.0335 31.0539L25.6764 31.2421L19.3788 34.5515L20.5835 27.5382L20.6514 27.1398L20.3624 26.8609L15.2671 21.8968L22.3092 20.8718L22.7085 20.814L22.885 20.4539L26.0335 14.075L29.1835 20.4546L29.36 20.8148L29.7593 20.8726L36.8007 21.8976L31.7053 26.8617L31.4171 27.1406L31.485 27.539L32.6882 34.5523Z" fill="#49A9EF"/>
<path d="M14.0844 16.0875L7.38156 8.5376L6.79734 9.05627L13.5001 16.6061L14.0844 16.0875Z" fill="#49A9EF"/>
<path d="M12.4709 19.729L5.55487 17.1809L5.28507 17.9132L12.2011 20.4613L12.4709 19.729Z" fill="#49A9EF"/>
<path d="M18.7053 15.5389L16.207 7.04224L15.4567 7.26285L17.955 15.7595L18.7053 15.5389Z" fill="#49A9EF"/>
<path d="M45.3332 9.057L44.7489 8.53833L38.0461 16.0882L38.6304 16.6069L45.3332 9.057Z" fill="#49A9EF"/>
<path d="M39.9332 20.4641L46.8492 17.916L46.5794 17.1837L39.6634 19.7318L39.9332 20.4641Z" fill="#49A9EF"/>
<path d="M36.675 7.26407L35.9247 7.04346L33.4264 15.5401L34.1766 15.7608L36.675 7.26407Z" fill="#49A9EF"/>
</svg>
