<svg width="28" height="29" viewBox="0 0 28 29" fill="none" xmlns="http://www.w3.org/2000/svg">
<ellipse cx="13.894" cy="14.2948" rx="13.894" ry="14.2948" fill="#8F5DB7"/>
<path d="M18.4606 9.52132C18.1535 9.22908 16.9107 8.29742 14.1397 8.28493C14.1397 8.28493 10.8731 8.08261 9.28207 9.59125C8.3971 10.5054 8.08518 11.8467 8.05133 13.5077C8.01748 15.1687 7.97637 18.2809 10.8803 19.1252H10.8828L10.8803 20.414C10.8803 20.414 10.861 20.9361 11.1947 21.041C11.596 21.1708 11.833 20.7737 12.2175 20.3466C12.4278 20.1118 12.718 19.7671 12.938 19.5048C14.9256 19.6772 16.4513 19.2825 16.6254 19.2251C17.0268 19.0902 19.2972 18.7905 19.6648 15.6783C20.0468 12.4662 19.481 10.438 18.4606 9.52132ZM18.7967 15.4435C18.4848 18.0412 16.6447 18.206 16.3062 18.3184C16.1611 18.3659 14.8192 18.7106 13.1339 18.5982C13.1339 18.5982 11.8765 20.1643 11.4848 20.5714C11.3567 20.7038 11.2164 20.6913 11.2188 20.429C11.2188 20.2567 11.2285 18.2884 11.2285 18.2884C11.2261 18.2884 11.2261 18.2884 11.2285 18.2884C8.76704 17.5841 8.91212 14.934 8.93872 13.5477C8.96531 12.1614 9.2192 11.025 9.96877 10.2607C11.3156 8.99929 14.089 9.18662 14.089 9.18662C16.432 9.19661 17.5539 9.92595 17.815 10.1707C18.6782 10.935 19.1183 12.7634 18.7967 15.4435ZM15.4358 13.4253C15.4454 13.6401 15.1335 13.6551 15.1238 13.4403C15.0972 12.8908 14.8482 12.6235 14.3356 12.5936C14.1276 12.5811 14.147 12.2589 14.3525 12.2713C15.0271 12.3088 15.4019 12.7085 15.4358 13.4253ZM15.9266 13.7076C15.9508 12.6485 15.31 11.8193 14.0938 11.7268C13.8883 11.7118 13.91 11.3896 14.1156 11.4046C15.518 11.5095 16.2651 12.5061 16.2385 13.715C16.2361 13.9299 15.9218 13.9199 15.9266 13.7076ZM17.063 14.0423C17.0655 14.2571 16.7511 14.2596 16.7511 14.0448C16.7366 12.0091 15.4237 10.9001 13.8302 10.8876C13.6247 10.8851 13.6247 10.5654 13.8302 10.5654C15.6123 10.5779 17.0461 11.8492 17.063 14.0423ZM16.7898 16.4926V16.4975C16.5287 16.9721 16.0402 17.4967 15.5373 17.3293L15.5325 17.3218C15.0223 17.1744 13.8206 16.535 13.0613 15.9106C12.6696 15.5909 12.3118 15.2137 12.0361 14.8515C11.7871 14.5293 11.5356 14.1472 11.2914 13.6876C10.7764 12.7259 10.6627 12.2963 10.6627 12.2963C10.5007 11.7768 11.0061 11.2722 11.4679 11.0025H11.4727C11.6952 10.8826 11.908 10.9226 12.0506 11.0999C12.0506 11.0999 12.3505 11.4696 12.4786 11.6519C12.5995 11.8217 12.7615 12.094 12.8461 12.2464C12.9936 12.5186 12.9017 12.7959 12.7567 12.9108L12.4665 13.1506C12.319 13.2729 12.3384 13.5002 12.3384 13.5002C12.3384 13.5002 12.7688 15.1812 14.3767 15.6058C14.3767 15.6058 14.5967 15.6258 14.7152 15.4735L14.9473 15.1737C15.0586 15.0239 15.327 14.929 15.5905 15.0813C15.9459 15.2886 16.3981 15.6108 16.6979 15.9031C16.8672 16.0455 16.9059 16.2628 16.7898 16.4926Z" fill="white"/>
</svg>
