<svg width="28" height="29" viewBox="0 0 28 29" fill="none" xmlns="http://www.w3.org/2000/svg">
<ellipse cx="13.894" cy="14.2948" rx="13.894" ry="14.2948" fill="#25D366"/>
<path d="M18.6133 10.0251C17.4507 8.89657 15.9023 8.27588 14.2568 8.27588C10.8603 8.27588 8.09655 10.9521 8.09655 14.241C8.09655 15.2916 8.37958 16.3181 8.91791 17.2236L8.04382 20.3136L11.3099 19.4833C12.2089 19.9589 13.2217 20.2088 14.254 20.2088H14.2568C17.6504 20.2088 20.4753 17.5326 20.4753 14.2437C20.4753 12.6503 19.776 11.1537 18.6133 10.0251ZM14.2568 19.2039C13.3355 19.2039 12.4337 18.9647 11.6484 18.5133L11.4625 18.4058L9.52561 18.8976L10.0417 17.0677L9.91964 16.8796C9.40629 16.0897 9.13712 15.1788 9.13712 14.241C9.13712 11.5083 11.4347 9.2835 14.2595 9.2835C15.6276 9.2835 16.9123 9.7994 17.878 10.7372C18.8436 11.6749 19.4375 12.919 19.4347 14.2437C19.4347 16.9791 17.0788 19.2039 14.2568 19.2039ZM17.0649 15.4905C16.9123 15.4152 16.1548 15.0552 16.0133 15.0068C15.8718 14.9557 15.7691 14.9316 15.6664 15.082C15.5637 15.2325 15.2696 15.5657 15.178 15.6678C15.0892 15.7672 14.9977 15.7807 14.845 15.7054C13.9404 15.2674 13.3466 14.9235 12.75 13.932C12.5918 13.6687 12.9082 13.6875 13.2023 13.1178C13.2523 13.0184 13.2273 12.9324 13.1884 12.8572C13.1496 12.782 12.8416 12.0484 12.7139 11.7502C12.5891 11.46 12.4614 11.5003 12.3671 11.4949C12.2783 11.4895 12.1756 11.4895 12.0729 11.4895C11.9703 11.4895 11.8038 11.5271 11.6623 11.6749C11.5207 11.8254 11.1239 12.1855 11.1239 12.919C11.1239 13.6526 11.6761 14.3619 11.7511 14.4613C11.8288 14.5608 12.836 16.0655 14.3816 16.713C15.3584 17.1215 15.7413 17.1564 16.2297 17.0865C16.5266 17.0435 17.1399 16.7265 17.2675 16.3772C17.3952 16.0279 17.3952 15.7296 17.3563 15.6678C17.3202 15.6006 17.2176 15.563 17.0649 15.4905Z" fill="white"/>
</svg>
