<svg width="82" height="60" viewBox="0 0 82 60" fill="none" xmlns="http://www.w3.org/2000/svg">
<g clip-path="url(#clip0_265_4218)">
<path fill-rule="evenodd" clip-rule="evenodd" d="M0 0.0631104H82.173V60.0631H0V0.0631104Z" fill="white"/>
<path fill-rule="evenodd" clip-rule="evenodd" d="M11.985 30.4143L48.6823 9.24719L70.1915 21.6558V37.9701L33.4942 59.1337L11.985 46.7286V30.4143Z" fill="#D79E8A"/>
<path fill-rule="evenodd" clip-rule="evenodd" d="M11.985 46.7286V30.4143L33.4942 42.8194V59.1337L11.985 46.7286Z" fill="#E3BCAE"/>
<path fill-rule="evenodd" clip-rule="evenodd" d="M70.1915 37.9702V21.6559L33.4942 42.8194V59.1337L70.1915 37.9702Z" fill="#B57E70"/>
<path fill-rule="evenodd" clip-rule="evenodd" d="M27.5283 30.3078V33.3337L31.0546 35.3664C31.8216 35.8062 33.1142 35.9481 33.9026 35.4941C34.7407 35.0116 34.3678 34.2525 33.6753 33.8552L27.5283 30.3078ZM51.122 16.7037V19.7261L54.6447 21.7587C55.4117 22.2021 56.7079 22.3405 57.4927 21.89C58.3308 21.4075 57.9614 20.6484 57.2654 20.2475L51.122 16.7037ZM43.2562 21.2373V24.2631L46.7825 26.2958C47.546 26.7357 48.8422 26.8775 49.6305 26.4235C50.465 25.941 50.0957 25.1819 49.4032 24.7811L43.2562 21.2373ZM35.3941 25.7743V28.7967L38.9168 30.8293C39.6838 31.2727 40.98 31.4146 41.7648 30.9606C42.6028 30.4781 42.2335 29.719 41.5411 29.3181L35.3941 25.7743Z" fill="#E3BCAE"/>
<path fill-rule="evenodd" clip-rule="evenodd" d="M32.7734 27.2856L35.3941 28.7967V25.7744C34.6306 25.331 33.3309 25.1891 32.5461 25.6431C31.7081 26.1256 32.0774 26.8847 32.7734 27.2856ZM48.274 16.5725C47.436 17.055 47.8053 17.8141 48.4978 18.215L51.122 19.7261V16.7038C50.355 16.2604 49.0588 16.1185 48.274 16.5725ZM24.9077 31.8191L27.5284 33.3338V30.3079C26.7649 29.868 25.4687 29.7261 24.6839 30.1802C23.8423 30.6626 24.2152 31.4182 24.9077 31.8191ZM40.4083 21.1061C39.5702 21.5921 39.9431 22.3476 40.6356 22.7485L43.2563 24.2632V21.2373C42.4928 20.7974 41.1967 20.6555 40.4083 21.1061Z" fill="#B57E70"/>
<path fill-rule="evenodd" clip-rule="evenodd" d="M11.5979 29.57L48.2207 8.44906C48.5154 8.27879 48.867 8.28943 49.144 8.44906L70.6567 20.8542C70.9514 21.028 71.1183 21.3366 71.1183 21.6559V37.9702C71.1183 38.3426 70.8981 38.6655 70.5785 38.8109L33.9558 59.9354C33.6575 60.1057 33.3095 60.0915 33.0325 59.9319L11.5198 47.5267C11.2251 47.3565 11.0582 47.0479 11.0582 46.7286L11.0546 30.4143C11.0546 30.0383 11.2783 29.7155 11.5979 29.57ZM11.985 30.4143L48.6823 9.24722L70.1915 21.6559V37.9702L33.4942 59.1337L11.985 46.7286V30.4143Z" fill="black"/>
<path d="M11.6761 46.7286L11.6725 30.4143C11.6725 30.2441 11.811 30.1057 11.985 30.1057C12.049 30.1057 12.1058 30.1234 12.1555 30.1589L33.6504 42.5534C33.7463 42.6101 33.8031 42.713 33.8031 42.8194V59.1337C33.8031 59.3075 33.6646 59.4423 33.4942 59.4423C33.4303 59.4423 33.3699 59.4246 33.3202 59.3927L11.8288 46.9947C11.7294 46.9379 11.6761 46.835 11.6761 46.7286ZM12.294 30.9464V46.5513L33.1852 58.6016V42.9968L12.294 30.9464Z" fill="black"/>
<path d="M33.6468 59.4033C33.5012 59.4849 33.313 59.4353 33.2278 59.2898C33.1426 59.1408 33.1958 58.9528 33.3414 58.8677L69.8825 37.7928V22.188L33.6468 43.0855C33.5012 43.1706 33.313 43.121 33.2278 42.972C33.1426 42.8265 33.1958 42.6385 33.3414 42.5534L70.0139 21.404C70.0636 21.3686 70.1275 21.3473 70.1914 21.3473C70.3619 21.3473 70.5004 21.4856 70.5004 21.6559V37.9702C70.5004 38.0766 70.4436 38.1795 70.3477 38.2363L33.6468 59.4033Z" fill="black"/>
<path d="M70.3478 21.3898C70.4934 21.475 70.5431 21.663 70.4578 21.8084C70.3726 21.9574 70.1844 22.0071 70.0388 21.9219L48.6788 9.60196L12.1378 30.6803C11.9886 30.7655 11.8004 30.7123 11.7152 30.5668C11.6335 30.4178 11.6832 30.2298 11.8288 30.1482L48.5119 8.99181C48.6042 8.92796 48.7321 8.92087 48.8351 8.98117L70.3478 21.3898Z" fill="black"/>
<path d="M50.813 16.7039C50.813 16.5336 50.9515 16.3953 51.122 16.3953C51.2924 16.3953 51.4309 16.5336 51.4309 16.7039V19.7262C51.4309 19.8965 51.2924 20.0348 51.122 20.0348C50.9515 20.0348 50.813 19.8965 50.813 19.7262V16.7039ZM27.2194 30.308C27.2194 30.1377 27.3579 29.9994 27.5283 29.9994C27.6988 29.9994 27.8373 30.1377 27.8373 30.308V33.3339C27.8373 33.5042 27.6988 33.6425 27.5283 33.6425C27.3579 33.6425 27.2194 33.5042 27.2194 33.3339V30.308ZM35.0851 25.7745C35.0851 25.6042 35.2236 25.4659 35.394 25.4659C35.5645 25.4659 35.703 25.6042 35.703 25.7745V28.7968C35.703 28.9671 35.5645 29.1054 35.394 29.1054C35.2236 29.1054 35.0851 28.9671 35.0851 28.7968V25.7745ZM42.9473 21.2374C42.9473 21.0671 43.0858 20.9288 43.2562 20.9288C43.4267 20.9288 43.5652 21.0671 43.5652 21.2374V24.2633C43.5652 24.4336 43.4267 24.5719 43.2562 24.5719C43.0858 24.5719 42.9473 24.4336 42.9473 24.2633V21.2374Z" fill="black"/>
<path d="M27.6846 30.0418L33.828 33.5856C34.1298 33.7594 34.382 33.9971 34.5347 34.2596C34.6235 34.4157 34.6803 34.5824 34.6909 34.7527C34.7016 34.9336 34.6625 35.1145 34.5631 35.2848L34.5524 35.3025C34.4494 35.4728 34.2861 35.6289 34.0553 35.7637C33.6256 36.0085 33.0752 36.1007 32.5283 36.0759C31.9388 36.051 31.3422 35.8878 30.9019 35.6324L24.7549 32.0851C24.453 31.9148 24.2009 31.6771 24.0482 31.4146C23.9594 31.2585 23.9026 31.0918 23.892 30.918C23.8813 30.7406 23.9204 30.5597 24.0198 30.3894C24.1228 30.2156 24.2861 30.0524 24.5276 29.9106L24.5489 29.8999C24.975 29.6622 25.5148 29.5736 26.0546 29.5984C26.6441 29.6232 27.2407 29.7899 27.6846 30.0418ZM33.5226 34.1213L27.3756 30.5739C27.0169 30.3682 26.5233 30.2334 26.0297 30.2121C25.5965 30.1908 25.1704 30.2582 24.8508 30.4356L24.8366 30.4462C24.6945 30.5278 24.6022 30.6129 24.5525 30.6981C24.517 30.7584 24.5063 30.8222 24.5099 30.8861C24.5134 30.957 24.5383 31.0315 24.5809 31.1096C24.6768 31.2727 24.8508 31.4324 25.0638 31.553L31.2108 35.1003C31.5659 35.3061 32.0631 35.4409 32.5531 35.4622C32.9935 35.4834 33.4267 35.4125 33.7499 35.228C33.8813 35.1535 33.97 35.072 34.0233 34.9904L34.0304 34.9762C34.0659 34.9159 34.0801 34.852 34.073 34.7882C34.0695 34.7172 34.0446 34.6392 33.9985 34.5647C33.9026 34.398 33.7321 34.2419 33.5226 34.1213Z" fill="black"/>
<path d="M35.5467 25.5084L41.6937 29.0522C41.9956 29.226 42.2477 29.4601 42.3969 29.7226C42.4892 29.8787 42.5424 30.049 42.5531 30.2157C42.5638 30.3966 42.5247 30.5776 42.4253 30.7478C42.3258 30.9252 42.1589 31.0884 41.9174 31.2267C41.4913 31.475 40.9373 31.5673 40.3905 31.5424C39.801 31.5141 39.2044 31.3509 38.7641 31.0955L32.6171 27.5517C32.3152 27.3778 32.0631 27.1402 31.9139 26.8777C31.8216 26.7216 31.7648 26.5548 31.7577 26.3846C31.747 26.2072 31.7861 26.0263 31.882 25.856C31.985 25.6787 32.1519 25.5155 32.3933 25.3771L32.4111 25.3665C32.8372 25.1288 33.3805 25.0366 33.9203 25.0614C34.5098 25.0898 35.1064 25.253 35.5467 25.5084ZM41.3848 29.5843L35.2413 26.0405C34.8827 25.8347 34.3855 25.6999 33.8919 25.6787C33.4587 25.6574 33.0325 25.7248 32.7165 25.9021L32.7023 25.9092C32.5602 25.9908 32.4679 26.0795 32.4182 26.1646C32.3827 26.2249 32.3685 26.2888 32.372 26.3491C32.3756 26.4236 32.404 26.4981 32.4466 26.5726C32.5425 26.7393 32.7129 26.8954 32.926 27.0196L39.073 30.5634C39.4317 30.7691 39.9253 30.9039 40.4189 30.9252C40.8592 30.9465 41.2925 30.8791 41.6121 30.6946C41.7505 30.613 41.8429 30.5279 41.8926 30.4392C41.9281 30.3824 41.9423 30.315 41.9388 30.2547C41.9352 30.1802 41.9068 30.1058 41.8642 30.0277C41.7683 29.8645 41.5943 29.7049 41.3848 29.5843Z" fill="black"/>
<path d="M43.4125 20.9713L49.5737 24.5257C49.8684 24.6995 50.1134 24.9336 50.259 25.1855L50.2732 25.2068C50.3549 25.3593 50.4082 25.519 50.4188 25.6821C50.4295 25.8595 50.3904 26.0404 50.291 26.2142C50.188 26.3881 50.0211 26.5512 49.7832 26.6896C49.3535 26.9379 48.8031 27.0301 48.2562 27.0053C47.6667 26.9805 47.0701 26.8137 46.6262 26.5619L40.4828 23.0145C40.1809 22.8407 39.9253 22.6066 39.7761 22.3441C39.6873 22.188 39.6305 22.0177 39.6199 21.851V21.8404C39.6092 21.6665 39.6483 21.4892 39.7477 21.3189C39.8471 21.1451 40.014 20.9819 40.2555 20.84C40.6852 20.5952 41.2356 20.503 41.7825 20.5278C42.372 20.5527 42.9686 20.7194 43.4125 20.9713ZM49.2505 25.0507L43.1035 21.5034C42.7449 21.2976 42.2512 21.1628 41.7576 21.1415C41.3173 21.1202 40.8841 21.1912 40.5645 21.3757C40.4224 21.4537 40.3301 21.5424 40.2804 21.6275C40.2449 21.6878 40.2342 21.7481 40.2342 21.812C40.2413 21.8865 40.2662 21.961 40.3088 22.039C40.4047 22.2022 40.5787 22.3618 40.7917 22.4824L46.9352 26.0298C47.2939 26.2355 47.7875 26.3703 48.2811 26.3916C48.7214 26.4129 49.1546 26.3419 49.4742 26.1575C49.6163 26.0759 49.7086 25.9908 49.7583 25.9056C49.7903 25.8453 49.8045 25.7815 49.8009 25.7176C49.7974 25.6502 49.7725 25.5793 49.737 25.5083L49.7264 25.4941C49.634 25.331 49.4671 25.1784 49.2647 25.0578L49.2505 25.0507Z" fill="black"/>
<path d="M51.2746 16.4378L57.4216 19.9816C57.7235 20.1554 57.9756 20.3931 58.1248 20.6521C58.2171 20.8082 58.2704 20.9784 58.281 21.1487C58.2917 21.3261 58.2526 21.507 58.1532 21.6773L58.1425 21.6985C58.0395 21.8653 57.8762 22.0214 57.6454 22.1562C57.2157 22.4045 56.6653 22.4967 56.1184 22.4719C55.5289 22.4435 54.9323 22.2803 54.492 22.0249L48.345 18.4811C48.0431 18.3073 47.791 18.0696 47.6418 17.8071C47.5495 17.651 47.4927 17.4843 47.482 17.314C47.4714 17.1366 47.5105 16.9557 47.6099 16.7855C47.7129 16.6081 47.8798 16.4449 48.1212 16.3066C48.5474 16.0582 49.0978 15.966 49.6482 15.9908C50.2377 16.0192 50.8343 16.1824 51.2746 16.4378ZM57.1127 20.5137L50.9692 16.9699C50.6106 16.7642 50.1134 16.6294 49.6198 16.6045C49.1795 16.5868 48.7462 16.6542 48.4266 16.8387C48.2846 16.9203 48.1958 17.0054 48.1426 17.0941C48.1106 17.1544 48.0964 17.2182 48.0999 17.2785C48.1035 17.3495 48.1319 17.4275 48.1745 17.502C48.2704 17.6687 48.4408 17.8248 48.6539 17.949L54.8009 21.4928C55.1596 21.6985 55.6532 21.8333 56.1468 21.8546C56.5871 21.8759 57.0204 21.8085 57.34 21.624C57.4714 21.546 57.5637 21.4644 57.6134 21.3828L57.6205 21.3686C57.656 21.3083 57.6702 21.2445 57.6667 21.1842C57.6631 21.1097 57.6347 21.0352 57.5921 20.9571C57.4962 20.794 57.3222 20.6343 57.1127 20.5137Z" fill="black"/>
</g>
<defs>
<clipPath id="clip0_265_4218">
<rect width="82" height="60" fill="white"/>
</clipPath>
</defs>
</svg>
