<svg width="83" height="60" viewBox="0 0 83 60" fill="none" xmlns="http://www.w3.org/2000/svg">
<g clip-path="url(#clip0_272_4505)">
<path fill-rule="evenodd" clip-rule="evenodd" d="M0 0.0637207H82.125V59.9363H0V0.0637207Z" fill="white"/>
<path fill-rule="evenodd" clip-rule="evenodd" d="M11.9764 30.3489L48.6534 9.22876L70.1486 21.6102L33.4717 42.7303L11.9764 30.3489Z" fill="url(#paint0_linear_272_4505)"/>
<path fill-rule="evenodd" clip-rule="evenodd" d="M11.9764 46.6249V30.3489L33.4717 42.7303V59.0063L11.9764 46.6249Z" fill="#E3BCAE"/>
<path fill-rule="evenodd" clip-rule="evenodd" d="M70.1487 37.8863V21.6102L33.4717 42.7303V59.0064L70.1487 37.8863Z" fill="url(#paint1_linear_272_4505)"/>
<path fill-rule="evenodd" clip-rule="evenodd" d="M20.2423 31.0852L18.5036 32.0927L16.1142 30.717L17.8529 29.7095L20.2423 31.0852ZM48.1871 15.0029L46.4388 16.0008L44.0493 14.6251L45.7977 13.6272L48.1871 15.0029ZM41.2034 19.0235L39.455 20.031L37.0655 18.6553L38.8139 17.6478L41.2034 19.0235ZM34.2196 23.044L32.4712 24.0516L30.0818 22.6759L31.8301 21.6683L34.2196 23.044ZM27.2358 27.0646L25.4874 28.0722L23.098 26.6965L24.8464 25.6889L27.2358 27.0646ZM55.3555 19.1204L53.6071 20.1279L48.8282 17.3765L50.5766 16.3786L55.3555 19.1204ZM48.3717 23.1506L46.6233 24.1485L41.8444 21.4067L43.5928 20.3992L48.3717 23.1506ZM41.3879 27.1712L39.6395 28.1787L34.8606 25.4273L36.609 24.4198L41.3879 27.1712ZM34.3944 31.1917L32.6558 32.1993L27.8769 29.4479L29.6155 28.4403L34.3944 31.1917ZM47.0798 18.3841L45.3412 19.3916L40.5623 16.6402L42.3107 15.6326L47.0798 18.3841ZM40.0961 22.4046L38.3477 23.4122L33.5785 20.6608L35.3172 19.6532L40.0961 22.4046ZM33.1123 26.4349L31.3639 27.4328L26.585 24.6813L28.3334 23.6835L33.1123 26.4349ZM26.1285 30.4555L24.3801 31.463L19.6012 28.7116L21.3496 27.704L26.1285 30.4555ZM62.5238 23.2475L60.7754 24.2551L55.9965 21.5036L57.7449 20.4961L62.5238 23.2475ZM55.5303 27.2777L53.7917 28.2756L49.0128 25.5242L50.7611 24.5263L55.5303 27.2777ZM48.5465 31.2983L46.8079 32.3059L42.029 29.5545L43.7676 28.5469L48.5465 31.2983ZM41.5627 35.3189L39.8144 36.3265L35.0355 33.575L36.7839 32.5675L41.5627 35.3189ZM54.2482 22.5112L52.4998 23.5188L47.7306 20.7673L49.4693 19.7598L54.2482 22.5112ZM47.2644 26.5318L45.516 27.5393L40.7371 24.7879L42.4855 23.7803L47.2644 26.5318ZM40.2806 30.5523L38.5322 31.5599L33.7533 28.8085L35.5017 27.8009L40.2806 30.5523ZM33.2968 34.5826L31.5485 35.5805L26.7696 32.829L28.5179 31.8312L33.2968 34.5826ZM59.0271 25.2626L57.2787 26.2702L54.8892 24.8945L56.6376 23.8869L59.0271 25.2626ZM52.0433 29.2832L50.2949 30.2908L47.9055 28.915L49.6538 27.9075L52.0433 29.2832ZM45.0595 33.3038L43.3111 34.3113L40.9217 32.9356L42.6701 31.928L45.0595 33.3038ZM38.0757 37.334L36.3273 38.3319L33.9379 36.9562L35.6863 35.9583L38.0757 37.334ZM66.0108 21.2421L64.2722 22.2496L61.8827 20.8739L63.6214 19.8663L66.0108 21.2421ZM34.579 39.3395L32.8306 40.347L30.4411 38.9713L32.1895 37.9637L34.579 39.3395ZM61.232 18.4906L59.4933 19.4982L57.1039 18.1225L58.8522 17.1149L61.232 18.4906ZM29.8001 36.588L28.0517 37.5956L25.6623 36.2199L27.4106 35.2123L29.8001 36.588ZM56.4628 15.7392L54.7144 16.7468L52.325 15.3711L54.0733 14.3635L56.4628 15.7392ZM25.0212 33.8366L23.2728 34.8442L20.8931 33.4685L22.6317 32.4609L25.0212 33.8366ZM51.6839 12.9878L49.9355 13.9953L47.5461 12.6196L49.2944 11.6121L51.6839 12.9878Z" fill="url(#paint2_linear_272_4505)"/>
<path fill-rule="evenodd" clip-rule="evenodd" d="M11.5878 29.506L48.1871 8.43431C48.4883 8.25993 48.8379 8.26961 49.1099 8.43431L70.6149 20.8157C70.9063 20.9804 71.0714 21.2904 71.0714 21.6102V37.8862C71.0714 38.264 70.8577 38.5837 70.5372 38.7291L33.9379 59.8104C33.6368 59.9751 33.2871 59.9654 33.0151 59.8104L11.5101 47.429C11.2187 47.2546 11.0536 46.9446 11.0536 46.6249V30.3488C11.0536 29.9807 11.2673 29.6513 11.5878 29.506ZM11.9764 30.3488L48.6534 9.22874L70.1487 21.6102V37.8862L33.4717 59.0063L11.9764 46.6249V30.3488Z" fill="black"/>
<path d="M11.6656 46.6249V30.3488C11.6656 30.1745 11.8015 30.0388 11.9764 30.0388C12.0444 30.0388 12.1027 30.0582 12.1512 30.0969L33.6271 42.459C33.7242 42.5171 33.7825 42.6237 33.7825 42.7303V59.0063C33.7825 59.1807 33.6465 59.3163 33.4717 59.3163C33.4134 59.3163 33.3551 59.2969 33.2968 59.2679L11.821 46.8961C11.7238 46.838 11.6656 46.7314 11.6656 46.6249ZM12.2872 30.8817V46.4505L33.1608 58.4734V42.9046L12.2872 30.8817Z" fill="black"/>
<path d="M33.6271 59.2776C33.4814 59.3551 33.2968 59.3067 33.2094 59.1613C33.122 59.016 33.1705 58.8319 33.326 58.7447L69.8378 37.7118V22.143L33.6271 42.9919C33.4814 43.0791 33.2968 43.0306 33.2094 42.8853C33.122 42.7303 33.1705 42.5462 33.326 42.459L69.9738 21.3583C70.0224 21.3195 70.0807 21.3002 70.1487 21.3002C70.3235 21.3002 70.4595 21.4358 70.4595 21.6102V37.8862C70.4595 37.9928 70.4012 38.0994 70.3041 38.1575L33.6271 59.2776Z" fill="black"/>
<path d="M70.304 21.3389C70.4497 21.4261 70.4983 21.6199 70.4206 21.7652C70.3332 21.9105 70.1389 21.9589 69.9932 21.8717L48.6533 9.58722L12.1318 30.6104C11.9861 30.6976 11.7918 30.6492 11.7141 30.5039C11.6267 30.3585 11.6752 30.1648 11.8209 30.0873L48.4785 8.97686C48.5756 8.90905 48.7019 8.89936 48.8088 8.96718L70.304 21.3389Z" fill="black"/>
<path d="M20.3977 31.3563L18.6493 32.3639C18.5522 32.4123 18.4356 32.4123 18.3482 32.3639L15.9588 30.9882C15.8131 30.901 15.7548 30.7072 15.8422 30.5619C15.8714 30.5135 15.9102 30.4747 15.9588 30.4553L17.7072 29.4478C17.8043 29.3896 17.9306 29.3896 18.0277 29.4575L20.3977 30.8235C20.5434 30.9107 20.6017 31.0948 20.5143 31.2401C20.4851 31.2885 20.4463 31.3273 20.3977 31.3563ZM18.5036 31.7439L19.6304 31.0851L17.8528 30.0678L16.7261 30.7169L18.5036 31.7439ZM48.3425 15.2644L46.5942 16.2719C46.497 16.3301 46.3805 16.3204 46.2833 16.2719L43.9036 14.8962C43.7482 14.809 43.6996 14.625 43.7871 14.47C43.8162 14.4215 43.855 14.3924 43.9036 14.3634L45.6423 13.3558C45.7491 13.2977 45.8754 13.3074 45.9725 13.3655L48.3425 14.7315C48.4882 14.8187 48.5368 15.0028 48.4591 15.1481C48.43 15.1966 48.3911 15.2353 48.3425 15.2644ZM46.4388 15.6519L47.5752 14.9931L45.7977 13.9759L44.671 14.625L46.4388 15.6519ZM41.3588 19.2849L39.6104 20.2925C39.5133 20.3506 39.3967 20.3409 39.2996 20.2925L36.9101 18.9168C36.7644 18.8296 36.7159 18.6455 36.8033 18.5002C36.8324 18.4518 36.8713 18.413 36.9101 18.3839L38.6585 17.3764C38.7653 17.3183 38.8916 17.3279 38.9887 17.3861L41.3588 18.7521C41.5045 18.8393 41.553 19.0234 41.4656 19.1687C41.4462 19.2171 41.4073 19.2559 41.3588 19.2849ZM39.455 19.6725L40.5914 19.0234L38.8139 17.9964L37.6872 18.6552L39.455 19.6725ZM34.375 23.3055L32.6266 24.3131C32.5295 24.3712 32.4129 24.3712 32.3158 24.3131L29.9263 22.9374C29.7806 22.8502 29.7321 22.6661 29.8195 22.5208C29.8486 22.4723 29.8875 22.4336 29.9263 22.4045L31.6747 21.397C31.7816 21.3388 31.9078 21.3485 31.9952 21.4066L34.375 22.7727C34.5207 22.8599 34.5692 23.0536 34.4818 23.1989C34.4527 23.2474 34.4138 23.2861 34.375 23.3055ZM32.4712 23.693L33.5979 23.0439L31.8301 22.0267L30.7034 22.6758L32.4712 23.693ZM27.3815 27.3358L25.6428 28.3336C25.5457 28.3918 25.4194 28.3918 25.332 28.3336L22.9426 26.9579C22.7969 26.8804 22.7483 26.6867 22.826 26.5413C22.8551 26.4929 22.894 26.4541 22.9426 26.4251L24.6909 25.4272C24.7881 25.3594 24.9143 25.3691 25.0115 25.4369L27.3815 26.8029C27.5369 26.8804 27.5855 27.0742 27.498 27.2195C27.4689 27.268 27.4301 27.3067 27.3815 27.3358ZM25.4874 27.7136L26.6141 27.0645L24.8463 26.0472L23.7099 26.6964L25.4874 27.7136ZM55.5109 19.3915L53.7625 20.3991C53.6556 20.4572 53.5294 20.4475 53.442 20.3894L48.6728 17.6477C48.5271 17.5605 48.4785 17.3764 48.5659 17.2311C48.5951 17.1826 48.6339 17.1439 48.6728 17.1148L50.4212 16.1072C50.528 16.0491 50.6543 16.0588 50.7514 16.1169L55.5109 18.8587C55.6566 18.9459 55.7051 19.1299 55.6177 19.2753C55.5886 19.3237 55.5497 19.3624 55.5109 19.3915ZM53.6071 19.779L54.7435 19.1202L50.5766 16.7273L49.4498 17.3764L53.6071 19.779ZM48.5271 23.4121L46.7787 24.4196C46.6719 24.4778 46.5456 24.4681 46.4485 24.41L41.689 21.6682C41.5433 21.581 41.4947 21.397 41.5822 21.2516C41.6016 21.2032 41.6502 21.1644 41.689 21.1354L43.4374 20.1278C43.5442 20.0697 43.6705 20.0794 43.7579 20.1375L48.5174 22.8792C48.6728 22.9664 48.7214 23.1505 48.6339 23.2958C48.6048 23.3443 48.5659 23.383 48.5271 23.4121ZM46.6233 23.7996L47.75 23.1505L43.5928 20.7479L42.4563 21.4066L46.6233 23.7996ZM41.5336 27.4326L39.7949 28.4402C39.6881 28.4983 39.5618 28.4983 39.4647 28.4305L34.7052 25.6888C34.5595 25.6016 34.511 25.4175 34.5887 25.2722C34.6178 25.2238 34.6567 25.185 34.7052 25.1559L36.4536 24.1484C36.5604 24.0903 36.677 24.0999 36.7741 24.1581L41.5336 26.8998C41.6793 26.987 41.7376 27.1711 41.6502 27.3261C41.621 27.3745 41.5822 27.4133 41.5336 27.4326ZM39.6395 27.8202L40.7663 27.1711L36.609 24.7684L35.4726 25.4272L39.6395 27.8202ZM34.5498 31.4532L32.8014 32.4608C32.7043 32.5286 32.578 32.5189 32.4809 32.4511L27.7214 29.7094C27.5757 29.6319 27.5272 29.4381 27.6049 29.2928C27.634 29.2443 27.6729 29.2056 27.7214 29.1862L29.4698 28.1786C29.567 28.1108 29.6932 28.1205 29.7904 28.1883L34.5498 30.9301C34.6955 31.0076 34.7441 31.2013 34.6664 31.3466C34.6372 31.3951 34.5984 31.4338 34.5498 31.4532ZM32.646 31.8407L33.7825 31.1916L29.6252 28.7987L28.4888 29.4478L32.646 31.8407ZM47.2352 18.6552L45.4966 19.6531C45.3897 19.7209 45.2635 19.7112 45.1663 19.6434L40.4069 16.9017C40.2612 16.8242 40.2126 16.6304 40.2903 16.4851C40.3194 16.4366 40.3583 16.3979 40.4069 16.3785L42.1552 15.3709C42.2524 15.3031 42.3786 15.3128 42.4758 15.3806L47.2352 18.1224C47.3809 18.1999 47.4392 18.3936 47.3518 18.539C47.3227 18.5874 47.2838 18.6262 47.2352 18.6552ZM45.3412 19.0331L46.4679 18.3839L42.3106 15.991L41.1742 16.6401L45.3412 19.0331ZM40.2515 22.6758L38.5031 23.6833C38.4059 23.7415 38.2797 23.7318 38.1825 23.6737L33.4231 20.9319C33.2774 20.8447 33.2191 20.6607 33.3065 20.5056C33.3357 20.4572 33.3745 20.4185 33.4231 20.3991L35.1715 19.3915C35.2686 19.3334 35.3949 19.3334 35.492 19.4012L40.2515 22.1429C40.3972 22.2301 40.4457 22.4142 40.368 22.5595C40.3389 22.608 40.3 22.6467 40.2515 22.6758ZM38.3477 23.0633L39.4841 22.4045L35.3172 20.0116L34.1904 20.6607L38.3477 23.0633ZM33.2677 26.6964L31.5193 27.7039C31.4125 27.762 31.2862 27.7524 31.1988 27.6942L26.4393 24.9525C26.2936 24.8653 26.2353 24.6812 26.3227 24.5359C26.3519 24.4875 26.3907 24.4487 26.4393 24.4196L28.178 23.4121C28.2848 23.354 28.4111 23.3636 28.5082 23.4218L33.2677 26.1635C33.4134 26.2507 33.4619 26.4348 33.3842 26.5801C33.3551 26.6285 33.3162 26.6673 33.2677 26.6964ZM31.3639 27.0839L32.5003 26.4251L28.3334 24.0321L27.2066 24.6812L31.3639 27.0839ZM26.2839 30.7169L24.5355 31.7245C24.4287 31.7826 24.3024 31.7729 24.215 31.7148L19.4458 28.9731C19.3001 28.8859 19.2515 28.7018 19.339 28.5565C19.3681 28.508 19.407 28.4693 19.4458 28.4402L21.1942 27.4326C21.301 27.3745 21.4273 27.3842 21.5244 27.4423L26.2839 30.1841C26.4296 30.2713 26.4782 30.4553 26.3907 30.6007C26.3616 30.6491 26.3227 30.6879 26.2839 30.7169ZM24.3801 31.1044L25.5166 30.4553L21.3496 28.0527L20.2229 28.7115L24.3801 31.1044ZM62.6792 23.5187L60.9308 24.5262C60.824 24.5843 60.6977 24.5747 60.6006 24.5165L55.8411 21.7748C55.6954 21.6876 55.6469 21.5035 55.7343 21.3485C55.7537 21.3098 55.7926 21.271 55.8411 21.2419L57.5895 20.2344C57.6963 20.1763 57.8226 20.1859 57.91 20.2441L62.6695 22.9858C62.8249 23.073 62.8735 23.2571 62.786 23.4024C62.7569 23.4508 62.718 23.4896 62.6792 23.5187ZM60.7754 23.9062L61.9021 23.2474L57.7449 20.8544L56.6085 21.5035L60.7754 23.9062ZM55.6857 27.5392L53.947 28.5468C53.8402 28.6049 53.7139 28.5952 53.6168 28.5371L48.8573 25.7954C48.7116 25.7082 48.6631 25.5241 48.7408 25.3788C48.7699 25.3303 48.8088 25.2916 48.8573 25.2625L50.6057 24.2549C50.7028 24.1968 50.8291 24.2065 50.9262 24.2646L55.6857 27.0064C55.8314 27.0936 55.8897 27.2776 55.8023 27.423C55.7731 27.4714 55.7343 27.5102 55.6857 27.5392ZM53.7916 27.9267L54.9184 27.2776L50.7611 24.875L49.6247 25.5241L53.7916 27.9267ZM48.7019 31.5598L46.9536 32.5673C46.8564 32.6255 46.7301 32.6158 46.633 32.5577L41.8736 29.8159C41.7279 29.7287 41.6793 29.5447 41.757 29.3993C41.7861 29.3509 41.825 29.3121 41.8736 29.2831L43.6219 28.2755C43.7191 28.2174 43.8453 28.2271 43.9425 28.2852L48.7019 31.0269C48.8476 31.1141 48.8962 31.2982 48.8185 31.4532C48.7893 31.5017 48.7505 31.5307 48.7019 31.5598ZM46.7981 31.9473L47.9346 31.2982L43.7773 28.8956L42.6409 29.5543L46.7981 31.9473ZM41.7181 35.5804L39.9698 36.5879C39.8629 36.646 39.7464 36.646 39.6492 36.5782L34.8898 33.8365C34.7441 33.759 34.6858 33.5652 34.7732 33.4199C34.8024 33.3715 34.8412 33.3327 34.8898 33.3036L36.6284 32.3058C36.7353 32.238 36.8616 32.2476 36.9587 32.3155L41.7181 35.0572C41.8638 35.1347 41.9124 35.3285 41.8347 35.4738C41.8056 35.5222 41.7667 35.561 41.7181 35.5804ZM39.8144 35.9679L40.9508 35.3188L36.7838 32.9258L35.6571 33.5749L39.8144 35.9679ZM54.4036 22.7727L52.6552 23.7802C52.5581 23.848 52.4318 23.8384 52.3347 23.7705L47.5752 21.0288C47.4295 20.9513 47.3712 20.7575 47.4586 20.6122C47.4878 20.5638 47.5266 20.525 47.5752 20.5056L49.3139 19.4981C49.4207 19.4303 49.547 19.44 49.6441 19.5078L54.4036 22.2495C54.5493 22.327 54.5978 22.5208 54.5201 22.6661C54.491 22.7145 54.4521 22.7533 54.4036 22.7727ZM52.4998 23.1602L53.6362 22.5111L49.4693 20.1181L48.3425 20.7672L52.4998 23.1602ZM47.4198 26.8029L45.6714 27.8105C45.5646 27.8686 45.4383 27.8589 45.3509 27.7911L40.5914 25.0591C40.436 24.9719 40.3874 24.7781 40.4749 24.6328C40.504 24.5843 40.5428 24.5456 40.5914 24.5262L42.3301 23.5187C42.4369 23.4605 42.5632 23.4605 42.6603 23.5283L47.4198 26.2701C47.5655 26.3476 47.614 26.5413 47.5266 26.6867C47.5072 26.7351 47.4684 26.7739 47.4198 26.8029ZM45.516 27.1808L46.6524 26.5317L42.4855 24.1387L41.3588 24.7878L45.516 27.1808ZM40.436 30.8235L38.6876 31.8311C38.5808 31.8892 38.4545 31.8795 38.3671 31.8214L33.5979 29.0796C33.4522 28.9924 33.4037 28.8084 33.4911 28.663C33.5202 28.6146 33.5591 28.5758 33.5979 28.5468L35.3463 27.5392C35.4531 27.4811 35.5794 27.4908 35.6765 27.5489L40.436 30.2906C40.5817 30.3778 40.6303 30.5619 40.5429 30.7072C40.5137 30.7557 40.4749 30.7944 40.436 30.8235ZM38.5322 31.211L39.659 30.5522L35.5017 28.1593L34.375 28.8084L38.5322 31.211ZM33.4522 34.8441L31.7039 35.8516C31.597 35.9097 31.4707 35.9001 31.3736 35.8419L26.6141 33.1002C26.4684 33.013 26.4199 32.8289 26.5073 32.6836C26.5267 32.6352 26.5656 32.5964 26.6141 32.5673L28.3625 31.5598C28.4694 31.5017 28.5956 31.5113 28.6831 31.5695L33.4425 34.3112C33.5979 34.3984 33.6465 34.5825 33.5591 34.7278C33.5299 34.7762 33.4911 34.815 33.4522 34.8441ZM31.5484 35.2316L32.6752 34.5825L28.5179 32.1798L27.3815 32.8386L31.5484 35.2316ZM59.1825 25.5241L57.4341 26.5317C57.3369 26.5898 57.2204 26.5898 57.1233 26.5317L54.7338 25.1559C54.5881 25.0784 54.5396 24.8847 54.627 24.7394C54.6561 24.6909 54.695 24.6522 54.7338 24.6231L56.4822 23.6252C56.589 23.5574 56.7153 23.5671 56.8124 23.6349L59.1825 25.0009C59.3281 25.0784 59.3767 25.2722 59.299 25.4175C59.2699 25.466 59.231 25.5047 59.1825 25.5241ZM57.2787 25.9116L58.4151 25.2625L56.6376 24.2453L55.5109 24.8944L57.2787 25.9116ZM52.1987 29.5543L50.4503 30.5619C50.3532 30.6103 50.2366 30.6103 50.1395 30.5619L47.75 29.1765C47.6043 29.099 47.5558 28.9052 47.6432 28.7599C47.6723 28.7115 47.7112 28.6727 47.75 28.6534L49.4984 27.6458C49.6053 27.5877 49.7315 27.5877 49.8189 27.6555L52.1987 29.0215C52.3444 29.099 52.3929 29.2928 52.3055 29.4381C52.2764 29.4865 52.2375 29.5253 52.1987 29.5543ZM50.2949 29.9322L51.4313 29.2831L49.6538 28.2658L48.5271 28.9149L50.2949 29.9322ZM45.2149 33.5749L43.4665 34.5825C43.3694 34.6406 43.2528 34.6309 43.1557 34.5825L40.7663 33.2068C40.6206 33.1196 40.572 32.9258 40.6594 32.7805C40.6788 32.732 40.7177 32.6933 40.7663 32.6739L42.5146 31.6664C42.6215 31.6082 42.7477 31.6179 42.8352 31.676L45.2052 33.0421C45.3606 33.1293 45.4092 33.3133 45.3217 33.4587C45.2926 33.5071 45.2537 33.5458 45.2149 33.5749ZM43.3111 33.9624L44.4378 33.3036L42.67 32.2864L41.5336 32.9355L43.3111 33.9624ZM38.2214 37.5955L36.4827 38.603C36.3759 38.6612 36.2593 38.6515 36.1719 38.603L33.7825 37.2273C33.6368 37.1401 33.5882 36.9561 33.6659 36.8107C33.6951 36.7623 33.7339 36.7236 33.7825 36.6945L35.5308 35.6869C35.628 35.6288 35.7542 35.6385 35.8514 35.6966L38.2214 37.0626C38.3671 37.1498 38.4254 37.3339 38.338 37.4792C38.3088 37.5277 38.27 37.5664 38.2214 37.5955ZM36.3273 37.983L37.4541 37.3339L35.6863 36.307L34.5498 36.9561L36.3273 37.983ZM66.1662 21.5035L64.4179 22.5111C64.3207 22.5692 64.2042 22.5595 64.1167 22.5111L61.7273 21.1354C61.5816 21.0482 61.5233 20.8641 61.6107 20.7188C61.6399 20.6703 61.6787 20.6316 61.7273 20.6025L63.466 19.595C63.5728 19.5368 63.6991 19.5465 63.7962 19.6047L66.1662 20.9707C66.3119 21.0579 66.3605 21.2419 66.2828 21.3873C66.2536 21.4357 66.2148 21.4745 66.1662 21.5035ZM64.2722 21.891L65.3989 21.2419L63.6214 20.215L62.4946 20.8738L64.2722 21.891ZM34.7344 39.6106L32.986 40.6085C32.8889 40.6666 32.7723 40.6666 32.6752 40.6085L30.2857 39.2328C30.14 39.1553 30.0915 38.9615 30.1789 38.8162C30.208 38.7677 30.2469 38.729 30.2857 38.7096L32.0341 37.702C32.1409 37.6439 32.2672 37.6439 32.3643 37.7117L34.7344 39.0778C34.8801 39.1553 34.9286 39.349 34.8412 39.4944C34.8218 39.5428 34.7829 39.5815 34.7344 39.6106ZM32.8306 39.9884L33.967 39.3393L32.1895 38.3221L31.0628 38.9712L32.8306 39.9884ZM61.3873 18.7521L59.6487 19.7597C59.5418 19.8178 59.4253 19.8178 59.3379 19.7597L56.9484 18.3839C56.8027 18.2968 56.7542 18.1127 56.8319 17.9674C56.861 17.9189 56.8999 17.8802 56.9484 17.8511L58.6968 16.8435C58.7939 16.7854 58.9202 16.7951 59.0173 16.8532L61.3873 18.2193C61.533 18.3064 61.5913 18.4905 61.5039 18.6455C61.4748 18.694 61.4359 18.723 61.3873 18.7521ZM59.4933 19.1396L60.62 18.4905L58.8522 17.4636L57.7158 18.1224L59.4933 19.1396ZM29.9555 36.8592L28.2071 37.8667C28.11 37.9152 27.9934 37.9152 27.8963 37.8667L25.5068 36.4813C25.3611 36.4038 25.3126 36.2101 25.4 36.0648C25.4291 36.0163 25.468 35.9776 25.5068 35.9582L27.2552 34.9506C27.3621 34.8925 27.4883 34.8925 27.5855 34.9603L29.9555 36.3263C30.1012 36.4038 30.1497 36.5976 30.072 36.7429C30.0429 36.7914 30.004 36.8301 29.9555 36.8592ZM28.0517 37.237L29.1881 36.5879L27.4106 35.5707L26.2839 36.2198L28.0517 37.237ZM56.6085 16.0007L54.8698 17.0082C54.7727 17.0664 54.6464 17.0664 54.559 17.0082L52.1695 15.6325C52.0238 15.5453 51.9753 15.3613 52.053 15.2159C52.0821 15.1675 52.121 15.1287 52.1695 15.0997L53.9179 14.0921C54.0247 14.034 54.1413 14.0437 54.2384 14.1018L56.6085 15.4678C56.7639 15.555 56.8124 15.7391 56.725 15.8941C56.6959 15.9425 56.657 15.9716 56.6085 16.0007ZM54.7144 16.3882L55.8411 15.7391L54.0733 14.7122L52.9369 15.3709L54.7144 16.3882ZM25.1766 34.1078L23.4282 35.1153C23.3311 35.1638 23.2145 35.1638 23.1271 35.1153L20.7377 33.7396C20.5823 33.6524 20.5337 33.4587 20.6211 33.3133C20.6502 33.2649 20.6891 33.2261 20.7377 33.2068L22.4763 32.1992C22.5832 32.1411 22.7094 32.1411 22.8066 32.2089L25.1766 33.5749C25.3223 33.6621 25.3709 33.8462 25.2931 33.9915C25.264 34.0399 25.2252 34.0787 25.1766 34.1078ZM23.2728 34.4856L24.4092 33.8365L22.6317 32.8192L21.505 33.4683L23.2728 34.4856ZM51.8393 13.2492L50.0909 14.2568C49.9938 14.3149 49.8772 14.3149 49.7801 14.2568L47.3906 12.8811C47.2449 12.7939 47.1964 12.6098 47.2838 12.4645C47.3129 12.4161 47.3518 12.3773 47.3906 12.3483L49.139 11.3407C49.2459 11.2826 49.3721 11.2922 49.4596 11.3504L51.8393 12.7164C51.985 12.8036 52.0335 12.9877 51.9461 13.1427C51.917 13.1911 51.8781 13.2202 51.8393 13.2492ZM49.9355 13.6368L51.0622 12.9877L49.2944 11.9607L48.158 12.6195L49.9355 13.6368Z" fill="black"/>
<path d="M31.8787 37.9637C31.8787 37.799 32.0147 37.6537 32.1895 37.6537C32.3643 37.6537 32.5003 37.799 32.5003 37.9637V39.9788C32.5003 40.1435 32.3643 40.2888 32.1895 40.2888C32.0147 40.2888 31.8787 40.1435 31.8787 39.9788V37.9637ZM17.5517 29.7094C17.5517 29.5447 17.6877 29.4091 17.8528 29.4091C18.0277 29.4091 18.1637 29.5447 18.1637 29.7094V31.7246C18.1637 31.8892 18.0277 32.0346 17.8528 32.0346C17.6877 32.0346 17.5517 31.8892 17.5517 31.7246V29.7094ZM21.0388 27.704C21.0388 27.5296 21.1747 27.394 21.3496 27.394C21.5244 27.394 21.6604 27.5296 21.6604 27.704V29.7094C21.6604 29.8838 21.5244 30.0194 21.3496 30.0194C21.1747 30.0194 21.0388 29.8838 21.0388 29.7094V27.704ZM24.5355 25.6889C24.5355 25.5242 24.6715 25.3788 24.8463 25.3788C25.0115 25.3788 25.1474 25.5242 25.1474 25.6889V27.704C25.1474 27.8687 25.0115 28.0043 24.8463 28.0043C24.6715 28.0043 24.5355 27.8687 24.5355 27.704V25.6889ZM22.3209 32.4608C22.3209 32.2961 22.4666 32.1605 22.6317 32.1605C22.8066 32.1605 22.9425 32.2961 22.9425 32.4608V34.476C22.9425 34.6407 22.8066 34.786 22.6317 34.786C22.4666 34.786 22.3209 34.6407 22.3209 34.476V32.4608ZM28.2071 31.8311C28.2071 31.6567 28.3431 31.5211 28.5179 31.5211C28.683 31.5211 28.8287 31.6567 28.8287 31.8311V33.8366C28.8287 34.0109 28.683 34.1466 28.5179 34.1466C28.3431 34.1466 28.2071 34.0109 28.2071 33.8366V31.8311ZM27.0998 35.2123C27.0998 35.0476 27.2455 34.9023 27.4106 34.9023C27.5855 34.9023 27.7214 35.0476 27.7214 35.2123V37.2274C27.7214 37.3921 27.5855 37.5374 27.4106 37.5374C27.2455 37.5374 27.0998 37.3921 27.0998 37.2274V35.2123ZM35.3754 35.9583C35.3754 35.7839 35.5114 35.6482 35.6863 35.6482C35.8514 35.6482 35.9874 35.7839 35.9874 35.9583V37.9637C35.9874 38.1381 35.8514 38.2737 35.6863 38.2737C35.5114 38.2737 35.3754 38.1381 35.3754 37.9637V35.9583ZM36.473 32.5674C36.473 32.393 36.6187 32.2574 36.7838 32.2574C36.9587 32.2574 37.0947 32.393 37.0947 32.5674V34.5825C37.0947 34.7472 36.9587 34.8829 36.7838 34.8829C36.6187 34.8829 36.473 34.7472 36.473 34.5825V32.5674ZM42.3592 31.928C42.3592 31.7633 42.4952 31.6277 42.67 31.6277C42.8352 31.6277 42.9809 31.7633 42.9809 31.928V33.9431C42.9809 34.1175 42.8352 34.2531 42.67 34.2531C42.4952 34.2531 42.3592 34.1175 42.3592 33.9431V31.928ZM43.4665 28.5468C43.4665 28.3725 43.6025 28.2368 43.7676 28.2368C43.9425 28.2368 44.0784 28.3725 44.0784 28.5468V30.5523C44.0784 30.7267 43.9425 30.8623 43.7676 30.8623C43.6025 30.8623 43.4665 30.7267 43.4665 30.5523V28.5468ZM49.343 27.9074C49.343 27.7427 49.479 27.5974 49.6538 27.5974C49.8189 27.5974 49.9646 27.7427 49.9646 27.9074V29.9226C49.9646 30.0873 49.8189 30.2326 49.6538 30.2326C49.479 30.2326 49.343 30.0873 49.343 29.9226V27.9074ZM50.4503 24.5263C50.4503 24.3519 50.5863 24.2163 50.7611 24.2163C50.9262 24.2163 51.0622 24.3519 51.0622 24.5263V26.5317C51.0622 26.7061 50.9262 26.8417 50.7611 26.8417C50.5863 26.8417 50.4503 26.7061 50.4503 26.5317V24.5263ZM56.3268 23.8869C56.3268 23.7222 56.4725 23.5768 56.6376 23.5768C56.8124 23.5768 56.9484 23.7222 56.9484 23.8869V25.902C56.9484 26.0667 56.8124 26.2023 56.6376 26.2023C56.4725 26.2023 56.3268 26.0667 56.3268 25.902V23.8869ZM57.4341 20.496C57.4341 20.3313 57.5701 20.1957 57.7449 20.1957C57.91 20.1957 58.0557 20.3313 58.0557 20.496V22.5112C58.0557 22.6855 57.91 22.8212 57.7449 22.8212C57.5701 22.8212 57.4341 22.6855 57.4341 22.5112V20.496ZM63.3203 19.8663C63.3203 19.6919 63.4563 19.5563 63.6214 19.5563C63.7962 19.5563 63.9322 19.6919 63.9322 19.8663V21.8717C63.9322 22.0461 63.7962 22.1818 63.6214 22.1818C63.4563 22.1818 63.3203 22.0461 63.3203 21.8717V19.8663ZM58.5414 17.1149C58.5414 16.9405 58.6774 16.8049 58.8522 16.8049C59.0173 16.8049 59.1533 16.9405 59.1533 17.1149V19.1203C59.1533 19.2947 59.0173 19.4303 58.8522 19.4303C58.6774 19.4303 58.5414 19.2947 58.5414 19.1203V17.1149ZM53.7625 14.3634C53.7625 14.1891 53.8985 14.0534 54.0733 14.0534C54.2384 14.0534 54.3744 14.1891 54.3744 14.3634V16.3689C54.3744 16.5433 54.2384 16.6789 54.0733 16.6789C53.8985 16.6789 53.7625 16.5433 53.7625 16.3689V14.3634ZM48.9836 11.612C48.9836 11.4376 49.1196 11.302 49.2944 11.302C49.4596 11.302 49.6053 11.4376 49.6053 11.612V13.6175C49.6053 13.7918 49.4596 13.9275 49.2944 13.9275C49.1196 13.9275 48.9836 13.7918 48.9836 13.6175V11.612ZM45.4869 13.6271C45.4869 13.4528 45.6326 13.3171 45.7977 13.3171C45.9725 13.3171 46.1085 13.4528 46.1085 13.6271V15.6326C46.1085 15.807 45.9725 15.9426 45.7977 15.9426C45.6326 15.9426 45.4869 15.807 45.4869 15.6326V13.6271ZM50.2657 16.3786C50.2657 16.2042 50.4017 16.0686 50.5766 16.0686C50.7514 16.0686 50.8874 16.2042 50.8874 16.3786V18.384C50.8874 18.5584 50.7514 18.694 50.5766 18.694C50.4017 18.694 50.2657 18.5584 50.2657 18.384V16.3786ZM41.9998 15.6326C41.9998 15.4679 42.1358 15.3226 42.3106 15.3226C42.4758 15.3226 42.6118 15.4679 42.6118 15.6326V17.6477C42.6118 17.8124 42.4758 17.9577 42.3106 17.9577C42.1358 17.9577 41.9998 17.8124 41.9998 17.6477V15.6326ZM49.1682 19.7597C49.1682 19.595 49.3041 19.4497 49.4693 19.4497C49.6441 19.4497 49.7801 19.595 49.7801 19.7597V21.7749C49.7801 21.9396 49.6441 22.0752 49.4693 22.0752C49.3041 22.0752 49.1682 21.9396 49.1682 21.7749V19.7597ZM43.282 20.3991C43.282 20.2248 43.418 20.0891 43.5928 20.0891C43.7579 20.0891 43.9036 20.2248 43.9036 20.3991V22.4046C43.9036 22.579 43.7579 22.7146 43.5928 22.7146C43.418 22.7146 43.282 22.579 43.282 22.4046V20.3991ZM38.5031 17.6477C38.5031 17.4733 38.6391 17.3377 38.8139 17.3377C38.9887 17.3377 39.1247 17.4733 39.1247 17.6477V19.6532C39.1247 19.8275 38.9887 19.9632 38.8139 19.9632C38.6391 19.9632 38.5031 19.8275 38.5031 19.6532V17.6477ZM35.016 19.6532C35.016 19.4885 35.152 19.3528 35.3172 19.3528C35.492 19.3528 35.628 19.4885 35.628 19.6532V21.6683C35.628 21.833 35.492 21.9783 35.3172 21.9783C35.152 21.9783 35.016 21.833 35.016 21.6683V19.6532ZM42.1747 23.7803C42.1747 23.6156 42.3204 23.4703 42.4855 23.4703C42.6603 23.4703 42.7963 23.6156 42.7963 23.7803V25.7954C42.7963 25.9601 42.6603 26.1054 42.4855 26.1054C42.3204 26.1054 42.1747 25.9601 42.1747 25.7954V23.7803ZM36.2982 24.4197C36.2982 24.2453 36.4342 24.1097 36.609 24.1097C36.7741 24.1097 36.9101 24.2453 36.9101 24.4197V26.4251C36.9101 26.5995 36.7741 26.7352 36.609 26.7352C36.4342 26.7352 36.2982 26.5995 36.2982 26.4251V24.4197ZM31.5193 21.6683C31.5193 21.4939 31.6553 21.3583 31.8301 21.3583C31.9952 21.3583 32.1409 21.4939 32.1409 21.6683V23.6834C32.1409 23.8481 31.9952 23.9837 31.8301 23.9837C31.6553 23.9837 31.5193 23.8481 31.5193 23.6834V21.6683ZM28.0225 23.6834C28.0225 23.509 28.1682 23.3734 28.3334 23.3734C28.5082 23.3734 28.6442 23.509 28.6442 23.6834V25.6889C28.6442 25.8632 28.5082 25.9989 28.3334 25.9989C28.1682 25.9989 28.0225 25.8632 28.0225 25.6889V23.6834ZM35.1909 27.8009C35.1909 27.6362 35.3269 27.5005 35.5017 27.5005C35.6765 27.5005 35.8125 27.6362 35.8125 27.8009V29.816C35.8125 29.9904 35.6765 30.126 35.5017 30.126C35.3269 30.126 35.1909 29.9904 35.1909 29.816V27.8009ZM29.3144 28.4403C29.3144 28.2756 29.4504 28.1303 29.6155 28.1303C29.7903 28.1303 29.9263 28.2756 29.9263 28.4403V30.4554C29.9263 30.6201 29.7903 30.7557 29.6155 30.7557C29.4504 30.7557 29.3144 30.6201 29.3144 30.4554V28.4403Z" fill="black"/>
</g>
<defs>
<linearGradient id="paint0_linear_272_4505" x1="17.4352" y1="34.6407" x2="43.2829" y2="4.60927" gradientUnits="userSpaceOnUse">
<stop stop-color="#D79E8A"/>
<stop offset="1" stop-color="#FFC586"/>
</linearGradient>
<linearGradient id="paint1_linear_272_4505" x1="33.4717" y1="42.7303" x2="70.1012" y2="21.5282" gradientUnits="userSpaceOnUse">
<stop stop-color="#B57E70"/>
<stop offset="1" stop-color="#E1A35D"/>
</linearGradient>
<linearGradient id="paint2_linear_272_4505" x1="11.9764" y1="30.3489" x2="48.6059" y2="9.14681" gradientUnits="userSpaceOnUse">
<stop stop-color="#E3BCAE"/>
<stop offset="1" stop-color="#FFD7AB"/>
</linearGradient>
<clipPath id="clip0_272_4505">
<rect width="82.125" height="60" fill="white"/>
</clipPath>
</defs>
</svg>
