<svg width="82" height="60" viewBox="0 0 82 60" fill="none" xmlns="http://www.w3.org/2000/svg">
<g clip-path="url(#clip0_272_4550)">
<path fill-rule="evenodd" clip-rule="evenodd" d="M0 0.0631104H81.913V59.9368H0V0.0631104Z" fill="white"/>
<path fill-rule="evenodd" clip-rule="evenodd" d="M11.9436 30.3504L48.5284 9.22791L69.9695 21.6104V37.8904L44.1106 52.8217C38.2131 56.227 28.5669 56.227 22.6659 52.8217L11.9436 46.6304V30.3504Z" fill="#8F7061"/>
<path fill-rule="evenodd" clip-rule="evenodd" d="M11.9436 30.3504L48.5284 9.22791L69.9695 21.6104V37.8904L44.1106 52.8217C38.2131 56.227 28.5669 56.227 22.6659 52.8217L11.9436 46.6304V30.3504Z" fill="#BA7D5D"/>
<path fill-rule="evenodd" clip-rule="evenodd" d="M11.9436 30.3505V46.6304L22.6659 52.8217V36.5382L11.9436 30.3505Z" fill="#CFA173"/>
<path fill-rule="evenodd" clip-rule="evenodd" d="M56.84 29.1894L44.1105 36.5382V52.8217L69.9694 37.8904V21.6105L64.026 25.0406L63.7215 25.2176L60.879 26.8566L60.5533 27.0477L57.0241 29.0832L56.84 29.1894Z" fill="#976349"/>
<path fill-rule="evenodd" clip-rule="evenodd" d="M11.5613 29.508L48.0681 8.43147C48.362 8.26155 48.7124 8.27217 48.9885 8.43147L70.4332 20.8105C70.727 20.9839 70.8934 21.2919 70.8934 21.6105V37.8904C70.8934 38.2621 70.6739 38.5843 70.3553 38.7294L44.5707 53.6182C41.4769 55.4058 37.4237 56.2979 33.3882 56.2979C29.3527 56.2979 25.2996 55.4058 22.2057 53.6182L11.4834 47.4269C11.1896 47.257 11.0232 46.949 11.0232 46.6304L11.0197 30.3505C11.0197 29.9752 11.2427 29.6531 11.5613 29.508ZM11.9436 30.3505L48.5283 9.22794L69.9694 21.6105V37.8904L44.1105 52.8217C38.2131 56.2271 28.5669 56.2271 22.6659 52.8217L11.9436 46.6304V30.3505Z" fill="black"/>
<path d="M22.8217 52.5562C22.9668 52.6411 23.0164 52.8287 22.9314 52.9739C22.8465 53.1226 22.6588 53.1721 22.5137 53.0872L11.7914 46.8959C11.6923 46.8393 11.6392 46.7366 11.6392 46.6304L11.6356 30.3504C11.6356 30.1805 11.7737 30.0425 11.9436 30.0425C12.0108 30.0425 12.0675 30.0602 12.117 30.0956L22.8217 36.2727C22.9668 36.3576 23.0164 36.5453 22.9314 36.6939C22.8465 36.8391 22.6588 36.8886 22.5137 36.8037L12.2516 30.8814V46.4534L22.8217 52.5562Z" fill="black"/>
<path d="M70.1252 21.3449C70.2703 21.4299 70.3199 21.6175 70.2349 21.7626C70.15 21.9113 69.9623 21.9609 69.8172 21.8759L48.5248 9.58189L12.0993 30.6159C11.9506 30.7009 11.763 30.6478 11.6781 30.5026C11.5967 30.354 11.6462 30.1663 11.7913 30.0849L48.3584 8.97303C48.4504 8.90931 48.5779 8.90223 48.6805 8.96241L70.1252 21.3449Z" fill="black"/>
<path d="M22.9739 52.8217C22.9739 52.9916 22.8358 53.1297 22.6659 53.1297C22.496 53.1297 22.3579 52.9916 22.3579 52.8217V36.5382C22.3579 36.3683 22.496 36.2302 22.6659 36.2302C22.8358 36.2302 22.9739 36.3683 22.9739 36.5382V52.8217Z" fill="black"/>
<path d="M43.9548 52.5562C44.1035 52.4713 44.2911 52.5208 44.376 52.6659C44.461 52.8146 44.4114 53.0022 44.2628 53.0872C41.268 54.8182 37.3246 55.6819 33.3882 55.6819C29.4554 55.6819 25.512 54.8182 22.5137 53.0872C22.3685 53.0022 22.3155 52.8146 22.4004 52.6695C22.4854 52.5208 22.673 52.4713 22.8181 52.5562C25.7208 54.2306 29.551 55.066 33.3882 55.066C37.2255 55.066 41.0556 54.2306 43.9548 52.5562Z" fill="black"/>
<path d="M43.8026 36.5382C43.8026 36.3683 43.9406 36.2302 44.1105 36.2302C44.2804 36.2302 44.4185 36.3683 44.4185 36.5382V52.8217C44.4185 52.9916 44.2804 53.1297 44.1105 53.1297C43.9406 53.1297 43.8026 52.9916 43.8026 52.8217V36.5382Z" fill="black"/>
<path d="M44.2627 53.0872C44.1176 53.1721 43.93 53.119 43.845 52.9739C43.7601 52.8252 43.8096 52.6376 43.9583 52.5562L69.6614 37.7134V22.1414L44.2627 36.8037C41.268 38.5347 37.3246 39.4019 33.3882 39.4019C29.4518 39.4019 25.5119 38.5347 22.5137 36.8037C22.365 36.7187 22.3154 36.5311 22.4004 36.386C22.4853 36.2373 22.673 36.1877 22.8216 36.2727C25.7208 37.9471 29.551 38.786 33.3882 38.786C37.2254 38.786 41.0556 37.9471 43.9548 36.2727L69.7924 21.3591C69.842 21.3237 69.9022 21.3025 69.9694 21.3025C70.1393 21.3025 70.2774 21.4405 70.2774 21.6105V37.8904C70.2774 37.9966 70.2207 38.0993 70.1216 38.1559L44.2627 53.0872Z" fill="black"/>
<path d="M18.4145 30.1593C18.372 30.2301 17.7915 29.9752 17.1224 29.5894C16.4534 29.2035 15.9436 28.8283 15.9861 28.754C16.0286 28.6832 16.6056 28.938 17.2746 29.3239C17.9437 29.7097 18.457 30.085 18.4145 30.1593ZM62.8719 24.6902C62.5534 24.4955 62.3374 24.3362 62.3516 24.3079C62.3551 24.3008 62.3693 24.3008 62.3905 24.3079C62.3764 24.2866 62.3728 24.2725 62.3764 24.2654C62.4188 24.191 63.0702 24.4884 63.849 24.938L64.0259 25.0406L63.8667 25.1327L63.7746 25.1858L63.7251 25.2176L63.6967 25.1999C63.3817 25.0194 63.0985 24.8424 62.8719 24.6902ZM56.84 29.1894C56.5108 29.0513 56.001 28.7894 55.4453 28.4672C54.5214 27.9327 53.8098 27.4371 53.8594 27.3557C53.9054 27.2743 54.6913 27.6389 55.6152 28.1734C56.2347 28.531 56.7586 28.8708 57.024 29.0832L56.84 29.1894ZM48.2062 33.724C48.1566 33.8125 47.6823 33.6319 47.1513 33.324C46.6168 33.016 46.2238 32.6974 46.2734 32.6089C46.323 32.5239 46.7973 32.7045 47.3318 33.0125C47.8628 33.3169 48.2557 33.639 48.2062 33.724ZM46.5495 34.6727C46.4575 34.8284 45.7814 34.6054 45.0344 34.1735C44.2911 33.7452 43.7565 33.2673 43.8486 33.1116C43.9371 32.9558 44.6167 33.1788 45.3601 33.6107C46.107 34.039 46.638 34.5169 46.5495 34.6727ZM41.2999 30.269C41.2715 30.3186 40.953 30.1876 40.5813 29.9717C40.2096 29.7558 39.9335 29.5469 39.9618 29.4938C39.9901 29.4478 40.3122 29.5788 40.6875 29.7947C41.0592 30.0071 41.3282 30.2195 41.2999 30.269ZM55.3745 17.89C55.3674 17.9007 55.2222 17.8263 55.0453 17.7237C54.8683 17.6246 54.7302 17.5325 54.7373 17.5219C54.7408 17.5148 54.8895 17.5892 55.063 17.6918C55.2399 17.7945 55.378 17.883 55.3745 17.89ZM65.2578 21.8087C65.2401 21.8406 64.7375 21.5857 64.1357 21.2388C63.5339 20.8919 63.0631 20.5839 63.0808 20.552C63.0985 20.5237 63.5976 20.7786 64.2029 21.1255C64.8012 21.4724 65.2755 21.7768 65.2578 21.8087ZM51.608 25.0583C51.5832 25.0973 51.2399 24.9486 50.8434 24.7185C50.4434 24.4884 50.1425 24.2689 50.1673 24.2264C50.1921 24.184 50.5319 24.3362 50.9319 24.5627C51.3284 24.7928 51.6328 25.0158 51.608 25.0583ZM60.3799 22.2299C60.2843 22.3963 59.463 22.1025 58.5391 21.5715C57.6258 21.0405 56.9603 20.4777 57.0559 20.3078C57.155 20.1414 57.9763 20.4352 58.8931 20.9627C59.8135 21.4937 60.479 22.06 60.3799 22.2299ZM26.981 33.2532C26.9633 33.2886 26.5952 33.1151 26.1668 32.8673C25.7314 32.616 25.3987 32.3859 25.4199 32.3505C25.4412 32.3151 25.8058 32.485 26.2412 32.7363C26.6695 32.9841 27.0023 33.2142 26.981 33.2532ZM25.5863 28.8071C25.5084 28.9451 24.8712 28.7256 24.1668 28.3186C23.4659 27.915 22.9632 27.4761 23.0411 27.338C23.119 27.2035 23.7526 27.4194 24.4535 27.8265C25.1544 28.2301 25.6642 28.6725 25.5863 28.8071ZM31.3846 32.393C31.3422 32.4602 30.7333 32.1841 30.0147 31.7699C29.3032 31.3593 28.758 30.9699 28.8005 30.8991C28.8395 30.8319 29.4483 31.108 30.1598 31.5186C30.8784 31.9328 31.4236 32.3222 31.3846 32.393ZM19.9366 29.023C19.8977 29.0938 19.4658 28.9239 18.9773 28.6407C18.4853 28.3575 18.1242 28.0708 18.1631 28C18.2056 27.9292 18.634 28.0991 19.126 28.3823C19.6145 28.6655 19.9791 28.9522 19.9366 29.023ZM61.902 26.269C61.6542 26.1203 61.4737 25.9822 61.4914 25.9539C61.5091 25.9221 61.7427 26.0247 62.0188 26.184L62.033 26.1911L61.902 26.269ZM28.7333 26.938C28.712 26.9734 28.4501 26.8601 28.1386 26.6796C27.8306 26.5026 27.5934 26.3291 27.6147 26.2902C27.6359 26.2548 27.9049 26.3716 28.2129 26.5486C28.5244 26.7291 28.7545 26.9026 28.7333 26.938ZM45.2504 17.575C45.2256 17.6175 44.8468 17.4405 44.3973 17.1821C43.9477 16.9201 43.6079 16.6829 43.6291 16.6405C43.6539 16.6015 44.0327 16.775 44.4822 17.0369C44.9282 17.2953 45.2716 17.5361 45.2504 17.575ZM53.9762 21.2459C53.9479 21.2919 53.7532 21.2317 53.5373 21.1043C53.3213 20.9804 53.1726 20.8423 53.201 20.7963C53.2293 20.7503 53.4204 20.8105 53.6364 20.9343C53.8523 21.0582 54.0045 21.1963 53.9762 21.2459ZM60.5533 27.0477L60.4011 26.9628C59.6117 26.5061 59.0135 26.0743 59.0595 25.9964C59.1055 25.915 59.7781 26.2159 60.5675 26.6725C60.6772 26.7362 60.7799 26.7964 60.879 26.8566L60.5533 27.0477ZM31.3386 39.0126C31.105 38.8957 30.8324 38.7506 30.5492 38.5842C29.7315 38.1134 29.112 37.678 29.1545 37.6001C29.197 37.5258 29.8873 37.8444 30.705 38.3152C31.1864 38.5949 31.6006 38.8603 31.8519 39.048C31.6784 39.0373 31.5085 39.0267 31.3386 39.0126ZM55.1939 13.9112C55.1514 13.9891 54.6913 13.8086 54.1815 13.5147C53.6541 13.2103 53.2718 12.9059 53.3142 12.828C53.3603 12.7501 53.8169 12.9271 54.3444 13.2315C54.8541 13.5289 55.2399 13.8333 55.1939 13.9112ZM45.4309 16.7396C45.4061 16.7856 45.2114 16.7254 44.999 16.6015C44.7902 16.4812 44.6415 16.3431 44.6663 16.2971C44.6946 16.2511 44.8893 16.3113 45.0982 16.4316C45.3106 16.552 45.4592 16.69 45.4309 16.7396ZM39.3565 28.092C39.2963 28.1982 38.7228 27.9787 38.0786 27.607C37.4378 27.2389 36.9635 26.8495 37.0237 26.7468C37.0839 26.6406 37.6538 26.8566 38.298 27.2283C38.9423 27.6 39.4166 27.9893 39.3565 28.092ZM39.9795 26.2371C39.9547 26.2796 39.5087 26.0707 38.9848 25.7663C38.4609 25.4654 38.0573 25.1822 38.0821 25.1397C38.1069 25.0973 38.5529 25.3061 39.0768 25.6105C39.5972 25.9114 40.0043 26.1911 39.9795 26.2371ZM43.2964 26.5274C43.2751 26.5663 42.907 26.3929 42.4645 26.138C42.0255 25.8867 41.6857 25.6495 41.7069 25.6105C41.7317 25.5751 42.1034 25.7486 42.5424 26.0035C42.9848 26.2583 43.3176 26.4884 43.2964 26.5274ZM45.7495 21.7662C45.7353 21.791 45.5336 21.7025 45.3035 21.568C45.0698 21.4335 44.8858 21.3025 44.9035 21.2777C44.9176 21.2529 45.1194 21.345 45.353 21.4795C45.5867 21.6105 45.7637 21.7414 45.7495 21.7662ZM18.0357 31.2354C18.018 31.2673 17.8092 31.1788 17.5684 31.0407C17.3313 30.9027 17.1507 30.7646 17.1684 30.7363C17.1861 30.7044 17.395 30.7929 17.6322 30.931C17.8729 31.069 18.0534 31.2071 18.0357 31.2354ZM39.7565 33.4585C39.7175 33.5222 38.6379 32.97 37.3493 32.2266C36.0608 31.4797 35.0449 30.8248 35.0803 30.7611C35.1192 30.6974 36.1953 31.2496 37.4839 31.993C38.7724 32.7363 39.7919 33.3948 39.7565 33.4585ZM51.3921 28.9982C51.3531 29.069 50.6275 28.7256 49.7744 28.2336C48.9177 27.738 48.2557 27.2814 48.2947 27.2106C48.3372 27.1433 49.0628 27.4867 49.9195 27.9787C50.7726 28.4743 51.431 28.931 51.3921 28.9982ZM51.1868 21.3273C51.1231 21.437 50.6239 21.2636 50.0646 20.9414C49.5124 20.6228 49.1124 20.2724 49.1726 20.1662C49.2363 20.0565 49.739 20.2299 50.2912 20.552C50.8505 20.8742 51.2505 21.2211 51.1868 21.3273ZM32.0643 24.984C32.0077 25.0831 31.5616 24.9309 31.066 24.6442C30.5634 24.3539 30.2059 24.0424 30.2625 23.9433C30.3191 23.8441 30.7722 23.9964 31.2714 24.2866C31.7669 24.5734 32.1209 24.8849 32.0643 24.984ZM46.5354 16.3573C46.4752 16.467 45.5123 16.0281 44.3902 15.3803C43.268 14.7289 42.4078 14.1201 42.4716 14.0103C42.5317 13.9041 43.4911 14.3431 44.6132 14.9909C45.7389 15.6387 46.5991 16.2511 46.5354 16.3573ZM54.1992 16.4705C54.1851 16.4953 53.8063 16.3042 53.3567 16.0422C52.9072 15.7838 52.5567 15.5573 52.5709 15.5325C52.585 15.5077 52.9567 15.6953 53.4063 15.9537C53.8594 16.2157 54.2134 16.4458 54.1992 16.4705ZM50.7549 16.244C50.7266 16.2936 50.5 16.2121 50.2487 16.067C50.0044 15.9254 49.8204 15.7696 49.8487 15.7201C49.877 15.6705 50.1071 15.7484 50.3514 15.89C50.6027 16.0351 50.7832 16.1944 50.7549 16.244ZM52.9213 30.708C52.9072 30.7328 52.6983 30.6407 52.4611 30.5027C52.2204 30.3646 52.0363 30.2336 52.0505 30.2053C52.0647 30.1841 52.27 30.2726 52.5142 30.4142C52.7479 30.5522 52.9355 30.6832 52.9213 30.708ZM25.8695 26.1557C25.8482 26.1911 25.4907 26.0247 25.0765 25.784C24.6553 25.5397 24.3332 25.3167 24.3544 25.2813C24.3757 25.2459 24.7296 25.4123 25.1509 25.653C25.5651 25.8937 25.8907 26.1203 25.8695 26.1557ZM49.1018 11.6634C49.0876 11.6882 48.7796 11.5359 48.4115 11.3235C48.0469 11.1147 47.7602 10.92 47.7743 10.8952C47.792 10.8704 48.1 11.0227 48.4681 11.2315C48.8327 11.4439 49.1195 11.6351 49.1018 11.6634ZM37.9688 37.7594C37.9263 37.8338 37.544 37.6957 37.1263 37.455C36.7015 37.2072 36.3971 36.9488 36.4396 36.8745C36.4821 36.8001 36.8573 36.9346 37.2856 37.1824C37.7033 37.4232 38.0148 37.6816 37.9688 37.7594ZM40.7406 21.8299C40.6875 21.922 40.2945 21.7945 39.8627 21.5432C39.4273 21.2954 39.1193 21.0158 39.1724 20.9237C39.2255 20.8317 39.622 20.9591 40.0538 21.2105C40.4857 21.4618 40.7937 21.7379 40.7406 21.8299ZM36.9069 18.4847C36.8538 18.5732 36.3653 18.3927 35.8024 18.067C35.2467 17.7484 34.8396 17.4122 34.8927 17.3201C34.9458 17.2281 35.4378 17.4122 35.9936 17.7343C36.5564 18.06 36.96 18.3927 36.9069 18.4847Z" fill="black"/>
<path fill-rule="evenodd" clip-rule="evenodd" d="M11.7944 30.4057L48.5427 9.18921L70.0839 21.6264V37.9815L44.1062 52.9797C38.1809 56.4004 28.4904 56.4007 22.5651 52.9797L11.7944 46.7613V30.4057Z" fill="#8F7061"/>
<path fill-rule="evenodd" clip-rule="evenodd" d="M11.7944 30.4057L48.5427 9.18921L70.0839 21.6264V37.9815L44.1062 52.9797C38.1809 56.4004 28.4904 56.4007 22.5651 52.9797L11.7944 46.7613V30.4057Z" fill="#BA7D5D"/>
<path fill-rule="evenodd" clip-rule="evenodd" d="M11.7944 30.4058V46.7613L34.0596 58.765V42.4095L11.7944 30.4058Z" fill="#CFA173"/>
<path fill-rule="evenodd" clip-rule="evenodd" d="M51.5577 32.2262L33.6013 42.4999V58.8554L70.0839 37.9816V21.6261L61.6972 26.4248L61.2704 26.6686L57.2601 28.9634L56.7973 29.228L51.8202 32.0758L51.5577 32.2262Z" fill="#976349"/>
<path fill-rule="evenodd" clip-rule="evenodd" d="M18.2927 30.214C18.2503 30.2872 17.6656 30.0298 16.9956 29.643C16.3222 29.2542 15.8104 28.8788 15.8527 28.8049C15.8949 28.7321 16.4754 28.989 17.1489 29.3774C17.8189 29.7646 18.3348 30.1406 18.2927 30.214ZM62.9535 24.721C62.6344 24.5253 62.4149 24.3659 62.4316 24.3372C62.4348 24.3318 62.4481 24.3318 62.4691 24.3366C62.4552 24.317 62.4505 24.3025 62.4558 24.2932C62.4986 24.2193 63.1531 24.5186 63.9345 24.9698L64.1124 25.0741L63.9525 25.1663L63.8618 25.2186L63.8086 25.2495L63.7823 25.2343C63.4647 25.0508 63.1794 24.8735 62.9551 24.7222L62.9547 24.7218L62.9535 24.721ZM56.8922 29.2425C56.5636 29.102 56.0523 28.8386 55.4937 28.5158C54.5652 27.9797 53.8516 27.4799 53.8989 27.3979C53.9466 27.3159 54.7358 27.6839 55.6645 28.2199C56.2841 28.5777 56.8111 28.9212 57.0795 29.1344L56.8922 29.2425ZM48.2202 33.7974C48.1704 33.8838 47.6932 33.7028 47.1612 33.3958C46.623 33.085 46.2287 32.7632 46.2789 32.6765C46.329 32.5895 46.8047 32.7709 47.3428 33.0813C47.8749 33.3883 48.2704 33.7102 48.2202 33.7974ZM46.5552 34.7481C46.4648 34.9047 45.7846 34.681 45.035 34.2483C44.2871 33.8166 43.7523 33.3388 43.8426 33.1822C43.9333 33.025 44.6145 33.249 45.3628 33.681C46.1121 34.1137 46.6456 34.5909 46.5552 34.7481ZM41.2841 30.3245C41.2554 30.3746 40.9356 30.2427 40.5628 30.0273C40.1883 29.811 39.911 29.5984 39.94 29.5482C39.9682 29.4991 40.2922 29.6315 40.6664 29.8472C41.0393 30.0627 41.3129 30.2752 41.2841 30.3245ZM55.4201 17.8907C55.4146 17.8994 55.2687 17.8259 55.0908 17.7235C54.9147 17.6218 54.776 17.5307 54.7813 17.5214C54.7856 17.5127 54.9341 17.588 55.1099 17.6895C55.2882 17.7923 55.425 17.8821 55.4201 17.8907ZM65.3489 21.8273C65.3305 21.8592 64.8258 21.6013 64.2233 21.2538C63.6176 20.9041 63.1445 20.5971 63.163 20.5652C63.1809 20.534 63.6833 20.7906 64.2889 21.1403C64.8914 21.4881 65.3668 21.796 65.3489 21.8273ZM51.6376 25.0901C51.6137 25.1316 51.2687 24.9793 50.8684 24.7485C50.4696 24.5182 50.1672 24.2963 50.191 24.2551C50.2161 24.2124 50.5584 24.3644 50.9573 24.5947C51.3571 24.8256 51.6619 25.0474 51.6376 25.0901ZM60.4507 22.2479C60.3535 22.4162 59.5278 22.121 58.6024 21.5868C57.6827 21.0558 57.0139 20.4881 57.111 20.3201C57.2089 20.1508 58.0349 20.4461 58.9546 20.9768C59.8797 21.511 60.5482 22.0792 60.4507 22.2479ZM26.9003 33.3221C26.8796 33.358 26.5104 33.1849 26.0796 32.9361C25.6432 32.6846 25.3099 32.4521 25.3306 32.4156C25.352 32.3791 25.7193 32.552 26.1557 32.804C26.5865 33.0528 26.9213 33.2853 26.9003 33.3221ZM25.4981 28.8581C25.4188 28.9949 24.7792 28.7739 24.0735 28.3667C23.3694 27.9597 22.8622 27.5187 22.9411 27.3816C23.0206 27.2441 23.6557 27.4635 24.3601 27.8706C25.0654 28.2778 25.5776 28.7204 25.4981 28.8581ZM31.3212 32.458C31.2814 32.5276 30.6682 32.2497 29.9478 31.8341C29.2307 31.42 28.6845 31.0288 28.7251 30.9589C28.7649 30.8889 29.3764 31.1669 30.0939 31.5809C30.8143 31.9969 31.3619 32.388 31.3212 32.458ZM19.8228 29.0738C19.7816 29.1453 19.349 28.9735 18.8581 28.6901C18.366 28.406 18.0008 28.1172 18.042 28.0457C18.0835 27.9742 18.5155 28.1466 19.0077 28.4307C19.4987 28.7142 19.8643 29.0023 19.8228 29.0738ZM61.9789 26.3058C61.7282 26.1566 61.5484 26.0204 61.5661 25.9901C61.5836 25.9595 61.8198 26.0607 62.0978 26.221L62.1116 26.2286L61.9789 26.3058ZM28.6591 26.9777C28.6381 27.0142 28.3734 26.901 28.0603 26.7199C27.7514 26.5416 27.5156 26.3659 27.5367 26.3296C27.5573 26.2934 27.8279 26.4094 28.1367 26.5877C28.45 26.7685 28.6799 26.9418 28.6591 26.9777ZM45.2504 17.575C45.227 17.6159 44.8447 17.4382 44.3944 17.1783C43.9423 16.9167 43.6003 16.6768 43.6241 16.6357C43.6474 16.5955 44.0264 16.7709 44.4789 17.0319C44.9292 17.2918 45.2737 17.5344 45.2504 17.575ZM54.0171 21.26C53.99 21.3076 53.7928 21.2454 53.5749 21.1198C53.3608 20.996 53.2103 20.8574 53.2378 20.81C53.2658 20.7621 53.4604 20.823 53.6745 20.9471C53.8925 21.0725 54.045 21.212 54.0171 21.26ZM60.6233 27.0885L60.4726 27.0025C59.6795 26.5444 59.0784 26.112 59.1245 26.0322C59.1709 25.9518 59.8466 26.2551 60.6398 26.7127C60.7478 26.7753 60.8527 26.8372 60.9527 26.8981L60.6233 27.0885ZM31.2748 39.11C31.0409 38.9921 30.7689 38.8451 30.4826 38.6798C29.6634 38.2066 29.0385 37.7665 29.0822 37.6904C29.1261 37.6148 29.82 37.9355 30.6392 38.4084C31.122 38.6872 31.5395 38.9562 31.7905 39.145C31.6181 39.1352 31.4466 39.1232 31.2748 39.11V39.11ZM55.2418 13.8943C55.1969 13.972 54.7367 13.7909 54.2221 13.4935C53.6946 13.1893 53.3088 12.882 53.3537 12.8044C53.3989 12.726 53.8577 12.9061 54.3854 13.2106C54.8998 13.5078 55.2867 13.8164 55.2418 13.8943ZM45.4336 16.7329C45.407 16.779 45.2118 16.7186 44.9982 16.5955C44.7894 16.4745 44.6389 16.3359 44.6658 16.2894C44.6934 16.2421 44.8881 16.3037 45.0969 16.4243C45.3102 16.5476 45.4609 16.6852 45.4336 16.7329ZM39.3319 28.1401C39.271 28.2456 38.6947 28.0263 38.047 27.652C37.4017 27.2797 36.9264 26.892 36.9873 26.7867C37.0483 26.6812 37.6217 26.8981 38.2673 27.2707C38.9147 27.6449 39.3929 28.0349 39.3319 28.1401ZM39.9577 26.2739C39.9329 26.3173 39.483 26.1061 38.9587 25.8035C38.431 25.499 38.0265 25.2168 38.0515 25.1734C38.0766 25.1297 38.5226 25.3406 39.05 25.6451C39.5743 25.9477 39.9828 26.2303 39.9577 26.2739ZM43.2881 26.567C43.266 26.6047 42.8956 26.4317 42.4539 26.1768C42.0123 25.9217 41.6719 25.6844 41.6936 25.6463C41.7153 25.6088 42.0906 25.7856 42.5326 26.0405C42.9742 26.2956 43.3097 26.5292 43.2881 26.567ZM45.7531 21.7827C45.7383 21.8081 45.5374 21.718 45.3046 21.5837C45.0701 21.4481 44.8868 21.3166 44.9016 21.2913C44.9159 21.2665 45.1211 21.3594 45.356 21.4945C45.5887 21.6289 45.7673 21.758 45.7531 21.7827ZM17.9121 31.2968C17.894 31.3275 17.6858 31.2401 17.4444 31.1013C17.2046 30.9623 17.0238 30.8245 17.0411 30.7943C17.0588 30.7642 17.268 30.8524 17.5082 30.9913C17.7493 31.1303 17.9291 31.2668 17.9121 31.2968ZM39.7308 33.5307C39.694 33.5947 38.6096 33.0385 37.315 32.2912C36.0186 31.5429 34.9995 30.884 35.0366 30.8199C35.0737 30.7555 36.1536 31.3091 37.4496 32.0579C38.7445 32.8052 39.7683 33.466 39.7308 33.5307ZM51.4209 29.0482C51.3807 29.1184 50.6534 28.7736 49.7967 28.279C48.9367 27.7827 48.2706 27.3227 48.3109 27.2528C48.3506 27.1842 49.0828 27.5301 49.9428 28.0263C50.7991 28.5207 51.4605 28.9797 51.4209 29.0482ZM51.2151 21.3436C51.1526 21.4515 50.6506 21.2789 50.0889 20.9545C49.5337 20.6339 49.1307 20.2845 49.193 20.1762C49.2558 20.0679 49.7599 20.2422 50.3151 20.5627C50.8768 20.8871 51.2776 21.2352 51.2151 21.3436ZM32.0061 25.0155C31.9486 25.1152 31.4992 24.9626 31.001 24.6748C30.4977 24.3845 30.1391 24.0701 30.1966 23.9705C30.2539 23.8714 30.7057 24.0243 31.2087 24.315C31.7072 24.6024 32.0638 24.9162 32.0061 25.0155ZM46.5438 16.3516C46.4819 16.4597 45.5156 16.0183 44.3883 15.3671C43.2589 14.7153 42.3974 14.1011 42.4592 13.9933C42.5214 13.886 43.4843 14.3255 44.6129 14.9772C45.741 15.6284 46.6063 16.2439 46.5438 16.3516ZM54.2393 16.4639C54.2254 16.4884 53.8473 16.2966 53.3938 16.035C52.9423 15.7745 52.5904 15.5448 52.6047 15.5201C52.6192 15.495 52.9944 15.6847 53.4456 15.9456C53.8989 16.207 54.2539 16.4391 54.2393 16.4639ZM50.7822 16.2355C50.754 16.2844 50.525 16.2058 50.2731 16.0601C50.0263 15.918 49.8438 15.759 49.872 15.7101C49.9008 15.6603 50.1297 15.7391 50.3761 15.8815C50.628 16.027 50.8109 16.1857 50.7822 16.2355ZM52.9563 30.7666C52.9414 30.7924 52.7328 30.698 52.4961 30.5612C52.2515 30.4201 52.069 30.2882 52.0835 30.2629C52.0975 30.239 52.3033 30.3306 52.5477 30.4714C52.7845 30.6085 52.9699 30.7428 52.9563 30.7666ZM25.7828 26.1935C25.7623 26.2291 25.4021 26.0604 24.985 25.8193C24.5628 25.5754 24.2397 25.3501 24.2601 25.3145C24.2805 25.2795 24.6377 25.446 25.0599 25.6896C25.4774 25.9307 25.8029 26.1582 25.7828 26.1935ZM49.1221 11.6339C49.1075 11.659 48.7952 11.5067 48.4285 11.295C48.0609 11.0826 47.7737 10.889 47.7885 10.8638C47.8037 10.8379 48.1144 10.9905 48.482 11.2024C48.8485 11.4141 49.137 11.6076 49.1221 11.6339ZM37.9377 37.8488C37.8941 37.9244 37.5116 37.7851 37.091 37.5425C36.6636 37.2955 36.3569 37.0367 36.4002 36.9613C36.4441 36.8854 36.8214 37.0219 37.2491 37.2685C37.6694 37.5116 37.9813 37.773 37.9377 37.8488ZM40.7222 21.8481C40.6692 21.9402 40.2728 21.8115 39.8376 21.5602C39.4034 21.3098 39.0921 21.0294 39.145 20.9378C39.1988 20.8447 39.5965 20.9746 40.0311 21.2256C40.4661 21.4766 40.7757 21.7552 40.7222 21.8481ZM36.8697 18.4858C36.8164 18.5777 36.3247 18.3945 35.7599 18.0686C35.2012 17.7461 34.7925 17.4091 34.8456 17.3172C34.8989 17.2247 35.3944 17.4113 35.953 17.7335C36.5181 18.0599 36.9229 18.3932 36.8697 18.4858Z" fill="black"/>
<path fill-rule="evenodd" clip-rule="evenodd" d="M11.4086 29.2054L48.0828 8.03151C48.379 7.86131 48.7306 7.87364 49.0066 8.03261L70.5488 20.4682C70.8449 20.6397 71.0105 20.9504 71.0108 21.2698L71.013 37.625C71.013 37.9995 70.7907 38.3226 70.4711 38.4693L33.7968 59.6431C33.5006 59.8133 33.1491 59.801 32.873 59.642L11.3309 47.2067C11.0348 47.0353 10.8691 46.7246 10.8688 46.4051L10.8666 30.0496C10.8666 29.6752 11.0889 29.3521 11.4086 29.2054ZM11.7951 30.0496L48.5433 8.8331L70.0846 21.2703V37.6254L33.3363 58.842L11.7951 46.4051V30.0496Z" fill="black"/>
<path fill-rule="evenodd" clip-rule="evenodd" d="M11.4859 46.4051L11.4857 30.0496C11.4857 29.8788 11.6243 29.7401 11.7951 29.7401C11.8595 29.7401 11.9192 29.7597 11.9687 29.7934L33.491 42.2194C33.5895 42.2766 33.6448 42.38 33.6448 42.4865L33.6458 58.842C33.6458 59.0128 33.5072 59.1515 33.3363 59.1515C33.2719 59.1515 33.2122 59.1319 33.1627 59.0982L11.6404 46.6723C11.542 46.615 11.4865 46.5116 11.4859 46.4051ZM12.1046 30.5847V46.2275L33.0268 58.3069V42.6641L12.1046 30.5847Z" fill="black"/>
<path fill-rule="evenodd" clip-rule="evenodd" d="M33.4899 59.1091C33.3426 59.1936 33.1537 59.1429 33.0693 58.9955C32.9848 58.8482 33.0356 58.6594 33.1829 58.5749L69.7751 37.4485V21.8044L33.4899 42.7535C33.3426 42.8381 33.1537 42.7873 33.0693 42.64C32.9848 42.4927 33.0356 42.304 33.1829 42.2194L69.9051 21.018C69.9558 20.9818 70.0177 20.9604 70.0846 20.9604C70.2554 20.9604 70.394 21.0991 70.394 21.27V37.6254C70.3919 37.7322 70.3372 37.8359 70.2381 37.8926L33.4899 59.1091Z" fill="black"/>
<path fill-rule="evenodd" clip-rule="evenodd" d="M70.2393 21.0029C70.3866 21.0883 70.437 21.2774 70.3516 21.4246C70.2663 21.5719 70.0772 21.6225 69.9298 21.537L48.5427 9.18923L11.9486 30.3167C11.8013 30.4012 11.6126 30.3504 11.528 30.2031C11.4435 30.0559 11.4943 29.867 11.6416 29.7826L48.3728 8.57587C48.4675 8.51309 48.5935 8.50534 48.6981 8.56604L70.2393 21.0029Z" fill="black"/>
</g>
<defs>
<clipPath id="clip0_272_4550">
<rect width="81.913" height="60" fill="white"/>
</clipPath>
</defs>
</svg>
