<svg width="82" height="68" viewBox="0 0 82 68" fill="none" xmlns="http://www.w3.org/2000/svg">
<g clip-path="url(#clip0_272_4612)">
<path fill-rule="evenodd" clip-rule="evenodd" d="M0 0.0714111H81.913V67.1509H0V0.0714111Z" fill="white"/>
<path fill-rule="evenodd" clip-rule="evenodd" d="M11.9455 34.0019L48.5278 10.3396L69.9676 24.2114V42.4466L33.3853 66.1089L11.9455 52.2371V34.0019Z" fill="#FFF4A5"/>
<path fill-rule="evenodd" clip-rule="evenodd" d="M11.9455 34.0018L33.3853 47.8736V66.1088L11.9455 52.237V34.0018Z" fill="#FFF8C0"/>
<path fill-rule="evenodd" clip-rule="evenodd" d="M33.3853 47.8736L69.9676 24.2113V42.4465L33.3853 66.1088V47.8736Z" fill="#E1CA73"/>
<path fill-rule="evenodd" clip-rule="evenodd" d="M11.5579 33.0576L48.0628 9.4495C48.3631 9.25412 48.7119 9.26498 48.9831 9.4495L70.4326 23.3213C70.7233 23.5058 70.888 23.8531 70.888 24.2113V42.4465C70.888 42.8698 70.6748 43.228 70.3551 43.3908L33.8503 67.0097C33.55 67.1943 33.2012 67.1834 32.9299 67.0097L11.4804 53.138C11.1898 52.9426 11.0251 52.5953 11.0251 52.2371V34.0019C11.0251 33.5894 11.2382 33.2204 11.5579 33.0576ZM11.9455 34.0019L48.5278 10.3395L69.9676 24.2113V42.4465L33.3853 66.1088L11.9455 52.2371V34.0019Z" fill="black"/>
<path d="M11.6354 52.2371V34.0019C11.6354 33.8065 11.7711 33.6545 11.9455 33.6545C12.0133 33.6545 12.0714 33.6762 12.1198 33.7197L33.5403 47.5697C33.6372 47.6348 33.6953 47.7542 33.6953 47.8736V66.1088C33.6953 66.3042 33.5596 66.4562 33.3853 66.4562C33.3271 66.4562 33.269 66.4345 33.2109 66.4019L11.7904 52.541C11.6936 52.4759 11.6354 52.3565 11.6354 52.2371ZM12.2555 34.5989V52.0417L33.0752 65.5118V48.069L12.2555 34.5989Z" fill="black"/>
<path d="M69.6576 42.2512V24.8083L33.6953 48.0691V65.5119L69.6576 42.2512ZM70.2776 24.2114V42.4465C70.2776 42.5659 70.2195 42.6853 70.1226 42.7505L33.5693 66.3911C33.5209 66.4345 33.4531 66.4562 33.3852 66.4562C33.2205 66.4562 33.0752 66.3042 33.0752 66.1089V47.8737C33.0849 47.7543 33.1334 47.6349 33.2399 47.5698L69.7932 23.9291C69.8416 23.8857 69.8998 23.864 69.9676 23.864C70.142 23.864 70.2776 24.016 70.2776 24.2114Z" fill="black"/>
<path d="M70.1226 23.9074C70.2679 24.0051 70.3163 24.2222 70.2388 24.385C70.1516 24.5478 69.9579 24.6021 69.8126 24.5044L48.5278 10.7412L12.1005 34.2949C11.9551 34.3926 11.7614 34.3384 11.6839 34.1755C11.5967 34.0127 11.6451 33.7956 11.7904 33.7088L48.3534 10.0573C48.4503 9.98135 48.5762 9.9705 48.6828 10.0465L70.1226 23.9074Z" fill="black"/>
<path d="M19.5797 37.9202C19.5797 38.0288 19.4828 38.1048 19.3569 38.1156C19.3956 38.1373 19.415 38.159 19.415 38.1807C19.415 38.2459 19.2503 38.3001 19.0469 38.3001C18.8434 38.3001 18.6884 38.2459 18.6884 38.1807C18.6884 38.1156 18.8434 38.0613 19.0469 38.0613C19.0953 38.0613 19.1341 38.0613 19.1728 38.0613C19.1244 38.0288 19.0953 37.9854 19.0953 37.9202C19.0953 37.8226 19.2019 37.7357 19.3375 37.7357C19.4731 37.7357 19.5797 37.8226 19.5797 37.9202ZM26.3711 47.027C26.3711 46.9401 26.497 46.875 26.6714 46.875C26.8361 46.875 26.9621 46.9401 26.9621 47.027C26.9621 47.1138 26.8361 47.1789 26.6714 47.1789C26.497 47.1789 26.3711 47.1138 26.3711 47.027ZM24.8985 50.6306C24.8985 50.5872 25.0341 50.5438 25.1988 50.5438C25.3732 50.5438 25.5088 50.5872 25.5088 50.6306C25.5088 50.674 25.3732 50.7174 25.1988 50.7174C25.0341 50.7174 24.8985 50.674 24.8985 50.6306ZM30.5854 37.6814C30.5854 37.6272 30.7017 37.5838 30.847 37.5838C30.9923 37.5838 31.1086 37.6272 31.1086 37.6814C31.1086 37.7357 30.9923 37.7791 30.847 37.7791C30.7017 37.7791 30.5854 37.7357 30.5854 37.6814ZM22.0889 51.4555C22.0889 51.3361 22.2439 51.2384 22.428 51.2384C22.6024 51.2384 22.7574 51.3361 22.7574 51.4555C22.7574 51.5749 22.6024 51.6726 22.428 51.6726C22.2439 51.6726 22.0889 51.5749 22.0889 51.4555ZM20.8488 49.9902C20.8488 49.8925 20.936 49.8165 21.0329 49.8165C21.1395 49.8165 21.2267 49.8925 21.2267 49.9902C21.2267 50.077 21.1395 50.1639 21.0329 50.1639C20.936 50.1639 20.8488 50.077 20.8488 49.9902ZM44.2747 15.1697C44.2747 15.0937 44.4007 15.0286 44.5654 15.0286C44.7204 15.0286 44.856 15.0937 44.856 15.1697C44.856 15.2565 44.7204 15.3216 44.5654 15.3216C44.4007 15.3216 44.2747 15.2565 44.2747 15.1697ZM20.4226 35.0004C20.4226 34.9462 20.5582 34.9136 20.7229 34.9136C20.8973 34.9136 21.0329 34.9462 21.0329 35.0004C21.0329 35.0439 20.8973 35.0873 20.7229 35.0873C20.5582 35.0873 20.4226 35.0439 20.4226 35.0004ZM21.1104 40.1996C21.1104 39.9608 21.3817 39.7655 21.7111 39.7655C22.0405 39.7655 22.3118 39.9608 22.3118 40.1996C22.3118 40.4384 22.0405 40.6338 21.7111 40.6338C21.3817 40.6338 21.1104 40.4384 21.1104 40.1996ZM33.4531 50.5221C33.4531 50.2507 33.7244 50.0336 34.0634 50.0336H34.0731C34.0441 50.0119 34.0344 49.9685 34.0344 49.9359C34.0344 49.8382 34.1119 49.7514 34.2088 49.7514C34.3153 49.7514 34.3928 49.8382 34.3928 49.9359C34.3928 49.9902 34.3638 50.0445 34.3153 50.077C34.5188 50.153 34.6641 50.3267 34.6641 50.5221C34.6641 50.7934 34.3928 51.0105 34.0634 51.0105C33.7244 51.0105 33.4531 50.7934 33.4531 50.5221ZM22.864 31.31C22.864 31.2014 23.019 31.1146 23.2127 31.1146C23.3968 31.1146 23.5421 31.2014 23.5421 31.31C23.5421 31.4185 23.3968 31.5054 23.2127 31.5054C23.019 31.5054 22.864 31.4185 22.864 31.31ZM28.5122 49.3172C28.5122 49.2847 28.58 49.263 28.6672 49.263C28.7447 49.263 28.8125 49.2847 28.8125 49.3172C28.8125 49.3498 28.7447 49.3715 28.6672 49.3715C28.58 49.3715 28.5122 49.3498 28.5122 49.3172ZM40.6029 39.0925C40.6029 38.9514 40.7095 38.832 40.8451 38.832C40.9808 38.832 41.0873 38.9514 41.0873 39.0925C41.0873 39.2336 40.9808 39.3422 40.8451 39.3422C40.7095 39.3422 40.6029 39.2336 40.6029 39.0925ZM45.166 49.0242C45.166 49.0133 45.1757 49.0025 45.1951 48.9916C45.1467 48.9156 45.1079 48.8288 45.1079 48.7311C45.1079 48.4706 45.321 48.2535 45.5923 48.2535C45.8442 48.2535 46.067 48.4706 46.067 48.7311C46.067 48.9808 45.8442 49.1978 45.5923 49.1978C45.4567 49.1978 45.3404 49.1436 45.2532 49.0676C45.2048 49.0567 45.166 49.035 45.166 49.0242ZM16.3826 53.7892C16.3826 53.7132 16.4795 53.6698 16.6055 53.6698C16.7314 53.6698 16.838 53.7132 16.838 53.7892C16.838 53.8435 16.7314 53.8977 16.6055 53.8977C16.4795 53.8977 16.3826 53.8435 16.3826 53.7892ZM23.0093 49.2521C23.0093 49.187 23.0965 49.1219 23.1934 49.1219C23.2903 49.1219 23.3678 49.187 23.3678 49.2521C23.3678 49.3281 23.2903 49.3824 23.1934 49.3824C23.0965 49.3824 23.0093 49.3281 23.0093 49.2521ZM43.3253 21.3675C43.3253 21.2698 43.4997 21.1938 43.7225 21.1938C43.9453 21.1938 44.1294 21.2698 44.1294 21.3675C44.1294 21.4652 43.9453 21.5411 43.7225 21.5411C43.4997 21.5411 43.3253 21.4652 43.3253 21.3675ZM37.1927 42.5116C37.1927 42.3054 37.3768 42.1426 37.6093 42.1426C37.8418 42.1426 38.0259 42.3054 38.0259 42.5116C38.0259 42.7178 37.8418 42.8806 37.6093 42.8806C37.3768 42.8806 37.1927 42.7178 37.1927 42.5116ZM32.4843 49.9902C32.4843 49.9034 32.6102 49.8382 32.7556 49.8382C32.9009 49.8382 33.0171 49.9034 33.0171 49.9902C33.0171 50.0662 32.9009 50.1422 32.7556 50.1422C32.6102 50.1422 32.4843 50.0662 32.4843 49.9902ZM30.7307 43.1194C30.7307 43.0218 30.8567 42.9458 31.002 42.9458C31.1473 42.9458 31.2733 43.0218 31.2733 43.1194C31.2733 43.2063 31.1473 43.2823 31.002 43.2823C30.8567 43.2823 30.7307 43.2063 30.7307 43.1194ZM30.0623 57.0998C30.0623 57.0563 30.1494 57.0129 30.256 57.0129C30.3626 57.0129 30.4401 57.0563 30.4401 57.0998C30.4401 57.154 30.3626 57.1866 30.256 57.1866C30.1494 57.1866 30.0623 57.154 30.0623 57.0998ZM32.6684 43.6296C32.6684 43.4559 32.8912 43.304 33.1625 43.304C33.4337 43.304 33.6662 43.4559 33.6662 43.6296C33.6662 43.8141 33.4337 43.9552 33.1625 43.9552C32.8912 43.9552 32.6684 43.8141 32.6684 43.6296ZM41.6686 41.144C41.6686 41.0788 41.8236 41.0354 42.0174 41.0354C42.2112 41.0354 42.3662 41.0788 42.3662 41.144C42.3662 41.1982 42.2112 41.2416 42.0174 41.2416C41.8236 41.2416 41.6686 41.1982 41.6686 41.144ZM38.675 46.8642C38.675 46.8099 38.7428 46.7556 38.8203 46.7556C38.9075 46.7556 38.9656 46.8099 38.9656 46.8642C38.9656 46.9293 38.9075 46.9836 38.8203 46.9836C38.7428 46.9836 38.675 46.9293 38.675 46.8642ZM43.5384 52.7798C43.5384 52.7146 43.6838 52.6712 43.8581 52.6712C44.0325 52.6712 44.1778 52.7146 44.1778 52.7798C44.1778 52.8449 44.0325 52.8883 43.8581 52.8883C43.6838 52.8883 43.5384 52.8449 43.5384 52.7798ZM48.3244 44.6499C48.3244 44.4545 48.4794 44.3026 48.6731 44.3026C48.8572 44.3026 49.0122 44.4545 49.0122 44.6499C49.0122 44.8344 48.8572 44.9864 48.6731 44.9864C48.4794 44.9864 48.3244 44.8344 48.3244 44.6499ZM28.9094 29.8012C28.9094 29.747 28.9675 29.7036 29.0353 29.7036C29.1128 29.7036 29.1613 29.747 29.1613 29.8012C29.1613 29.8555 29.1128 29.8881 29.0353 29.8881C28.9675 29.8881 28.9094 29.8555 28.9094 29.8012ZM30.4207 63.7643C30.4207 63.6666 30.5563 63.5906 30.721 63.5906C30.8857 63.5906 31.0214 63.6666 31.0214 63.7643C31.0214 63.8511 30.8857 63.9271 30.721 63.9271C30.5563 63.9271 30.4207 63.8511 30.4207 63.7643ZM11.9455 42.7178C12.1102 42.7504 12.2167 42.8047 12.2167 42.8698C12.2167 42.9241 12.1102 42.9783 11.9455 43.0109V42.7178ZM38.4522 38.3978C38.4522 38.2893 38.6169 38.2025 38.83 38.2025C39.0431 38.2025 39.2175 38.2893 39.2175 38.3978C39.2175 38.5064 39.0431 38.5932 38.83 38.5932C38.6169 38.5932 38.4522 38.5064 38.4522 38.3978ZM18.6206 55.6996C18.6206 55.5802 18.7175 55.4716 18.8531 55.4716C18.979 55.4716 19.0856 55.5802 19.0856 55.6996C19.0856 55.8298 18.979 55.9275 18.8531 55.9275C18.7175 55.9275 18.6206 55.8298 18.6206 55.6996ZM30.692 54.7769C30.692 54.625 30.847 54.4947 31.0408 54.4947C31.2345 54.4947 31.3895 54.625 31.3895 54.7769C31.3895 54.9289 31.2345 55.0591 31.0408 55.0591C30.847 55.0591 30.692 54.9289 30.692 54.7769ZM50.5526 32.3194C50.5526 32.1783 50.7658 32.0589 51.0273 32.0589C51.2889 32.0589 51.5021 32.1783 51.5021 32.3194C51.5021 32.4714 51.2889 32.5799 51.0273 32.5799C50.7658 32.5799 50.5526 32.4714 50.5526 32.3194ZM32.3583 23.6252C32.3583 23.6143 32.3971 23.6034 32.4455 23.6034C32.5037 23.6034 32.5424 23.6143 32.5424 23.6252C32.5424 23.636 32.5037 23.6469 32.4455 23.6469C32.3971 23.6469 32.3583 23.636 32.3583 23.6252ZM42.4727 30.9192C42.4727 30.8867 42.4921 30.865 42.5309 30.865C42.5599 30.865 42.589 30.8867 42.589 30.9192C42.589 30.9409 42.5599 30.9735 42.5309 30.9735C42.4921 30.9735 42.4727 30.9409 42.4727 30.9192ZM63.0503 27.2396C63.0503 27.2179 63.06 27.1962 63.0794 27.1854C63.0503 27.1854 63.0309 27.1962 63.0019 27.1962C62.8662 27.1962 62.75 27.0877 62.75 26.9574C62.75 26.8272 62.8662 26.7295 63.0019 26.7295C63.1375 26.7295 63.2538 26.8272 63.2538 26.9574C63.2538 27.0443 63.2053 27.1202 63.1375 27.1636H63.1472C63.1956 27.1636 63.2441 27.1962 63.2441 27.2396C63.2441 27.2722 63.1956 27.3048 63.1472 27.3048C63.0891 27.3048 63.0503 27.2722 63.0503 27.2396ZM45.3501 25.3618C45.3501 25.3184 45.4857 25.2859 45.6601 25.2859C45.7279 25.2859 45.7861 25.2859 45.8345 25.2967C45.8636 25.1882 45.9605 25.1122 46.0767 25.1122C46.2124 25.1122 46.3189 25.2207 46.3189 25.3618C46.3189 25.4921 46.2124 25.6006 46.0767 25.6006C45.9605 25.6006 45.8636 25.5247 45.8345 25.4161C45.7861 25.427 45.7279 25.4378 45.6601 25.4378C45.4857 25.4378 45.3501 25.4053 45.3501 25.3618ZM48.1597 12.3801C48.1597 12.2716 48.305 12.1739 48.4987 12.1739C48.6828 12.1739 48.8378 12.2716 48.8378 12.3801C48.8378 12.4995 48.6828 12.5864 48.4987 12.5864C48.305 12.5864 48.1597 12.4995 48.1597 12.3801ZM36.5339 48.1233C36.5339 48.0039 36.6502 47.9062 36.7858 47.9062C36.9311 47.9062 37.0474 48.0039 37.0474 48.1233C37.0474 48.2427 36.9311 48.3404 36.7858 48.3404C36.6502 48.3404 36.5339 48.2427 36.5339 48.1233ZM33.6469 59.2598C33.6469 59.2055 33.7534 59.1621 33.8697 59.1621C33.9956 59.1621 34.0925 59.2055 34.0925 59.2598C34.0925 59.314 33.9956 59.3574 33.8697 59.3574C33.7534 59.3574 33.6469 59.314 33.6469 59.2598ZM45.0982 52.4216C45.0982 52.3239 45.1854 52.2479 45.292 52.2479C45.3985 52.2479 45.4857 52.3239 45.4857 52.4216C45.4857 52.5301 45.3985 52.6061 45.292 52.6061C45.1854 52.6061 45.0982 52.5301 45.0982 52.4216ZM35.3423 48.4815C35.3423 48.3621 35.4488 48.2535 35.5748 48.2535C35.7104 48.2535 35.817 48.3621 35.817 48.4815C35.817 48.6117 35.7104 48.7094 35.5748 48.7094C35.4488 48.7094 35.3423 48.6117 35.3423 48.4815ZM39.3628 34.6857C39.3628 34.6422 39.45 34.5988 39.5372 34.5988C39.6341 34.5988 39.7116 34.6422 39.7116 34.6857C39.7116 34.7399 39.6341 34.7725 39.5372 34.7725C39.45 34.7725 39.3628 34.7399 39.3628 34.6857ZM43.5675 18.5019C43.5675 18.4368 43.6934 18.3825 43.8388 18.3825C43.9938 18.3825 44.1197 18.4368 44.1197 18.5019C44.1197 18.5671 43.9938 18.6213 43.8388 18.6213C43.6934 18.6213 43.5675 18.5671 43.5675 18.5019ZM38.5684 35.0547C38.5684 35.0004 38.7331 34.957 38.9463 34.957C39.1594 34.957 39.3241 35.0004 39.3241 35.0547C39.3241 35.109 39.1594 35.1524 38.9463 35.1524C38.7331 35.1524 38.5684 35.109 38.5684 35.0547ZM32.2905 62.3098C32.2905 62.2013 32.3777 62.1144 32.494 62.1144C32.6005 62.1144 32.6974 62.2013 32.6974 62.3098C32.6974 62.4075 32.6005 62.5052 32.494 62.5052C32.3777 62.5052 32.2905 62.4075 32.2905 62.3098ZM30.4013 29.9098C30.4013 29.8338 30.5079 29.7687 30.6435 29.7687C30.7792 29.7687 30.8857 29.8338 30.8857 29.9098C30.8857 29.9858 30.7792 30.0509 30.6435 30.0509C30.5079 30.0509 30.4013 29.9858 30.4013 29.9098ZM13.1565 35.4889C13.1565 35.3912 13.263 35.3044 13.389 35.3044C13.5246 35.3044 13.6215 35.3912 13.6215 35.4889C13.6215 35.5974 13.5246 35.6734 13.389 35.6734C13.263 35.6734 13.1565 35.5974 13.1565 35.4889ZM67.5359 43.1737C67.5359 43.1303 67.5843 43.0977 67.6328 43.0977C67.6909 43.0977 67.7297 43.1303 67.7297 43.1737C67.7297 43.2063 67.6909 43.2388 67.6328 43.2388C67.5843 43.2388 67.5359 43.2063 67.5359 43.1737ZM32.0193 48.7528C32.0193 48.5574 32.1743 48.4055 32.3583 48.4055C32.5424 48.4055 32.6877 48.5574 32.6877 48.7528C32.6877 48.9373 32.5424 49.1001 32.3583 49.1001C32.1743 49.1001 32.0193 48.9373 32.0193 48.7528ZM33.1818 50.7174C33.1818 50.6632 33.2496 50.6197 33.3272 50.6197C33.4143 50.6197 33.4822 50.6632 33.4822 50.7174C33.4822 50.7609 33.4143 50.8043 33.3272 50.8043C33.2496 50.8043 33.1818 50.7609 33.1818 50.7174ZM13.3115 37.5295C13.3115 37.3667 13.4665 37.2364 13.67 37.2364C13.8637 37.2364 14.0284 37.3667 14.0284 37.5295C14.0284 37.5838 14.009 37.6272 13.98 37.6706C13.9897 37.6923 13.9897 37.7249 13.9897 37.7466C13.9897 37.8768 13.8831 37.9962 13.7475 37.9962C13.6215 37.9962 13.5149 37.8985 13.4956 37.79C13.389 37.7357 13.3115 37.638 13.3115 37.5295ZM55.3386 33.6871C55.3386 33.4917 55.5905 33.3397 55.9005 33.3397C56.2105 33.3397 56.4624 33.4917 56.4624 33.6871C56.4624 33.7739 56.4139 33.8499 56.3364 33.915C56.3849 33.9042 56.443 33.9042 56.5011 33.9042C56.724 33.9042 56.8983 33.991 56.8983 34.0995C56.8983 34.2081 56.724 34.2949 56.5011 34.2949C56.2783 34.2949 56.0942 34.2081 56.0942 34.0995C56.0942 34.067 56.1039 34.0344 56.133 34.0127C56.0652 34.0344 55.978 34.0453 55.9005 34.0453C55.5905 34.0453 55.3386 33.8825 55.3386 33.6871ZM15.4429 32.7645C15.4429 32.721 15.5398 32.6776 15.656 32.6776C15.7723 32.6776 15.8692 32.721 15.8692 32.7645C15.8692 32.8079 15.7723 32.8404 15.656 32.8404C15.5398 32.8404 15.4429 32.8079 15.4429 32.7645ZM23.2224 32.352C23.2224 32.2869 23.2903 32.2435 23.3581 32.2435C23.4356 32.2435 23.4937 32.2869 23.4937 32.352C23.4937 32.4063 23.4356 32.4605 23.3581 32.4605C23.2903 32.4605 23.2224 32.4063 23.2224 32.352ZM23.3484 31.9287C23.3484 31.8853 23.4646 31.8418 23.61 31.8418C23.7553 31.8418 23.8715 31.8853 23.8715 31.9287C23.8715 31.9721 23.7553 32.0155 23.61 32.0155C23.4646 32.0155 23.3484 31.9721 23.3484 31.9287ZM20.3644 42.6419C20.3644 42.555 20.471 42.4899 20.597 42.4899C20.7326 42.4899 20.8392 42.555 20.8392 42.6419C20.8392 42.7178 20.7326 42.7938 20.597 42.7938C20.471 42.7938 20.3644 42.7178 20.3644 42.6419ZM34.0731 29.6493C34.0731 29.5733 34.141 29.5082 34.2281 29.5082C34.3153 29.5082 34.3832 29.5733 34.3832 29.6493C34.3832 29.7253 34.3153 29.7904 34.2281 29.7904C34.141 29.7904 34.0731 29.7253 34.0731 29.6493ZM50.9595 51.4121C50.9595 51.3795 51.0758 51.347 51.2211 51.347C51.3567 51.347 51.473 51.3795 51.473 51.4121C51.473 51.4447 51.3567 51.4772 51.2211 51.4772C51.0758 51.4772 50.9595 51.4447 50.9595 51.4121ZM23.4162 44.5088C23.4162 44.4437 23.5034 44.4002 23.6196 44.4002C23.7359 44.4002 23.8231 44.4437 23.8231 44.5088C23.8231 44.5631 23.7359 44.6065 23.6196 44.6065C23.5034 44.6065 23.4162 44.5631 23.4162 44.5088ZM40.8548 57.2843C40.8548 57.078 41.0098 56.9152 41.2133 56.9152C41.407 56.9152 41.5717 57.078 41.5717 57.2843C41.5717 57.4797 41.407 57.6533 41.2133 57.6533C41.0098 57.6533 40.8548 57.4797 40.8548 57.2843ZM46.6774 19.2292C46.6774 19.1858 46.7355 19.1532 46.8227 19.1532C46.9002 19.1532 46.968 19.1858 46.968 19.2292C46.968 19.2726 46.9002 19.3052 46.8227 19.3052C46.7355 19.3052 46.6774 19.2726 46.6774 19.2292ZM29.3356 28.6724C29.3356 28.6073 29.3938 28.553 29.4616 28.553C29.5294 28.553 29.5875 28.6073 29.5875 28.6724C29.5875 28.7484 29.5294 28.8026 29.4616 28.8026C29.3938 28.8026 29.3356 28.7484 29.3356 28.6724ZM20.5195 34.0344C20.5195 33.9584 20.597 33.9042 20.6842 33.9042C20.781 33.9042 20.8488 33.9584 20.8488 34.0344C20.8488 34.1104 20.781 34.1647 20.6842 34.1647C20.597 34.1647 20.5195 34.1104 20.5195 34.0344ZM43.9841 40.5361C43.9841 40.4276 44.081 40.3299 44.1972 40.3299C44.3135 40.3299 44.4104 40.4276 44.4104 40.5361C44.4104 40.6555 44.3135 40.7424 44.1972 40.7424C44.081 40.7424 43.9841 40.6555 43.9841 40.5361ZM39.9732 43.4668C39.9732 43.4125 40.0895 43.3691 40.2348 43.3691C40.3801 43.3691 40.4964 43.4125 40.4964 43.4668C40.4964 43.521 40.3801 43.5753 40.2348 43.5753C40.0895 43.5753 39.9732 43.521 39.9732 43.4668ZM18.4074 33.2963C18.4074 33.2529 18.5431 33.2203 18.6981 33.2203C18.8531 33.2203 18.9887 33.2529 18.9887 33.2963C18.9887 33.3397 18.8531 33.3723 18.6981 33.3723C18.5431 33.3723 18.4074 33.3397 18.4074 33.2963ZM43.1315 30.9301C43.1315 30.8541 43.2381 30.789 43.3544 30.789C43.4803 30.789 43.5772 30.8541 43.5772 30.9301C43.5772 31.0169 43.4803 31.082 43.3544 31.082C43.2381 31.082 43.1315 31.0169 43.1315 30.9301ZM30.2657 56.8284C30.2657 56.7416 30.4013 56.6656 30.566 56.6656C30.7307 56.6656 30.8664 56.7416 30.8664 56.8284C30.8664 56.9261 30.7307 56.9912 30.566 56.9912C30.4013 56.9912 30.2657 56.9261 30.2657 56.8284ZM40.5351 44.1832C40.5351 44.1397 40.6804 44.1072 40.8451 44.1072C41.0195 44.1072 41.1551 44.1397 41.1551 44.1832C41.1551 44.2157 41.0195 44.2483 40.8451 44.2483C40.6804 44.2483 40.5351 44.2157 40.5351 44.1832ZM54.6313 44.0529C54.6313 43.9009 54.767 43.7707 54.9413 43.7707C55.1157 43.7707 55.2514 43.9009 55.2514 44.0529C55.2514 44.2157 55.1157 44.3351 54.9413 44.3351C54.767 44.3351 54.6313 44.2157 54.6313 44.0529ZM49.0122 45.2143C49.0122 45.1166 49.0994 45.0406 49.206 45.0406C49.3125 45.0406 49.3997 45.1166 49.3997 45.2143C49.3997 45.3012 49.3125 45.3771 49.206 45.3771C49.0994 45.3771 49.0122 45.3012 49.0122 45.2143ZM29.7425 61.7779C29.7425 61.7345 29.8782 61.702 30.0429 61.702C30.2173 61.702 30.3626 61.7345 30.3626 61.7779C30.3626 61.8214 30.2173 61.8539 30.0429 61.8539C29.8782 61.8539 29.7425 61.8214 29.7425 61.7779ZM40.3801 18.2631C40.3801 18.2089 40.4867 18.1655 40.6126 18.1655C40.7386 18.1655 40.8451 18.2089 40.8451 18.2631C40.8451 18.3066 40.7386 18.35 40.6126 18.35C40.4867 18.35 40.3801 18.3066 40.3801 18.2631ZM45.7183 24.7323C45.7183 24.678 45.757 24.6346 45.8151 24.6346C45.8733 24.6346 45.912 24.678 45.912 24.7323C45.912 24.7866 45.8733 24.8408 45.8151 24.8408C45.757 24.8408 45.7183 24.7866 45.7183 24.7323ZM32.7265 21.0853C32.7265 20.9441 32.8427 20.8356 32.9881 20.8356C33.1334 20.8356 33.2496 20.9441 33.2496 21.0853C33.2496 21.2155 33.1334 21.324 32.9881 21.324C32.8427 21.324 32.7265 21.2155 32.7265 21.0853ZM37.2121 17.6553C37.3671 17.6879 37.4737 17.753 37.4737 17.829C37.4737 17.9267 37.2896 18.0135 37.0571 18.0135C36.9408 18.0135 36.8246 17.9918 36.7567 17.9592L37.2121 17.6553ZM63.5831 44.7801C63.5831 44.6065 63.8641 44.4654 64.2129 44.4654C64.5713 44.4654 64.8523 44.6065 64.8523 44.7801C64.8523 44.9647 64.5713 45.1058 64.2129 45.1058C63.8641 45.1058 63.5831 44.9647 63.5831 44.7801ZM41.1842 44.0421C41.1842 43.9878 41.2714 43.9335 41.3877 43.9335C41.5039 43.9335 41.6008 43.9878 41.6008 44.0421C41.6008 44.1072 41.5039 44.1506 41.3877 44.1506C41.2714 44.1506 41.1842 44.1072 41.1842 44.0421ZM40.6901 49.9251C40.6901 49.7731 40.8258 49.6429 41.0098 49.6429C41.1745 49.6429 41.3198 49.7731 41.3198 49.9251C41.3198 50.077 41.1745 50.2073 41.0098 50.2073C40.8258 50.2073 40.6901 50.077 40.6901 49.9251ZM28.7156 59.466C28.7156 59.314 28.8415 59.1946 28.9966 59.1946C29.1419 59.1946 29.2581 59.314 29.2581 59.466C29.2581 59.6071 29.1419 59.7265 28.9966 59.7265C28.8415 59.7265 28.7156 59.6071 28.7156 59.466ZM43.7419 54.7227C43.7419 54.5164 43.9356 54.3536 44.1778 54.3536C44.4104 54.3536 44.6138 54.5164 44.6138 54.7227C44.6138 54.918 44.4104 55.0809 44.1778 55.0809C43.9356 55.0809 43.7419 54.918 43.7419 54.7227ZM52.5096 46.6796C52.5096 46.6471 52.6356 46.6145 52.7809 46.6145C52.9359 46.6145 53.0522 46.6471 53.0522 46.6796C53.0522 46.7231 52.9359 46.7556 52.7809 46.7556C52.6356 46.7556 52.5096 46.7231 52.5096 46.6796ZM65.6952 25.6766C65.6952 25.6441 65.792 25.6223 65.918 25.6223C66.0439 25.6223 66.1408 25.6441 66.1408 25.6766C66.1408 25.7092 66.0439 25.7309 65.918 25.7309C65.792 25.7309 65.6952 25.7092 65.6952 25.6766ZM47.7818 27.3916C47.7818 27.283 47.8981 27.2071 48.0434 27.2071C48.1984 27.2071 48.3244 27.283 48.3244 27.3916C48.3244 27.4893 48.1984 27.5653 48.0434 27.5653C47.8981 27.5653 47.7818 27.4893 47.7818 27.3916ZM44.4588 36.7914C44.4588 36.7697 44.5169 36.748 44.5944 36.748C44.6622 36.748 44.7204 36.7697 44.7204 36.7914C44.7204 36.8131 44.6622 36.8348 44.5944 36.8348C44.5169 36.8348 44.4588 36.8131 44.4588 36.7914ZM67.7006 30.1269C67.7006 29.9749 67.9622 29.8555 68.2916 29.8555C68.6113 29.8555 68.8729 29.9749 68.8729 30.1269C68.8729 30.268 68.6113 30.3874 68.2916 30.3874C67.9622 30.3874 67.7006 30.268 67.7006 30.1269ZM52.6937 31.5054C52.6937 31.3425 52.8293 31.2232 52.9843 31.2232C53.0522 31.2232 53.1103 31.2449 53.1587 31.2774C53.1878 31.2014 53.275 31.1472 53.3719 31.1472C53.4881 31.1472 53.585 31.234 53.585 31.3425C53.585 31.4402 53.4881 31.5271 53.3719 31.5271C53.3331 31.5271 53.3041 31.5271 53.275 31.5054C53.2653 31.6573 53.1394 31.7767 52.9843 31.7767C52.8293 31.7767 52.6937 31.6573 52.6937 31.5054ZM68.6694 32.9598C68.6694 32.9164 68.7663 32.873 68.8825 32.873C68.9891 32.873 69.086 32.9164 69.086 32.9598C69.086 33.0141 68.9891 33.0575 68.8825 33.0575C68.7663 33.0575 68.6694 33.0141 68.6694 32.9598ZM35.1098 29.0089C35.1098 28.8135 35.2648 28.6507 35.4488 28.6507C35.6426 28.6507 35.7976 28.8135 35.7976 29.0089C35.7976 29.2151 35.6426 29.3779 35.4488 29.3779C35.2648 29.3779 35.1098 29.2151 35.1098 29.0089ZM30.2269 23.3212C30.2269 23.267 30.2851 23.2127 30.3529 23.2127C30.4304 23.2127 30.4885 23.267 30.4885 23.3212C30.4885 23.3864 30.4304 23.4406 30.3529 23.4406C30.2851 23.4406 30.2269 23.3864 30.2269 23.3212ZM41.5524 26.3496C41.5524 26.2953 41.5814 26.2519 41.6396 26.2193C41.5524 26.2085 41.4942 26.1868 41.4942 26.1542C41.4942 26.1216 41.5717 26.0999 41.6783 26.0999C41.7849 26.0999 41.8721 26.1216 41.8721 26.1542C41.8721 26.1651 41.8624 26.1759 41.843 26.1868C41.9399 26.2085 41.998 26.2736 41.998 26.3496C41.998 26.4473 41.9011 26.5232 41.7752 26.5232C41.6492 26.5232 41.5524 26.4473 41.5524 26.3496ZM30.3723 62.1036C30.3723 62.0493 30.4304 62.0059 30.5079 62.0059C30.5854 62.0059 30.6435 62.0493 30.6435 62.1036C30.6435 62.1578 30.5854 62.2013 30.5079 62.2013C30.4304 62.2013 30.3723 62.1578 30.3723 62.1036ZM29.2969 59.8676C29.2969 59.6505 29.4616 59.4768 29.665 59.4768C29.8782 59.4768 30.0429 59.6505 30.0429 59.8676C30.0429 60.0847 29.8782 60.2692 29.665 60.2692C29.4616 60.2692 29.2969 60.0847 29.2969 59.8676ZM54.8832 51.0322C54.8832 50.9128 55.0479 50.8043 55.2611 50.8043C55.4742 50.8043 55.6486 50.9128 55.6486 51.0322C55.6486 51.1625 55.4742 51.271 55.2611 51.271C55.0479 51.271 54.8832 51.1625 54.8832 51.0322ZM48.2178 53.7241C48.2178 53.6155 48.3244 53.5395 48.4406 53.5395C48.5666 53.5395 48.6731 53.6155 48.6731 53.7241C48.6731 53.8218 48.5666 53.9086 48.4406 53.9086C48.3244 53.9086 48.2178 53.8218 48.2178 53.7241ZM46.5514 51.716C46.5514 51.6292 46.6289 51.5532 46.7355 51.5532C46.8421 51.5532 46.9293 51.6292 46.9293 51.716C46.9293 51.8137 46.8421 51.8897 46.7355 51.8897C46.6289 51.8897 46.5514 51.8137 46.5514 51.716ZM42.5599 19.6959C42.5599 19.6199 42.6956 19.5548 42.8603 19.5548C43.025 19.5548 43.1509 19.6199 43.1509 19.6959C43.1509 19.7719 43.025 19.837 42.8603 19.837C42.6956 19.837 42.5599 19.7719 42.5599 19.6959ZM45.1176 19.2075C45.1176 19.1749 45.166 19.1423 45.2435 19.1423C45.3017 19.1423 45.3598 19.1749 45.3598 19.2075C45.3598 19.24 45.3017 19.2617 45.2435 19.2617C45.166 19.2617 45.1176 19.24 45.1176 19.2075ZM48.0434 35.9556C48.0434 35.8905 48.15 35.8362 48.2856 35.8362C48.4116 35.8362 48.5278 35.8905 48.5278 35.9556C48.5278 36.0207 48.4116 36.075 48.2856 36.075C48.15 36.075 48.0434 36.0207 48.0434 35.9556ZM40.9226 24.6563C40.9226 24.4067 41.1164 24.2113 41.3586 24.2113C41.5911 24.2113 41.7849 24.4067 41.7849 24.6563C41.7849 24.906 41.5911 25.1013 41.3586 25.1013C41.1164 25.1013 40.9226 24.906 40.9226 24.6563ZM18.95 36.7588C18.95 36.6829 19.105 36.6286 19.3084 36.6286C19.5119 36.6286 19.6766 36.6829 19.6766 36.7588C19.6766 36.824 19.5119 36.8782 19.3084 36.8782C19.105 36.8782 18.95 36.824 18.95 36.7588ZM55.0964 43.6622C55.0964 43.5862 55.2707 43.5319 55.4839 43.5319C55.697 43.5319 55.8617 43.5862 55.8617 43.6622C55.8617 43.7381 55.697 43.8033 55.4839 43.8033C55.2707 43.8033 55.0964 43.7381 55.0964 43.6622ZM30.4595 43.6947C30.4595 43.6404 30.5563 43.6079 30.6823 43.6079C30.7985 43.6079 30.8954 43.6404 30.8954 43.6947C30.8954 43.7381 30.7985 43.7816 30.6823 43.7816C30.5563 43.7816 30.4595 43.7381 30.4595 43.6947ZM49.6419 43.304C49.6419 43.1194 49.8454 42.9783 50.0973 42.9783C50.3395 42.9783 50.5429 43.1194 50.5429 43.304C50.5429 43.4885 50.3395 43.6296 50.0973 43.6296C49.8454 43.6296 49.6419 43.4885 49.6419 43.304ZM32.8718 58.8799C32.8718 58.7062 33.0074 58.5651 33.1818 58.5651C33.3562 58.5651 33.5015 58.7062 33.5015 58.8799C33.5015 59.0644 33.3562 59.2055 33.1818 59.2055C33.0074 59.2055 32.8718 59.0644 32.8718 58.8799ZM26.7974 45.2252C26.7974 45.0515 27.0202 44.9212 27.3011 44.9212C27.5724 44.9212 27.7952 45.0515 27.7952 45.2252C27.7952 45.388 27.5724 45.5291 27.3011 45.5291C27.0202 45.5291 26.7974 45.388 26.7974 45.2252ZM55.9974 17.6662C55.9974 17.5793 56.0845 17.5033 56.1814 17.5033C56.2783 17.5033 56.3655 17.5793 56.3655 17.6662C56.3655 17.753 56.2783 17.8181 56.1814 17.8181C56.0845 17.8181 55.9974 17.753 55.9974 17.6662ZM50.9983 16.4722C50.9983 16.4288 51.0661 16.3962 51.1436 16.3962C51.2211 16.3962 51.2889 16.4288 51.2889 16.4722C51.2889 16.5156 51.2211 16.5482 51.1436 16.5482C51.0661 16.5482 50.9983 16.5156 50.9983 16.4722ZM38.4328 23.8748C38.4328 23.8422 38.52 23.8097 38.6265 23.8097C38.7331 23.8097 38.8203 23.8422 38.8203 23.8748C38.8203 23.9182 38.7331 23.9399 38.6265 23.9399C38.52 23.9399 38.4328 23.9182 38.4328 23.8748ZM35.1679 32.9381C35.1679 32.8947 35.2454 32.8513 35.3423 32.8513C35.4392 32.8513 35.5167 32.8947 35.5167 32.9381C35.5167 32.9924 35.4392 33.0358 35.3423 33.0358C35.2454 33.0358 35.1679 32.9924 35.1679 32.9381ZM49.6129 45.8547C49.6129 45.7353 49.7873 45.6376 49.9907 45.6376C50.2039 45.6376 50.3782 45.7353 50.3782 45.8547C50.3782 45.9633 50.2039 46.061 49.9907 46.061C49.7873 46.061 49.6129 45.9633 49.6129 45.8547ZM54.6701 41.1114C54.6701 41.1005 54.6991 41.0788 54.7379 41.0788C54.7766 41.0788 54.8057 41.1005 54.8057 41.1114C54.8057 41.1331 54.7766 41.1548 54.7379 41.1548C54.6991 41.1548 54.6701 41.1331 54.6701 41.1114ZM16.0823 36.1944C16.0823 35.8905 16.3536 35.6517 16.6926 35.6517C17.022 35.6517 17.2933 35.8905 17.2933 36.1944C17.2933 36.4875 17.022 36.7371 16.6926 36.7371C16.3536 36.7371 16.0823 36.4875 16.0823 36.1944ZM42.5018 39.2987C42.5018 39.2228 42.6277 39.1685 42.7828 39.1685C42.9281 39.1685 43.054 39.2228 43.054 39.2987C43.054 39.3639 42.9281 39.4181 42.7828 39.4181C42.6277 39.4181 42.5018 39.3639 42.5018 39.2987ZM31.2733 27.0985C31.2733 27.0443 31.3701 26.99 31.4864 26.99C31.6027 26.99 31.6899 27.0443 31.6899 27.0985C31.6899 27.1528 31.6027 27.1962 31.4864 27.1962C31.3701 27.1962 31.2733 27.1528 31.2733 27.0985ZM58.2062 32.1783C58.2062 32.0915 58.2741 32.0047 58.3613 31.9938C58.4194 31.9504 58.4872 31.9287 58.5647 31.9287C58.7778 31.9287 58.9425 32.0915 58.9425 32.276C58.9425 32.4714 58.7778 32.6234 58.5647 32.6234C58.3613 32.6234 58.1966 32.4714 58.1966 32.276C58.1966 32.2543 58.1966 32.2217 58.2062 32.2V32.1783ZM14.5419 32.6885C14.5419 32.5582 14.6678 32.4388 14.8131 32.4388C14.9682 32.4388 15.0941 32.5582 15.0941 32.6885C15.0941 32.8296 14.9682 32.9381 14.8131 32.9381C14.6678 32.9381 14.5419 32.8296 14.5419 32.6885ZM26.8942 24.3307C26.8942 24.3415 26.9039 24.3415 26.9039 24.3415C26.9039 24.3632 26.8652 24.385 26.7974 24.3958L26.8942 24.3307ZM50.3104 50.2073C50.3104 50.0553 50.4654 49.9251 50.6592 49.9251C50.853 49.9251 51.008 50.0553 51.008 50.2073C51.008 50.3592 50.853 50.4895 50.6592 50.4895C50.4654 50.4895 50.3104 50.3592 50.3104 50.2073ZM51.2599 51.7377C51.2599 51.6509 51.3374 51.5749 51.4246 51.5749C51.5214 51.5749 51.5893 51.6509 51.5893 51.7377C51.5893 51.8246 51.5214 51.8897 51.4246 51.8897C51.3374 51.8897 51.2599 51.8246 51.2599 51.7377ZM62.004 41.513C62.004 41.2199 62.2559 40.992 62.5562 40.992C62.8565 40.992 63.1084 41.2199 63.1084 41.513C63.1084 41.7952 62.8565 42.034 62.5562 42.034C62.2559 42.034 62.004 41.7952 62.004 41.513ZM33.2109 39.9283C33.2109 39.7763 33.424 39.6569 33.6856 39.6569C33.9472 39.6569 34.1603 39.7763 34.1603 39.9283C34.1603 40.0802 33.9472 40.2105 33.6856 40.2105C33.424 40.2105 33.2109 40.0802 33.2109 39.9283ZM36.8149 46.4951C36.8149 46.43 36.8924 46.3866 36.9796 46.3866C37.0668 46.3866 37.1443 46.43 37.1443 46.4951C37.1443 46.5602 37.0668 46.6145 36.9796 46.6145C36.8924 46.6145 36.8149 46.5602 36.8149 46.4951ZM49.051 42.8589C49.051 42.8047 49.1963 42.7613 49.3707 42.7613C49.5547 42.7613 49.6904 42.8047 49.6904 42.8589C49.6904 42.9132 49.5547 42.9458 49.3707 42.9458C49.1963 42.9458 49.051 42.9132 49.051 42.8589ZM22.554 55.1351C22.554 54.8963 22.8155 54.701 23.1256 54.701C23.455 54.701 23.7068 54.8963 23.7068 55.1351C23.7068 55.3631 23.455 55.5584 23.1256 55.5584C22.8155 55.5584 22.554 55.3631 22.554 55.1351ZM23.765 52.8232C23.765 52.6278 24.0362 52.4758 24.3656 52.4758C24.7047 52.4758 24.976 52.6278 24.976 52.8232C24.976 53.0185 24.7047 53.1814 24.3656 53.1814C24.0362 53.1814 23.765 53.0185 23.765 52.8232ZM22.2149 41.6867C22.2149 41.5673 22.3311 41.4587 22.4765 41.4587C22.6218 41.4587 22.738 41.5673 22.738 41.6867C22.738 41.8169 22.6218 41.9146 22.4765 41.9146C22.3311 41.9146 22.2149 41.8169 22.2149 41.6867ZM57.3246 19.1858C57.3246 19.0338 57.4603 18.9253 57.6346 18.9253C57.809 18.9253 57.9447 19.0338 57.9447 19.1858C57.9447 19.3269 57.809 19.4463 57.6346 19.4463C57.4603 19.4463 57.3246 19.3269 57.3246 19.1858ZM45.292 20.7379C45.292 20.5208 45.4664 20.3472 45.6892 20.3472C45.912 20.3472 46.0864 20.5208 46.0864 20.7379C46.0864 20.9659 45.912 21.1395 45.6892 21.1395C45.4664 21.1395 45.292 20.9659 45.292 20.7379ZM29.9557 31.2991C29.9557 31.158 30.1301 31.0386 30.3335 31.0386C30.5467 31.0386 30.7114 31.158 30.7114 31.2991C30.7114 31.4402 30.5467 31.5488 30.3335 31.5488C30.1301 31.5488 29.9557 31.4402 29.9557 31.2991ZM28.0181 52.5301C28.0181 52.465 28.1053 52.3998 28.2021 52.3998C28.3087 52.3998 28.3862 52.465 28.3862 52.5301C28.3862 52.6061 28.3087 52.6604 28.2021 52.6604C28.1053 52.6604 28.0181 52.6061 28.0181 52.5301ZM43.5094 42.3379C43.5094 42.262 43.6353 42.1968 43.7903 42.1968C43.9356 42.1968 44.0616 42.262 44.0616 42.3379C44.0616 42.4139 43.9356 42.479 43.7903 42.479C43.6353 42.479 43.5094 42.4139 43.5094 42.3379ZM29.8588 47.6674C29.8588 47.624 29.9944 47.5806 30.1688 47.5806C30.3432 47.5806 30.4885 47.624 30.4885 47.6674C30.4885 47.7108 30.3432 47.7434 30.1688 47.7434C29.9944 47.7434 29.8588 47.7108 29.8588 47.6674ZM56.9468 45.2577C56.9468 45.16 57.0534 45.0841 57.1696 45.0841C57.2859 45.0841 57.3828 45.16 57.3828 45.2577C57.3828 45.3554 57.2859 45.4314 57.1696 45.4314C57.0534 45.4314 56.9468 45.3554 56.9468 45.2577ZM32.3874 39.7438C32.3874 39.6135 32.5037 39.505 32.649 39.505C32.7846 39.505 32.9009 39.6135 32.9009 39.7438C32.9009 39.8849 32.7846 39.9934 32.649 39.9934C32.5037 39.9934 32.3874 39.8849 32.3874 39.7438ZM38.084 26.914C38.084 26.7403 38.2197 26.5992 38.394 26.5992C38.5587 26.5992 38.6944 26.7403 38.6944 26.914C38.6944 27.0877 38.5587 27.2396 38.394 27.2396C38.2197 27.2396 38.084 27.0877 38.084 26.914ZM48.5569 29.5516C48.5569 29.4322 48.6538 29.3454 48.7603 29.3454C48.8766 29.3454 48.9735 29.4322 48.9735 29.5516C48.9735 29.671 48.8766 29.7687 48.7603 29.7687C48.6538 29.7687 48.5569 29.671 48.5569 29.5516ZM66.1214 27.6087C66.1214 27.511 66.2183 27.4459 66.3443 27.4459C66.4605 27.4459 66.5574 27.511 66.5574 27.6087C66.5574 27.6955 66.4605 27.7715 66.3443 27.7715C66.2183 27.7715 66.1214 27.6955 66.1214 27.6087ZM57.5765 35.3586C57.5765 35.2826 57.7218 35.2175 57.8962 35.2175C58.0803 35.2175 58.2256 35.2826 58.2256 35.3586C58.2256 35.4346 58.0803 35.4997 57.8962 35.4997C57.7218 35.4997 57.5765 35.4346 57.5765 35.3586ZM41.969 33.5785C41.969 33.5351 42.0852 33.5134 42.2402 33.5134C42.3952 33.5134 42.5212 33.5351 42.5212 33.5785C42.5212 33.6219 42.3952 33.6437 42.2402 33.6437C42.0852 33.6437 41.969 33.6219 41.969 33.5785ZM17.6905 34.3166C17.6905 34.1972 17.7971 34.0887 17.923 34.0887C18.049 34.0887 18.1556 34.1972 18.1556 34.3166C18.1556 34.4469 18.049 34.5446 17.923 34.5446C17.7971 34.5446 17.6905 34.4469 17.6905 34.3166ZM30.9148 50.9237C30.9148 50.7934 31.0601 50.6849 31.2442 50.6849C31.4186 50.6849 31.5639 50.7934 31.5639 50.9237C31.5639 51.0539 31.4186 51.1516 31.2442 51.1516C31.0601 51.1516 30.9148 51.0539 30.9148 50.9237ZM24.385 40.3842C24.385 40.3407 24.4528 40.3082 24.5303 40.3082C24.6175 40.3082 24.6757 40.3407 24.6757 40.3842C24.6757 40.4276 24.6175 40.471 24.5303 40.471C24.4528 40.471 24.385 40.4276 24.385 40.3842ZM33.4628 46.3215C33.4628 46.2672 33.5403 46.2238 33.6372 46.2238C33.7341 46.2238 33.8116 46.2672 33.8116 46.3215C33.8116 46.3866 33.7341 46.43 33.6372 46.43C33.5403 46.43 33.4628 46.3866 33.4628 46.3215ZM15.6173 44.9755C15.6173 44.8995 15.7045 44.8344 15.811 44.8344C15.9273 44.8344 16.0145 44.8995 16.0145 44.9755C16.0145 45.0515 15.9273 45.1166 15.811 45.1166C15.7045 45.1166 15.6173 45.0515 15.6173 44.9755ZM62.6822 30.8107C62.6822 30.7239 62.7887 30.6587 62.9147 30.6587C63.0503 30.6587 63.1472 30.7239 63.1472 30.8107C63.1472 30.8975 63.0503 30.9626 62.9147 30.9626C62.7887 30.9626 62.6822 30.8975 62.6822 30.8107ZM36.1755 61.5717C36.1755 61.5174 36.2626 61.4849 36.3595 61.4849C36.4661 61.4849 36.5533 61.5174 36.5533 61.5717C36.5533 61.6043 36.4661 61.6477 36.3595 61.6477C36.2626 61.6477 36.1755 61.6043 36.1755 61.5717ZM29.9072 40.2431C29.9072 40.1888 29.9944 40.1454 30.1107 40.1454C30.2269 40.1454 30.3141 40.1888 30.3141 40.2431C30.3141 40.2973 30.2269 40.3407 30.1107 40.3407C29.9944 40.3407 29.9072 40.2973 29.9072 40.2431ZM36.3498 35.0221C36.3498 34.9679 36.4177 34.9353 36.5049 34.9353C36.6017 34.9353 36.6695 34.9679 36.6695 35.0221C36.6695 35.0764 36.6017 35.109 36.5049 35.109C36.4177 35.109 36.3498 35.0764 36.3498 35.0221ZM28.1731 30.4634C28.1731 30.4199 28.2603 30.3874 28.3668 30.3874C28.4831 30.3874 28.5703 30.4199 28.5703 30.4634C28.5703 30.5068 28.4831 30.5393 28.3668 30.5393C28.2603 30.5393 28.1731 30.5068 28.1731 30.4634ZM44.9529 31.5922C44.9529 31.4945 45.0304 31.4185 45.1273 31.4185C45.2145 31.4185 45.292 31.4945 45.292 31.5922C45.292 31.6899 45.2145 31.7767 45.1273 31.7767C45.0304 31.7767 44.9529 31.6899 44.9529 31.5922ZM42.1918 21.2046C42.1918 21.1178 42.3371 21.0418 42.5212 21.0418C42.7052 21.0418 42.8603 21.1178 42.8603 21.2046C42.8603 21.3023 42.7052 21.3783 42.5212 21.3783C42.3371 21.3783 42.1918 21.3023 42.1918 21.2046ZM29.045 40.1996C29.045 40.1888 29.0934 40.1779 29.1516 40.1779C29.2194 40.1779 29.2678 40.1888 29.2678 40.1996C29.2678 40.2213 29.2194 40.2322 29.1516 40.2322C29.0934 40.2322 29.045 40.2213 29.045 40.1996ZM63.9804 37.9854C63.9804 37.7466 64.1935 37.5512 64.4551 37.5512C64.7263 37.5512 64.9395 37.7466 64.9395 37.9854C64.9395 38.2133 64.7263 38.4087 64.4551 38.4087C64.1935 38.4087 63.9804 38.2133 63.9804 37.9854ZM28.2409 42.7613C28.2409 42.6853 28.3862 42.6201 28.5606 42.6201C28.735 42.6201 28.8706 42.6853 28.8706 42.7613C28.8706 42.8372 28.735 42.9024 28.5606 42.9024C28.3862 42.9024 28.2409 42.8372 28.2409 42.7613ZM48.4697 56.1337C48.4697 56.0903 48.6247 56.0469 48.8088 56.0469C48.8475 56.0469 48.896 56.0577 48.9347 56.0577L48.6828 56.2206C48.5569 56.2097 48.4697 56.1771 48.4697 56.1337ZM68.495 24.2438C68.495 24.1353 68.5919 24.0485 68.6985 24.0485C68.8147 24.0485 68.9019 24.1353 68.9019 24.2438C68.9019 24.3524 68.8147 24.4284 68.6985 24.4284C68.5919 24.4284 68.495 24.3524 68.495 24.2438ZM44.2747 53.1814C44.2747 53.0294 44.42 52.91 44.5944 52.91C44.7688 52.91 44.9044 53.0294 44.9044 53.1814C44.9044 53.3442 44.7688 53.4636 44.5944 53.4636C44.42 53.4636 44.2747 53.3442 44.2747 53.1814ZM63.06 36.4766C63.06 36.2921 63.2634 36.1401 63.5153 36.1401C63.7672 36.1401 63.9707 36.2921 63.9707 36.4766C63.9707 36.672 63.7672 36.824 63.5153 36.824C63.2634 36.824 63.06 36.672 63.06 36.4766ZM35.8654 24.602C35.8654 24.5695 35.9429 24.5478 36.0398 24.5478C36.127 24.5478 36.2045 24.5695 36.2045 24.602C36.2045 24.6455 36.127 24.6672 36.0398 24.6672C35.9429 24.6672 35.8654 24.6455 35.8654 24.602ZM25.1019 27.9017C25.1019 27.8258 25.2279 27.7715 25.3829 27.7715C25.5379 27.7715 25.6735 27.8258 25.6735 27.9017C25.6735 27.9777 25.5379 28.0428 25.3829 28.0428C25.2279 28.0428 25.1019 27.9777 25.1019 27.9017ZM34.9548 57.0889C34.9548 57.0129 35.0613 56.9586 35.197 56.9586C35.3326 56.9586 35.4392 57.0129 35.4392 57.0889C35.4392 57.154 35.3326 57.2192 35.197 57.2192C35.0613 57.2192 34.9548 57.154 34.9548 57.0889ZM20.9264 29.9749C20.9264 29.9098 21.1007 29.8555 21.3139 29.8555C21.5173 29.8555 21.6917 29.9098 21.6917 29.9749C21.6917 30.04 21.5173 30.0943 21.3139 30.0943C21.1007 30.0943 20.9264 30.04 20.9264 29.9749ZM23.8522 34.8051C23.8522 34.7616 23.9781 34.7182 24.1331 34.7182C24.2881 34.7182 24.4141 34.7616 24.4141 34.8051C24.4141 34.8485 24.2881 34.881 24.1331 34.881C23.9781 34.881 23.8522 34.8485 23.8522 34.8051ZM51.2211 31.7984C51.2211 31.6248 51.347 31.4945 51.5117 31.4945C51.6668 31.4945 51.8024 31.6248 51.8024 31.7984C51.8024 31.9612 51.6668 32.1023 51.5117 32.1023C51.347 32.1023 51.2211 31.9612 51.2211 31.7984ZM19.415 53.0511C19.415 52.8991 19.5991 52.7798 19.8316 52.7798C20.0738 52.7798 20.2579 52.8991 20.2579 53.0511C20.2579 53.2031 20.0738 53.3225 19.8316 53.3225C19.5991 53.3225 19.415 53.2031 19.415 53.0511ZM26.1289 56.5353C26.1289 56.4268 26.3033 56.3291 26.5358 56.3291C26.7586 56.3291 26.9427 56.4268 26.9427 56.5353C26.9427 56.6439 26.7586 56.7416 26.5358 56.7416C26.3033 56.7416 26.1289 56.6439 26.1289 56.5353ZM40.0701 51.9982C40.0701 51.9223 40.1476 51.8571 40.2445 51.8571C40.3317 51.8571 40.4092 51.9223 40.4092 51.9982C40.4092 52.0742 40.3317 52.1393 40.2445 52.1393C40.1476 52.1393 40.0701 52.0742 40.0701 51.9982ZM16.4989 46.8208C16.4989 46.7773 16.557 46.7339 16.6248 46.7339C16.6926 46.7339 16.7411 46.7773 16.7411 46.8208C16.7411 46.8642 16.6926 46.8967 16.6248 46.8967C16.557 46.8967 16.4989 46.8642 16.4989 46.8208ZM34.0925 39.6461C34.0925 39.5375 34.2088 39.4507 34.3638 39.4507C34.4994 39.4507 34.6254 39.5375 34.6254 39.6461C34.6254 39.7546 34.4994 39.8414 34.3638 39.8414C34.2088 39.8414 34.0925 39.7546 34.0925 39.6461ZM57.0437 24.5044C57.0437 24.3415 57.1696 24.2221 57.3149 24.2221C57.4699 24.2221 57.5862 24.3415 57.5862 24.5044C57.5862 24.6455 57.4699 24.7757 57.3149 24.7757C57.1696 24.7757 57.0437 24.6455 57.0437 24.5044ZM41.0292 37.2364C41.0292 37.0845 41.2327 36.9542 41.4942 36.9542C41.7461 36.9542 41.9496 37.0845 41.9496 37.2364C41.9496 37.3884 41.7461 37.5186 41.4942 37.5186C41.2327 37.5186 41.0292 37.3884 41.0292 37.2364ZM57.2181 25.9914C57.2181 25.8611 57.3537 25.7526 57.5281 25.7526C57.6928 25.7526 57.8381 25.8611 57.8381 25.9914C57.8381 26.1216 57.6928 26.2302 57.5281 26.2302C57.3537 26.2302 57.2181 26.1216 57.2181 25.9914ZM53.9144 35.7168C53.9144 35.6843 54.0016 35.6626 54.1179 35.6626C54.2244 35.6626 54.3213 35.6843 54.3213 35.7168C54.3213 35.7494 54.2244 35.7711 54.1179 35.7711C54.0016 35.7711 53.9144 35.7494 53.9144 35.7168ZM36.8052 44.0529C36.8052 43.8684 36.9893 43.7164 37.2121 43.7164C37.4446 43.7164 37.6287 43.8684 37.6287 44.0529C37.6287 44.2374 37.4446 44.3894 37.2121 44.3894C36.9893 44.3894 36.8052 44.2374 36.8052 44.0529ZM55.0092 27.4784C55.0092 27.3699 55.1351 27.283 55.2804 27.283C55.4258 27.283 55.542 27.3699 55.542 27.4784C55.542 27.587 55.4258 27.6847 55.2804 27.6847C55.1351 27.6847 55.0092 27.587 55.0092 27.4784ZM27.6983 30.2246C27.6983 30.1486 27.7952 30.0943 27.9115 30.0943C28.0277 30.0943 28.1246 30.1486 28.1246 30.2246C28.1246 30.3005 28.0277 30.3548 27.9115 30.3548C27.7952 30.3548 27.6983 30.3005 27.6983 30.2246ZM58.865 36.748C58.865 36.5309 59.0394 36.3572 59.2622 36.3572C59.4754 36.3572 59.6498 36.5309 59.6498 36.748C59.6498 36.9542 59.4754 37.1279 59.2622 37.1279C59.0394 37.1279 58.865 36.9542 58.865 36.748ZM43.1412 40.9052C43.1412 40.8075 43.2672 40.7315 43.4319 40.7315C43.5869 40.7315 43.7128 40.8075 43.7128 40.9052C43.7128 41.0029 43.5869 41.0897 43.4319 41.0897C43.2672 41.0897 43.1412 41.0029 43.1412 40.9052ZM56.4333 39.2119C56.4333 39.1468 56.5302 39.0816 56.6561 39.0816C56.7724 39.0816 56.8693 39.1468 56.8693 39.2119C56.8693 39.2879 56.7724 39.3422 56.6561 39.3422C56.5302 39.3422 56.4333 39.2879 56.4333 39.2119ZM28.89 51.8571C28.89 51.6943 29.0644 51.5641 29.2775 51.5641C29.4907 51.5641 29.6554 51.6943 29.6554 51.8571C29.6554 52.02 29.4907 52.1611 29.2775 52.1611C29.0644 52.1611 28.89 52.02 28.89 51.8571ZM39.3241 30.8867C39.3241 30.6804 39.6244 30.5068 40.0023 30.5068C40.3801 30.5068 40.6804 30.6804 40.6804 30.8867C40.6804 31.1038 40.3801 31.2774 40.0023 31.2774C39.6244 31.2774 39.3241 31.1038 39.3241 30.8867ZM38.2778 53.8326C38.2778 53.6698 38.5684 53.5287 38.9172 53.5287C39.266 53.5287 39.5469 53.6698 39.5469 53.8326C39.5469 54.0063 39.266 54.1474 38.9172 54.1474C38.5684 54.1474 38.2778 54.0063 38.2778 53.8326ZM32.5521 28.6073C32.5521 28.5313 32.678 28.477 32.8331 28.477C32.9881 28.477 33.114 28.5313 33.114 28.6073C33.114 28.6832 32.9881 28.7375 32.8331 28.7375C32.678 28.7375 32.5521 28.6832 32.5521 28.6073ZM44.8948 42.2511C44.8948 42.1643 45.1273 42.0991 45.4179 42.0991C45.7086 42.0991 45.9411 42.1643 45.9411 42.2511C45.9411 42.3271 45.7086 42.3922 45.4179 42.3922C45.1273 42.3922 44.8948 42.3271 44.8948 42.2511ZM58.1191 28.3576C58.1191 28.2925 58.1772 28.2382 58.2353 28.2382C58.3031 28.2382 58.3613 28.2925 58.3613 28.3576C58.3613 28.4336 58.3031 28.4879 58.2353 28.4879C58.1772 28.4879 58.1191 28.4336 58.1191 28.3576ZM47.8884 22.7025C47.8884 22.6266 48.0047 22.5506 48.15 22.5506C48.2953 22.5506 48.4116 22.6266 48.4116 22.7025C48.4116 22.7785 48.2953 22.8545 48.15 22.8545C48.0047 22.8545 47.8884 22.7785 47.8884 22.7025ZM20.1126 46.3649C20.1126 46.1912 20.316 46.0392 20.5679 46.0392C20.8101 46.0392 21.0135 46.1912 21.0135 46.3649C21.0135 46.5494 20.8101 46.6905 20.5679 46.6905C20.316 46.6905 20.1126 46.5494 20.1126 46.3649ZM20.4032 38.756C20.4032 38.6909 20.4904 38.6258 20.6066 38.6258C20.7132 38.6258 20.8004 38.6909 20.8004 38.756C20.8004 38.832 20.7132 38.8863 20.6066 38.8863C20.4904 38.8863 20.4032 38.832 20.4032 38.756ZM21.4204 56.4159C21.4204 56.3725 21.5367 56.34 21.682 56.34C21.8273 56.34 21.9436 56.3725 21.9436 56.4159C21.9436 56.4485 21.8273 56.4811 21.682 56.4811C21.5367 56.4811 21.4204 56.4485 21.4204 56.4159ZM40.2348 58.272C40.2348 58.1309 40.3898 58.0224 40.5739 58.0224C40.7579 58.0224 40.9033 58.1309 40.9033 58.272C40.9033 58.4023 40.7579 58.5108 40.5739 58.5108C40.3898 58.5108 40.2348 58.4023 40.2348 58.272ZM35.6814 57.0455C35.6814 56.8393 35.9042 56.6656 36.1851 56.6656C36.4661 56.6656 36.6986 56.8393 36.6986 57.0455C36.6986 57.2517 36.4661 57.4145 36.1851 57.4145C35.9042 57.4145 35.6814 57.2517 35.6814 57.0455ZM16.5764 44.0095C16.5764 43.9444 16.6442 43.8901 16.7314 43.8901C16.8186 43.8901 16.8864 43.9444 16.8864 44.0095C16.8864 44.0746 16.8186 44.118 16.7314 44.118C16.6442 44.118 16.5764 44.0746 16.5764 44.0095ZM24.2106 58.1201C24.2106 57.9355 24.3656 57.7727 24.5497 57.7727C24.7435 57.7727 24.8888 57.9355 24.8888 58.1201C24.8888 58.3154 24.7435 58.4782 24.5497 58.4782C24.3656 58.4782 24.2106 58.3154 24.2106 58.1201ZM54.1372 39.5158C54.1372 39.4615 54.2438 39.429 54.3697 39.429C54.4957 39.429 54.6023 39.4615 54.6023 39.5158C54.6023 39.5592 54.4957 39.5918 54.3697 39.5918C54.2438 39.5918 54.1372 39.5592 54.1372 39.5158ZM27.1171 44.194C27.1171 44.1506 27.1849 44.118 27.2624 44.118C27.3496 44.118 27.4174 44.1506 27.4174 44.194C27.4174 44.2374 27.3496 44.27 27.2624 44.27C27.1849 44.27 27.1171 44.2374 27.1171 44.194ZM36.1464 61.0182C36.1561 60.9313 36.253 60.8553 36.3789 60.8553C36.5145 60.8553 36.6114 60.9422 36.6114 61.0399C36.6114 61.1375 36.5145 61.2135 36.3789 61.2135C36.3305 61.2135 36.282 61.2027 36.2433 61.181C36.1948 61.1918 36.1367 61.1918 36.0786 61.1918C35.9042 61.1918 35.7589 61.1484 35.7589 61.105C35.7589 61.0616 35.9042 61.0182 36.0786 61.0182H36.1464ZM40.2542 28.6615C40.2542 28.4553 40.477 28.2816 40.7483 28.2816C41.0098 28.2816 41.2327 28.4553 41.2327 28.6615C41.2327 28.8678 41.0098 29.0306 40.7483 29.0306C40.477 29.0306 40.2542 28.8678 40.2542 28.6615ZM45.3792 13.3353C45.3792 13.2268 45.5536 13.1291 45.7764 13.1291C45.9895 13.1291 46.1639 13.2268 46.1639 13.3353C46.1639 13.4547 45.9895 13.5415 45.7764 13.5415C45.5536 13.5415 45.3792 13.4547 45.3792 13.3353ZM45.2629 33.3289C45.2629 33.2855 45.3501 33.2529 45.447 33.2529C45.5439 33.2529 45.6214 33.2855 45.6214 33.3289C45.6214 33.3723 45.5439 33.4049 45.447 33.4049C45.3501 33.4049 45.2629 33.3723 45.2629 33.3289ZM55.9295 23.7446C55.9295 23.6469 56.0264 23.5817 56.1427 23.5817C56.2589 23.5817 56.3558 23.6469 56.3558 23.7446C56.3558 23.8314 56.2589 23.9074 56.1427 23.9074C56.0264 23.9074 55.9295 23.8314 55.9295 23.7446ZM64.3388 32.7536C64.3388 32.7102 64.4938 32.6776 64.6973 32.6776C64.891 32.6776 65.0557 32.7102 65.0557 32.7536C65.0557 32.8079 64.891 32.8404 64.6973 32.8404C64.4938 32.8404 64.3388 32.8079 64.3388 32.7536ZM65.6661 29.1066C65.6661 29.0089 65.7824 28.922 65.9277 28.922C66.0827 28.922 66.1989 29.0089 66.1989 29.1066C66.1989 29.2151 66.0827 29.2911 65.9277 29.2911C65.7824 29.2911 65.6661 29.2151 65.6661 29.1066ZM66.3152 40.471C66.3152 40.4059 66.4024 40.3516 66.509 40.3516C66.6155 40.3516 66.7027 40.4059 66.7027 40.471C66.7027 40.5361 66.6155 40.5904 66.509 40.5904C66.4024 40.5904 66.3152 40.5361 66.3152 40.471ZM37.2896 61.7562C37.2896 61.626 37.4349 61.5174 37.619 61.5174C37.8031 61.5174 37.9581 61.626 37.9581 61.7562C37.9581 61.8973 37.8031 62.0059 37.619 62.0059C37.4349 62.0059 37.2896 61.8973 37.2896 61.7562ZM26.4001 26.5775C26.4001 26.4473 26.5455 26.3496 26.7392 26.3496C26.9233 26.3496 27.0783 26.4473 27.0783 26.5775C27.0783 26.6969 26.9233 26.8055 26.7392 26.8055C26.5455 26.8055 26.4001 26.6969 26.4001 26.5775ZM41.6492 58.3371C41.6492 58.1743 41.7752 58.0549 41.9399 58.0549C42.1046 58.0549 42.2305 58.1743 42.2305 58.3371C42.2305 58.4891 42.1046 58.6085 41.9399 58.6085C41.7752 58.6085 41.6492 58.4891 41.6492 58.3371ZM67.3615 41.6215C67.3615 41.4587 67.5456 41.3285 67.7781 41.3285C68.0106 41.3285 68.2044 41.4587 68.2044 41.6215C68.2044 41.7844 68.0106 41.9146 67.7781 41.9146C67.5456 41.9146 67.3615 41.7844 67.3615 41.6215ZM46.5514 16.1574C46.5514 16.114 46.6386 16.0814 46.7355 16.0814C46.8421 16.0814 46.9293 16.114 46.9293 16.1574C46.9293 16.2008 46.8421 16.2334 46.7355 16.2334C46.6386 16.2334 46.5514 16.2008 46.5514 16.1574ZM44.3038 13.4438C44.3038 13.3353 44.4394 13.2593 44.6041 13.2593C44.7785 13.2593 44.9141 13.3353 44.9141 13.4438C44.9141 13.5415 44.7785 13.6284 44.6041 13.6284C44.4394 13.6284 44.3038 13.5415 44.3038 13.4438ZM52.0349 22.9956C52.0349 22.9196 52.1512 22.8654 52.2965 22.8654C52.4418 22.8654 52.5581 22.9196 52.5581 22.9956C52.5581 23.0716 52.4418 23.1367 52.2965 23.1367C52.1512 23.1367 52.0349 23.0716 52.0349 22.9956ZM16.1695 31.8744C16.1695 31.8093 16.3923 31.7442 16.6733 31.7442C16.9542 31.7442 17.1771 31.8093 17.1771 31.8744C17.1771 31.9395 16.9542 32.0047 16.6733 32.0047C16.3923 32.0047 16.1695 31.9395 16.1695 31.8744ZM30.1979 30.3548C30.1979 30.268 30.2851 30.2029 30.3916 30.2029C30.4982 30.2029 30.5854 30.268 30.5854 30.3548C30.5854 30.4308 30.4982 30.4959 30.3916 30.4959C30.2851 30.4959 30.1979 30.4308 30.1979 30.3548ZM53.8272 39.7546C53.8272 39.6786 53.9338 39.6244 54.0694 39.6244C54.1954 39.6244 54.3019 39.6786 54.3019 39.7546C54.3019 39.8306 54.1954 39.8849 54.0694 39.8849C53.9338 39.8849 53.8272 39.8306 53.8272 39.7546ZM47.8593 42.555C47.8303 42.5659 47.8012 42.5767 47.7721 42.5767C47.7334 42.5767 47.6946 42.5659 47.6656 42.5442C47.5299 42.5116 47.433 42.4465 47.433 42.3705C47.433 42.262 47.6171 42.1751 47.84 42.1751C48.0628 42.1751 48.2469 42.262 48.2469 42.3705C48.2469 42.4682 48.0725 42.555 47.8593 42.555ZM38.83 49.7623C38.83 49.6429 38.9269 49.5452 39.0528 49.5452C39.1788 49.5452 39.2853 49.6429 39.2853 49.7623C39.2853 49.8817 39.1788 49.9793 39.0528 49.9793C38.9269 49.9793 38.83 49.8817 38.83 49.7623ZM39.1303 17.0149C39.1303 16.9498 39.2369 16.8955 39.3725 16.8955C39.5082 16.8955 39.6244 16.9498 39.6244 17.0149C39.6244 17.08 39.5082 17.1234 39.3725 17.1234C39.2369 17.1234 39.1303 17.08 39.1303 17.0149ZM40.9129 53.6589C40.9129 53.5613 40.9905 53.4961 41.0776 53.4961C41.1745 53.4961 41.2423 53.5613 41.2423 53.6589C41.2423 53.7458 41.1745 53.8218 41.0776 53.8218C40.9905 53.8218 40.9129 53.7458 40.9129 53.6589ZM51.2017 50.1096C51.2017 50.0445 51.3277 49.9902 51.473 49.9902C51.628 49.9902 51.754 50.0445 51.754 50.1096C51.754 50.1856 51.628 50.2398 51.473 50.2398C51.3277 50.2398 51.2017 50.1856 51.2017 50.1096ZM56.4139 16.0055C56.4139 15.8969 56.5108 15.7992 56.6368 15.7992C56.7627 15.7992 56.8596 15.8969 56.8596 16.0055C56.8596 16.114 56.7627 16.2008 56.6368 16.2008C56.5108 16.2008 56.4139 16.114 56.4139 16.0055ZM58.9135 30.9301C58.9135 30.6913 59.0976 30.5068 59.3301 30.5068C59.5626 30.5068 59.7467 30.6913 59.7467 30.9301C59.7467 31.158 59.5626 31.3534 59.3301 31.3534C59.0976 31.3534 58.9135 31.158 58.9135 30.9301ZM52.4806 17.9375C52.4806 17.8615 52.5678 17.7964 52.6743 17.7964C52.7712 17.7964 52.8584 17.8615 52.8584 17.9375C52.8584 18.0135 52.7712 18.0786 52.6743 18.0786C52.5678 18.0786 52.4806 18.0135 52.4806 17.9375ZM51.3277 48.742C51.3277 48.6551 51.3471 48.5683 51.3955 48.4815C51.3374 48.514 51.2696 48.5357 51.192 48.5357C51.0467 48.5357 50.9208 48.4706 50.9208 48.3946C50.9208 48.3186 51.0467 48.2535 51.192 48.2535C51.3374 48.2535 51.4536 48.3186 51.4633 48.3838C51.5796 48.2427 51.7733 48.1558 51.9865 48.1558C52.3546 48.1558 52.6549 48.4163 52.6549 48.742C52.6549 49.0676 52.3546 49.3281 51.9865 49.3281C51.6183 49.3281 51.3277 49.0676 51.3277 48.742ZM30.1688 36.2161C30.1688 36.0207 30.3432 35.8796 30.5467 35.8796C30.7598 35.8796 30.9245 36.0207 30.9245 36.2161C30.9245 36.4006 30.7598 36.5526 30.5467 36.5526C30.3432 36.5526 30.1688 36.4006 30.1688 36.2161ZM36.2239 23.1259C36.2239 23.039 36.3886 22.9739 36.592 22.9739C36.7955 22.9739 36.9602 23.039 36.9602 23.1259C36.9602 23.2018 36.7955 23.2778 36.592 23.2778C36.3886 23.2778 36.2239 23.2018 36.2239 23.1259ZM51.628 29.4865C51.628 29.3237 51.7636 29.2043 51.938 29.2043C52.1027 29.2043 52.248 29.3237 52.248 29.4865C52.248 29.6493 52.1027 29.7687 51.938 29.7687C51.7636 29.7687 51.628 29.6493 51.628 29.4865ZM62.0815 37.4535C62.0815 37.4209 62.1687 37.3992 62.2849 37.3992C62.4012 37.3992 62.4884 37.4209 62.4884 37.4535C62.4884 37.4752 62.4012 37.4969 62.2849 37.4969C62.1687 37.4969 62.0815 37.4752 62.0815 37.4535ZM57.3052 25.0362C57.3052 24.9819 57.4118 24.9385 57.5378 24.9385C57.6637 24.9385 57.7606 24.9819 57.7606 25.0362C57.7606 25.0905 57.6637 25.1339 57.5378 25.1339C57.4118 25.1339 57.3052 25.0905 57.3052 25.0362ZM38.675 50.8694C38.675 50.8043 38.7525 50.75 38.8397 50.75C38.9269 50.75 38.9947 50.8043 38.9947 50.8694C38.9947 50.9454 38.9269 50.9996 38.8397 50.9996C38.7525 50.9996 38.675 50.9454 38.675 50.8694ZM33.8309 53.8543C33.8309 53.7675 33.9472 53.6915 34.0731 53.6915C34.2088 53.6915 34.325 53.7675 34.325 53.8543C34.325 53.9412 34.2088 54.0063 34.0731 54.0063C33.9472 54.0063 33.8309 53.9412 33.8309 53.8543ZM52.1027 41.2959C52.1027 40.8943 52.4612 40.5687 52.8971 40.5687C53.3428 40.5687 53.6916 40.8943 53.6916 41.2959C53.6916 41.6975 53.3428 42.0232 52.8971 42.0232C52.4612 42.0232 52.1027 41.6975 52.1027 41.2959ZM21.3042 30.9084C21.3042 30.7781 21.4689 30.6696 21.6723 30.6696C21.8855 30.6696 22.0502 30.7781 22.0502 30.9084C22.0502 31.0386 21.8855 31.1363 21.6723 31.1363C21.4689 31.1363 21.3042 31.0386 21.3042 30.9084ZM52.1318 13.9323C52.1318 13.8889 52.1802 13.8454 52.2287 13.8454C52.2771 13.8454 52.3256 13.8889 52.3256 13.9323C52.3256 13.9866 52.2771 14.0191 52.2287 14.0191C52.1802 14.0191 52.1318 13.9866 52.1318 13.9323ZM53.0134 52.6169C53.0134 52.4216 53.2072 52.2696 53.4494 52.2696C53.6916 52.2696 53.895 52.4216 53.895 52.6169C53.895 52.8123 53.6916 52.9643 53.4494 52.9643C53.2072 52.9643 53.0134 52.8123 53.0134 52.6169ZM66.4702 23.4732C66.4702 23.3429 66.6349 23.2344 66.8287 23.2344C67.0321 23.2344 67.1871 23.3429 67.1871 23.4732C67.1871 23.6034 67.0321 23.712 66.8287 23.712C66.6349 23.712 66.4702 23.6034 66.4702 23.4732ZM34.141 49.2304C34.141 49.187 34.2475 49.1544 34.3735 49.1544C34.5091 49.1544 34.6157 49.187 34.6157 49.2304C34.6157 49.2738 34.5091 49.3172 34.3735 49.3172C34.2475 49.3172 34.141 49.2738 34.141 49.2304ZM59.8532 22.6266C59.8532 22.5506 59.9307 22.4855 60.0276 22.4855C60.1245 22.4855 60.202 22.5506 60.202 22.6266C60.202 22.7025 60.1245 22.7568 60.0276 22.7568C59.9307 22.7568 59.8532 22.7025 59.8532 22.6266ZM26.3129 49.5994C26.3129 49.4258 26.4583 49.2847 26.6423 49.2847C26.8264 49.2847 26.9717 49.4258 26.9717 49.5994C26.9717 49.7731 26.8264 49.9251 26.6423 49.9251C26.4583 49.9251 26.3129 49.7731 26.3129 49.5994ZM57.2277 43.7381C57.2277 43.6622 57.3052 43.6079 57.4021 43.6079C57.499 43.6079 57.5765 43.6622 57.5765 43.7381C57.5765 43.8141 57.499 43.8684 57.4021 43.8684C57.3052 43.8684 57.2277 43.8141 57.2277 43.7381ZM31.9127 55.3631C31.9127 55.3196 31.9999 55.2871 32.1064 55.2871C32.2033 55.2871 32.2905 55.3196 32.2905 55.3631C32.2905 55.4173 32.2033 55.4499 32.1064 55.4499C31.9999 55.4499 31.9127 55.4173 31.9127 55.3631ZM36.4661 63.5581C36.4661 63.4495 36.6017 63.3627 36.7567 63.3627C36.9118 63.3627 37.0377 63.4495 37.0377 63.5581C37.0377 63.6774 36.9118 63.7643 36.7567 63.7643C36.6017 63.7643 36.4661 63.6774 36.4661 63.5581ZM42.3371 29.9206C42.3371 29.7904 42.5309 29.6927 42.7634 29.6927C42.9959 29.6927 43.1897 29.7904 43.1897 29.9206C43.1897 30.0509 42.9959 30.1486 42.7634 30.1486C42.5309 30.1486 42.3371 30.0509 42.3371 29.9206ZM41.2327 20.5425C41.2327 20.4991 41.3295 20.4557 41.4458 20.4557C41.562 20.4557 41.6589 20.4991 41.6589 20.5425C41.6589 20.586 41.562 20.6185 41.4458 20.6185C41.3295 20.6185 41.2327 20.586 41.2327 20.5425ZM68.185 40.7641C68.185 40.6555 68.3206 40.5687 68.4853 40.5687C68.65 40.5687 68.7857 40.6555 68.7857 40.7641C68.7857 40.8726 68.65 40.9594 68.4853 40.9594C68.3206 40.9594 68.185 40.8726 68.185 40.7641ZM40.6707 47.1572C40.6707 47.1138 40.7386 47.0704 40.8258 47.0704C40.9033 47.0704 40.9711 47.1138 40.9711 47.1572C40.9711 47.2006 40.9033 47.2332 40.8258 47.2332C40.7386 47.2332 40.6707 47.2006 40.6707 47.1572ZM31.4767 33.9476C31.4767 33.9042 31.622 33.8607 31.7964 33.8607C31.9708 33.8607 32.1161 33.9042 32.1161 33.9476C32.1161 34.0018 31.9708 34.0344 31.7964 34.0344C31.622 34.0344 31.4767 34.0018 31.4767 33.9476ZM54.641 41.8712C54.641 41.7301 54.7573 41.6107 54.8929 41.6107C55.0382 41.6107 55.1545 41.7301 55.1545 41.8712C55.1545 42.0232 55.0382 42.1426 54.8929 42.1426C54.7573 42.1426 54.641 42.0232 54.641 41.8712ZM44.3813 49.8708C44.3813 49.7623 44.6138 49.6646 44.8948 49.6646C45.1757 49.6646 45.4082 49.7623 45.4082 49.8708C45.4082 49.9793 45.1757 50.0662 44.8948 50.0662C44.6138 50.0662 44.3813 49.9793 44.3813 49.8708ZM37.7062 35.7277C37.7062 35.4238 37.9387 35.185 38.2293 35.185C38.52 35.185 38.7525 35.4238 38.7525 35.7277C38.7525 36.0424 38.52 36.2812 38.2293 36.2812C37.9387 36.2812 37.7062 36.0424 37.7062 35.7277ZM55.7164 47.7651C55.7164 47.7434 55.7939 47.7108 55.8811 47.7108C55.978 47.7108 56.0458 47.7434 56.0458 47.7651C56.0458 47.7976 55.978 47.8193 55.8811 47.8193C55.7939 47.8193 55.7164 47.7976 55.7164 47.7651ZM61.5777 30.9192C61.5777 30.7347 61.7424 30.5936 61.9555 30.5936C62.159 30.5936 62.3334 30.7347 62.3334 30.9192C62.3334 31.0929 62.159 31.234 61.9555 31.234C61.7424 31.234 61.5777 31.0929 61.5777 30.9192ZM53.8272 24.7757C53.8272 24.7106 53.9338 24.6672 54.0694 24.6672C54.2051 24.6672 54.3213 24.7106 54.3213 24.7757C54.3213 24.83 54.2051 24.8843 54.0694 24.8843C53.9338 24.8843 53.8272 24.83 53.8272 24.7757ZM59.4269 35.7819C59.4269 35.6951 59.5335 35.63 59.6498 35.63C59.7757 35.63 59.8726 35.6951 59.8726 35.7819C59.8726 35.8688 59.7757 35.9448 59.6498 35.9448C59.5335 35.9448 59.4269 35.8688 59.4269 35.7819ZM60.3958 24.8191C60.3958 24.7431 60.4539 24.6889 60.5314 24.6889C60.5992 24.6889 60.667 24.7431 60.667 24.8191C60.667 24.8843 60.5992 24.9494 60.5314 24.9494C60.4539 24.9494 60.3958 24.8843 60.3958 24.8191ZM58.4872 34.1212C58.4872 33.9693 58.6131 33.8499 58.7585 33.8499C58.9038 33.8499 59.02 33.9693 59.02 34.1212C59.02 34.2732 58.9038 34.3926 58.7585 34.3926C58.6131 34.3926 58.4872 34.2732 58.4872 34.1212ZM63.37 45.9307C63.37 45.8656 63.4572 45.8113 63.5638 45.8113C63.6703 45.8113 63.7575 45.8656 63.7575 45.9307C63.7575 45.9958 63.6703 46.0501 63.5638 46.0501C63.4572 46.0501 63.37 45.9958 63.37 45.9307ZM57.6831 37.9854C57.6831 37.9419 57.7703 37.8985 57.8672 37.8985C57.964 37.8985 58.0512 37.9419 58.0512 37.9854C58.0512 38.0288 57.964 38.0722 57.8672 38.0722C57.7703 38.0722 57.6831 38.0288 57.6831 37.9854ZM64.6295 33.4917C64.6295 33.4808 64.6876 33.4591 64.7651 33.4591C64.8329 33.4591 64.9007 33.4808 64.9007 33.4917C64.9007 33.5134 64.8329 33.5351 64.7651 33.5351C64.6876 33.5351 64.6295 33.5134 64.6295 33.4917ZM52.8196 49.9251C52.8196 49.7948 52.9165 49.6971 53.0328 49.6971C53.149 49.6971 53.2459 49.7948 53.2459 49.9251C53.2459 50.0445 53.149 50.153 53.0328 50.153C52.9165 50.153 52.8196 50.0445 52.8196 49.9251ZM45.9314 55.2871C45.9314 55.2111 46.0477 55.146 46.2027 55.146C46.348 55.146 46.4642 55.2111 46.4642 55.2871C46.4642 55.3739 46.348 55.439 46.2027 55.439C46.0477 55.439 45.9314 55.3739 45.9314 55.2871ZM66.3152 30.8541C66.3152 30.7998 66.3733 30.7673 66.4411 30.7673C66.4993 30.7673 66.5574 30.7998 66.5574 30.8541C66.5574 30.9084 66.4993 30.9518 66.4411 30.9518C66.3733 30.9518 66.3152 30.9084 66.3152 30.8541ZM62.4981 21.476C62.4981 21.2155 62.7209 21.0093 62.9922 21.0093C63.2634 21.0093 63.4863 21.2155 63.4863 21.476C63.4863 21.7365 63.2634 21.9427 62.9922 21.9427C62.7209 21.9427 62.4981 21.7365 62.4981 21.476ZM41.0486 25.6441C41.0486 25.5464 41.1842 25.4595 41.3586 25.4595C41.533 25.4595 41.6783 25.5464 41.6783 25.6441C41.6783 25.7417 41.533 25.8177 41.3586 25.8177C41.1842 25.8177 41.0486 25.7417 41.0486 25.6441ZM46.968 56.112C46.968 55.9275 47.1812 55.7647 47.4427 55.7647C47.714 55.7647 47.9271 55.9275 47.9271 56.112C47.9271 56.3074 47.714 56.4702 47.4427 56.4702C47.1812 56.4702 46.968 56.3074 46.968 56.112ZM51.0467 42.7938C51.0467 42.7395 51.1727 42.6961 51.3277 42.6961C51.4827 42.6961 51.6086 42.7395 51.6086 42.7938C51.6086 42.8589 51.4827 42.9024 51.3277 42.9024C51.1727 42.9024 51.0467 42.8589 51.0467 42.7938ZM58.3225 43.5645C58.3225 43.4993 58.4872 43.4451 58.681 43.4451C58.8747 43.4451 59.0297 43.4993 59.0297 43.5645C59.0297 43.6296 58.8747 43.6839 58.681 43.6839C58.4872 43.6839 58.3225 43.6296 58.3225 43.5645ZM34.1216 34.7508C34.1216 34.6097 34.2475 34.5011 34.4122 34.5011C34.5769 34.5011 34.7029 34.6097 34.7029 34.7508C34.7029 34.8919 34.5769 35.0113 34.4122 35.0113C34.2475 35.0113 34.1216 34.8919 34.1216 34.7508ZM69.3766 35.6843C69.3766 35.6517 69.4735 35.63 69.5995 35.63C69.7157 35.63 69.8126 35.6517 69.8126 35.6843C69.8126 35.7168 69.7157 35.7385 69.5995 35.7385C69.4735 35.7385 69.3766 35.7168 69.3766 35.6843ZM39.4307 43.749C39.4307 43.6622 39.5179 43.597 39.6244 43.597C39.731 43.597 39.8182 43.6622 39.8182 43.749C39.8182 43.8358 39.731 43.901 39.6244 43.901C39.5179 43.901 39.4307 43.8358 39.4307 43.749ZM40.351 38.4304C40.351 38.387 40.477 38.3544 40.632 38.3544C40.787 38.3544 40.9226 38.387 40.9226 38.4304C40.9226 38.4738 40.787 38.5064 40.632 38.5064C40.477 38.5064 40.351 38.4738 40.351 38.4304ZM26.0126 54.9072C26.0126 54.8855 26.0514 54.8638 26.0901 54.8638C26.1289 54.8638 26.1579 54.8855 26.1579 54.9072C26.1579 54.9398 26.1289 54.9615 26.0901 54.9615C26.0514 54.9615 26.0126 54.9398 26.0126 54.9072ZM36.7277 32.5148C36.7277 32.2977 36.9505 32.1241 37.2315 32.1241C37.5124 32.1241 37.7352 32.2977 37.7352 32.5148C37.7352 32.721 37.5124 32.8839 37.2315 32.8839C36.9505 32.8839 36.7277 32.721 36.7277 32.5148ZM64.116 28.553C64.116 28.4553 64.2032 28.3793 64.3001 28.3793C64.4066 28.3793 64.4841 28.4553 64.4841 28.553C64.4841 28.6398 64.4066 28.7158 64.3001 28.7158C64.2032 28.7158 64.116 28.6398 64.116 28.553ZM42.1918 36.2921C42.1918 36.1184 42.3759 35.9773 42.589 35.9773C42.8118 35.9773 42.9862 36.1184 42.9862 36.2921C42.9862 36.4658 42.8118 36.6069 42.589 36.6069C42.3759 36.6069 42.1918 36.4658 42.1918 36.2921ZM51.9187 34.0887C51.9187 33.9367 52.0543 33.8065 52.219 33.8065C52.3934 33.8065 52.529 33.9367 52.529 34.0887C52.529 34.2406 52.3934 34.3709 52.219 34.3709C52.0543 34.3709 51.9187 34.2406 51.9187 34.0887ZM43.9647 44.715C43.9647 44.422 44.2166 44.194 44.5169 44.194C44.8076 44.194 45.0595 44.422 45.0595 44.715C45.0595 45.0081 44.8076 45.236 44.5169 45.236C44.2166 45.236 43.9647 45.0081 43.9647 44.715ZM47.3168 18.1329C47.3168 18.122 47.3555 18.1003 47.404 18.1003C47.4524 18.1003 47.5009 18.122 47.5009 18.1329C47.5009 18.1437 47.4524 18.1546 47.404 18.1546C47.3555 18.1546 47.3168 18.1437 47.3168 18.1329ZM48.2662 18.4694C48.2662 18.4368 48.3631 18.4042 48.4697 18.4042C48.5762 18.4042 48.6731 18.4368 48.6731 18.4694C48.6731 18.5019 48.5762 18.5236 48.4697 18.5236C48.3631 18.5236 48.2662 18.5019 48.2662 18.4694ZM67.1096 28.9112C67.1096 28.7592 67.2549 28.629 67.439 28.629C67.6134 28.629 67.7587 28.7592 67.7587 28.9112C67.7587 29.074 67.6134 29.2043 67.439 29.2043C67.2549 29.2043 67.1096 29.074 67.1096 28.9112ZM52.4902 48.069C52.4902 48.0147 52.5678 47.9604 52.6743 47.9604C52.7809 47.9604 52.8681 48.0147 52.8681 48.069C52.8681 48.1233 52.7809 48.1667 52.6743 48.1667C52.5678 48.1667 52.4902 48.1233 52.4902 48.069ZM61.5583 33.6111C61.5583 33.5243 61.6165 33.4591 61.694 33.4591C61.7715 33.4591 61.8296 33.5243 61.8296 33.6111C61.8296 33.6871 61.7715 33.7413 61.694 33.7413C61.6165 33.7413 61.5583 33.6871 61.5583 33.6111ZM62.5562 29.7904C62.5562 29.6167 62.7597 29.4756 63.0116 29.4756C63.2634 29.4756 63.4669 29.6167 63.4669 29.7904C63.4669 29.9641 63.2634 30.116 63.0116 30.116C62.7597 30.116 62.5562 29.9641 62.5562 29.7904ZM47.404 11.0668C47.4912 11.0559 47.5881 11.045 47.6946 11.045C48.0047 11.045 48.2469 11.0993 48.2469 11.1644C48.2469 11.2296 48.0047 11.2838 47.6946 11.2838C47.4621 11.2838 47.2587 11.2513 47.1812 11.2079L47.404 11.0668ZM62.0137 31.4837C62.0137 31.3968 62.1009 31.3317 62.2171 31.3317C62.3237 31.3317 62.4206 31.3968 62.4206 31.4837C62.4206 31.5705 62.3237 31.6465 62.2171 31.6465C62.1009 31.6465 62.0137 31.5705 62.0137 31.4837ZM53.8078 13.8563C53.8078 13.8237 53.8175 13.802 53.8369 13.7803L54.1372 13.9757C54.1082 13.9866 54.0597 13.9974 54.021 13.9974C53.9047 13.9974 53.8078 13.9323 53.8078 13.8563ZM63.4184 38.756C63.4184 38.6475 63.496 38.5606 63.6025 38.5606C63.7091 38.5606 63.7963 38.6475 63.7963 38.756C63.7963 38.8646 63.7091 38.9514 63.6025 38.9514C63.496 38.9514 63.4184 38.8646 63.4184 38.756ZM48.0822 55.5584C48.0822 55.4608 48.2372 55.3739 48.4212 55.3739C48.615 55.3739 48.77 55.4608 48.77 55.5584C48.77 55.6561 48.615 55.743 48.4212 55.743C48.2372 55.743 48.0822 55.6561 48.0822 55.5584ZM35.6232 50.0011C35.6232 49.9251 35.6814 49.8599 35.7589 49.8599C35.8364 49.8599 35.8945 49.9251 35.8945 50.0011C35.8945 50.0662 35.8364 50.1313 35.7589 50.1313C35.6814 50.1313 35.6232 50.0662 35.6232 50.0011ZM49.7388 32.6993C49.7388 32.6559 49.8163 32.6234 49.9132 32.6234C50.0101 32.6234 50.0876 32.6559 50.0876 32.6993C50.0876 32.7319 50.0101 32.7645 49.9132 32.7645C49.8163 32.7645 49.7388 32.7319 49.7388 32.6993ZM69.2023 31.1038C69.2023 31.0169 69.3379 30.9626 69.5123 30.9626C69.677 30.9626 69.8126 31.0169 69.8126 31.1038C69.8126 31.1689 69.6964 31.234 69.5413 31.234C69.6576 31.2774 69.7448 31.386 69.7448 31.5054C69.7448 31.6573 69.6092 31.7876 69.4445 31.7876C69.2701 31.7876 69.1344 31.6573 69.1344 31.5054C69.1344 31.3643 69.241 31.2557 69.3863 31.2232C69.2798 31.2014 69.2023 31.158 69.2023 31.1038ZM46.5514 15.2022C46.5514 15.1588 46.6193 15.1154 46.6968 15.1154C46.7743 15.1154 46.8421 15.1588 46.8421 15.2022C46.8421 15.2565 46.7743 15.2999 46.6968 15.2999C46.6193 15.2999 46.5514 15.2565 46.5514 15.2022ZM52.6356 47.7434C52.6356 47.6565 52.7325 47.5806 52.8487 47.5806C52.965 47.5806 53.0619 47.6565 53.0619 47.7434C53.0619 47.8302 52.965 47.9062 52.8487 47.9062C52.7325 47.9062 52.6356 47.8302 52.6356 47.7434ZM42.1337 25.6875C42.1337 25.5898 42.2983 25.5029 42.5115 25.5029C42.7149 25.5029 42.8893 25.5898 42.8893 25.6875C42.8893 25.796 42.7149 25.872 42.5115 25.872C42.2983 25.872 42.1337 25.796 42.1337 25.6875ZM41.2714 30.9301C41.2714 30.8867 41.3489 30.8541 41.4361 30.8541C41.5233 30.8541 41.5911 30.8867 41.5911 30.9301C41.5911 30.9735 41.5233 31.0061 41.4361 31.0061C41.3489 31.0061 41.2714 30.9735 41.2714 30.9301ZM53.2266 25.6332C53.2266 25.5029 53.3816 25.3944 53.5753 25.3944C53.7594 25.3944 53.9241 25.5029 53.9241 25.6332C53.9241 25.7634 53.7594 25.872 53.5753 25.872C53.3816 25.872 53.2266 25.7634 53.2266 25.6332ZM68.4757 36.5417C68.4757 36.4875 68.6016 36.4332 68.7663 36.4332C68.9213 36.4332 69.0472 36.4875 69.0472 36.5417C69.0472 36.596 68.9213 36.6394 68.7663 36.6394C68.6016 36.6394 68.4757 36.596 68.4757 36.5417ZM64.2613 22.1056C64.2613 22.0187 64.3388 21.9536 64.4357 21.9536C64.5326 21.9536 64.6101 22.0187 64.6101 22.1056C64.6101 22.1924 64.5326 22.2575 64.4357 22.2575C64.3388 22.2575 64.2613 22.1924 64.2613 22.1056ZM63.3506 32.0698C63.3506 31.9612 63.5541 31.8636 63.8157 31.8636C64.0676 31.8636 64.2807 31.9612 64.2807 32.0698C64.2807 32.1783 64.0676 32.276 63.8157 32.276C63.5541 32.276 63.3506 32.1783 63.3506 32.0698ZM62.2656 43.9227C62.2656 43.8901 62.4012 43.8575 62.5659 43.8575C62.7403 43.8575 62.8759 43.8901 62.8759 43.9227C62.8759 43.9661 62.7403 43.9986 62.5659 43.9986C62.4012 43.9986 62.2656 43.9661 62.2656 43.9227ZM42.2887 44.5739C42.2887 44.4871 42.3855 44.422 42.5018 44.422C42.6084 44.422 42.7053 44.4871 42.7053 44.5739C42.7053 44.6607 42.6084 44.7259 42.5018 44.7259C42.3855 44.7259 42.2887 44.6607 42.2887 44.5739ZM67.7781 39.7112C67.7781 39.6569 67.8459 39.6135 67.9331 39.6135C68.0203 39.6135 68.0881 39.6569 68.0881 39.7112C68.0881 39.7763 68.0203 39.8197 67.9331 39.8197C67.8459 39.8197 67.7781 39.7763 67.7781 39.7112ZM66.4993 24.906C66.4993 24.7866 66.6058 24.6997 66.7415 24.6997C66.8771 24.6997 66.9934 24.7866 66.9934 24.906C66.9934 25.0145 66.8771 25.1013 66.7415 25.1013C66.6058 25.1013 66.4993 25.0145 66.4993 24.906ZM65.5789 26.6644C65.5789 26.5667 65.6952 26.4798 65.8502 26.4798C65.9858 26.4798 66.1117 26.5667 66.1117 26.6644C66.1117 26.762 65.9858 26.838 65.8502 26.838C65.6952 26.838 65.5789 26.762 65.5789 26.6644ZM52.6549 46.8533C52.6549 46.8207 52.7325 46.7882 52.8293 46.7882C52.9165 46.7882 52.994 46.8207 52.994 46.8533C52.994 46.8859 52.9165 46.9076 52.8293 46.9076C52.7325 46.9076 52.6549 46.8859 52.6549 46.8533ZM53.3234 51.4881C53.3234 51.3036 53.5753 51.1625 53.8853 51.1625C54.1954 51.1625 54.4473 51.3036 54.4473 51.4881C54.4473 51.6618 54.1954 51.8137 53.8853 51.8137C53.5753 51.8137 53.3234 51.6618 53.3234 51.4881ZM64.9201 27.5978C64.9201 27.5218 65.0267 27.4567 65.1526 27.4567C65.2689 27.4567 65.3755 27.5218 65.3755 27.5978C65.3755 27.6738 65.2689 27.7389 65.1526 27.7389C65.0267 27.7389 64.9201 27.6738 64.9201 27.5978ZM46.3867 17.5142C46.3867 17.4491 46.4449 17.3948 46.5224 17.3948C46.5999 17.3948 46.658 17.4491 46.658 17.5142C46.658 17.5793 46.5999 17.6336 46.5224 17.6336C46.4449 17.6336 46.3867 17.5793 46.3867 17.5142ZM67.9234 28.0211C67.9234 27.956 68.0881 27.9017 68.2916 27.9017C68.495 27.9017 68.6597 27.956 68.6597 28.0211C68.6597 28.0971 68.495 28.1514 68.2916 28.1514C68.0881 28.1514 67.9234 28.0971 67.9234 28.0211ZM61.1417 26.0674C61.1417 25.948 61.2386 25.8503 61.3452 25.8503C61.4614 25.8503 61.5486 25.948 61.5486 26.0674C61.5486 26.1868 61.4614 26.2845 61.3452 26.2845C61.2386 26.2845 61.1417 26.1868 61.1417 26.0674ZM60.4151 35.6517C60.4151 35.554 60.5411 35.478 60.7058 35.478C60.8608 35.478 60.9867 35.554 60.9867 35.6517C60.9867 35.7385 60.8608 35.8145 60.7058 35.8145C60.5411 35.8145 60.4151 35.7385 60.4151 35.6517ZM67.1871 33.1009C67.1871 32.8079 67.4293 32.5691 67.7297 32.5691C68.03 32.5691 68.2722 32.8079 68.2722 33.1009C68.2722 33.4049 68.03 33.6437 67.7297 33.6437C67.4293 33.6437 67.1871 33.4049 67.1871 33.1009ZM43.8097 18.8818C43.8097 18.795 43.8969 18.719 43.9938 18.719C44.1003 18.719 44.1778 18.795 44.1778 18.8818C44.1778 18.9687 44.1003 19.0338 43.9938 19.0338C43.8969 19.0338 43.8097 18.9687 43.8097 18.8818ZM53.895 49.3932C53.895 49.2521 54.05 49.1327 54.2341 49.1327C54.4279 49.1327 54.5829 49.2521 54.5829 49.3932C54.5829 49.5343 54.4279 49.6429 54.2341 49.6429C54.05 49.6429 53.895 49.5343 53.895 49.3932ZM12.8174 50.6197C12.8174 50.75 12.7108 50.8585 12.5752 50.8585C12.4396 50.8585 12.333 50.75 12.333 50.6197C12.333 50.4895 12.4396 50.3701 12.5752 50.3701C12.7108 50.3701 12.8174 50.4895 12.8174 50.6197ZM27.7468 53.7132C27.7468 53.7458 27.679 53.7783 27.5821 53.7783C27.4949 53.7783 27.4271 53.7458 27.4271 53.7132C27.4271 53.6915 27.4949 53.6589 27.5821 53.6589C27.679 53.6589 27.7468 53.6915 27.7468 53.7132ZM20.0157 48.7202C20.0157 48.7528 19.9479 48.7745 19.88 48.7745C19.8122 48.7745 19.7444 48.7528 19.7444 48.7202C19.7444 48.6877 19.8122 48.666 19.88 48.666C19.9479 48.666 20.0157 48.6877 20.0157 48.7202ZM33.4725 57.6099C33.4725 57.6533 33.3562 57.6967 33.2109 57.6967C33.0753 57.6967 32.9687 57.6533 32.9687 57.6099C32.9687 57.5665 33.0753 57.5339 33.2109 57.5339C33.3562 57.5339 33.4725 57.5665 33.4725 57.6099ZM20.2869 35.3912C20.2869 35.554 20.1319 35.6734 19.9382 35.6734C19.7444 35.6734 19.5797 35.554 19.5797 35.3912C19.5797 35.2284 19.7444 35.0981 19.9382 35.0981C20.1319 35.0981 20.2869 35.2284 20.2869 35.3912ZM22.1858 36.4875C22.1858 36.6503 22.0502 36.7914 21.8855 36.7914C21.7208 36.7914 21.5948 36.6503 21.5948 36.4875C21.5948 36.3138 21.7208 36.1727 21.8855 36.1727C22.0502 36.1727 22.1858 36.3138 22.1858 36.4875ZM28.4153 60.7359C28.4153 60.8445 28.299 60.9313 28.1634 60.9313C28.0181 60.9313 27.9018 60.8445 27.9018 60.7359C27.9018 60.6165 28.0181 60.5297 28.1634 60.5297C28.299 60.5297 28.4153 60.6165 28.4153 60.7359ZM26.5552 52.2153C26.5552 52.2587 26.5067 52.3022 26.4486 52.3022C26.3808 52.3022 26.3323 52.2587 26.3323 52.2153C26.3323 52.1611 26.3808 52.1176 26.4486 52.1176C26.5067 52.1176 26.5552 52.1611 26.5552 52.2153ZM21.6723 41.9255C21.6723 41.9906 21.5561 42.0449 21.4108 42.0449C21.2654 42.0449 21.1589 41.9906 21.1589 41.9255C21.1589 41.8603 21.2654 41.8061 21.4108 41.8061C21.5561 41.8061 21.6723 41.8603 21.6723 41.9255ZM17.2739 40.1237C17.2739 40.2322 17.1867 40.319 17.0802 40.319C16.9736 40.319 16.8864 40.2322 16.8864 40.1237C16.8864 40.026 16.9736 39.9391 17.0802 39.9391C17.1867 39.9391 17.2739 40.026 17.2739 40.1237ZM16.8767 47.6674C16.8767 47.7542 16.7992 47.8193 16.6926 47.8193C16.5958 47.8193 16.5183 47.7542 16.5183 47.6674C16.5183 47.5805 16.5958 47.5154 16.6926 47.5154C16.7992 47.5154 16.8767 47.5805 16.8767 47.6674ZM14.1253 42.1317C14.1253 42.2294 14.0478 42.3054 13.9509 42.3054C13.854 42.3054 13.7765 42.2294 13.7765 42.1317C13.7765 42.034 13.854 41.9472 13.9509 41.9472C14.0478 41.9472 14.1253 42.034 14.1253 42.1317ZM13.3115 42.2728C13.3115 42.3596 13.2437 42.4248 13.1565 42.4248C13.0693 42.4248 13.0015 42.3596 13.0015 42.2728C13.0015 42.1751 13.0693 42.11 13.1565 42.11C13.2437 42.11 13.3115 42.1751 13.3115 42.2728ZM17.7486 45.833C17.7486 45.985 17.6227 46.1044 17.4677 46.1044C17.3224 46.1044 17.1964 45.985 17.1964 45.833C17.1964 45.6919 17.3224 45.5725 17.4677 45.5725C17.6227 45.5725 17.7486 45.6919 17.7486 45.833ZM30.9148 33.7522C30.9148 33.915 30.721 34.0344 30.4788 34.0344C30.2366 34.0344 30.0332 33.915 30.0332 33.7522C30.0332 33.6002 30.2366 33.47 30.4788 33.47C30.721 33.47 30.9148 33.6002 30.9148 33.7522ZM17.8165 51.0756C17.8165 51.2493 17.6808 51.3795 17.5064 51.3795C17.3417 51.3795 17.1964 51.2493 17.1964 51.0756C17.1964 50.9128 17.3417 50.7717 17.5064 50.7717C17.6808 50.7717 17.8165 50.9128 17.8165 51.0756Z" fill="black"/>
</g>
<defs>
<clipPath id="clip0_272_4612">
<rect width="81.913" height="67.2222" fill="white"/>
</clipPath>
</defs>
</svg>
