<svg width="82" height="60" viewBox="0 0 82 60" fill="none" xmlns="http://www.w3.org/2000/svg">
<path fill-rule="evenodd" clip-rule="evenodd" d="M0 0H81.7366V60H0V0Z" fill="white"/>
<path fill-rule="evenodd" clip-rule="evenodd" d="M48.4225 6.46509L69.8198 18.8724V37.9069L33.3168 59.0719L11.9196 46.6673V27.6302L48.4225 6.46509Z" fill="white"/>
<path fill-rule="evenodd" clip-rule="evenodd" d="M69.8197 37.9068V18.8723L33.3168 40.0374V59.0719L69.8197 37.9068Z" fill="#CDCDCD"/>
<path fill-rule="evenodd" clip-rule="evenodd" d="M69.8198 18.8724L48.4225 6.46509L11.9196 27.6302L33.3168 40.0375L69.8198 18.8724Z" fill="#F3F3F3"/>
<path fill-rule="evenodd" clip-rule="evenodd" d="M33.3169 40.0373L11.9196 27.63V46.6671L33.3169 59.0718V40.0373Z" fill="white"/>
<path fill-rule="evenodd" clip-rule="evenodd" d="M48.8832 5.66775L70.2805 18.0724C70.5747 18.245 70.7387 18.5535 70.7387 18.8724L70.7413 37.9069C70.7413 38.2807 70.52 38.6049 70.2024 38.7513L33.775 59.8719C33.4808 60.0418 33.1294 60.0314 32.8561 59.8719L11.4588 47.4672C11.1646 47.2947 11.0006 46.9862 10.998 46.6673V27.6302C10.998 27.2563 11.2167 26.9348 11.5343 26.7884L47.9643 5.66513C48.2585 5.49521 48.6073 5.50828 48.8832 5.66775ZM48.4225 6.4651L69.8198 18.8724V37.9069L33.3168 59.0719L11.9195 46.6673V27.6302L48.4225 6.4651Z" fill="black"/>
<path d="M69.5126 37.7318V19.4058L33.624 40.2153V58.5387L69.5126 37.7318ZM70.1269 18.8724V37.9069C70.1243 38.0141 70.0697 38.1187 69.9707 38.1736L33.4938 59.3256C33.4444 59.3596 33.3819 59.3831 33.3168 59.3831C33.1476 59.3831 33.0096 59.2445 33.0096 59.072V40.0375C33.0096 39.9303 33.0643 39.8284 33.1632 39.7709L69.6402 18.6215C69.6922 18.5849 69.7521 18.564 69.8198 18.564C69.989 18.564 70.1269 18.7025 70.1269 18.8724Z" fill="black"/>
<path d="M69.9733 18.6058C70.1191 18.692 70.1685 18.8803 70.0852 19.0266C69.9993 19.173 69.8119 19.2253 69.6661 19.1391L48.4198 6.82065L12.5312 27.6302L33.4703 39.7708C33.6161 39.8571 33.6656 40.0453 33.5823 40.1917C33.4964 40.3381 33.3089 40.3904 33.1632 40.3042L11.7659 27.8969C11.7216 27.8707 11.6826 27.8315 11.6539 27.7844C11.5706 27.638 11.6201 27.4498 11.7659 27.3635L48.2532 6.20891C48.3469 6.14617 48.4719 6.13832 48.576 6.19845L69.9733 18.6058Z" fill="black"/>
<path d="M33.4704 58.8079C33.6161 58.8915 33.6656 59.0797 33.5823 59.2261C33.4964 59.3751 33.309 59.4248 33.1632 59.3385L11.7659 46.9339C11.667 46.8764 11.6123 46.7718 11.6123 46.6672V27.6301C11.6123 27.4602 11.7503 27.3217 11.9195 27.3217C11.9819 27.3217 12.0418 27.3426 12.0913 27.3766L33.4704 39.7708C33.6161 39.8571 33.6656 40.0453 33.5823 40.1917C33.4964 40.3381 33.309 40.3904 33.1632 40.3041L12.2266 28.1661V46.4894L33.4704 58.8079Z" fill="black"/>
</svg>
