<svg width="43" height="32" viewBox="0 0 43 32" fill="none" xmlns="http://www.w3.org/2000/svg">
<path d="M42.4096 3.23506L42.4108 7.83633L15.2902 27.5191C13.8708 28.4306 12.4358 29.3507 10.9893 30.2781C10.861 30.3608 10.6942 30.4231 10.5124 30.4633L10.5114 24.4917C10.4876 23.3873 10.4151 23.6649 11.6165 22.8989C12.6083 22.2602 13.5874 21.6061 14.5806 20.9891C14.9214 20.7774 24.6091 14.3536 32.4591 9.28913C32.3172 9.24815 32.1601 9.19934 31.9911 9.14435C31.8978 9.20055 31.803 9.2578 31.7066 9.31603C31.6875 9.38493 31.6306 9.45389 31.5339 9.51569C30.0603 10.4607 28.5684 11.4163 27.0683 12.3799C25.5512 13.3544 24.0191 14.339 22.4678 15.3364C22.3001 15.4432 21.2253 16.0439 20.9578 16.0733C20.9999 16.1908 20.9385 16.3169 20.7657 16.428C19.1761 17.4484 17.5751 18.4786 15.9564 19.5185C14.3204 20.5696 12.6626 21.6327 10.9893 22.7055C10.5976 22.9579 9.89768 23.0066 9.45783 22.8712C8.09478 22.447 6.73832 22.0254 5.39403 21.6081C4.05343 21.1918 2.72499 20.7797 1.40314 20.3691C1.17808 20.3009 1.04907 20.1887 1.02482 20.0656C0.996948 19.9466 1.07383 19.8126 1.26082 19.6994C2.8235 18.743 4.37539 17.7927 5.90878 16.8525C7.66839 15.7749 9.41176 14.7073 11.1361 13.6519C11.2413 13.5873 12.3542 12.9052 12.6887 12.7467C12.7236 12.6952 12.7794 12.6444 12.8568 12.5964C13.739 12.0566 14.6228 11.5147 15.4984 10.9789L15.5017 10.9769C16.0562 10.6352 16.6162 10.2935 17.1702 9.95579L17.1735 9.95378C18.8079 8.95293 20.4278 7.96016 22.0263 6.97954C22.1097 6.9287 22.2152 6.88675 22.3331 6.85432C23.1283 6.38514 23.3609 6.29149 23.4482 6.31639C23.4073 6.21307 23.4633 6.1 23.6242 6.00092C24.4508 5.49545 25.2693 4.994 26.0864 4.4946C28.1389 3.239 30.0569 2.06422 32.0552 0.840955C32.3921 0.633559 33.0517 0.48315 33.6936 0.681405L41.2568 2.54526C41.5374 2.61469 41.8084 2.91945 41.4191 3.17134C40.0464 4.05135 38.7818 4.86132 37.3848 5.75886C36.1361 6.56108 34.8733 7.37278 33.5993 8.19086C35.2383 7.24244 35.4536 7.23085 32.4591 9.28913C36.3589 6.77313 39.8052 4.59261 41.4266 3.6759C42.0461 3.32564 42.3992 3.15989 42.4094 3.23041C42.4096 3.23186 42.4096 3.23341 42.4096 3.23506Z" fill="white"/>
<path d="M4.90822 21.9126C6.25315 22.3314 7.60706 22.7546 8.97392 23.1803C10.0361 23.5097 9.96404 23.3713 9.96423 24.5034L9.96524 30.4944C9.7867 30.491 9.60785 30.49 9.45783 30.4438C6.77338 29.6084 4.08807 28.7757 1.40314 27.9418L1.3958 27.9396C1.03145 27.8291 0.787629 27.7551 0.803685 27.312L0.802632 21.0987C0.790784 20.6714 0.998302 20.6951 1.25951 20.7765L4.90822 21.9126Z" fill="white"/>
<path d="M42.4096 3.23506C42.3937 2.85671 42.3812 2.47282 41.6484 2.29253L33.8975 0.388643C33.2453 0.227618 32.4002 0.103713 31.584 0.633747C29.8461 1.69492 27.2857 3.25645 25.5046 4.34386C24.6868 4.84418 23.8677 5.34452 23.0405 5.84887C22.509 6.17368 21.9769 6.49851 21.4445 6.82533C19.8417 7.80179 18.2206 8.79235 16.5817 9.793C16.4167 9.89388 16.1746 9.96133 15.9193 9.98728M42.4096 3.23506L42.4108 7.83633L15.2902 27.5191C13.8708 28.4306 12.4358 29.3507 10.9893 30.2781C10.861 30.3608 10.6942 30.4231 10.5124 30.4633L10.5114 24.4917C10.4876 23.3873 10.4151 23.6649 11.6165 22.8989C12.6083 22.2602 13.5874 21.6061 14.5806 20.9891C15.1567 20.6312 42.4446 2.52035 42.4096 3.23506ZM42.6641 8.23511C41.4444 9.02261 12.8525 29.6756 11.6165 30.4715C10.6252 31.1673 9.7773 31.0558 8.97392 30.753C7.60706 30.3272 6.25314 29.9042 4.90822 29.4853C3.64252 29.0911 2.38757 28.7005 1.13881 28.3115C0.249768 28.0346 0.251298 28.0188 0.251143 27.1217L0.250577 23.7552M36.936 6.59426L41.261 3.80909C41.8504 3.42952 41.8061 2.57256 41.7711 3.23506M4.39025 17.2394C3.15703 17.994 1.91449 18.7505 0.665269 19.5151C0.287807 19.8045 0.249934 19.9794 0.25 20.4118L0.250022 20.5527L0.250499 23.3225M23.4482 6.31639C23.4073 6.21307 23.4633 6.1 23.6242 6.00092C24.4508 5.49545 25.2693 4.994 26.0864 4.4946C28.1389 3.239 30.0569 2.06422 32.0552 0.840955C32.3921 0.633559 33.0517 0.48315 33.6936 0.681405L41.2568 2.54526C41.5374 2.61469 41.8084 2.91945 41.4191 3.17134C40.0464 4.05135 38.7818 4.86132 37.3848 5.75886C35.9771 6.66324 34.5515 7.57965 33.1121 8.50368C32.9532 8.60425 32.7137 8.6735 32.4591 8.69835C32.2045 8.72518 31.9287 8.711 31.703 8.65076C30.3709 8.29909 29.0513 7.9493 27.7375 7.60107C26.4334 7.25543 25.135 6.91331 23.843 6.57222M23.4482 6.31639C23.489 6.41979 23.6235 6.51344 23.843 6.57222M23.4482 6.31639C23.2227 6.25204 22.0263 6.97954 12.654 12.936C12.6187 12.825 12.6839 12.7036 12.8568 12.5964C13.739 12.0566 14.6228 11.5147 15.4984 10.9789C15.4984 10.9789 15.4984 10.9789 15.5017 10.9769C16.0562 10.6352 16.6162 10.2935 17.1702 9.95579C17.1702 9.95579 17.1702 9.9558 17.1735 9.95378C18.8079 8.95293 20.4278 7.96016 22.0263 6.97954C22.1856 6.88248 22.425 6.81784 22.6786 6.78995C22.9291 6.76401 23.1967 6.77484 23.4163 6.83385M23.843 6.57222C25.1496 6.94716 25.7431 7.04393 27.0683 7.42388C28.3971 7.80485 31.1117 8.90003 32.4591 9.28913C41.5814 3.01879 20.9158 15.9579 20.9578 16.0733M23.843 6.57222C23.6174 6.50766 12.0787 13.4197 11.8188 13.446C14.2634 11.7351 11.3108 13.5447 11.1361 13.6519C9.41176 14.7073 7.66839 15.7749 5.90878 16.8525C4.37539 17.7927 2.8235 18.743 1.26082 19.6994C1.07383 19.8126 0.996948 19.9466 1.02482 20.0656C1.04907 20.1887 1.17808 20.3009 1.40314 20.3691C2.72499 20.7797 4.05343 21.1918 5.39403 21.6081C6.73832 22.0254 8.09478 22.447 9.45783 22.8712C9.89768 23.0066 10.5976 22.9579 10.9893 22.7055C12.6626 21.6327 14.3204 20.5696 15.9564 19.5185C17.5751 18.4786 19.1761 17.4484 20.7657 16.428C20.9385 16.3169 20.9999 16.1908 20.9578 16.0733M16.2231 19.9377C17.8456 18.8918 19.4494 17.86 21.0361 16.838C22.6088 15.825 25.8165 13.7571 27.3586 12.7659C28.8604 11.7978 30.3489 10.8401 31.8228 9.89091C33.2806 8.95213 34.7246 8.02394 36.1527 7.10199C36.3117 7.00119 36.5447 6.93534 36.7964 6.90931M20.9578 16.0733C21.2253 16.0439 22.3001 15.4432 22.4678 15.3364C24.0191 14.339 25.5512 13.3544 27.0683 12.3799C28.5684 11.4163 30.0603 10.4607 31.5339 9.51569C31.6913 9.41511 31.7432 9.29556 31.6986 9.18818C31.651 9.08087 31.5065 8.98277 31.2776 8.9223M16.3699 9.89091C16.4068 9.99835 15.0782 10.711 14.912 10.8118C14.0358 11.3485 13.1515 11.8871 12.2653 12.4298C11.6953 12.7768 11.1181 13.1279 10.5435 13.4809C8.81799 14.534 7.07668 15.5992 5.31598 16.6746C5.13522 16.7855 3.93004 17.6572 3.66406 17.6834M8.97392 23.1803C7.60706 22.7546 6.25315 22.3314 4.90822 21.9126L1.25951 20.7765C0.998302 20.6951 0.790784 20.6714 0.802632 21.0987L0.803685 27.312C0.787522 27.7581 1.03473 27.83 1.40314 27.9418C4.08807 28.7757 6.77338 29.6084 9.45783 30.4438C9.60785 30.49 9.7867 30.491 9.96524 30.4944L9.96423 24.5034C9.96404 23.3713 10.0361 23.5097 8.97392 23.1803Z" stroke="white" stroke-width="0.5"/>
</svg>
