<svg width="53" height="32" viewBox="0 0 53 32" fill="none" xmlns="http://www.w3.org/2000/svg">
<path d="M23.4225 1.58028C24.6522 1.89537 25.8883 2.21328 27.1331 2.53289C28.3845 2.85422 29.6416 3.17744 30.9051 3.50344C31.2003 3.57974 31.4091 3.69116 31.5195 3.81986C33.3005 2.73245 35.0154 1.69492 36.7533 0.633747C37.5695 0.103713 38.4146 0.227618 39.0669 0.388643L46.8177 2.29253C47.5505 2.47282 47.563 2.85671 47.5789 3.23506L47.5801 7.83633C48.8122 8.15285 50.05 8.47131 51.2951 8.79044C51.5804 8.8639 52.1051 9.06253 52.1122 9.50034L52.1134 16.922C52.1243 16.9702 52.1245 17.0189 52.1134 17.0676L52.1135 17.1141H52.0994C52.0627 17.2115 51.98 17.3081 51.8469 17.399C50.4394 18.3553 49.0184 19.3197 47.5844 20.2942C46.1333 21.2804 44.6683 22.2767 43.1863 23.2833C42.8284 23.5264 42.1205 24.1579 41.7511 23.8864C41.689 24.1603 41.5279 24.3743 41.3692 24.4982C39.8497 25.531 38.5057 26.4631 36.9556 27.5169C35.3905 28.5809 33.8058 29.6566 32.2049 30.7461C31.1618 31.5164 30.3839 31.2365 29.5407 31.0307C28.117 30.6003 26.7055 30.1739 25.2979 29.75C23.899 29.3288 22.5135 28.9101 21.1307 28.4931C20.8056 28.395 20.5832 28.2536 20.4742 28.0943C19.2546 28.8818 18.0219 29.6756 16.7858 30.4715C15.7945 31.1673 14.9466 31.0558 14.1432 30.753C12.7764 30.3272 11.4225 29.9042 10.0775 29.4853C8.81185 29.0911 7.5569 28.7005 6.30814 28.3115C5.41909 28.0346 5.42062 28.0188 5.42047 27.1217L5.4199 23.7552C3.90517 23.2986 2.39035 22.8423 0.876012 22.3844C0.191522 22.1775 0.256863 21.9744 0.256774 21.4333L0.25561 14.6413C0.255565 14.4134 0.213054 14.1742 0.362774 13.9894C0.43323 13.9024 0.536479 13.8174 0.672366 13.7387C0.672366 13.7387 3.96609 11.8201 5.58658 10.8747C7.19219 9.93793 8.7797 9.0139 10.3561 8.09422C10.6519 7.92311 11.0673 7.80722 11.502 7.76195C11.5761 7.75389 11.65 7.74856 11.727 7.74405C11.7071 7.71545 11.6937 7.68572 11.6868 7.65485C11.6377 7.47454 11.755 7.27953 12.0487 7.10844C13.5886 6.21208 15.1127 5.32404 16.6219 4.44467C18.1159 3.57414 19.5956 2.71224 21.0633 1.85671C21.8595 1.31154 22.7552 1.40886 23.4225 1.58028ZM46.4303 3.80909L42.1053 6.59426C42.5573 6.4914 42.8163 6.61072 43.1299 6.69207C44.4235 7.02498 45.7198 7.35858 47.0275 7.69443L47.0266 4.17109C47.0616 3.50858 47.0198 3.42952 46.4303 3.80909ZM51.5597 10.0215C50.2462 10.9138 48.921 11.8133 47.5844 12.7215C46.1333 13.7077 44.6683 14.7041 43.1863 15.7106C42.8216 15.9584 42.2119 16.2984 41.762 16.2188C41.8599 16.3941 41.873 16.4624 41.874 16.7485L41.8955 22.6365C41.8956 23.1209 41.9142 23.5269 42.5387 23.104C44.0218 22.0998 45.4875 21.105 46.9404 20.1219C48.3426 19.1732 49.7332 18.2314 51.1107 17.2985C51.1179 17.2957 51.1255 17.2927 51.1336 17.2892C51.2699 17.2316 51.3332 17.1941 51.4391 17.0882L51.5609 16.9253L51.5597 10.0215ZM41.3209 23.0944L41.3199 16.9782C39.878 17.9581 38.4254 18.945 36.9556 19.9442C35.3905 21.0083 33.8058 22.0839 32.2049 23.1735C31.0827 23.9355 31.1178 23.748 31.097 24.7265L31.0979 30.227C31.0928 30.4859 31.1574 30.7947 31.5459 30.5495C33.1479 29.4625 34.7327 28.3878 36.3 27.3278C37.826 26.2957 39.3324 25.2775 40.8266 24.2652C41.4157 23.901 41.321 23.5289 41.3209 23.0944ZM19.7499 20.9891C18.7567 21.6061 17.7777 22.2602 16.7858 22.8989C15.5845 23.6649 15.657 23.3873 15.6807 24.4917L15.6817 30.4633C15.8635 30.4231 16.0303 30.3608 16.1586 30.2781C17.6052 29.3507 19.0402 28.4306 20.4595 27.5191L20.4585 21.574C20.4935 20.8593 20.326 20.6312 19.7499 20.9891ZM14.1432 23.1803C12.7764 22.7546 11.4225 22.3314 10.0775 21.9126L6.42884 20.7765C6.16763 20.6951 5.96011 20.6714 5.97196 21.0987L5.97301 27.312C5.95685 27.7581 6.20406 27.83 6.57247 27.9418C9.25739 28.7757 11.9427 29.6084 14.6272 30.4438C14.7772 30.49 14.956 30.491 15.1346 30.4944L15.1336 24.5034C15.1334 23.3713 15.2054 23.5097 14.1432 23.1803ZM31.2558 4.4946C30.4386 4.994 29.6201 5.49545 28.7936 6.00092C28.6326 6.1 28.5767 6.21307 28.6175 6.31639C28.6584 6.41979 28.7929 6.51344 29.0123 6.57222C30.3043 6.91331 31.6027 7.25543 32.9068 7.60107C34.2206 7.9493 35.5402 8.29909 36.8724 8.65076C37.098 8.711 37.3738 8.72518 37.6284 8.69835C37.883 8.6735 38.1225 8.60425 38.2814 8.50368C39.7208 7.57965 41.1464 6.66324 42.5541 5.75886C43.9511 4.86132 45.2158 4.05135 46.5884 3.17134C46.9778 2.91945 46.7067 2.61469 46.4261 2.54526L38.8629 0.681405C38.221 0.48315 37.5614 0.633559 37.2245 0.840955C35.2262 2.06422 33.3082 3.239 31.2558 4.4946ZM28.2098 5.84887C29.037 5.34452 29.8561 4.84418 30.6739 4.34386C30.8322 4.24701 30.8857 4.13691 30.8435 4.03706C30.8007 3.93727 30.6624 3.84711 30.4471 3.79064C29.1829 3.46342 27.9251 3.13902 26.6729 2.81649C25.4274 2.49566 24.1906 2.17661 22.9602 1.86035C22.5769 1.76165 22.017 1.73646 21.5183 2.05591C20.0517 2.91328 18.6713 3.72103 17.1792 4.59293C15.6703 5.47469 14.148 6.36417 12.6092 7.26441C12.4391 7.36378 12.3697 7.47691 12.4029 7.58097C12.4298 7.68431 12.5498 7.77911 12.7648 7.83865C14.0081 8.1834 15.2577 8.53209 16.5165 8.88095C17.7817 9.23157 19.0561 9.58444 20.3368 9.9393C20.5549 10.0009 20.8299 10.0152 21.0886 9.98728C21.3439 9.96133 21.5861 9.89388 21.751 9.793C23.3899 8.79235 25.011 7.80179 26.6138 6.82533C27.1462 6.49851 27.6783 6.17368 28.2098 5.84887ZM40.6243 15.9863C39.2182 15.5961 37.8277 15.2062 36.4404 14.8206C35.0623 14.4375 33.6936 14.0564 32.3312 13.6778C32.0974 13.6124 31.8134 13.5966 31.5491 13.6252C31.2881 13.6538 31.0405 13.7236 30.8733 13.8328C29.3312 14.824 27.7782 15.825 26.2055 16.838C24.6187 17.86 23.015 18.8918 21.3924 19.9377C21.2137 20.0532 21.1461 20.1873 21.1843 20.3096C21.2257 20.4298 21.3663 20.5436 21.6061 20.615C22.985 21.0284 24.3698 21.4476 25.768 21.8673C27.1749 22.2896 28.5857 22.7144 30.0088 23.141C30.45 23.2737 31.1568 23.2405 31.5459 22.9768C33.1479 21.8899 34.7327 20.8152 36.3 19.7551C37.8534 18.7044 39.3865 17.6683 40.9072 16.638C41.0724 16.5247 41.1248 16.3974 41.0665 16.2798C41.0177 16.161 40.8675 16.0541 40.6243 15.9863ZM16.3054 13.6519C14.5811 14.7073 12.8377 15.7749 11.0781 16.8525C9.54472 17.7927 7.99283 18.743 6.43015 19.6994C6.24315 19.8126 6.16628 19.9466 6.19414 20.0656C6.21839 20.1887 6.3474 20.3009 6.57247 20.3691C7.89431 20.7797 9.22276 21.1918 10.5634 21.6081C11.9076 22.0254 13.2641 22.447 14.6272 22.8712C15.067 23.0066 15.767 22.9579 16.1586 22.7055C17.8319 21.6327 19.4897 20.5696 21.1258 19.5185C22.7445 18.4786 24.3455 17.4484 25.9351 16.428C26.1079 16.3169 26.1692 16.1908 26.1271 16.0733C26.0851 15.9579 25.943 15.8502 25.7111 15.786C24.3637 15.3969 23.0228 15.0123 21.694 14.6313C20.3688 14.2514 19.0556 13.873 17.749 13.4981C17.5234 13.4335 17.248 13.4197 16.9881 13.446C16.7281 13.4743 16.4801 13.5447 16.3054 13.6519ZM10.4853 16.6746C12.246 15.5992 13.9873 14.534 15.7128 13.4809C16.2874 13.1279 16.8646 12.7768 17.4347 12.4298C18.3208 11.8871 19.2051 11.3485 20.0814 10.8118C20.2475 10.711 20.3099 10.5906 20.273 10.4831C20.2395 10.3737 20.1066 10.2747 19.8853 10.2128C18.607 9.85667 17.3316 9.50338 16.066 9.15057C14.8063 8.79936 13.5563 8.45045 12.3123 8.10446C12.0972 8.0447 11.8365 8.03165 11.582 8.06073C11.3277 8.08506 11.089 8.15295 10.9177 8.25232C9.34232 9.17204 7.75624 10.1007 6.15122 11.0388C4.53216 11.985 2.89061 12.9405 1.23679 13.909C1.23679 13.909 0.973881 14.1373 1.00021 14.2489C1.0234 14.3616 1.14347 14.4653 1.35804 14.5283C2.61387 14.9069 3.87948 15.2868 5.15079 15.669C6.42902 16.0533 7.71927 16.4401 9.00982 16.8301C9.23384 16.8975 9.51388 16.913 9.77988 16.8849C10.0459 16.8587 10.3045 16.7855 10.4853 16.6746ZM50.8931 9.06186C49.512 8.70669 48.1397 8.3531 46.7714 8.00056C45.4144 7.65098 44.0676 7.30245 42.7234 6.95541C42.4927 6.89579 42.2167 6.88321 41.9657 6.90931C41.7141 6.93534 41.4811 7.00119 41.322 7.10199C39.8939 8.02394 38.45 8.95213 36.9921 9.89091C35.5182 10.8401 34.0297 11.7978 32.5279 12.7659C32.3618 12.873 32.3055 12.9962 32.3506 13.1081C32.3926 13.2222 32.5393 13.3261 32.773 13.3913C34.1347 13.7685 35.5026 14.1481 36.8799 14.5297C38.2665 14.9139 39.6595 15.3022 41.0617 15.691C41.4791 15.807 42.1278 15.8473 42.7881 15.4404C44.2713 14.4362 45.4875 13.5324 46.9404 12.5493C48.3751 11.5785 49.7978 10.615 51.2066 9.66087C51.3605 9.55631 51.4039 9.43796 51.3434 9.32882C51.2855 9.22281 51.1331 9.12354 50.8931 9.06186Z" fill="white"/>
<path d="M29.5407 23.458C30.727 23.8151 30.5545 23.952 30.5445 24.75L30.5454 30.3092C30.5807 30.6421 30.4429 30.8503 30.0088 30.7137C28.5857 30.2871 27.1749 29.8622 25.768 29.4399C24.3698 29.0203 22.985 28.601 21.6061 28.1876C21.579 28.1796 21.5532 28.171 21.5287 28.1619C21.4257 28.1504 21.3357 28.1135 21.2352 28.0456C21.1195 27.9675 21.1049 27.9094 21.0643 27.8647C21.0476 27.8463 21.0298 27.8224 21.012 27.7951L21.011 21.7208C20.9995 21.2817 21.1833 20.9363 21.7383 21.1037M8.53151 17.1218C8.83458 17.2134 9.19718 17.2505 9.55957 17.2394C8.32636 17.994 7.08382 18.7505 5.8346 19.5151C5.45713 19.8045 5.41926 19.9794 5.41933 20.4118L5.41935 20.5527L5.41983 23.3225C4.06581 22.9157 2.7117 22.509 1.35804 22.101C0.962477 21.9848 0.783391 21.931 0.806821 21.2983L0.805756 15.0933C0.799821 14.8835 0.84961 14.8039 1.07599 14.8722M18.213 13.2121C17.9875 13.1478 17.8586 13.0451 17.8233 12.936C17.788 12.825 17.8532 12.7036 18.0261 12.5964C18.9084 12.0566 19.7921 11.5147 20.6677 10.9789C20.6677 10.9789 20.6677 10.9789 20.671 10.9769C21.2256 10.6352 21.7856 10.2935 22.3395 9.95579C22.3395 9.95579 22.3395 9.9558 22.3428 9.95378C23.9772 8.95293 25.5971 7.96016 27.1956 6.97954C27.3549 6.88248 27.5943 6.81784 27.848 6.78995C28.0984 6.76401 28.366 6.77484 28.5856 6.83385C29.8783 7.17825 31.1742 7.52223 32.4822 7.86862C33.7966 8.21667 35.1171 8.56927 36.4469 8.9223C36.6758 8.98277 36.8203 9.08087 36.868 9.18818C36.9125 9.29556 36.8606 9.41511 36.7032 9.51569C35.2296 10.4607 33.7377 11.4163 32.2376 12.3799C30.7206 13.3544 29.1884 14.339 27.6371 15.3364C27.4694 15.4432 27.2181 15.5143 26.9506 15.5436C26.6865 15.5708 26.4027 15.5554 26.171 15.4894M23.4225 1.58028C24.6522 1.89537 25.8883 2.21328 27.1331 2.53289C28.3845 2.85422 29.6416 3.17744 30.9051 3.50344C31.2003 3.57974 31.4091 3.69116 31.5195 3.81986C33.3005 2.73245 35.0154 1.69492 36.7533 0.633747C37.5695 0.103713 38.4146 0.227618 39.0669 0.388643L46.8177 2.29253C47.5505 2.47282 47.563 2.85671 47.5789 3.23506L47.5801 7.83633C48.8122 8.15285 50.05 8.47131 51.2951 8.79044C51.5804 8.8639 52.1051 9.06253 52.1122 9.50034L52.1134 16.922C52.1243 16.9702 52.1245 17.0189 52.1134 17.0676L52.1135 17.1141H52.0994C52.0627 17.2115 51.98 17.3081 51.8469 17.399C50.4394 18.3553 49.0184 19.3197 47.5844 20.2942C46.1333 21.2804 44.6683 22.2767 43.1863 23.2833C42.8284 23.5264 42.1205 24.1579 41.7511 23.8864C41.689 24.1603 41.5279 24.3743 41.3692 24.4982C39.8497 25.531 38.5057 26.4631 36.9556 27.5169C35.3905 28.5809 33.8058 29.6566 32.2049 30.7461C31.1618 31.5164 30.3839 31.2365 29.5407 31.0307C28.117 30.6003 26.7055 30.1739 25.2979 29.75C23.899 29.3288 22.5135 28.9101 21.1307 28.4931C20.8056 28.395 20.5832 28.2536 20.4742 28.0943C19.2546 28.8818 18.0219 29.6756 16.7858 30.4715C15.7945 31.1673 14.9466 31.0558 14.1432 30.753C12.7764 30.3272 11.4225 29.9042 10.0775 29.4853C8.81185 29.0911 7.5569 28.7005 6.30814 28.3115C5.41909 28.0346 5.42062 28.0188 5.42047 27.1217L5.4199 23.7552C3.90517 23.2986 2.39035 22.8423 0.876012 22.3844C0.191522 22.1775 0.256863 21.9744 0.256774 21.4333L0.25561 14.6413C0.255565 14.4134 0.213054 14.1742 0.362774 13.9894C0.43323 13.9024 0.536479 13.8174 0.672366 13.7387C0.672366 13.7387 3.96609 11.8201 5.58658 10.8747C7.19219 9.93793 8.7797 9.0139 10.3561 8.09422C10.6519 7.92311 11.0673 7.80722 11.502 7.76195C11.5761 7.75389 11.65 7.74856 11.727 7.74405C11.7071 7.71545 11.6937 7.68572 11.6868 7.65485C11.6377 7.47454 11.755 7.27953 12.0487 7.10844C13.5886 6.21208 15.1127 5.32404 16.6219 4.44467C18.1159 3.57414 19.5956 2.71224 21.0633 1.85671C21.8595 1.31154 22.7552 1.40886 23.4225 1.58028ZM46.4303 3.80909L42.1053 6.59426C42.5573 6.4914 42.8163 6.61072 43.1299 6.69207C44.4235 7.02498 45.7198 7.35858 47.0275 7.69443L47.0266 4.17109C47.0616 3.50858 47.0198 3.42952 46.4303 3.80909ZM51.5597 10.0215C50.2462 10.9138 48.921 11.8133 47.5844 12.7215C46.1333 13.7077 44.6683 14.7041 43.1863 15.7106C42.8216 15.9584 42.2119 16.2984 41.762 16.2188C41.8599 16.3941 41.873 16.4624 41.874 16.7485L41.8955 22.6365C41.8956 23.1209 41.9142 23.5269 42.5386 23.104C44.0218 22.0998 45.4875 21.105 46.9404 20.1219C48.3426 19.1732 49.7333 18.2314 51.1107 17.2985C51.1179 17.2957 51.1256 17.2927 51.1336 17.2892C51.2699 17.2316 51.3332 17.1941 51.4391 17.0882L51.5609 16.9253L51.5597 10.0215ZM41.3209 23.0944L41.3199 16.9782C39.878 17.9581 38.4254 18.945 36.9556 19.9442C35.3905 21.0083 33.8058 22.0839 32.2049 23.1735C31.0827 23.9355 31.1178 23.748 31.097 24.7265L31.0979 30.227C31.0928 30.4859 31.1574 30.7947 31.5459 30.5495C33.1479 29.4625 34.7327 28.3878 36.3 27.3278C37.826 26.2957 39.3324 25.2775 40.8266 24.2652C41.4157 23.901 41.321 23.5289 41.3209 23.0944ZM19.7499 20.9891C18.7567 21.6061 17.7777 22.2602 16.7858 22.8989C15.5845 23.6649 15.657 23.3873 15.6807 24.4917L15.6817 30.4633C15.8635 30.4231 16.0303 30.3608 16.1586 30.2781C17.6052 29.3507 19.0402 28.4306 20.4595 27.5191L20.4585 21.574C20.4935 20.8593 20.326 20.6312 19.7499 20.9891ZM14.1432 23.1803C12.7764 22.7546 11.4225 22.3314 10.0775 21.9126L6.42884 20.7765C6.16763 20.6951 5.96011 20.6714 5.97196 21.0987L5.97301 27.312C5.95685 27.7581 6.20406 27.83 6.57247 27.9418C9.25739 28.7757 11.9427 29.6084 14.6272 30.4438C14.7772 30.49 14.956 30.491 15.1346 30.4944L15.1336 24.5034C15.1334 23.3713 15.2054 23.5097 14.1432 23.1803ZM31.2558 4.4946C30.4386 4.994 29.6201 5.49545 28.7936 6.00092C28.6326 6.1 28.5767 6.21307 28.6175 6.31639C28.6584 6.41979 28.7929 6.51344 29.0123 6.57222C30.3043 6.91331 31.6027 7.25543 32.9068 7.60107C34.2206 7.9493 35.5402 8.29909 36.8724 8.65076C37.098 8.711 37.3738 8.72518 37.6284 8.69835C37.883 8.6735 38.1225 8.60425 38.2814 8.50368C39.7208 7.57965 41.1464 6.66324 42.5541 5.75886C43.9511 4.86132 45.2158 4.05135 46.5884 3.17134C46.9778 2.91945 46.7067 2.61469 46.4261 2.54526L38.8629 0.681405C38.221 0.48315 37.5614 0.633559 37.2245 0.840955C35.2262 2.06422 33.3082 3.239 31.2558 4.4946ZM28.2098 5.84887C29.037 5.34452 29.8561 4.84418 30.6739 4.34386C30.8322 4.24701 30.8857 4.13691 30.8435 4.03706C30.8007 3.93727 30.6624 3.84711 30.4471 3.79064C29.1829 3.46342 27.9251 3.13902 26.6729 2.81649C25.4274 2.49566 24.1906 2.17661 22.9602 1.86035C22.5769 1.76165 22.017 1.73646 21.5183 2.05591C20.0517 2.91328 18.6713 3.72103 17.1792 4.59293C15.6703 5.47469 14.148 6.36417 12.6092 7.26441C12.4391 7.36378 12.3697 7.47691 12.4029 7.58097C12.4298 7.68431 12.5498 7.77911 12.7648 7.83865C14.0081 8.1834 15.2577 8.53209 16.5165 8.88095C17.7817 9.23157 19.0561 9.58444 20.3368 9.9393C20.5549 10.0009 20.8299 10.0152 21.0886 9.98728C21.3439 9.96133 21.5861 9.89388 21.751 9.793C23.3899 8.79235 25.011 7.80179 26.6138 6.82533C27.1462 6.49851 27.6783 6.17368 28.2098 5.84887ZM40.6243 15.9863C39.2182 15.5961 37.8277 15.2062 36.4404 14.8206C35.0623 14.4375 33.6936 14.0564 32.3312 13.6778C32.0974 13.6124 31.8134 13.5966 31.5491 13.6252C31.2881 13.6538 31.0405 13.7236 30.8733 13.8328C29.3312 14.824 27.7782 15.825 26.2055 16.838C24.6187 17.86 23.015 18.8918 21.3924 19.9377C21.2137 20.0532 21.1461 20.1873 21.1843 20.3096C21.2257 20.4298 21.3663 20.5436 21.6061 20.615C22.985 21.0284 24.3698 21.4476 25.768 21.8673C27.1749 22.2896 28.5857 22.7144 30.0088 23.141C30.45 23.2737 31.1568 23.2405 31.5459 22.9768C33.1479 21.8899 34.7327 20.8152 36.3 19.7551C37.8534 18.7044 39.3865 17.6683 40.9072 16.638C41.0724 16.5247 41.1248 16.3974 41.0665 16.2798C41.0177 16.161 40.8675 16.0541 40.6243 15.9863ZM16.3054 13.6519C14.5811 14.7073 12.8377 15.7749 11.0781 16.8525C9.54472 17.7927 7.99283 18.743 6.43015 19.6994C6.24315 19.8126 6.16627 19.9466 6.19414 20.0656C6.21839 20.1887 6.3474 20.3009 6.57247 20.3691C7.89431 20.7797 9.22276 21.1918 10.5634 21.6081C11.9076 22.0254 13.2641 22.447 14.6272 22.8712C15.067 23.0066 15.767 22.9579 16.1586 22.7055C17.8319 21.6327 19.4897 20.5696 21.1258 19.5185C22.7445 18.4786 24.3455 17.4484 25.9351 16.428C26.1079 16.3169 26.1692 16.1908 26.1271 16.0733C26.0851 15.9579 25.943 15.8502 25.7111 15.786C24.3637 15.3969 23.0228 15.0123 21.694 14.6313C20.3688 14.2514 19.0556 13.873 17.749 13.4981C17.5234 13.4335 17.248 13.4197 16.9881 13.446C16.7281 13.4743 16.4801 13.5447 16.3054 13.6519ZM10.4853 16.6746C12.246 15.5992 13.9873 14.534 15.7128 13.4809C16.2874 13.1279 16.8646 12.7768 17.4347 12.4298C18.3208 11.8871 19.2051 11.3485 20.0814 10.8118C20.2475 10.711 20.3099 10.5906 20.273 10.4831C20.2395 10.3737 20.1066 10.2747 19.8853 10.2128C18.607 9.85667 17.3316 9.50338 16.066 9.15057C14.8063 8.79936 13.5563 8.45045 12.3123 8.10446C12.0972 8.0447 11.8365 8.03165 11.582 8.06073C11.3277 8.08506 11.089 8.15295 10.9177 8.25232C9.34232 9.17204 7.75624 10.1007 6.15122 11.0388C4.53216 11.985 2.89061 12.9405 1.23679 13.909C1.23679 13.909 0.973881 14.1373 1.00021 14.2489C1.0234 14.3616 1.14347 14.4653 1.35804 14.5283C2.61387 14.9069 3.87948 15.2868 5.15079 15.669C6.42902 16.0533 7.71927 16.4401 9.00982 16.8301C9.23384 16.8975 9.51388 16.913 9.77988 16.8849C10.0459 16.8587 10.3045 16.7855 10.4853 16.6746ZM50.8931 9.06186C49.512 8.70669 48.1397 8.3531 46.7713 8.00056C45.4144 7.65098 44.0676 7.30245 42.7234 6.95541C42.4927 6.89579 42.2167 6.88321 41.9657 6.90931C41.7141 6.93534 41.4811 7.00119 41.322 7.10199C39.8939 8.02394 38.45 8.95213 36.9921 9.89091C35.5182 10.8401 34.0297 11.7978 32.5279 12.7659C32.3618 12.873 32.3055 12.9962 32.3506 13.1081C32.3926 13.2222 32.5393 13.3261 32.773 13.3913C34.1347 13.7685 35.5026 14.1481 36.8799 14.5297C38.2665 14.9139 39.6595 15.3022 41.0617 15.691C41.4791 15.807 42.1278 15.8473 42.7881 15.4404C44.2713 14.4362 45.4875 13.5324 46.9404 12.5493C48.3751 11.5785 49.7978 10.615 51.2066 9.66087C51.3605 9.55631 51.4039 9.43796 51.3434 9.32882C51.2855 9.22281 51.1331 9.12354 50.8931 9.06186Z" stroke="white" stroke-width="0.5"/>
</svg>
