<svg width="41" height="41" viewBox="0 0 41 41" fill="none" xmlns="http://www.w3.org/2000/svg">
<path d="M40.5509 23.8817C40.5509 23.3783 40.3509 22.8955 39.9949 22.5395C39.6389 22.1835 39.1561 21.9835 38.6527 21.9835H35.5263C35.3704 21.9835 35.221 22.0454 35.1108 22.1557C35.0005 22.2659 34.9386 22.4153 34.9386 22.5712C34.9386 22.7271 35.0005 22.8765 35.1108 22.9868C35.221 23.097 35.3704 23.1589 35.5263 23.1589H38.6527C38.8413 23.1589 39.0222 23.2338 39.1555 23.3671C39.2889 23.5005 39.3638 23.6814 39.3638 23.87V26.9552C39.3622 27.1428 39.2866 27.3222 39.1535 27.4542C39.0203 27.5863 38.8403 27.6604 38.6527 27.6604H30.5194C30.5194 26.1619 30.5194 24.6574 30.4194 23.1589H33.1462C33.3021 23.1589 33.4516 23.097 33.5618 22.9868C33.672 22.8765 33.7339 22.7271 33.7339 22.5712C33.7339 22.4153 33.672 22.2659 33.5618 22.1557C33.4516 22.0454 33.3021 21.9835 33.1462 21.9835H30.3489C29.9904 16.5006 29.1324 11.0235 28.2921 5.66392L28.1569 4.79417C28.6178 4.19641 28.9454 3.50692 29.1178 2.77204C29.2901 2.03715 29.3031 1.2739 29.156 0.533562C29.1298 0.431603 29.0767 0.338546 29.0023 0.264114C28.9278 0.189681 28.8348 0.136608 28.7328 0.110439C28.0296 -0.0285475 27.3054 -0.0231189 26.6043 0.126396C25.9032 0.275911 25.2398 0.566392 24.6544 0.980191C18.6337 -0.321519 12.4044 -0.321519 6.38372 0.980191C5.79437 0.560668 5.12522 0.266505 4.41766 0.115895C3.71009 -0.0347162 2.97915 -0.0385731 2.27003 0.104562C2.16916 0.131648 2.07732 0.185129 2.00398 0.259499C1.93065 0.333869 1.87846 0.426441 1.85278 0.527685C1.70333 1.28044 1.71948 2.05669 1.90012 2.80258C2.08075 3.54846 2.42154 4.2461 2.89884 4.84706L2.75192 5.78146C1.40028 14.4261 0.00162165 23.3646 0.742086 32.1502C0.876186 33.912 0.693065 35.6835 0.20143 37.3805C-0.0303595 38.1733 -0.0626597 39.0111 0.107402 39.8193C0.140716 39.9486 0.217067 40.0627 0.323885 40.1428C0.430702 40.223 0.561618 40.2643 0.695073 40.2601H9.8216C9.97746 40.2601 10.1269 40.1982 10.2371 40.088C10.3474 39.9778 10.4093 39.8283 10.4093 39.6724C10.4093 39.5166 10.3474 39.3671 10.2371 39.2569C10.1269 39.1467 9.97746 39.0847 9.8216 39.0847H1.20047C1.17519 38.6145 1.23085 38.1434 1.36502 37.692C1.89594 35.8575 2.09496 33.943 1.95269 32.0386C1.77633 29.8238 1.71748 27.6013 1.77639 25.3803H10.1154L18.0137 39.0612H12.1958C12.0399 39.0612 11.8904 39.1232 11.7802 39.2334C11.67 39.3436 11.6081 39.493 11.6081 39.6489C11.6081 39.8048 11.67 39.9542 11.7802 40.0645C11.8904 40.1747 12.0399 40.2366 12.1958 40.2366H38.641C38.8907 40.2381 39.1383 40.1904 39.3696 40.096C39.6009 40.0017 39.8113 39.8627 39.9887 39.6869C40.1661 39.5111 40.3071 39.302 40.4036 39.0716C40.5001 38.8412 40.5501 38.5941 40.5509 38.3443V35.2649C40.5527 34.7797 40.3675 34.3124 40.0337 33.9603C40.3675 33.6081 40.5527 33.1408 40.5509 32.6556V29.5704C40.5527 29.0852 40.3675 28.6179 40.0337 28.2657C40.3682 27.9164 40.5536 27.4506 40.5509 26.967V23.8817ZM24.6544 2.19667C24.7385 2.21591 24.8258 2.21641 24.9101 2.19813C24.9944 2.17985 25.0736 2.14324 25.1422 2.09089C25.9768 1.43928 27.0247 1.12282 28.0805 1.20351C28.1499 2.31432 27.7878 3.40903 27.0697 4.25939C27.0176 4.32372 26.9797 4.39833 26.9584 4.47834C26.9371 4.55834 26.933 4.64194 26.9463 4.72365L27.1226 5.84023C27.6574 9.2781 28.2039 12.7571 28.6153 16.2537H15.6865L23.9139 2.03212L24.6544 2.19667ZM1.78226 24.1932C1.87629 21.9424 2.05847 19.6916 2.30529 17.4467H7.16533C7.32119 17.4467 7.47066 17.3848 7.58087 17.2746C7.69108 17.1644 7.753 17.0149 7.753 16.859C7.753 16.7032 7.69108 16.5537 7.58087 16.4435C7.47066 16.3333 7.32119 16.2714 7.16533 16.2714H2.46396C2.86945 12.81 3.41011 9.36625 3.93901 5.96364L4.12707 4.7883C4.14042 4.70524 4.13579 4.62029 4.11348 4.53919C4.09118 4.45808 4.05172 4.38271 3.99778 4.31816C3.26609 3.46128 2.9009 2.35093 2.98111 1.22701C4.03723 1.15197 5.0838 1.47012 5.91946 2.12027C5.98802 2.17262 6.06726 2.20923 6.15156 2.22752C6.23586 2.2458 6.32315 2.2453 6.40723 2.22605C11.7635 1.03228 17.3016 0.898518 22.7092 1.83231L14.3349 16.2596H9.53951C9.38365 16.2596 9.23418 16.3215 9.12397 16.4317C9.01376 16.542 8.95184 16.6914 8.95184 16.8473C8.95184 17.0032 9.01376 17.1526 9.12397 17.2628C9.23418 17.3731 9.38365 17.435 9.53951 17.435H28.7505C28.9973 19.6799 29.1853 21.9306 29.2735 24.1814L1.78226 24.1932ZM29.8259 39.0612H19.383C19.3862 39.0418 19.3862 39.0219 19.383 39.0025L11.4906 25.3803H29.3146C29.3755 27.6308 29.3128 29.883 29.1266 32.1267C28.9907 34.0078 29.1897 35.898 29.7142 37.7096C29.8224 38.1515 29.8601 38.6076 29.8259 39.0612ZM39.3638 38.3443C39.3638 38.5329 39.2889 38.7137 39.1555 38.8471C39.0222 38.9804 38.8413 39.0554 38.6527 39.0554H31.013C31.0403 38.4949 30.9788 37.9336 30.8308 37.3923C30.5727 36.4618 30.3996 35.5097 30.3137 34.5479H38.6527C38.8413 34.5479 39.0222 34.6228 39.1555 34.7562C39.2889 34.8896 39.3638 35.0704 39.3638 35.259V38.3443ZM39.3638 32.6498C39.3638 32.8383 39.2889 33.0192 39.1555 33.1526C39.0222 33.2859 38.8413 33.3608 38.6527 33.3608H30.2608C30.2608 32.9788 30.2608 32.5969 30.3137 32.2208C30.4077 31.1042 30.4684 29.9817 30.4958 28.8534H38.6527C38.8413 28.8534 39.0222 28.9283 39.1555 29.0617C39.2889 29.195 39.3638 29.3759 39.3638 29.5645V32.6498Z" fill="white"/>
<path d="M7.63455 8.70806H12.9236C13.0794 8.70806 13.2289 8.64614 13.3391 8.53593C13.4493 8.42572 13.5112 8.27625 13.5112 8.12039C13.5112 7.96453 13.4493 7.81505 13.3391 7.70484C13.2289 7.59463 13.0794 7.53271 12.9236 7.53271H7.63455C7.47869 7.53271 7.32921 7.59463 7.219 7.70484C7.10879 7.81505 7.04688 7.96453 7.04688 8.12039C7.04688 8.27625 7.10879 8.42572 7.219 8.53593C7.32921 8.64614 7.47869 8.70806 7.63455 8.70806Z" fill="white"/>
<path d="M13.5054 10.8238C13.5054 10.6679 13.4435 10.5184 13.3333 10.4082C13.2231 10.298 13.0736 10.2361 12.9177 10.2361H7.62869C7.47283 10.2361 7.32335 10.298 7.21314 10.4082C7.10293 10.5184 7.04102 10.6679 7.04102 10.8238C7.04102 10.9796 7.10293 11.1291 7.21314 11.2393C7.32335 11.3495 7.47283 11.4114 7.62869 11.4114H12.9177C13.0736 11.4114 13.2231 11.3495 13.3333 11.2393C13.4435 11.1291 13.5054 10.9796 13.5054 10.8238Z" fill="white"/>
<path d="M25.5369 28.7712H20.2478C20.092 28.7712 19.9425 28.8332 19.8323 28.9434C19.7221 29.0536 19.6602 29.2031 19.6602 29.3589C19.6602 29.5148 19.7221 29.6642 19.8323 29.7745C19.9425 29.8847 20.092 29.9466 20.2478 29.9466H25.5369C25.6927 29.9466 25.8422 29.8847 25.9524 29.7745C26.0626 29.6642 26.1245 29.5148 26.1245 29.3589C26.1245 29.2031 26.0626 29.0536 25.9524 28.9434C25.8422 28.8332 25.6927 28.7712 25.5369 28.7712Z" fill="white"/>
<path d="M25.5369 31.4802H20.2478C20.092 31.4802 19.9425 31.5421 19.8323 31.6523C19.7221 31.7626 19.6602 31.912 19.6602 32.0679C19.6602 32.2238 19.7221 32.3732 19.8323 32.4834C19.9425 32.5937 20.092 32.6556 20.2478 32.6556H25.5369C25.6927 32.6556 25.8422 32.5937 25.9524 32.4834C26.0626 32.3732 26.1245 32.2238 26.1245 32.0679C26.1245 31.912 26.0626 31.7626 25.9524 31.6523C25.8422 31.5421 25.6927 31.4802 25.5369 31.4802Z" fill="white"/>
</svg>
