<svg width="49" height="36" viewBox="0 0 49 36" fill="none" xmlns="http://www.w3.org/2000/svg">
<path d="M43.0409 22.4976L41.3477 17.7839L36.8328 5.21369L35.1396 0.5H31.5641H31.127H27.9921H27.5638H24.4224H23.9977H20.8563H20.4286H17.2937H16.8566H13.2817L11.5885 5.21369L7.07356 17.7839L5.38039 22.4976L0.710938 35.5H8.47651H8.91361H16.2391H16.6668H23.9988H24.4236H31.755H32.1827H39.5094H39.9465H47.7109L43.0409 22.4976ZM16.9582 1.90406L17.1909 0.932158H20.3781L19.8652 5.21369L18.9246 13.0708H14.2845L16.9582 1.90406ZM13.1559 17.7845L14.1811 13.503H18.8729L18.5492 16.2053L18.36 17.7845H13.1559ZM18.3083 18.2161L17.7954 22.4976L16.8548 30.3547H10.1456L11.9234 22.9304L13.052 18.2161H18.3083ZM13.5789 0.932158H16.7538L15.7286 5.21369H12.0415L13.5789 0.932158ZM11.8858 5.64644H15.6246L13.8474 13.0708L12.7188 17.7845H7.52652L11.8858 5.64644ZM7.37084 18.2161H12.6149L11.5897 22.4976H5.83276L7.37084 18.2161ZM8.81315 34.0965L8.5805 35.0684H1.31841L5.67825 22.9304H11.4869L10.1186 28.6452L8.81315 34.0965ZM16.4794 33.4892L16.2903 35.0684H9.01701L10.0422 30.7869H16.8031L16.4794 33.4892ZM23.9988 35.0684H16.7185L17.2314 30.7869L18.172 22.9304H23.9988V35.0684ZM23.9988 22.4976H18.2237L18.5474 19.7953L18.7366 18.2161H23.9994L23.9988 22.4976ZM23.9988 17.7845H18.7883L19.3012 13.503L20.2418 5.64644H23.9994L23.9988 17.7845ZM23.9988 5.21369H20.2929L20.6166 2.51136L20.8058 0.932158H23.9988V5.21369ZM42.5885 22.4976H36.8322L35.807 18.2161H41.051L42.5885 22.4976ZM35.3699 18.2161L35.7718 19.8945L38.2763 30.3547H31.567L30.6781 22.9304L30.4049 20.6518L30.1136 18.2161H35.3699ZM30.0613 17.7845L29.549 13.503H34.2407L35.2659 17.7845H30.0613ZM40.8954 17.7845H35.703L35.3012 16.1061L32.7967 5.64644H36.5349L40.8954 17.7845ZM34.8429 0.932158L36.381 5.21369H32.6938L31.6687 0.932158H34.8429ZM31.231 0.932158L31.6328 2.61058L34.1373 13.0708H29.4973L29.2411 10.9304L28.0444 0.932158H31.231ZM24.423 0.932158H27.6167L27.7753 2.25732L28.1296 5.21369H24.4236L24.423 0.932158ZM24.423 5.64644H28.1807L29.0696 13.0708L29.3427 15.3488L29.6341 17.7845H24.4236L24.423 5.64644ZM24.423 18.2161H29.6853L30.1982 22.4976H24.423V18.2161ZM24.423 35.0684V22.9304H30.2498L30.5066 25.0702L31.7033 35.0684H24.423ZM32.1304 35.0684L31.9718 33.7433L31.6175 30.7869H38.3791L39.4043 35.0684H32.1304ZM39.842 35.0684L39.4395 33.39L36.9362 22.9304H42.7436L47.104 35.0684H39.842Z" fill="white" stroke="white"/>
</svg>
