<svg width="55" height="43" viewBox="0 0 55 43" fill="none" xmlns="http://www.w3.org/2000/svg">
<path d="M14.739 5.46032e-06C14.4293 0.0606969 14.1844 0.369946 14.19 0.693551V4.16128C13.9269 4.16086 13.641 4.16128 13.3876 4.16128C13.0778 4.22197 12.833 4.53122 12.8386 4.85483V17.3387C12.8386 17.7019 13.1605 18.0322 13.5143 18.0323H22.9743V29.1291H20.2714V25.6179C20.2714 25.2548 19.9495 24.9244 19.5957 24.9244C17.7747 24.9244 15.9429 24.9244 14.1267 24.9244C13.7945 24.9564 13.5129 25.2755 13.5143 25.6179V29.1291H8.10862V25.6179C8.10858 25.2548 7.78669 24.9244 7.43291 24.9244C5.61194 24.9244 3.78011 24.9244 1.96388 24.9244C1.63172 24.9564 1.35008 25.2755 1.35152 25.6179V29.1291C1.08845 29.1287 0.802522 29.1291 0.549111 29.1291C0.239363 29.1893 -0.00546051 29.499 9.26274e-05 29.8226V42.3065C0.000129485 42.6696 0.322015 42.9999 0.675807 43H41.2186C41.5724 42.9999 41.8943 42.6696 41.8943 42.3065V30.5161H53.3814C53.7352 30.5161 54.0571 30.1858 54.0571 29.8226V17.3387C54.0571 16.9756 53.7352 16.6452 53.3814 16.6452H52.7057V13.1557C52.7057 12.7926 52.3838 12.4622 52.03 12.4622C50.209 12.4622 48.3772 12.4622 46.561 12.4622C46.2288 12.4943 45.9472 12.8133 45.9486 13.1557V16.6452H42.57V4.85483C42.57 4.4917 42.2481 4.16132 41.8943 4.16128H41.2186V0.693551C41.2186 0.330423 40.8967 4.23175e-05 40.5429 5.46032e-06C38.7043 -6.8254e-06 36.8388 5.46032e-06 35.0105 5.46032e-06C34.7008 0.0606969 34.4559 0.369946 34.4615 0.693551V4.16128H31.0829V0.693551C31.0829 0.330423 30.761 4.23175e-05 30.4072 5.46032e-06C28.5686 -6.8254e-06 26.7031 5.46032e-06 24.8748 5.46032e-06C24.5651 0.0606969 24.3202 0.369946 24.3258 0.693551V4.16128H20.9472V0.693551C20.9472 0.330423 20.6253 4.23175e-05 20.2715 5.46032e-06C18.4329 -6.8254e-06 16.5673 5.46032e-06 14.739 5.46032e-06ZM15.5414 1.3871H19.5957V4.16128H15.5414V1.3871ZM25.6771 1.3871H29.7314V4.16128H25.6771V1.3871ZM35.8128 1.3871H39.8671V4.16128H35.8128V1.3871ZM14.19 5.54841C23.0151 5.56192 31.9902 5.54841 41.2185 5.54841V16.6452H14.19V5.54841ZM47.2999 13.8493H51.3542V16.6452H47.2999V13.8493ZM24.3257 18.0323H41.8942H52.7056V29.1291H41.2185H24.3257V18.0323ZM2.70288 26.3115H6.75715V29.1291H2.70288V26.3115ZM14.8657 26.3115H18.92V29.1291H14.8657V26.3115ZM1.35145 30.5161H10.1357C10.1357 34.2141 10.1357 37.918 10.1357 41.6129H1.35145V30.5161ZM11.4871 30.5161H40.5428V41.6129H11.4871C11.4872 37.9179 11.4871 34.2142 11.4871 30.5161Z" fill="white"/>
</svg>
