<svg width="48" height="47" viewBox="0 0 48 47" fill="none" xmlns="http://www.w3.org/2000/svg">
<path d="M47.559 21.8667L38.1507 12.9956V3.83873C38.1507 3.48059 38.0085 3.13712 37.7552 2.88387C37.502 2.63063 37.1585 2.48836 36.8004 2.48836L31.2313 2.51793C30.8813 2.52172 30.5465 2.66178 30.298 2.90839C30.0496 3.155 29.907 3.48873 29.9007 3.83873C29.9007 4.33157 29.9007 4.82441 29.9007 5.27289L24.6174 0.344517C24.3848 0.123336 24.076 0 23.755 0C23.4339 0 23.1252 0.123336 22.8925 0.344517C13.7504 9.04802 5.80585 16.7215 0.26143 22.2314H0.236788C0.159495 22.3079 0.0986438 22.3994 0.0579652 22.5002C0.0172867 22.6011 -0.0023614 22.7092 0.000226058 22.8179C-0.00178002 22.9265 0.0181379 23.0345 0.0587892 23.1352C0.0994405 23.236 0.159991 23.3275 0.23682 23.4043C0.313649 23.4812 0.405181 23.5417 0.505943 23.5824C0.606705 23.623 0.714629 23.6429 0.823264 23.6409C4.12034 23.5916 5.85513 23.5374 7.39771 23.4832C7.49296 23.4865 7.5879 23.4706 7.67687 23.4364C7.76584 23.4023 7.84701 23.3505 7.91554 23.2843C7.98407 23.218 8.03856 23.1387 8.07576 23.0509C8.11296 22.9632 8.1321 22.8688 8.13204 22.7735C8.1046 22.5999 8.01498 22.4422 7.87988 22.3298C7.74478 22.2174 7.57341 22.1579 7.39771 22.1624C6.22476 22.1181 4.93353 22.0786 2.93261 22.0392C8.42281 17.1256 15.6379 10.5265 23.7303 3.01077L30.3245 9.28951C30.5116 9.46804 30.747 9.58771 31.0016 9.63366C31.2561 9.67962 31.5185 9.64984 31.7562 9.54803C31.9939 9.44621 32.1966 9.27684 32.3389 9.06092C32.4813 8.845 32.5571 8.59203 32.557 8.33341C32.557 7.30502 32.557 6.25856 32.557 5.19403H35.4401V13.5723C35.4388 13.7569 35.4758 13.9399 35.5487 14.1095C35.6217 14.2792 35.729 14.4319 35.864 14.5579L43.3502 21.5316H39.3483C39.0141 21.5355 38.695 21.6713 38.4605 21.9095C38.226 22.1477 38.0952 22.4689 38.0965 22.8031C38.1458 29.6683 38.2099 36.1343 38.2986 41.871C32.2811 41.9695 27.1457 42.0878 23.2375 42.2307C23.1401 42.2275 23.043 42.2437 22.9519 42.2786C22.8609 42.3135 22.7778 42.3662 22.7075 42.4338C22.6372 42.5013 22.5812 42.5822 22.5427 42.6718C22.5042 42.7614 22.4841 42.8577 22.4835 42.9552C22.5119 43.1336 22.604 43.2957 22.7425 43.4116C22.8811 43.5276 23.0569 43.5895 23.2375 43.586C27.3724 43.7339 32.8872 43.862 39.3681 43.9606C39.643 43.9646 39.9084 43.8594 40.106 43.6683C40.3037 43.4771 40.4175 43.2154 40.4227 42.9404V42.9306C40.5114 37.2925 40.5804 30.8955 40.6297 24.0993L46.6571 24.1338C46.8418 24.1354 47.0249 24.0986 47.1946 24.0256C47.3643 23.9526 47.5169 23.8451 47.6428 23.7099C47.8813 23.457 48.0096 23.1197 47.9994 22.7722C47.9893 22.4247 47.8415 22.0954 47.5886 21.8569L47.559 21.8667Z" fill="white"/>
<path d="M19.1271 38.002C17.8638 38.8076 16.5001 39.4439 15.0711 39.8945C14.9035 39.9536 14.8394 40.3085 14.9331 40.6781C15.0267 41.0477 15.214 41.2399 15.3816 41.2104C17.0383 40.9758 18.6421 40.4573 20.1226 39.6776C21.0733 39.1684 21.9476 38.528 22.7199 37.7753C23.5828 36.9252 24.2959 35.9354 24.8292 34.8478C25.9242 32.4633 26.3582 29.8284 26.086 27.2187C25.973 25.887 25.7438 24.5678 25.4009 23.276C25.3172 22.9508 25.2186 22.6255 25.12 22.2904L25.0806 22.177L25.0214 22.0291C24.9774 21.9304 24.9263 21.8348 24.8687 21.7433C24.7517 21.5567 24.6052 21.3903 24.435 21.2505C24.1044 20.9688 23.6946 20.7966 23.262 20.7576C22.83 20.7152 22.3953 20.8045 22.0151 21.0139C21.9217 21.0655 21.8326 21.1249 21.749 21.1913L21.5962 21.3096L21.4385 21.4377C21.2315 21.6152 20.99 21.7679 20.7633 21.9306C18.7013 23.1631 16.4649 24.077 14.1297 24.6412L13.2525 24.858L12.8089 24.9665C12.6365 25.0108 12.464 25.0502 12.3161 25.1045C11.6438 25.2982 10.9957 25.5677 10.3842 25.9078C9.22545 26.5297 8.23517 27.4239 7.49858 28.5133C6.76198 29.6028 6.30111 30.8549 6.15564 32.1619C6.03577 33.2638 6.13118 34.3786 6.43656 35.4442C6.85935 36.9732 7.58318 38.4025 8.56562 39.6481C8.24156 40.5249 7.99582 41.4286 7.83129 42.3488C7.57199 43.6476 7.53865 44.9814 7.73272 46.2915C7.73272 46.3507 8.058 46.4197 8.42762 46.4394C8.62659 46.4699 8.83004 46.4495 9.01903 46.3802C9.3098 45.5523 9.61536 44.3251 10.0836 42.9304C10.5869 41.4371 11.2167 39.9895 11.9662 38.6033C12.7257 37.2153 13.6046 35.896 14.593 34.6606C15.4949 33.527 16.3524 32.6054 16.8946 31.9155C16.934 31.8662 16.7763 31.5705 16.5496 31.2698C16.3229 30.9692 16.1455 30.777 16.0912 30.8263C14.8929 31.3875 13.7982 32.1473 12.8533 33.0736C11.5469 34.3048 10.444 35.7354 9.58579 37.312C9.46258 37.5387 9.34923 37.7704 9.23588 38.002C8.78864 37.063 8.46875 36.0686 8.2847 35.045C8.12924 34.1961 8.12924 33.3261 8.2847 32.4773C8.4627 31.5903 8.8254 30.7507 9.34923 30.0131C9.92182 29.2254 10.6735 28.5852 11.5424 28.1453C11.9984 27.9109 12.4795 27.729 12.9765 27.6031C13.1029 27.5666 13.2313 27.537 13.3609 27.5144L13.8143 27.4159L14.7557 27.1596C16.0483 26.8669 17.3208 26.4916 18.5653 26.0359C19.8594 25.5625 21.0974 24.9476 22.2566 24.2026L22.7495 23.8379C22.7495 23.8822 22.7495 23.9216 22.784 23.9611C23.115 25.1063 23.3524 26.2765 23.4937 27.4602C23.7785 29.6286 23.5054 31.8338 22.7002 33.8671C21.943 35.5676 20.6999 37.0062 19.1271 38.002ZM23.3902 23.35C23.3902 23.35 23.3951 23.35 23.3902 23.3549V23.35Z" fill="white"/>
</svg>
