<svg width="43" height="43" viewBox="0 0 43 43" fill="none" xmlns="http://www.w3.org/2000/svg">
<path d="M40.85 0H2.15C0.962662 0 0 0.962662 0 2.15V40.85C0 42.0373 0.962662 43 2.15 43H40.85C42.0373 43 43 42.0373 43 40.85V2.15C43 0.962662 42.0373 0 40.85 0ZM20.425 3.225C20.425 2.63106 20.9061 2.15 21.5 2.15H30.6375C31.2314 2.15 31.7125 2.63106 31.7125 3.225V17.2C31.7125 17.7939 31.2314 18.275 30.6375 18.275H21.5C20.9061 18.275 20.425 17.7939 20.425 17.2V3.225ZM9.1375 39.775C9.1375 40.3689 8.65644 40.85 8.0625 40.85H3.225C2.63106 40.85 2.15 40.3689 2.15 39.775V21.5C2.15 20.9061 2.63106 20.425 3.225 20.425H8.0625C8.65644 20.425 9.1375 20.9061 9.1375 21.5V39.775ZM18.275 39.775C18.275 40.3689 17.7939 40.85 17.2 40.85H12.3625C11.7686 40.85 11.2875 40.3689 11.2875 39.775V34.9375C11.2875 34.3436 11.7686 33.8625 12.3625 33.8625H17.2C17.7939 33.8625 18.275 34.3436 18.275 34.9375V39.775ZM18.275 30.6375C18.275 31.2314 17.7939 31.7125 17.2 31.7125H12.3625C11.7686 31.7125 11.2875 31.2314 11.2875 30.6375V21.5C11.2875 20.9061 11.7686 20.425 12.3625 20.425H17.2C17.7939 20.425 18.275 20.9061 18.275 21.5V30.6375ZM18.275 17.2C18.275 17.7939 17.7939 18.275 17.2 18.275H3.225C2.63106 18.275 2.15 17.7939 2.15 17.2V3.225C2.15 2.63106 2.63106 2.15 3.225 2.15H17.2C17.7939 2.15 18.275 2.63106 18.275 3.225V17.2ZM40.85 39.775C40.85 40.3689 40.3689 40.85 39.775 40.85H21.5C20.9061 40.85 20.425 40.3689 20.425 39.775V34.9375C20.425 34.3436 20.9061 33.8625 21.5 33.8625H39.775C40.3689 33.8625 40.85 34.3436 40.85 34.9375V39.775ZM40.85 30.6375C40.85 31.2314 40.3689 31.7125 39.775 31.7125H21.5C20.9061 31.7125 20.425 31.2314 20.425 30.6375V21.5C20.425 20.9061 20.9061 20.425 21.5 20.425H39.775C40.3689 20.425 40.85 20.9061 40.85 21.5V30.6375ZM40.85 17.2C40.85 17.7939 40.3689 18.275 39.775 18.275H34.9375C34.3436 18.275 33.8625 17.7939 33.8625 17.2V3.225C33.8625 2.63106 34.3436 2.15 34.9375 2.15H39.775C40.3689 2.15 40.85 2.63106 40.85 3.225V17.2Z" fill="white"/>
</svg>
