<svg width="43" height="43" viewBox="0 0 43 43" fill="none" xmlns="http://www.w3.org/2000/svg">
<path d="M43 42.4809V40.3833C43 40.0896 42.7693 39.8589 42.4756 39.8589H40.9024V37.2369V34.0906V30.9443V27.7979V15.9257L42.2029 16.7123C42.2868 16.7648 42.3812 16.7857 42.4756 16.7857C42.5595 16.7857 42.6539 16.7648 42.7378 16.7228C42.9056 16.6284 43 16.4501 43 16.2613V13.115C43 12.9262 42.9056 12.7584 42.7483 12.664L21.7727 0.0786585C21.6049 -0.0262195 21.3951 -0.0262195 21.2378 0.0786585L0.262195 12.664C0.0943902 12.7584 0 12.9262 0 13.115V16.2613C0 16.4501 0.104878 16.6284 0.262195 16.7228C0.43 16.8172 0.629268 16.8172 0.786585 16.7123L2.08707 15.9257V27.7979V30.9443V34.0906V37.2369V39.8589H0.52439C0.230732 39.8589 0 40.0896 0 40.3833V42.4809C0 42.7745 0.230732 43.0052 0.52439 43.0052H42.4756C42.7693 43.0052 43 42.7745 43 42.4809ZM1.04878 15.3384V13.4191L21.5 1.13793L41.9512 13.4087V15.3279L21.7727 3.225C21.6888 3.17256 21.5944 3.15159 21.5 3.15159C21.4056 3.15159 21.3112 3.17256 21.2273 3.225L1.04878 15.3384ZM37.2317 36.7126H34.6098V34.615H37.2317H39.8537V36.7126H37.2317ZM39.8537 37.7613V39.8589H37.7561V37.7613H39.8537ZM27.2683 34.615V36.7126H25.6951V34.615H27.2683ZM25.6951 33.5662V31.4687H27.7927H30.4146V33.5662H27.7927H25.6951ZM27.7927 37.7613H30.4146V39.8589H25.6951V37.7613H27.7927ZM28.3171 36.7126V34.615H30.939H33.561V36.7126H30.939H28.3171ZM31.4634 33.5662V31.4687H34.0854H36.7073V33.5662H34.0854H31.4634ZM31.4634 37.7613H34.0854H36.7073V39.8589H31.4634V37.7613ZM37.7561 33.5662V31.4687H39.8537V33.5662H37.7561ZM37.2317 30.4199H34.0854H30.939H27.7927H25.6951V27.7979C25.6951 27.5043 25.4644 27.2735 25.1707 27.2735H17.8293C17.5356 27.2735 17.3049 27.5043 17.3049 27.7979V30.4199H15.2073H12.061H8.91463H5.76829H3.14634V27.7979V15.2965L21.5 4.28427L39.8537 15.2965V27.7979V30.4199H37.2317ZM24.6463 28.3223V39.8589H18.3537V28.3223H24.6463ZM3.14634 36.7126V34.615H5.76829H8.39024V36.7126H5.76829H3.14634ZM5.2439 37.7613V39.8589H3.14634V37.7613H5.2439ZM3.14634 33.5662V31.4687H5.2439V33.5662H3.14634ZM6.29268 33.5662V31.4687H8.91463H11.5366V33.5662H8.91463H6.29268ZM6.29268 37.7613H8.91463H11.5366V39.8589H6.29268V37.7613ZM9.43902 36.7126V34.615H12.061H14.6829V36.7126H12.061H9.43902ZM12.5854 37.7613H15.2073H17.3049V39.8589H12.5854V37.7613ZM15.7317 36.7126V34.615H17.3049V36.7126H15.7317ZM15.2073 33.5662H12.5854V31.4687H15.2073H17.3049V33.5662H15.2073ZM41.9512 41.9565H1.04878V40.9077H2.62195H5.76829H12.061H17.8293H18.3537H24.6463H25.1707H30.939H37.2317H40.378H41.9512V41.9565Z" fill="white"/>
<path d="M23.5976 34.6151C23.734 34.6151 23.8703 34.5627 23.9647 34.4578C24.0171 34.4158 24.0591 34.3529 24.0801 34.29C24.1115 34.227 24.122 34.1641 24.122 34.0907C24.122 33.9544 24.0696 33.818 23.9647 33.7236C23.8179 33.5663 23.5871 33.5244 23.3984 33.6083C23.3354 33.6292 23.2725 33.6712 23.2306 33.7236C23.1257 33.818 23.0732 33.9544 23.0732 34.0907C23.0732 34.227 23.1257 34.3634 23.2306 34.4578C23.3249 34.5627 23.4613 34.6151 23.5976 34.6151Z" fill="white"/>
<path d="M9.05077 15.5795C9.25003 15.3697 9.25003 15.0446 9.05077 14.8453C8.84101 14.6355 8.51589 14.6355 8.30613 14.8453C7.73979 15.4116 7.26784 16.6387 8.30613 17.6875C8.92491 18.3063 8.46345 18.8831 8.30613 19.0404C8.09638 19.2502 8.09638 19.5753 8.30613 19.7851C8.41101 19.8899 8.54735 19.9424 8.67321 19.9424C8.79906 19.9424 8.94589 19.8899 9.04028 19.7851C9.60662 19.2187 10.0786 17.9916 9.04028 16.9429C8.43198 16.3241 8.89345 15.7473 9.05077 15.5795Z" fill="white"/>
<path d="M14.1797 15.5795C14.3789 15.3697 14.3789 15.0446 14.1797 14.8453C13.9699 14.6355 13.6448 14.6355 13.435 14.8453C12.8687 15.4116 12.3967 16.6387 13.435 17.6875C14.0538 18.3063 13.5924 18.8831 13.435 19.0404C13.2253 19.2502 13.2253 19.5753 13.435 19.7851C13.5399 19.8899 13.6763 19.9424 13.8021 19.9424C13.928 19.9424 14.0748 19.8899 14.1692 19.7851C14.7355 19.2187 15.2075 17.9916 14.1692 16.9429C13.5609 16.3241 14.0224 15.7473 14.1797 15.5795Z" fill="white"/>
<path d="M19.3081 15.5795C19.5074 15.3697 19.5074 15.0446 19.3081 14.8453C19.0983 14.6355 18.7732 14.6355 18.5635 14.8453C17.9971 15.4116 17.5252 16.6387 18.5635 17.6875C19.1822 18.3063 18.7208 18.8831 18.5635 19.0404C18.3537 19.2502 18.3537 19.5753 18.5635 19.7851C18.6683 19.8899 18.8047 19.9424 18.9305 19.9424C19.0564 19.9424 19.2032 19.8899 19.2976 19.7851C19.8639 19.2187 20.3359 17.9916 19.2976 16.9429C18.6893 16.3241 19.1508 15.7473 19.3081 15.5795Z" fill="white"/>
<path d="M24.4365 15.5795C24.6358 15.3697 24.6358 15.0446 24.4365 14.8453C24.2268 14.6355 23.9016 14.6355 23.6919 14.8453C23.1255 15.4116 22.6536 16.6387 23.6919 17.6875C24.3107 18.3063 23.8492 18.8831 23.6919 19.0404C23.4821 19.2502 23.4821 19.5753 23.6919 19.7851C23.7968 19.8899 23.9331 19.9424 24.0589 19.9424C24.1848 19.9424 24.3316 19.8899 24.426 19.7851C24.9924 19.2187 25.4643 17.9916 24.426 16.9429C23.8177 16.3241 24.2792 15.7473 24.4365 15.5795Z" fill="white"/>
<path d="M21.0173 12.7477C20.8075 12.9575 20.8075 13.2826 21.0173 13.4923C21.1222 13.5972 21.2585 13.6497 21.3844 13.6497C21.5102 13.6497 21.6571 13.5972 21.7514 13.4923C22.3178 12.926 22.7897 11.6989 21.7514 10.6501C21.1327 10.0314 21.5941 9.45453 21.7514 9.28673C21.9507 9.07697 21.9507 8.75185 21.7514 8.55258C21.5417 8.34282 21.2166 8.34282 21.0068 8.55258C20.4405 9.11892 19.9685 10.346 21.0068 11.3948C21.6256 12.0031 21.1641 12.5799 21.0173 12.7477Z" fill="white"/>
<path d="M29.5649 15.5795C29.7642 15.3697 29.7642 15.0446 29.5649 14.8453C29.3552 14.6355 29.03 14.6355 28.8203 14.8453C28.254 15.4116 27.782 16.6387 28.8203 17.6875C29.4391 18.3063 28.9776 18.8831 28.8203 19.0404C28.6105 19.2502 28.6105 19.5753 28.8203 19.7851C28.9252 19.8899 29.0615 19.9424 29.1874 19.9424C29.3132 19.9424 29.46 19.8899 29.5544 19.7851C30.1208 19.2187 30.5927 17.9916 29.5544 16.9429C28.9461 16.3241 29.4076 15.7473 29.5649 15.5795Z" fill="white"/>
<path d="M34.6938 15.5795C34.8931 15.3697 34.8931 15.0446 34.6938 14.8453C34.4841 14.6355 34.159 14.6355 33.9492 14.8453C33.3829 15.4116 32.9109 16.6387 33.9492 17.6875C34.568 18.3063 34.1065 18.8831 33.9492 19.0404C33.7394 19.2502 33.7394 19.5753 33.9492 19.7851C34.0541 19.8899 34.1904 19.9424 34.3163 19.9424C34.4421 19.9424 34.589 19.8899 34.6833 19.7851C35.2497 19.2187 35.7216 17.9916 34.6833 16.9429C34.0751 16.3241 34.5365 15.7473 34.6938 15.5795Z" fill="white"/>
<path d="M6.49217 21.8724C6.69144 21.6627 6.69144 21.3375 6.49217 21.1383C6.28242 20.9285 5.95729 20.9285 5.74754 21.1383C5.1812 21.7046 4.70924 22.9317 5.74754 23.9805C6.36632 24.5993 5.90485 25.1761 5.74754 25.3334C5.53778 25.5432 5.53778 25.8683 5.74754 26.078C5.85242 26.1829 5.98876 26.2353 6.11461 26.2353C6.24046 26.2353 6.38729 26.1829 6.48168 26.078C7.04803 25.5117 7.51998 24.2846 6.48168 23.2358C5.87339 22.6171 6.33485 22.0402 6.49217 21.8724Z" fill="white"/>
<path d="M11.6206 21.8724C11.8199 21.6627 11.8199 21.3375 11.6206 21.1383C11.4108 20.9285 11.0857 20.9285 10.876 21.1383C10.3096 21.7046 9.83766 22.9317 10.876 23.9805C11.4947 24.5993 11.0333 25.1761 10.876 25.3334C10.6662 25.5432 10.6662 25.8683 10.876 26.078C10.9808 26.1829 11.1172 26.2353 11.243 26.2353C11.3689 26.2353 11.5157 26.1829 11.6101 26.078C12.1764 25.5117 12.6484 24.2846 11.6101 23.2358C11.0018 22.6171 11.4633 22.0402 11.6206 21.8724Z" fill="white"/>
<path d="M16.749 21.8724C16.9483 21.6627 16.9483 21.3375 16.749 21.1383C16.5393 20.9285 16.2141 20.9285 16.0044 21.1383C15.438 21.7046 14.9661 22.9317 16.0044 23.9805C16.6232 24.5993 16.1617 25.1761 16.0044 25.3334C15.7946 25.5432 15.7946 25.8683 16.0044 26.078C16.1093 26.1829 16.2456 26.2353 16.3714 26.2353C16.4973 26.2353 16.6441 26.1829 16.7385 26.078C17.3049 25.5117 17.7768 24.2846 16.7385 23.2358C16.1302 22.6171 16.5917 22.0402 16.749 21.8724Z" fill="white"/>
<path d="M21.8774 21.8724C22.0767 21.6627 22.0767 21.3375 21.8774 21.1383C21.6677 20.9285 21.3425 20.9285 21.1328 21.1383C20.5665 21.7046 20.0945 22.9317 21.1328 23.9805C21.7516 24.5993 21.2901 25.1761 21.1328 25.3334C20.923 25.5432 20.923 25.8683 21.1328 26.078C21.2377 26.1829 21.374 26.2353 21.4999 26.2353C21.6257 26.2353 21.7725 26.1829 21.8669 26.078C22.4333 25.5117 22.9052 24.2846 21.8669 23.2358C21.2482 22.6171 21.7201 22.0402 21.8774 21.8724Z" fill="white"/>
<path d="M27.0058 21.8724C27.2051 21.6627 27.2051 21.3375 27.0058 21.1383C26.7961 20.9285 26.471 20.9285 26.2612 21.1383C25.6949 21.7046 25.2229 22.9317 26.2612 23.9805C26.88 24.5993 26.4185 25.1761 26.2612 25.3334C26.0515 25.5432 26.0515 25.8683 26.2612 26.078C26.3661 26.1829 26.5024 26.2353 26.6283 26.2353C26.7541 26.2353 26.901 26.1829 26.9954 26.078C27.5617 25.5117 28.0336 24.2846 26.9954 23.2358C26.3766 22.6171 26.8485 22.0402 27.0058 21.8724Z" fill="white"/>
<path d="M32.1245 21.8724C32.3238 21.6627 32.3238 21.3375 32.1245 21.1383C31.9147 20.9285 31.5896 20.9285 31.3799 21.1383C30.8135 21.7046 30.3416 22.9317 31.3799 23.9805C31.9986 24.5993 31.5372 25.1761 31.3799 25.3334C31.1701 25.5432 31.1701 25.8683 31.3799 26.078C31.4847 26.1829 31.6211 26.2353 31.7469 26.2353C31.8728 26.2353 32.0196 26.1829 32.114 26.078C32.6804 25.5117 33.1523 24.2846 32.114 23.2358C31.5057 22.6171 31.9672 22.0402 32.1245 21.8724Z" fill="white"/>
<path d="M37.2524 21.8724C37.4517 21.6627 37.4517 21.3375 37.2524 21.1383C37.0427 20.9285 36.7175 20.9285 36.5078 21.1383C35.9415 21.7046 35.4695 22.9317 36.5078 23.9805C37.1266 24.5993 36.6651 25.1761 36.5078 25.3334C36.298 25.5432 36.298 25.8683 36.5078 26.078C36.6127 26.1829 36.749 26.2353 36.8749 26.2353C37.0007 26.2353 37.1475 26.1829 37.2419 26.078C37.8083 25.5117 38.2802 24.2846 37.2419 23.2358C36.6336 22.6171 37.0951 22.0402 37.2524 21.8724Z" fill="white"/>
</svg>
