<svg width="47" height="43" viewBox="0 0 47 43" fill="none" xmlns="http://www.w3.org/2000/svg">
<path d="M45.3243 10.4595C45.9658 10.4595 46.4865 9.93881 46.4865 9.2973V1.16216C46.4865 0.520649 45.9658 0 45.3243 0H1.16216C0.520649 0 0 0.520649 0 1.16216V9.2973C0 9.93881 0.520649 10.4595 1.16216 10.4595H11.0405V16.2703H1.16216C0.520649 16.2703 0 16.7909 0 17.4324V25.5676C0 26.2091 0.520649 26.7297 1.16216 26.7297H11.0405V32.5405H1.16216C0.520649 32.5405 0 33.0612 0 33.7027V41.8378C0 42.4794 0.520649 43 1.16216 43H45.3243C45.9658 43 46.4865 42.4794 46.4865 41.8378V33.7027C46.4865 33.0612 45.9658 32.5405 45.3243 32.5405H35.4459V26.7297H45.3243C45.9658 26.7297 46.4865 26.2091 46.4865 25.5676V17.4324C46.4865 16.7909 45.9658 16.2703 45.3243 16.2703H35.4459V10.4595H45.3243ZM44.1622 8.13514H24.4054V2.32432H44.1622V8.13514ZM2.32432 2.32432H22.0811V8.13514H2.32432V2.32432ZM2.32432 18.5946H22.0811V24.4054H2.32432V18.5946ZM2.32432 34.8649H22.0811V40.6757H2.32432V34.8649ZM44.1622 40.6757H24.4054V34.8649H44.1622V40.6757ZM33.1216 32.5405H13.3649V26.7297H33.1216V32.5405ZM44.1622 24.4054H24.4054V18.5946H44.1622V24.4054ZM33.1216 16.2703H13.3649V10.4595H33.1216V16.2703Z" fill="white"/>
</svg>
