<svg width="39" height="39" viewBox="0 0 39 39" fill="none" xmlns="http://www.w3.org/2000/svg">
<path d="M0.4875 39H38.5125C38.7816 39 39 38.7821 39 38.5125V0.487494C39 0.21791 38.7816 0 38.5125 0H0.4875C0.2184 0 0 0.21791 0 0.487494V38.5125C0 38.7821 0.2184 39 0.4875 39ZM12.5829 16.1726V22.8274H0.975V16.1726H12.5829ZM24.9668 16.1726V22.8274H13.5579V16.1726H24.9668ZM38.025 16.1726V22.8274H25.9418V16.1726H38.025ZM0.975 23.8024H6.39064V30.4572H0.975V23.8024ZM7.36564 23.8024H18.7746V30.4572H7.36564V23.8024ZM24.9668 31.4321V38.0245H13.5579V31.4321H24.9668ZM19.7501 30.4572V23.8024H31.3048V30.4572H19.7501ZM32.2793 23.8024H38.025V30.4572H32.2793V23.8024ZM38.025 15.1976H32.2793V8.54236H38.025V15.1976ZM31.3043 15.1976H19.7501V8.54236H31.3048L31.3043 15.1976ZM13.5579 7.56737V0.974988H24.9668V7.56737H13.5579ZM18.7751 8.54236V15.1971H7.36564V8.54236H18.7751ZM6.39064 15.1976H0.975V8.54236H6.39064V15.1976ZM0.975 31.4321H12.5829V38.0245H0.975V31.4321ZM25.9418 38.025V31.4321H38.025V38.0245L25.9418 38.025ZM38.025 7.56737H25.9418V0.974988H38.025V7.56737ZM12.5829 0.974988V7.56737H0.975V0.974988H12.5829Z" fill="white"/>
</svg>
