<svg width="54" height="43" viewBox="0 0 54 43" fill="none" xmlns="http://www.w3.org/2000/svg">
<path d="M26.8386 0.000294559C26.5567 0.00634139 26.2936 0.0997515 26.0408 0.273242L0.509684 20.4294C-0.0777194 20.9011 -0.161065 21.7717 0.278728 22.34C0.712199 22.9002 1.63421 22.9898 2.18936 22.5499L26.8806 3.0657L51.5718 22.5499C52.127 22.9898 53.0236 22.8968 53.4615 22.34C53.896 21.7874 53.8493 20.8694 53.2515 20.4294L27.7204 0.273242C27.4214 0.0762294 27.1205 -0.00558431 26.8386 0.000294559ZM10.0838 18.0778L7.39635 20.1984V41.6563C7.39639 42.0126 7.53797 42.3544 7.78997 42.6064C8.04196 42.8584 8.38372 43 8.7401 43H21.5056C21.862 43 22.2038 42.8584 22.4558 42.6064C22.7078 42.3544 22.8493 42.0126 22.8494 41.6563V33.5938C22.8494 31.3373 24.6241 29.5626 26.8806 29.5626C29.1371 29.5626 30.9118 31.3373 30.9118 33.5938V41.6563C30.9119 42.0126 31.0534 42.3544 31.3054 42.6064C31.5574 42.8584 31.8992 43 32.2556 43H45.0211C45.3775 43 45.7192 42.8584 45.9712 42.6064C46.2232 42.3544 46.3648 42.0126 46.3648 41.6563V20.1984L43.6774 18.0778V40.3125H33.5993V33.5938C33.5993 29.8949 30.5795 26.8751 26.8806 26.8751C23.1817 26.8751 20.1619 29.8949 20.1619 33.5938V40.3125H10.0838V18.0778Z" fill="white"/>
</svg>
