<svg width="36" height="36" viewBox="0 0 36 36" fill="none" xmlns="http://www.w3.org/2000/svg">
<path d="M36 6.30879C36 6.18948 35.9525 6.075 35.8682 5.99062L30.0094 0.131836C29.8406 -0.0369141 29.5418 -0.0369141 29.373 0.131836L23.8457 5.65939L18.3182 0.131836C18.1424 -0.0439453 17.8576 -0.0439453 17.6818 0.131836L12.1543 5.65939L6.62695 0.131836C6.4582 -0.0369141 6.15937 -0.0369141 5.99062 0.131836L0.131836 5.99062C0.0474609 6.075 0 6.18948 0 6.30879C0 6.4281 0.0474609 6.54258 0.131836 6.62695L5.65939 12.1543L0.131836 17.6818C-0.0439453 17.8576 -0.0439453 18.1424 0.131836 18.3182L5.65939 23.8457L0.131836 29.373C0.047461 29.4574 0 29.5719 0 29.6912C0 29.8105 0.0474609 29.925 0.131836 30.0094L5.99062 35.8682C6.075 35.9525 6.18948 36 6.30879 36C6.4281 36 6.54258 35.9525 6.62695 35.8682L12.1543 30.3406L17.6818 35.8682C17.7697 35.9561 17.8849 36 18 36C18.1151 36 18.2303 35.9561 18.3182 35.8682L23.8457 30.3406L29.373 35.8682C29.4574 35.9525 29.5719 36 29.6912 36C29.8105 36 29.925 35.9525 30.0094 35.8682L35.8682 30.0094C35.9525 29.925 36 29.8105 36 29.6912C36 29.5719 35.9525 29.4574 35.8682 29.373L30.3406 23.8457L35.8682 18.3182C36.0439 18.1424 36.0439 17.8576 35.8682 17.6818L30.3406 12.1543L35.8682 6.62695C35.9525 6.54258 36 6.4281 36 6.30879ZM23.8457 29.0418L18.6494 23.8457L23.8457 18.6494L29.0418 23.8457L23.8457 29.0418ZM12.1543 29.0418L6.95819 23.8457L12.1543 18.6494L17.3506 23.8457L12.1543 29.0418ZM12.1543 6.95819L17.3506 12.1543L12.1543 17.3506L6.95819 12.1543L12.1543 6.95819ZM18 23.2225L12.7775 18L18 12.7775L23.2225 18L18 23.2225ZM23.8457 17.3506L18.6494 12.1543L23.8457 6.95819L29.0418 12.1543L23.8457 17.3506ZM18 1.08633L23.2225 6.30879L18 11.531L12.7775 6.30879L18 1.08633ZM6.30879 1.08633L11.531 6.30879L6.30879 11.531L1.08633 6.30879L6.30879 1.08633ZM6.30879 12.7775L11.531 18L6.30879 23.2225L1.08633 18L6.30879 12.7775ZM6.30879 34.9137L1.08633 29.6912L6.30879 24.469L11.531 29.6912L6.30879 34.9137ZM18 34.9137L12.7775 29.6912L18 24.469L23.2225 29.6912L18 34.9137ZM29.6912 34.9137L24.469 29.6912L29.6912 24.469L34.9137 29.6912L29.6912 34.9137ZM29.6912 23.2225L24.469 18L29.6912 12.7775L34.9137 18L29.6912 23.2225ZM29.6912 11.531L24.469 6.30879L29.6912 1.08633L34.9137 6.30879L29.6912 11.531Z" fill="white"/>
</svg>
