<svg width="36" height="36" viewBox="0 0 36 36" fill="none" xmlns="http://www.w3.org/2000/svg">
<path d="M35.4375 25.875H26.4375V22.5H32.625C32.9625 22.5 33.1875 22.275 33.1875 21.9375V17.4375C33.1875 17.1 32.9625 16.875 32.625 16.875H25.3125V12.9375C25.3125 12.6 25.0875 12.375 24.75 12.375H16.3125V12.3187V8.4375C16.3125 8.1 16.0875 7.875 15.75 7.875H12.375V3.9375C12.375 3.6 12.15 3.375 11.8125 3.375H6.75C6.75 1.51875 5.23125 0 3.375 0H0.5625C0.225 0 0 0.225 0 0.5625V35.4375C0 35.775 0.225 36 0.5625 36H35.4375C35.775 36 36 35.775 36 35.4375V26.4375C36 26.1 35.775 25.875 35.4375 25.875ZM34.875 30.375H29.25V27H34.875V30.375ZM28.125 30.375H25.875V28.125C25.875 27.9562 25.875 27.7875 25.8188 27.6187C25.8188 27.5625 25.8188 27.5063 25.8188 27.45C25.8188 27.3937 25.7625 27.225 25.7625 27.1125C25.7625 27 25.7625 27.0562 25.7625 27H28.125V30.375ZM25.3125 25.875L25.2 25.7625C25.1437 25.65 25.0875 25.5938 25.0312 25.4812L24.8625 25.3125L24.75 25.2C24.525 24.9187 24.1875 24.6375 23.9062 24.4688H23.85C23.5125 24.2437 23.175 24.075 22.8375 23.9625L22.6687 23.9062L22.3875 23.85L22.1062 23.7937L21.9375 23.6812C21.7687 23.6812 21.5438 23.625 21.375 23.625H19.6875V22.5H25.3125V25.875ZM18.0562 23.1187C17.9437 23.0625 17.8312 22.95 17.7188 22.8375L17.6625 22.7812C17.55 22.6688 17.4938 22.6125 17.3813 22.5H18.5063V23.4C18.3938 23.3438 18.225 23.2875 18.1125 23.175L18.0562 23.1187ZM18 18H20.8125V21.375H16.9312C16.875 21.2062 16.875 20.9813 16.875 20.8125V18H18ZM32.0625 21.375H21.9375V18H32.0625V21.375ZM24.1875 16.875H18.5625V13.5H24.1875V16.875ZM16.7625 13.5H17.4375V16.875H16.875V14.625C16.875 14.4563 16.875 14.2312 16.875 14.0625C16.875 14.0063 16.875 13.95 16.875 13.8938C16.875 13.8375 16.8188 13.6687 16.7625 13.5ZM15.1875 10.8562L15.075 10.7438L14.9625 10.6875L14.6812 10.4625L14.5687 10.4062L14.2875 10.2375L14.175 10.125L13.8938 10.0125L13.725 9.95625L13.4437 9.84375L13.275 9.7875L12.9938 9.73125L12.7688 9.675L12.4875 9.61875H12.3187C12.15 9.61875 11.9812 9.61875 11.8125 9.61875H9.5625V9H15.1875V10.8562ZM7.875 9H8.4375V9.3375C8.2125 9.225 8.04375 9.1125 7.875 9ZM11.25 4.5V7.875H6.975C6.91875 7.7625 6.91875 7.70625 6.8625 7.59375C6.80625 7.48125 6.80625 7.425 6.75 7.3125C6.75 7.14375 6.75 6.91875 6.75 6.75V4.5H11.25ZM1.125 34.875V1.125H3.375C4.6125 1.125 5.625 2.1375 5.625 3.375V6.75C5.625 6.91875 5.625 7.0875 5.68125 7.2C5.68125 7.25625 5.68125 7.3125 5.68125 7.36875C5.68125 7.425 5.7375 7.59375 5.7375 7.70625L5.79375 7.875C5.85 7.9875 5.85 8.15625 5.90625 8.26875V8.325C5.9625 8.49375 6.01875 8.60625 6.13125 8.775C6.69375 9.7875 7.70625 10.4625 8.8875 10.6875C9.1125 10.7437 9.3375 10.7438 9.61875 10.8H11.8688C12.0375 10.8 12.2063 10.8 12.375 10.8562H12.4875L12.825 10.9125L12.9375 10.9688C13.1062 11.025 13.2188 11.0812 13.3875 11.1375L13.4437 11.1937C13.5562 11.25 13.6687 11.3063 13.7812 11.3625L13.95 11.475L14.175 11.6438L14.3438 11.7562C14.4563 11.8687 14.5688 11.925 14.625 12.0375L14.7375 12.15C14.7938 12.2063 14.9062 12.3188 14.9625 12.4313L15.075 12.5437C15.1875 12.6562 15.2437 12.825 15.3562 12.9375C15.4688 13.1625 15.5812 13.3313 15.6375 13.5563L15.6938 13.6687C15.6938 13.725 15.75 13.7812 15.75 13.8938C15.75 13.95 15.8062 14.0063 15.8062 14.0625C15.8062 14.1187 15.8063 14.2312 15.8625 14.2875C15.9188 14.3438 15.8625 14.4 15.8625 14.4563C15.8625 14.5125 15.8625 14.7375 15.8625 14.85V20.8125C15.8625 21.0375 15.8625 21.2062 15.9187 21.4312C15.9187 21.4312 15.9187 21.4875 15.9187 21.5437C15.975 21.7687 16.0312 21.9375 16.0875 22.1625C16.1437 22.3313 16.2 22.4438 16.2563 22.6125V22.6687C16.3125 22.8375 16.425 22.95 16.5375 23.1187L16.5938 23.175C16.65 23.2875 16.7625 23.4 16.8188 23.4563L16.9312 23.5688C16.9875 23.6813 17.1 23.7375 17.2125 23.7937L17.2688 23.85C17.3813 23.9625 17.4938 24.0188 17.6625 24.1313L17.775 24.1875C17.8875 24.2437 18 24.3 18.1125 24.3562L18.225 24.4125C18.5063 24.525 18.8438 24.6375 19.1812 24.6938C19.1812 24.75 19.4625 24.75 19.6875 24.75H21.375C21.5438 24.75 21.6562 24.75 21.825 24.75H21.9375L22.2188 24.8062L22.3875 24.8625C22.5 24.9188 22.6125 24.9188 22.725 24.975L22.95 25.0875L23.0625 25.1438C23.2875 25.2563 23.5125 25.425 23.7375 25.65L23.85 25.7625L24.0188 25.9312C24.075 26.0437 24.1875 26.1 24.2437 26.2125V26.2688C24.3 26.3813 24.4125 26.4938 24.4688 26.6625V26.7188C24.525 26.775 24.525 26.8875 24.5813 26.9438L24.6375 27.0562C24.6375 27.1125 24.6938 27.1688 24.6938 27.225C24.6938 27.2812 24.6938 27.3375 24.75 27.3938C24.8062 27.45 24.75 27.5063 24.8062 27.5625C24.8625 27.6187 24.8062 27.675 24.8062 27.7312C24.8625 27.8438 24.8625 28.0125 24.8625 28.125V33.1875C24.8625 33.3563 24.8625 33.525 24.9187 33.6938C24.9187 33.75 24.9188 33.8062 24.975 33.8625C25.0312 33.975 25.0312 34.0875 25.0875 34.2L25.1438 34.3687C25.2 34.4813 25.2563 34.5938 25.3125 34.65L25.425 34.8188L25.3125 34.875H1.125ZM34.875 34.875H27.5625C26.6063 34.875 25.875 34.1437 25.875 33.1875V31.5H34.875V34.875Z" fill="white"/>
</svg>
