<svg width="53" height="56" viewBox="0 0 53 56" fill="none" xmlns="http://www.w3.org/2000/svg">
<path d="M52.3059 20.0896H39.1474V18.4472H48.9925H51.87C52.2537 18.4472 52.5641 18.1351 52.5641 17.7501C52.5641 17.3652 52.2537 17.053 51.87 17.053H48.9925H26.3075H21.6032V6.21023H22.3258C22.7094 6.21023 23.0199 5.8981 23.0199 5.51313V0.697098C23.0199 0.312128 22.7094 0 22.3258 0H4.23523C3.85156 0 3.54111 0.312128 3.54111 0.697098V5.51313C3.54111 5.8981 3.85156 6.21023 4.23523 6.21023H4.9585V14.1445C4.9585 14.5295 5.26895 14.8416 5.65262 14.8416C6.03628 14.8416 6.34674 14.5295 6.34674 14.1445V6.21023H20.2149V17.053H5.65262H0.694122C0.310457 17.053 0 17.3652 0 17.7501V25.3753V35.7886V46.2022C0 46.5871 0.310457 46.8993 0.694122 46.8993C1.36587 46.8993 2.22268 47.6709 2.47145 47.9425C2.47408 47.9454 2.47785 47.9462 2.48052 47.949C2.48365 47.9524 2.4845 47.9569 2.48772 47.9602C2.69887 48.1773 2.94845 48.3701 3.22184 48.5447V55.3029C3.22184 55.6879 3.53229 56 3.91596 56C4.29962 56 4.61008 55.6879 4.61008 55.3029V49.1686C5.32517 49.3862 6.12839 49.5073 6.9907 49.5073C8.968 49.5073 10.6152 48.9375 11.5099 47.9435C11.5152 47.9378 11.5163 47.9302 11.5213 47.9243C11.8412 47.5787 12.662 46.8993 13.2805 46.8993C13.9523 46.8993 14.8091 47.6709 15.0578 47.9425C15.0605 47.9454 15.0642 47.9462 15.0669 47.949C15.07 47.9524 15.0709 47.9569 15.0741 47.9602C16.0306 48.9432 17.6716 49.5073 19.5771 49.5073C21.5544 49.5073 23.2016 48.9375 24.0963 47.9435C24.1015 47.9378 24.1027 47.9302 24.1077 47.9243C24.4275 47.5787 25.2484 46.8993 25.8669 46.8993C26.1759 46.8993 26.4286 46.6932 26.5186 46.4132H50.0683C50.4519 46.4132 50.7624 46.1011 50.7624 45.7161C50.7624 45.3311 50.4519 45.019 50.0683 45.019H26.561V43.3767H51.304C51.6877 43.3767 51.9981 43.0645 51.9981 42.6796C51.9981 42.2946 51.6877 41.9825 51.304 41.9825H47.8978V34.3158H50.0683C50.4519 34.3158 50.7624 34.0036 50.7624 33.6187C50.7624 33.2337 50.4519 32.9216 50.0683 32.9216H29.204C28.8203 32.9216 28.5098 33.2337 28.5098 33.6187C28.5098 34.0036 28.8203 34.3158 29.204 34.3158H32.7152V41.9825H26.561V35.7886V31.2789H51.527C51.9107 31.2789 52.2211 30.9668 52.2211 30.5818C52.2211 30.1968 51.9107 29.8847 51.527 29.8847H47.8978V21.4838H52.3059C52.6895 21.4838 53 21.1716 53 20.7867C53 20.4017 52.6895 20.0896 52.3059 20.0896ZM5.65262 4.81604H4.92935V1.3942H21.6317V4.81604H20.9091H5.65262ZM37.4372 41.9825V34.3158H43.1759V41.9825H37.4372ZM46.5096 41.9825H44.5641V34.3158H46.5096V41.9825ZM34.1035 34.3158H36.0489V41.9825H34.1035V34.3158ZM35.6503 26.1773C35.6463 26.1817 35.6454 26.1876 35.6414 26.1922C35.0154 26.877 33.7178 27.2862 32.1635 27.2862C30.6519 27.2862 29.3402 26.8648 28.6542 26.1592C28.6535 26.1585 28.6526 26.1583 28.6519 26.1576C28.4992 25.9912 27.6336 25.1012 26.561 24.7915V18.4472H37.6988V24.8105C36.6251 25.1454 35.7636 26.0521 35.6503 26.1773ZM23.064 36.5909C23.0597 36.5955 23.0588 36.6017 23.0547 36.6064C22.4276 37.291 21.13 37.6998 19.5771 37.6998C18.0661 37.6998 16.7538 37.2784 16.0672 36.5728C16.067 36.5727 16.0673 36.5729 16.0672 36.5728C15.9168 36.4088 15.0492 35.5151 13.9746 35.2047V26.2817C14.4495 26.53 14.8909 26.9334 15.0578 27.1157C15.0605 27.1186 15.0642 27.1194 15.0669 27.1222C15.07 27.1256 15.0709 27.1301 15.0741 27.1334C16.0306 28.1164 17.6716 28.6804 19.5771 28.6804C21.5544 28.6804 23.2016 28.1106 24.0963 27.1167C24.1015 27.1109 24.1027 27.1034 24.1077 27.0974C24.3156 26.8728 24.7339 26.5111 25.1728 26.2822V35.2048C24.0707 35.5233 23.1794 36.4634 23.064 36.5909ZM10.4776 36.5909C10.4733 36.5955 10.4724 36.6017 10.4683 36.6064C9.8412 37.291 8.54362 37.6998 6.9907 37.6998C5.47977 37.6998 4.16744 37.2784 3.48078 36.5728C3.48065 36.5727 3.4809 36.5729 3.48078 36.5728C3.33042 36.4088 2.46281 35.5151 1.38824 35.2047V26.2817C1.86312 26.53 2.30453 26.9334 2.47145 27.1157C2.47408 27.1186 2.47785 27.1194 2.48052 27.1222C2.48365 27.1256 2.4845 27.1301 2.48772 27.1334C3.44417 28.1164 5.08526 28.6804 6.9907 28.6804C8.968 28.6804 10.6152 28.1106 11.5099 27.1167C11.5152 27.1109 11.5163 27.1034 11.5213 27.0974C11.7292 26.8728 12.1475 26.5111 12.5864 26.2822V35.2048C11.4844 35.5233 10.593 36.4634 10.4776 36.5909ZM20.9091 18.4472H25.1728V24.7916C24.0707 25.11 23.1794 26.0498 23.064 26.1773C23.0599 26.1817 23.059 26.1876 23.0551 26.1922C22.429 26.877 21.1314 27.2862 19.5771 27.2862C18.0655 27.2862 16.7538 26.8648 16.0678 26.1592C16.0672 26.1585 16.0662 26.1583 16.0655 26.1576C15.9127 25.9912 15.0472 25.1012 13.9746 24.7915V18.4472H20.9091ZM5.65262 18.4472H12.5864V24.7916C11.4844 25.11 10.593 26.0498 10.4776 26.1773C10.4735 26.1817 10.4726 26.1876 10.4687 26.1922C9.84264 26.877 8.54506 27.2862 6.9907 27.2862C5.47909 27.2862 4.16744 26.8648 3.48145 26.1592C3.48078 26.1585 3.47985 26.1583 3.47917 26.1576C3.3264 25.9912 2.46082 25.1012 1.38824 24.7915V18.4472H5.65262ZM4.18676 47.4997C4.18651 47.4996 4.18625 47.4994 4.186 47.4993C3.91083 47.3509 3.67049 47.1805 3.48145 46.9861C3.48078 46.9854 3.47985 46.9852 3.47917 46.9845C3.3264 46.818 2.46082 45.928 1.38824 45.6183V36.695C1.86388 36.9437 2.30601 37.3481 2.47213 37.53C2.47497 37.5331 2.47908 37.534 2.48196 37.537C2.48476 37.54 2.48552 37.544 2.4884 37.547C3.44417 38.53 5.08526 39.094 6.9907 39.094C8.968 39.094 10.6152 38.5242 11.5093 37.5306C11.514 37.5254 11.5151 37.5184 11.5197 37.5131C11.6951 37.3248 12.1233 36.9376 12.5864 36.6952V45.6184C11.4844 45.9369 10.593 46.8766 10.4776 47.0041C10.4735 47.0086 10.4726 47.0145 10.4687 47.019C9.84264 47.7039 8.54506 48.1131 6.9907 48.1131C5.89601 48.1131 4.91003 47.8896 4.18676 47.4997ZM16.0678 46.9861C16.0672 46.9854 16.0662 46.9852 16.0655 46.9845C15.9127 46.818 15.0472 45.928 13.9746 45.6183V36.695C14.4503 36.9437 14.8924 37.3481 15.0585 37.53C15.0614 37.5331 15.0655 37.534 15.0683 37.537C15.0711 37.54 15.0719 37.544 15.0748 37.547C16.0306 38.53 17.6716 39.094 19.5771 39.094C21.5544 39.094 23.2016 38.5242 24.0957 37.5306C24.1004 37.5254 24.1015 37.5184 24.1061 37.5131C24.2815 37.3248 24.7097 36.9376 25.1728 36.6952V45.6184C24.0707 45.9369 23.1794 46.8766 23.064 47.0041C23.0599 47.0086 23.059 47.0145 23.0551 47.019C22.429 47.7039 21.1314 48.1131 19.5771 48.1131C18.0655 48.1131 16.7538 47.6917 16.0678 46.9861ZM46.5096 29.8847H37.4372V29.6083C37.4372 29.2233 37.1267 28.9112 36.743 28.9112C36.3594 28.9112 36.0489 29.2233 36.0489 29.6083V29.8847H26.561V26.2817C27.0359 26.53 27.4773 26.9334 27.6442 27.1157C27.6468 27.1186 27.6506 27.1194 27.6533 27.1222C27.6564 27.1256 27.6573 27.1301 27.6605 27.1334C28.6169 28.1164 30.258 28.6804 32.1635 28.6804C34.1408 28.6804 35.7879 28.1106 36.6827 27.1167C36.6879 27.1109 36.6891 27.1034 36.6941 27.0974C37.0139 26.7518 37.8348 26.0724 38.4533 26.0724C38.8369 26.0724 39.1474 25.7603 39.1474 25.3753V21.4838H43.1759V27.3148C43.1759 27.6998 43.4863 28.0119 43.87 28.0119C44.2537 28.0119 44.5641 27.6998 44.5641 27.3148V21.4838H46.5096V29.8847Z" fill="white"/>
</svg>
