<svg width="42" height="33" viewBox="0 0 42 33" fill="none" xmlns="http://www.w3.org/2000/svg">
<path d="M41.3033 17.2026C41.688 17.2026 42 16.8879 42 16.5V11.2342C42 10.8462 41.688 10.5316 41.3033 10.5316H33.8787V5.96838C33.8787 5.58044 33.5667 5.26581 33.182 5.26581H25.7574V0.702578C25.7574 0.314635 25.4454 0 25.0607 0H8.81797C8.43328 0 8.12129 0.314635 8.12129 0.702578V3.33548C8.12129 3.72343 8.43328 4.03806 8.81797 4.03806C9.20266 4.03806 9.51465 3.72343 9.51465 3.33548V1.40516H24.3641V5.26581H16.9393H7.04167C6.65698 5.26581 6.34499 5.58044 6.34499 5.96838C6.34499 6.35633 6.65698 6.67096 7.04167 6.67096H16.2426V10.5316H11.5448C11.1601 10.5316 10.8481 10.8462 10.8481 11.2342C10.8481 11.6221 11.1601 11.9368 11.5448 11.9368H16.9393H25.0607H33.182H40.6066V15.7974H33.182H25.7574V13.8671C25.7574 13.4792 25.4454 13.1645 25.0607 13.1645C24.6761 13.1645 24.3641 13.4792 24.3641 13.8671V15.7974H16.9393H9.51465V11.2342C9.51465 10.8462 9.20266 10.5316 8.81797 10.5316H1.39336V6.67096H1.94076C2.32545 6.67096 2.63744 6.35633 2.63744 5.96838C2.63744 5.58044 2.32545 5.26581 1.94076 5.26581H0.696683C0.311994 5.26581 0 5.58044 0 5.96838V11.2342C0 11.6221 0.311994 11.9368 0.696683 11.9368H8.12129V16.5C8.12129 16.8879 8.43328 17.2026 8.81797 17.2026H16.2426V21.0632H8.81797C8.43328 21.0632 8.12129 21.3779 8.12129 21.7658V26.329H0.696683C0.311994 26.329 0 26.6437 0 27.0316V32.2974C0 32.6854 0.311994 33 0.696683 33H16.9393H19.6562C20.0409 33 20.3529 32.6854 20.3529 32.2974C20.3529 31.9095 20.0409 31.5948 19.6562 31.5948H17.6359V27.7342H25.0607H32.4853V31.5948H25.0605C24.6759 31.5948 24.3639 31.9095 24.3639 32.2974C24.3639 32.6854 24.6759 33 25.0605 33H33.182C33.5667 33 33.8787 32.6854 33.8787 32.2974V27.7342H41.3033C41.688 27.7342 42 27.4196 42 27.0316V21.7658C42 21.3779 41.688 21.0632 41.3033 21.0632H33.8787V17.2026H41.3033ZM25.0607 10.5316H17.6359V6.67096H32.4853V10.5316H25.0607ZM9.51465 22.4684H16.9393H24.3641V26.329H16.9393H9.51465V22.4684ZM16.2426 31.5948H1.39336V27.7342H8.81797H16.2426V31.5948ZM40.6066 26.329H33.182H25.7574V22.4684H33.182H40.6066V26.329ZM32.4853 21.0632H25.0607H17.6359V17.2026H25.0607H32.4853V21.0632ZM23.1896 32.2974C23.1896 32.6854 22.8776 33 22.4929 33H22.0452C21.6605 33 21.3485 32.6854 21.3485 32.2974C21.3485 31.9095 21.6605 31.5948 22.0452 31.5948H22.4929C22.8776 31.5948 23.1896 31.9095 23.1896 32.2974ZM3.78199 5.96838C3.78199 5.58044 4.09399 5.26581 4.47867 5.26581H4.75743C5.14211 5.26581 5.45411 5.58044 5.45411 5.96838C5.45411 6.35633 5.14211 6.67096 4.75743 6.67096H4.47867C4.09399 6.67096 3.78199 6.35633 3.78199 5.96838Z" fill="white"/>
</svg>
