<svg width="39" height="38" viewBox="0 0 39 38" fill="none" xmlns="http://www.w3.org/2000/svg">
<path d="M37.6398 34.8742C37.5785 34.5678 37.2721 34.3226 36.9656 34.3839C36.6592 34.4452 36.414 34.7516 36.4753 35.0581L36.7205 36.7129C36.1076 36.5903 35.6172 36.2839 35.3108 35.7936C34.7592 34.9968 33.7785 34.5065 32.7366 34.3226L31.756 24.5775C32.2463 24.7001 32.6753 25.0066 32.9205 25.4356C33.4721 26.2324 34.3301 26.784 35.3721 26.9065L36.1688 32.4226C36.2914 32.9129 36.843 32.9742 36.843 32.9129C37.1495 32.8517 37.3946 32.5452 37.3333 32.2388L33.1044 3.00351C32.9818 2.5132 32.4915 2.45191 32.4915 2.45191C31.9398 2.45191 31.3882 2.08417 31.0818 1.53256C30.1624 -0.060977 28.5689 0.000312702 28.5689 0.000312702C27.5883 0.000312702 26.6689 0.613211 26.1786 1.53256C25.9334 2.02288 25.5044 2.32933 25.0141 2.39062C24.7076 2.45191 24.4625 2.75835 24.5238 3.0648C24.5238 3.49383 24.8302 3.6777 25.198 3.61641C26.056 3.49383 26.7915 2.94222 27.2205 2.08417C27.4044 1.71643 27.7108 1.47127 28.0786 1.2874L29.0592 11.0325C28.2012 11.2163 27.527 11.7067 27.0367 12.5034C26.6689 13.055 26.056 13.4228 25.4431 13.4228C24.8302 13.4228 24.156 13.055 23.8496 12.5034C23.3593 11.7067 22.6238 11.2163 21.7657 11.0325L21.5206 1.40998C21.827 1.53256 22.0722 1.77772 22.3173 2.14546C22.5012 2.45191 22.8689 2.57449 23.1754 2.39062C23.4818 2.20675 23.6044 1.83901 23.4206 1.53256C22.9302 0.551921 22.0109 0.000312702 20.969 0.000312702C20.969 0.000312702 19.2529 0.0616025 18.5174 1.53256C18.2109 2.14546 17.6593 2.45191 17.1077 2.45191C16.5561 2.45191 16.0045 2.08417 15.698 1.53256C15.2077 0.551921 14.2884 0.000312702 13.2464 0.000312702C12.2045 0.000312702 11.2852 0.551921 10.7949 1.53256C10.4884 2.14546 9.9368 2.45191 9.38519 2.45191C8.83358 2.45191 8.28197 2.08417 7.97552 1.53256C7.48521 0.551921 6.50457 0.000312702 5.46264 0.000312702C5.21748 0.000312702 4.97232 0.245472 4.91103 0.490631C4.35943 4.2906 0.682037 30.0323 0.00784851 34.8742C-0.0534413 35.242 0.253008 35.5484 0.620747 35.5484C1.54009 35.5484 2.33686 35.9161 2.76589 36.529C3.44008 37.4484 4.60459 38 5.89167 38C7.17876 38 8.34326 37.4484 9.01745 36.529C9.44648 35.9161 10.2432 35.5484 11.1626 35.5484C12.0819 35.5484 12.8787 35.9161 13.3077 36.529C13.9819 37.4484 15.1464 38 16.4335 38C17.7206 38 18.8851 37.4484 19.5593 36.529C19.9883 35.9161 20.7851 35.5484 21.7044 35.5484C22.6238 35.5484 23.4206 35.9161 23.8496 36.529C24.5238 37.4484 25.6883 38 26.9754 38C28.2625 38 29.427 37.4484 30.1011 36.529C30.5302 35.9161 31.3269 35.5484 32.2463 35.5484C33.1656 35.5484 33.9624 35.9161 34.3914 36.529C35.0656 37.4484 36.2301 38 37.5172 38C37.885 38 38.1914 37.6323 38.1301 37.2645L37.6398 34.8742ZM29.9786 2.14546C30.4076 2.94222 31.0818 3.49383 31.9398 3.61641L33.3495 13.3002C32.9818 13.1776 32.6753 12.8712 32.4302 12.5034C31.9398 11.7067 31.2044 11.2163 30.285 11.0325L29.3044 1.40998C29.6108 1.59385 29.856 1.77772 29.9786 2.14546ZM13.7981 1.34869C14.1045 1.47127 14.411 1.77772 14.5948 2.14546C15.0851 3.12609 16.0045 3.6777 17.0464 3.6777C18.0883 3.6777 19.0077 3.12609 19.498 2.14546C19.6819 1.77772 19.9883 1.53256 20.2948 1.40998L20.4786 11.1551C19.6206 11.3389 18.8851 11.8292 18.4561 12.626C18.0883 13.1776 17.4754 13.5454 16.8625 13.5454C16.2497 13.5454 15.5755 13.1776 15.269 12.626C14.84 11.8292 14.1045 11.3389 13.2464 11.1551L13.7981 1.34869ZM6.01425 1.34869C6.38199 1.47127 6.68844 1.77772 6.87231 2.14546C7.36263 3.12609 8.28197 3.6777 9.3239 3.6777C10.3658 3.6777 11.2852 3.12609 11.7755 2.14546C11.9594 1.83901 12.2045 1.59385 12.511 1.40998L11.8981 11.0938C11.04 11.2776 10.3045 11.768 9.81422 12.5647C9.44648 13.1163 8.83358 13.4841 8.22068 13.4841C7.60779 13.4841 6.9336 13.1163 6.62715 12.5647C6.19812 11.8292 5.46264 11.2776 4.60458 11.0938L6.01425 1.34869ZM4.48201 12.3196C4.97232 12.4421 5.34006 12.7486 5.58522 13.1776C6.13683 14.1583 7.17876 14.7099 8.28197 14.7099C9.38519 14.7099 10.3658 14.1583 10.9787 13.1776C11.2239 12.8099 11.5303 12.5647 11.8981 12.3809L11.2239 23.3517C10.2432 23.4743 9.44648 24.0259 8.89487 24.8227C8.52713 25.4356 7.79166 25.8033 6.99489 25.8033C6.19812 25.8033 5.52393 25.4356 5.0949 24.8227C4.60459 24.0872 3.80782 23.5969 2.88847 23.413L4.48201 12.3196ZM18.5174 35.7936C18.0883 36.4065 17.2916 36.7742 16.3722 36.7742C15.4529 36.7742 14.6561 36.4065 14.2271 35.7936C13.6755 34.9968 12.7561 34.5065 11.7142 34.3839L12.0207 28.9291C12.0207 28.5614 11.7755 28.3162 11.469 28.2549C11.1626 28.2549 10.8561 28.5001 10.7949 28.8065L10.4271 34.3226C9.38519 34.4452 8.46584 34.9968 7.91424 35.7323C7.48521 36.3452 6.68844 36.7129 5.76909 36.7129C4.84974 36.7129 4.05298 36.3452 3.62395 35.7323C3.07234 34.9968 2.21428 34.4452 1.17236 34.3226L2.58202 24.5162C3.13363 24.6388 3.62395 24.9453 3.9304 25.4356C4.54329 26.3549 5.64651 26.9065 6.81102 26.9065C8.03681 26.9065 9.07874 26.3549 9.69164 25.4356C9.99809 25.0066 10.4271 24.7001 10.9174 24.5775L11.04 26.2936C11.04 26.9678 11.6529 26.9678 11.6529 26.9678C11.9594 26.9678 12.2658 26.7227 12.2658 26.4162L12.3884 24.5775C12.94 24.7001 13.4303 25.0066 13.7368 25.4969C14.3497 26.4162 15.4529 26.9678 16.6174 26.9678C17.8432 26.9678 18.8851 26.4162 19.498 25.4969C19.8045 25.0678 20.2335 24.7614 20.7851 24.6388L20.969 34.4452C19.9883 34.5065 19.069 35.0581 18.5174 35.7936ZM21.9496 21.7582C21.9496 21.4517 21.6432 21.1453 21.3367 21.1453C20.969 21.1453 20.7238 21.4517 20.7238 21.7582L20.7851 23.3517C19.8658 23.5356 19.0077 24.0259 18.5174 24.8227C18.1496 25.4356 17.4142 25.8033 16.6174 25.8033C15.8206 25.8033 15.1464 25.4356 14.7174 24.8227C14.2271 24.0259 13.369 23.5356 12.4497 23.413L13.1239 12.4421C13.5529 12.5647 13.9206 12.8712 14.1658 13.3002C14.7174 14.2808 15.7593 14.8324 16.8625 14.8324C17.9658 14.8324 18.9464 14.2808 19.5593 13.3002C19.8045 12.9325 20.1722 12.626 20.5399 12.5034L20.6625 19.0002C20.6625 19.3066 20.969 19.6131 21.2754 19.6131C21.2754 19.6131 21.8883 19.6743 21.8883 19.0002L21.7657 12.3809C22.1948 12.5034 22.5625 12.8099 22.7464 13.1776C23.298 14.1583 24.3399 14.7099 25.4431 14.7099C26.5463 14.7099 27.527 14.1583 28.1399 13.1776C28.385 12.7486 28.7528 12.4421 29.2431 12.3196L30.3463 23.3517C29.427 23.5356 28.5689 24.0259 28.0786 24.7614C27.7108 25.3743 26.9754 25.742 26.1786 25.742C25.3818 25.742 24.7076 25.3743 24.2786 24.7614C23.7883 23.9646 22.9302 23.4743 21.9496 23.2904V21.7582ZM28.9979 35.7936C28.5689 36.4065 27.7721 36.7742 26.8528 36.7742C25.9334 36.7742 25.1367 36.4065 24.7076 35.7936C24.156 34.9968 23.1754 34.5065 22.1335 34.3839L21.9496 24.6388C22.5012 24.7614 22.9302 25.0678 23.2367 25.4969C23.8496 26.4162 24.9528 26.9678 26.1173 26.9678C27.3431 26.9678 28.385 26.4162 28.9979 25.4969C29.3044 25.0678 29.7947 24.7001 30.3463 24.5775L31.3269 34.3839C30.4689 34.5678 29.5495 35.0581 28.9979 35.7936ZM30.4076 12.3809C30.7753 12.5034 31.1431 12.8099 31.3269 13.1776C31.8173 13.9744 32.614 14.526 33.4721 14.6486L35.0656 25.6195C34.5753 25.4969 34.1463 25.1904 33.8398 24.7614C33.3495 23.9646 32.4915 23.4743 31.5108 23.2904L30.4076 12.3809Z" fill="white"/>
<path d="M4.29792 26.9679C3.99147 26.9066 3.62373 27.1518 3.62373 27.5195L3.13341 31.1969C3.07212 31.5033 3.31728 31.8711 3.68502 31.8711C3.68502 31.8711 4.29792 31.8711 4.35921 31.3195L4.84952 27.6421C4.84952 27.3356 4.60437 27.0292 4.29792 26.9679Z" fill="white"/>
<path d="M5.46174 22.7388L6.44238 15.384C6.50367 15.0776 6.25851 14.7098 5.89077 14.7098C5.58432 14.6485 5.21659 14.8937 5.21659 15.2614L4.23595 22.6162C4.17466 22.9227 4.41982 23.2904 4.78756 23.2904C4.78756 23.2904 5.33917 23.2904 5.46174 22.7388Z" fill="white"/>
<path d="M7.11702 10.4806L7.79121 5.57737C7.8525 5.27092 7.60734 4.90318 7.2396 4.90318C6.93315 4.8419 6.56541 5.08705 6.56541 5.45479L5.89122 10.358C5.82993 10.6644 6.07509 11.0322 6.44283 11.0322C6.50412 11.0322 6.99444 11.0935 7.11702 10.4806Z" fill="white"/>
</svg>
