<svg width="68" height="30" viewBox="0 0 68 30" fill="none" xmlns="http://www.w3.org/2000/svg">
<path d="M66.4095 22.0266C65.593 18.4916 65.1507 16.5895 64.853 15.5646V15.5559C64.8275 15.4343 64.802 15.304 64.7765 15.1737H64.8105C64.8105 14.6178 64.6744 14.0967 64.4618 13.6364C63.6198 9.37174 62.6416 3.47423 62.6161 3.32658C62.6161 1.49392 61.3573 0 59.8179 0C58.4911 0 57.3769 1.10307 57.0877 2.57962H48.6164C48.3272 1.10307 47.2215 0 45.8947 0C44.5764 0 43.4622 1.10307 43.1815 2.57962H34.6932C34.404 1.10307 33.2983 0 31.9715 0C30.6532 0 29.539 1.10307 29.2583 2.57962H20.77C20.4808 1.10307 19.3751 0 18.0483 0C16.73 0 15.6158 1.10307 15.3351 2.57962H6.19187C6.16635 2.57962 6.14084 2.59699 6.11532 2.59699C6.0728 2.60567 6.03877 2.60567 6.00475 2.62304C5.93671 2.64041 5.88568 2.66647 5.82614 2.70121C5.80913 2.7099 5.79212 2.72727 5.77511 2.73596C5.71557 2.77938 5.66454 2.8315 5.62201 2.90098C5.61351 2.91836 5.605 2.92704 5.5965 2.94441C5.55397 3.0139 5.52845 3.08338 5.51144 3.16155C5.51144 3.17024 5.50294 3.18761 5.49443 3.19629L3.32558 14.9392C3.30857 14.9913 3.26604 15.0347 3.25754 15.0955L0.0510322 28.9577C0.017011 29.0359 0 29.1314 0 29.2183C0 29.6352 0.331708 29.9653 0.731458 29.9653H12.4433C12.8515 29.9653 13.1747 29.6265 13.1747 29.2183C13.1747 28.2455 13.9487 27.4551 14.9013 27.4551C15.8454 27.4551 16.6194 28.2368 16.6279 29.1922C16.6279 29.2009 16.6279 29.2009 16.6279 29.2096V29.2183C16.6279 29.227 16.6279 29.227 16.6279 29.2357C16.6279 29.2704 16.6279 29.3138 16.6364 29.3486C16.6449 29.3833 16.6619 29.4094 16.6704 29.4441C16.6789 29.4789 16.6959 29.5223 16.7129 29.557C16.7385 29.6091 16.764 29.6526 16.798 29.6873C16.8235 29.7134 16.8405 29.7481 16.866 29.7742C16.9086 29.8176 16.9596 29.8437 17.0106 29.8697C17.0361 29.8871 17.0617 29.9045 17.0872 29.9218C17.1722 29.9566 17.2658 29.9739 17.3593 29.9739H29.0712C29.4794 29.9739 29.8026 29.6352 29.8026 29.227C29.8026 28.2542 30.5766 27.4638 31.5292 27.4638C32.4818 27.4638 33.2558 28.2542 33.2558 29.227C33.2558 29.2878 33.2728 29.3399 33.2898 29.392C33.2983 29.4354 33.2983 29.4789 33.3153 29.5136C33.3323 29.557 33.3664 29.5831 33.3919 29.6265C33.4174 29.6699 33.4429 29.7221 33.4769 29.7568C33.5024 29.7742 33.528 29.7915 33.5535 29.8089C33.6045 29.8523 33.6555 29.8958 33.7151 29.9218C33.8001 29.9566 33.9022 29.9826 33.9957 29.9826H45.7076C46.1158 29.9826 46.439 29.6439 46.439 29.2357C46.439 28.2629 47.213 27.4725 48.1656 27.4725C48.9651 27.4725 49.6455 28.0371 49.8411 28.7927C49.8837 29.1488 49.9092 29.3573 49.9092 29.366C49.9177 29.4007 49.9347 29.4268 49.9432 29.4615C49.9517 29.4962 49.9687 29.5397 49.9857 29.5744C50.0113 29.6265 50.0368 29.67 50.0708 29.7047C50.0963 29.7308 50.1133 29.7655 50.1388 29.7915C50.1814 29.835 50.2324 29.861 50.2834 29.8871C50.3089 29.9045 50.3345 29.9218 50.36 29.9392C50.445 29.9739 50.5386 29.9913 50.6321 29.9913H62.344C62.7522 29.9913 63.0754 29.6526 63.0754 29.2444C63.0754 28.2716 63.8494 27.4812 64.802 27.4812C65.4484 27.4812 66.0183 27.846 66.3159 28.3932C66.4605 29.0098 66.5456 29.3746 66.5456 29.3746C66.6051 29.7394 66.9113 30 67.2685 30C67.2856 30 67.3111 30 67.3281 30C67.7108 29.9653 68 29.6439 68 29.253C68 28.7666 67.8894 28.2976 67.7023 27.8807L66.4095 22.0266ZM6.81276 4.08222H15.99C16.3982 4.08222 16.7214 3.74349 16.7214 3.33526C16.7214 2.34511 17.3253 1.51129 18.0398 1.51129C18.7627 1.51129 19.3751 2.34511 19.3751 3.26578L18.5331 12.5072C18.0398 12.099 17.4359 11.8471 16.781 11.8471C15.3776 11.8471 14.2039 12.9502 13.8977 14.4354H4.91607L6.81276 4.08222ZM17.4699 22.1135L16.9426 26.6995C16.3897 26.2391 15.6923 25.9699 14.9268 25.9699C13.4129 25.9699 12.1456 27.0469 11.8139 28.4887H1.67555L4.52483 16.1552C4.56735 16.0857 4.60138 16.0162 4.62689 15.938H14.5611C14.9694 15.938 15.2926 15.5993 15.2926 15.1911C15.2926 14.1749 15.9645 13.3584 16.781 13.3584C17.606 13.3584 18.2694 14.1836 18.2694 15.1911V15.1998L17.9207 18.231C17.8016 19.2212 17.657 20.498 17.4699 22.1135ZM33.2983 26.4823C32.7965 26.1523 32.2011 25.9612 31.5717 25.9612C30.0578 25.9612 28.7905 27.0382 28.4588 28.48H18.2184L19.6643 15.9554C19.6643 15.9467 19.6728 15.938 19.6728 15.9207H29.5815C29.9897 15.9207 30.3129 15.5819 30.3129 15.1737C30.3129 14.1575 30.9849 13.3411 31.8014 13.3411C32.6264 13.3411 33.2898 14.1662 33.2898 15.1737V26.4823H33.2983ZM33.2983 12.3162C32.856 12.0208 32.3542 11.8471 31.8099 11.8471C30.4065 11.8471 29.2328 12.9502 28.9266 14.4354H19.8344L20.7785 4.09091H29.9132C30.3214 4.09091 30.6446 3.75217 30.6446 3.34395C30.6446 2.35379 31.2485 1.51998 31.963 1.51998C32.6859 1.51998 33.2983 2.35379 33.2983 3.34395V12.3162ZM34.7612 4.08222H43.8279C44.2361 4.08222 44.5593 3.74349 44.5593 3.33526C44.5593 2.32774 45.1547 1.51129 45.8777 1.51129C46.6006 1.51129 47.213 2.34511 47.213 3.40475L48.004 12.1338C47.6383 11.9514 47.2385 11.8471 46.8133 11.8471C45.4099 11.8471 44.2361 12.9502 43.93 14.4354H34.7612V4.08222ZM48.2081 25.9612C46.6942 25.9612 45.4269 27.0382 45.0952 28.48H34.7697V15.9294H44.6019C45.0101 15.9294 45.3333 15.5906 45.3333 15.1824C45.3333 14.1662 46.0053 13.3497 46.8218 13.3497C47.5702 13.3497 48.1741 14.0533 48.2762 15.0087L48.3442 15.7904C48.3527 15.8512 48.3782 15.912 48.3952 15.9728C48.6079 17.8228 49.2033 22.9473 49.586 26.2913C49.1777 26.0741 48.7099 25.9612 48.2081 25.9612ZM49.7051 14.4268L48.761 4.08222H57.7426C58.1508 4.08222 58.474 3.74349 58.474 3.33526C58.474 2.34511 59.0864 1.51129 59.8094 1.51129C60.5323 1.51129 61.1447 2.34511 61.1447 3.33526C61.1447 3.53503 61.9187 8.08628 62.6502 11.9861C62.395 11.9079 62.1313 11.8471 61.8507 11.8471C60.4473 11.8471 59.2735 12.9502 58.9674 14.4354L49.7051 14.4268ZM64.853 25.9612C63.3391 25.9612 62.0718 27.0382 61.7401 28.48H51.3296L49.8752 15.9294H59.6138C60.022 15.9294 60.3452 15.5906 60.3452 15.1824C60.3452 14.1662 61.0171 13.3497 61.8336 13.3497C62.3525 13.3497 62.7862 13.6972 63.0584 14.2009C63.186 14.8263 63.2966 15.4082 63.4071 15.8946C63.4326 15.9988 63.4752 16.0857 63.5347 16.1639C63.9685 18.0486 65.0827 22.8691 65.8396 26.1349C65.5335 26.022 65.2017 25.9612 64.853 25.9612Z" fill="white"/>
</svg>
