<svg width="51" height="51" viewBox="0 0 51 51" fill="none" xmlns="http://www.w3.org/2000/svg">
<path d="M51 28.1027L44.8473 27.5484C43.6833 24.9986 41.6878 22.726 38.9717 20.9522C38.75 18.9013 39.0826 16.8504 39.914 14.7441L40.3575 13.6909L39.2489 14.0235C36.9208 14.7441 35.0917 16.2407 33.8168 18.4579C31.267 17.6264 28.6064 17.183 25.7795 17.183C15.3587 17.2384 6.71162 23.2803 5.76931 31.0404C4.05099 30.985 2.88697 30.6524 2.16638 29.8764C1.44579 29.1004 1.11321 27.9918 1.11321 26.4398C1.11321 26.1072 0.891495 25.8855 0.558917 25.8855C0.281768 25.8855 0.00461915 26.1072 0.00461915 26.4398C-0.0508106 28.3244 0.392628 29.7101 1.33493 30.6524C2.49896 31.8165 4.16185 32.0936 5.65845 32.149C5.65845 32.2599 5.65845 32.3707 5.65845 32.4816C5.65845 36.3617 7.5985 40.0201 11.0906 42.847L11.8112 50.8843H19.0725L19.405 46.8933C21.4559 47.3922 23.6177 47.7248 25.8349 47.7248C28.0521 47.7248 30.1584 47.4476 32.2647 46.8933L32.5973 50.8843H39.8586L40.5792 42.847C41.9095 41.7384 43.0181 40.5189 43.905 39.1886L51 37.9137V28.1027ZM38.4729 15.5201C37.974 17.0721 37.7523 18.6796 37.8077 20.2316H37.7523C37.3088 20.0099 36.9208 19.7882 36.4774 19.5665C36.3665 19.511 36.2557 19.4556 36.1448 19.4002C35.8122 19.2339 35.4797 19.123 35.0917 18.9567C35.0362 18.9013 34.9254 18.9013 34.8699 18.8459C35.8122 17.3493 36.9763 16.2407 38.4729 15.5201ZM18.0193 49.7757H12.7535L12.2546 43.7339C12.31 43.7893 12.3655 43.7893 12.4209 43.8447C12.7535 44.0664 13.1415 44.2881 13.5295 44.5099C13.5849 44.5653 13.6403 44.5653 13.7512 44.6207C14.1946 44.8424 14.5826 45.0642 15.0261 45.2859C15.1369 45.3413 15.2478 45.3967 15.3032 45.4522C15.7467 45.6739 16.1901 45.8402 16.689 46.0619C17.1878 46.2282 17.6313 46.3945 18.1302 46.5608C18.1856 46.5608 18.241 46.6162 18.2964 46.6162L18.0193 49.7757ZM38.8055 49.7757H33.5396L33.2625 46.6162C33.3179 46.6162 33.3733 46.5608 33.4288 46.5608C34.4265 46.2282 35.3688 45.8956 36.2557 45.4522C36.3665 45.3967 36.4774 45.3413 36.5328 45.3413C36.9763 45.1196 37.4197 44.8979 37.8077 44.6762C37.8631 44.6207 37.9186 44.6207 37.974 44.5653C38.362 44.3436 38.6946 44.1219 39.0826 43.9001C39.138 43.8447 39.1935 43.8447 39.2489 43.7893L38.8055 49.7757ZM39.6369 42.1264C37.6414 43.6784 35.2025 44.8979 32.5419 45.6739C28.2184 46.8933 23.3405 46.8933 19.017 45.6739C18.3519 45.5076 17.6867 45.2859 17.077 45.0087C15.1924 44.2881 13.4186 43.2904 11.922 42.1264C8.59623 39.5212 6.76705 36.0845 6.76705 32.4816C6.76705 24.666 15.3032 18.347 25.7795 18.347C28.6064 18.347 31.3224 18.7905 33.8722 19.6773C35.4242 20.2316 36.8654 20.8968 38.1403 21.7282C40.8564 23.4466 42.9073 25.7192 43.9604 28.2689C44.5147 29.5993 44.7919 31.0404 44.7919 32.4816C44.7919 34.5325 44.1821 36.528 43.0181 38.4126C42.2421 39.7983 41.0781 41.0178 39.6369 42.1264ZM49.8914 36.9714L44.6256 37.9137C44.681 37.8029 44.7364 37.692 44.7919 37.5811C44.8473 37.5257 44.8473 37.4149 44.9027 37.3594C45.0136 37.1377 45.069 36.916 45.1799 36.6943C45.1799 36.6943 45.1799 36.6388 45.2353 36.6388C45.3462 36.4171 45.4016 36.14 45.5125 35.9183C45.5125 35.8628 45.5679 35.752 45.5679 35.6965C45.6233 35.5302 45.6787 35.364 45.6787 35.1977C45.6787 35.0868 45.7342 35.0314 45.7342 34.9205C45.7896 34.7542 45.7896 34.5879 45.845 34.4216C45.845 34.3108 45.9005 34.2554 45.9005 34.1445C45.9005 33.9782 45.9559 33.8119 45.9559 33.5902C45.9559 33.4793 45.9559 33.4239 45.9559 33.3131C45.9559 33.0359 46.0113 32.8142 46.0113 32.537C46.0113 32.149 46.0113 31.8165 45.9559 31.4839C45.9559 31.373 45.9559 31.2622 45.9005 31.1513C45.845 30.8741 45.845 30.6524 45.7896 30.4307C45.7896 30.3198 45.7342 30.1536 45.7342 30.0427C45.6787 29.821 45.6233 29.5438 45.5679 29.3221C45.5125 29.2113 45.5125 29.1004 45.457 28.9895C45.457 28.9341 45.4016 28.8787 45.4016 28.8232L49.9468 29.2667V36.9714H49.8914Z" fill="white"/>
<path d="M29.3827 20.6754C26.7775 20.0657 23.7843 20.1211 21.2346 20.7863C20.9574 20.8417 20.7911 21.1743 20.8466 21.4514C20.902 21.6732 21.1237 21.8394 21.4009 21.8394C21.4563 21.8394 21.5117 21.8394 21.5671 21.8394C23.9506 21.1743 26.7221 21.1189 29.2165 21.7286C29.4936 21.784 29.8262 21.6177 29.8816 21.3406C29.8816 21.008 29.7153 20.7308 29.3827 20.6754Z" fill="white"/>
<path d="M37.6971 24.3892C36.6439 24.3892 35.8125 25.2206 35.8125 26.2738C35.8125 27.3269 36.6439 28.1584 37.6971 28.1584C38.7503 28.1584 39.5817 27.3269 39.5817 26.2738C39.5817 25.2206 38.7503 24.3892 37.6971 24.3892ZM37.6971 27.1052C37.2537 27.1052 36.9211 26.7726 36.9211 26.3292C36.9211 25.8858 37.2537 25.4978 37.6971 25.4978C38.1406 25.4978 38.4731 25.8303 38.4731 26.2738C38.4731 26.7172 38.1406 27.1052 37.6971 27.1052Z" fill="white"/>
<path d="M25.3361 15.4648C27.2207 15.4648 28.7727 13.9128 28.7727 12.0282C28.7727 10.1436 27.2207 8.59155 25.3361 8.59155C23.4514 8.59155 21.8994 10.1436 21.8994 12.0282C21.8994 13.9128 23.4514 15.4648 25.3361 15.4648ZM25.3361 9.64472C26.6109 9.64472 27.6641 10.6979 27.6641 11.9728C27.6641 13.2477 26.6109 14.3008 25.3361 14.3008C24.0612 14.3008 23.008 13.2477 23.008 11.9728C23.008 10.6979 24.0612 9.64472 25.3361 9.64472Z" fill="white"/>
<path d="M25.3355 7.20587C25.6681 7.20587 25.8898 6.98415 25.8898 6.65157V0.554298C25.8898 0.221719 25.6681 0 25.3355 0C25.003 0 24.7812 0.221719 24.7812 0.554298V6.65157C24.7812 6.98415 25.003 7.20587 25.3355 7.20587Z" fill="white"/>
<path d="M23.2857 8.25885C23.6183 8.25885 23.84 8.03713 23.84 7.70455V1.60728C23.84 1.2747 23.6183 1.05298 23.2857 1.05298C22.9532 1.05298 22.7314 1.2747 22.7314 1.60728V7.70455C22.7314 7.9817 22.9532 8.25885 23.2857 8.25885Z" fill="white"/>
<path d="M27.442 8.25885C27.7746 8.25885 27.9963 8.03713 27.9963 7.70455V1.60728C27.9963 1.2747 27.7746 1.05298 27.442 1.05298C27.1094 1.05298 26.8877 1.2747 26.8877 1.60728V7.70455C26.8877 7.9817 27.1094 8.25885 27.442 8.25885Z" fill="white"/>
</svg>
