<svg width="45" height="43" viewBox="0 0 45 43" fill="none" xmlns="http://www.w3.org/2000/svg">
<path d="M16.1415 4.84385e-08C15.9511 0.0440488 15.7921 0.202834 15.7482 0.393293L13.749 8.39024C9.30618 8.39024 4.84347 8.39024 0.409815 8.39024C0.175319 8.44273 -0.00566419 8.67441 0.000135568 8.91463V12.061C0.000172276 12.3355 0.249966 12.5853 0.524526 12.5854H2.0977V15.2073C2.09773 15.4819 2.34753 15.7317 2.62209 15.7317H4.19526V35.6585C3.63876 35.6584 3.05397 35.6585 2.50738 35.6585C2.27288 35.711 2.0919 35.9427 2.0977 36.1829V38.8049C1.5412 38.8048 0.956414 38.8049 0.409815 38.8049C0.175334 38.8574 -0.00564321 39.089 0.000135568 39.3293V42.4756C0.000172276 42.7502 0.249966 42.9999 0.524526 43H43.5245C43.7991 42.9999 44.0489 42.7502 44.0489 42.4756V39.3293C44.0489 39.0547 43.7991 38.8049 43.5245 38.8049H41.9514V36.1829C41.9513 35.9084 41.7015 35.6586 41.427 35.6585H39.8538V15.7317H41.427C41.7015 15.7317 41.9513 15.4819 41.9514 15.2073V12.5854H43.5245C43.7991 12.5853 44.0489 12.3355 44.0489 12.061V8.91463C44.0489 8.64006 43.7991 8.3903 43.5245 8.39024H30.3001L28.3008 0.393293C28.2432 0.170112 28.0233 -0.00010483 27.7928 4.84385e-08C23.9128 4.84385e-08 20.0123 4.84385e-08 16.1415 4.84385e-08ZM16.6659 1.04878H27.3831L28.1697 4.19512H15.8793L16.6659 1.04878ZM15.6417 5.21932C19.7705 5.21408 24.9888 5.23033 28.4237 5.2319L29.2185 8.3905H14.8305L15.6417 5.21932ZM1.04892 9.43902H43.0001V11.5366H1.04892V9.43902ZM3.14648 12.5854H40.9026V14.6829C27.8308 14.6829 14.3664 14.6829 3.14648 14.6829V12.5854ZM5.24404 15.7317H9.43916V18.878H5.24404V15.7317ZM10.4879 15.7317H33.5611V35.6585H10.4879V15.7317ZM34.6099 15.7317H38.805V18.878H34.6099V15.7317ZM5.24404 19.9268H9.43916V23.0732H5.24404V19.9268ZM34.6099 19.9268H38.805V23.0732H34.6099V19.9268ZM24.0402 21.8933C22.3053 22.9713 19.4164 24.3644 19.5828 28.0057C19.0268 28.0057 18.4674 27.5014 17.9113 25.9737C14.4167 31.0894 15.1402 34.6247 19.8942 35.5274C18.4766 32.0784 19.0211 29.9269 21.7951 28.0057C22.2516 33.2589 26.7723 29.9825 23.696 35.5274C28.4752 33.6062 29.5899 30.5545 26.8096 26.9897C26.2967 27.4668 25.699 28.4745 25.6953 29.0217C23.4516 26.3224 23.0871 24.6016 24.0402 21.8933ZM5.24404 24.122H9.43916V27.2683H5.24404V24.122ZM34.6099 24.122H38.805V27.2683H34.6099V24.122ZM5.24404 28.3171H9.43916V31.4634H5.24404V28.3171ZM34.6099 28.3171H38.805V31.4634H34.6099V28.3171ZM5.24404 32.5122H9.43916V35.6585H5.24404V32.5122ZM34.6099 32.5122H38.805V35.6585H34.6099V32.5122ZM3.14648 36.7073C16.5291 36.7073 29.221 36.7073 40.9026 36.7073V38.8049H3.14648V36.7073ZM1.04892 39.8537H43.0001V41.9512H1.04892V39.8537Z" fill="white"/>
</svg>
