<svg width="48" height="42" viewBox="0 0 48 42" fill="none" xmlns="http://www.w3.org/2000/svg">
<path d="M0.428875 32.7089L17.2291 41.5087C17.2628 41.5243 17.2976 41.5374 17.3333 41.5481C17.3551 41.5557 17.3754 41.5664 17.3974 41.5722C17.4633 41.5902 17.5312 41.5995 17.5994 41.6001H17.6003L17.6011 41.5998C17.7169 41.5975 17.8307 41.5699 17.9348 41.5191C17.9447 41.5148 17.956 41.5168 17.9659 41.5119L47.5654 26.3117C47.8321 26.1747 47.9998 25.8999 47.9998 25.6002V9.59998L47.9984 9.59389C47.9963 9.50132 47.9778 9.4102 47.9441 9.32432C47.9351 9.30023 47.9252 9.27818 47.9142 9.25496C47.8805 9.18416 47.8364 9.11887 47.7833 9.06084C47.774 9.05068 47.7677 9.03878 47.7578 9.02921C47.7027 8.97436 47.6397 8.92793 47.5709 8.89137L30.7707 0.0915929C30.5403 -0.0294097 30.2655 -0.0305685 30.0339 0.0884009L0.434394 15.2886C0.364172 15.3254 0.300042 15.3724 0.243749 15.4281C0.232722 15.4392 0.225178 15.4522 0.214732 15.4638C0.162791 15.5207 0.119558 15.5848 0.0861823 15.6542C0.0751554 15.6771 0.0649992 15.6989 0.0560041 15.7227C0.0211831 15.81 0.0023214 15.9029 0 15.9972L0.000290175 15.9989L0 16.0001V32.0003C0 32.298 0.165401 32.5708 0.428875 32.7089ZM1.60005 17.3223L16.8002 25.2841V39.4777L1.60005 31.5159V17.3223ZM18.4003 39.4896V25.2886L46.3997 10.91V25.111L18.4003 39.4896ZM30.3966 1.70091L45.4623 9.59293L17.604 23.8987L2.53827 16.0074L30.3966 1.70091Z" fill="white"/>
<path d="M19.6875 29.5625C19.7498 28.8767 20.4336 28.152 20.8194 27.6215C21.4868 26.7039 22.4695 26.2536 23.5382 26C24.3898 25.7979 25.3783 25.8694 26.1111 25.3125C26.4284 25.0713 26.6456 24.7706 26.9028 24.4722C27.089 24.2562 27.2097 23.9019 27.4375 23.75" stroke="white" stroke-linecap="round"/>
<path d="M20 36.8125C20.0623 36.1267 20.7461 35.402 21.1319 34.8715C21.7993 33.9539 22.782 33.5036 23.8507 33.25C24.7023 33.0479 25.6908 33.1194 26.4236 32.5625C26.7409 32.3213 26.9581 32.0206 27.2153 31.7222C27.4015 31.5062 27.5222 31.1519 27.75 31" stroke="white" stroke-linecap="round"/>
<path d="M37 27.8125C37.0623 27.1267 37.7461 26.402 38.1319 25.8715C38.7993 24.9539 39.782 24.5036 40.8507 24.25C41.7023 24.0479 42.6908 24.1194 43.4236 23.5625C43.7409 23.3213 43.9581 23.0206 44.2153 22.7222C44.4015 22.5062 44.5222 22.1519 44.75 22" stroke="white" stroke-linecap="round"/>
<path d="M29 27.8125C29.0623 27.1267 29.7461 26.402 30.1319 25.8715C30.7993 24.9539 31.782 24.5036 32.8507 24.25C33.7023 24.0479 34.6908 24.1194 35.4236 23.5625C35.7409 23.3213 35.9581 23.0206 36.2153 22.7222C36.4015 22.5062 36.5222 22.1519 36.75 22" stroke="white" stroke-linecap="round"/>
<path d="M37 19.8125C37.0623 19.1267 37.7461 18.402 38.1319 17.8715C38.7993 16.9539 39.782 16.5036 40.8507 16.25C41.7023 16.0479 42.6908 16.1194 43.4236 15.5625C43.7409 15.3213 43.9581 15.0206 44.2153 14.7222C44.4015 14.5062 44.5222 14.1519 44.75 14" stroke="white" stroke-linecap="round"/>
</svg>
