<svg width="34" height="34" viewBox="0 0 34 34" fill="none" xmlns="http://www.w3.org/2000/svg">
<path d="M0 33.4335C0 33.7469 0.253301 34.0002 0.566669 34.0002C1.55211 34.0002 6.53029 33.9379 7.76733 32.7008L16.0815 22.7269C16.281 22.7411 16.4804 22.7552 16.6884 22.7552C20.5514 22.7552 25.7806 20.3543 28.1674 17.9675L33.8528 11.7148C34.0557 11.491 34.0483 11.147 33.8341 10.9328L23.0674 0.166122C22.8538 -0.0480785 22.5098 -0.0560118 22.2854 0.147422L16.0526 5.81354C13.5281 8.33692 11.0149 13.9679 11.2727 17.921L1.33734 26.1978C0.0623336 27.4699 0 32.4481 0 33.4335ZM16.1744 21.606C14.6371 20.0556 13.7049 19.1155 13.1269 18.5404C13.1037 18.5171 13.0815 18.495 13.0594 18.4735C12.9875 18.4021 12.9212 18.3364 12.8605 18.2763C12.8339 18.2497 12.8061 18.2225 12.7812 18.1981C12.7506 18.1681 12.7217 18.1397 12.6945 18.1131C12.6673 18.0865 12.6418 18.0615 12.6174 18.0377C12.5772 17.9986 12.5404 17.9635 12.5069 17.9318C12.4916 17.917 12.4758 17.9017 12.4616 17.8887C12.4389 17.8677 12.418 17.8479 12.3987 17.8298C12.3976 17.8286 12.3959 17.8269 12.3942 17.8258C12.1703 14.2274 14.5549 8.91379 16.834 6.63408L22.6481 1.34933L32.6503 11.3516L27.3474 17.186C25.0859 19.4465 19.775 21.8236 16.1744 21.606ZM1.13957 32.8606C1.1849 30.6302 1.48807 27.6467 2.10064 27.0342L11.8734 18.8957C12.4163 19.4329 13.5162 20.5373 14.5424 21.5698C14.7328 21.7613 14.921 21.9511 15.1006 22.1325L6.93093 31.9375C6.35066 32.515 3.36941 32.8153 1.13957 32.8606Z" fill="white"/>
</svg>
