<svg width="42" height="39" viewBox="0 0 42 39" fill="none" xmlns="http://www.w3.org/2000/svg">
<path d="M41.3588 0H38.7072C38.352 0 38.065 0.287708 38.065 0.642206C38.065 0.996703 38.352 1.28441 38.7072 1.28441H40.7166V6.86775H25.7192V1.28441H32.3937C32.7488 1.28441 33.0359 0.996703 33.0359 0.642206C33.0359 0.287708 32.7488 0 32.3937 0H25.077H12.6054H0.653924C0.298785 0 0.0117188 0.287708 0.0117188 0.642206V4.46397C0.0117188 4.81847 0.298785 5.10618 0.653924 5.10618C1.00906 5.10618 1.29613 4.81847 1.29613 4.46397V1.28441H12.5264C12.5495 1.29083 12.5797 1.29982 12.6163 1.31267C12.6201 1.31395 12.6259 1.31652 12.6298 1.31781C12.6625 1.32937 12.7011 1.34478 12.7415 1.36212C12.7608 1.37047 12.7826 1.38138 12.8032 1.39102C12.8334 1.40515 12.8642 1.42056 12.8969 1.4379C12.9233 1.45203 12.9502 1.46808 12.9778 1.48414C13.0093 1.50276 13.0421 1.52331 13.0748 1.54515C13.1044 1.56441 13.1333 1.58496 13.1634 1.6068C13.1981 1.63249 13.2334 1.66139 13.2688 1.69093C13.297 1.71469 13.3253 1.73717 13.3535 1.7635C13.3966 1.80331 13.439 1.84891 13.4807 1.89515C13.5006 1.91698 13.5212 1.93625 13.5411 1.96001C13.6014 2.03258 13.6599 2.11221 13.7151 2.19955C13.7479 2.25222 13.7748 2.30937 13.8037 2.36524C13.8262 2.40827 13.8519 2.44937 13.8718 2.49497C13.8968 2.55148 13.9161 2.61185 13.9373 2.67157C13.9553 2.72102 13.9758 2.76855 13.9912 2.81993C14.0092 2.87965 14.0208 2.94451 14.0349 3.00745C14.0478 3.06332 14.0632 3.11662 14.0728 3.17442C14.0837 3.23864 14.0889 3.30672 14.0959 3.37351C14.103 3.43516 14.1126 3.49424 14.1165 3.55782C14.121 3.62718 14.119 3.70103 14.1203 3.77296C14.121 3.83846 14.1248 3.90204 14.1229 3.97012C14.1203 4.04782 14.112 4.13002 14.1062 4.21094C14.1011 4.27773 14.0998 4.34195 14.0921 4.41131C14.0799 4.5237 14.0606 4.64122 14.0413 4.75874C14.0349 4.7992 14.0311 4.83773 14.024 4.87884C13.9951 5.04003 13.9591 5.20636 13.9174 5.37655C13.8114 5.566 13.5578 6.04251 13.3221 6.66481C13.3124 6.68986 13.3034 6.71683 13.2938 6.74252C13.2662 6.81765 13.2379 6.89279 13.211 6.97243C13.1712 7.08867 13.1326 7.20812 13.0967 7.33078C13.096 7.3327 13.0967 7.33527 13.096 7.3372C12.8276 8.25812 12.6831 9.34795 13.0324 10.2946C13.351 11.1596 14.0092 11.7723 14.9892 12.1159C15.1498 12.1948 15.7291 12.4915 16.5055 12.9989C16.5286 13.0201 16.5504 13.0432 16.5774 13.0612C17.4752 13.6623 18.3133 14.3334 19.0692 15.0565C19.0987 15.0854 19.1372 15.1008 19.1713 15.1227C19.197 15.1638 19.2233 15.2049 19.2586 15.2402C21.2642 17.2214 22.469 19.4119 22.8408 21.7515C22.8434 21.7695 22.8537 21.7836 22.8582 21.8003C22.862 21.8241 22.8665 21.8472 22.8697 21.871C22.871 21.8812 22.8659 21.8915 22.8672 21.9024C22.9551 22.5196 22.9828 23.1496 22.9532 23.786C22.9519 23.8175 22.95 23.8496 22.9481 23.8811C22.9333 24.1514 22.9051 24.4231 22.8691 24.6947C22.8614 24.7519 22.8563 24.8078 22.8473 24.8649C22.801 25.1745 22.7445 25.4853 22.6713 25.7955L21.9527 28.5165C21.654 29.6603 20.7511 33.4904 21.6791 34.744C21.805 34.9141 21.9989 35.0041 22.1961 35.0041C22.3284 35.0041 22.4626 34.963 22.5775 34.8782C22.8627 34.6669 22.923 34.2649 22.7118 33.9804C22.3618 33.5071 22.6116 31.2863 23.0772 29.3212H24.4329V34.5654C24.4329 34.9199 24.7199 35.2076 25.0751 35.2076C25.4302 35.2076 25.7173 34.9199 25.7173 34.5654V29.3212H33.217H41.3582C41.7133 29.3212 42.0004 29.0335 42.0004 28.679C42.0004 28.3245 41.7133 28.0368 41.3582 28.0368H33.8604V22.4534H41.3595C41.7146 22.4534 42.0017 22.1657 42.0017 21.8112C42.0017 21.783 41.9888 21.7586 41.9856 21.731C41.9895 21.7033 42.0017 21.6789 42.0017 21.6507V14.781C42.0017 14.747 41.9876 14.7181 41.9824 14.686C41.9876 14.6538 42.0017 14.6243 42.0017 14.5909C42.0017 14.2364 41.7146 13.9487 41.3595 13.9487H33.8604V8.36601H41.3595C41.7146 8.36601 42.0017 8.0783 42.0017 7.72381C42.0017 7.68592 41.9863 7.65316 41.9798 7.6172C41.9863 7.58124 42.0017 7.54848 42.0017 7.51059V0.642206C42.001 0.287708 41.714 0 41.3588 0ZM32.576 28.0348H23.4098L23.9197 26.105C23.993 25.7929 24.0533 25.4853 24.1015 25.1822C24.1028 25.1725 24.1034 25.1635 24.1047 25.1539C24.1516 24.8572 24.1869 24.565 24.2107 24.2773C24.2164 24.206 24.2164 24.1354 24.2209 24.0647C24.2357 23.8419 24.2479 23.619 24.2498 23.4013C24.2511 23.2677 24.2434 23.1348 24.2396 23.0019C24.2351 22.8542 24.2338 22.7052 24.2242 22.5607C24.2216 22.5247 24.2229 22.4875 24.2203 22.4515H32.576V28.0348ZM24.4342 15.4232V21.0059H24.0116C23.5967 19.0234 22.6482 17.1527 21.1833 15.4232H24.4342ZM25.7192 15.4232H40.7173V21.0059H25.7192V15.4232ZM32.576 13.9487H19.7692C19.0923 13.3187 18.3576 12.7272 17.578 12.1865V8.36601H32.576V13.9487ZM24.4342 1.28441V6.86775H14.6251C14.6322 6.85041 14.6392 6.83242 14.6463 6.81573C14.7869 6.48563 14.9154 6.23261 14.9937 6.08618C15.0169 6.0438 15.0425 5.9937 15.0631 5.95838C15.0644 5.95581 15.0714 5.94297 15.0721 5.94297C15.1029 5.89031 15.1267 5.8338 15.1408 5.77471C15.5897 4.00993 15.4741 2.57203 14.7946 1.50148C14.7465 1.42505 14.6964 1.35313 14.645 1.28377L24.4342 1.28441ZM15.4446 10.9117C14.8191 10.6985 14.4247 10.3511 14.2391 9.84951C14.0561 9.35501 14.0889 8.74748 14.216 8.15216H16.2936V11.3709C15.8273 11.0947 15.5332 10.9496 15.5158 10.9413C15.4927 10.9297 15.469 10.9201 15.4446 10.9117Z" fill="white"/>
<path d="M17.3863 30.2427L18.1056 29.876C18.1685 29.8439 18.2263 29.8015 18.2751 29.7508L18.8827 29.124L20.3771 27.5814C20.5884 27.3637 20.6185 27.0272 20.4484 26.7755C20.2429 26.4711 16.888 21.546 12.5422 17.9368C11.4523 16.8868 10.4486 13.6828 9.71325 8.89905C9.65931 8.54904 9.33628 8.30565 8.9805 8.36216C8.62985 8.41611 8.38967 8.74363 8.44361 9.09427C8.90215 12.0792 9.4538 14.4316 10.0915 16.1386C8.68637 15.2485 7.22728 14.5749 5.77204 14.2904C5.69176 14.2743 5.61084 14.2743 5.53442 14.2884C5.30387 14.3302 5.10671 14.4972 5.03543 14.7328C4.96093 14.9762 4.89864 15.2267 4.84341 15.4804C4.82735 15.5542 4.81515 15.6306 4.80038 15.7058C4.76442 15.892 4.73167 16.0802 4.70469 16.2716C4.69377 16.3518 4.68414 16.4328 4.67451 16.5143C4.65075 16.7153 4.63148 16.9183 4.61735 17.1231C4.61286 17.188 4.60772 17.2529 4.60451 17.3177C4.58974 17.5849 4.58203 17.854 4.58203 18.1269C4.58203 18.1282 4.58203 18.1288 4.58203 18.1301C4.58781 24.8701 8.92912 33.1481 9.14554 33.5572C9.25921 33.771 9.48013 33.8982 9.71325 33.8982C9.77233 33.8982 9.83206 33.8898 9.8905 33.8731L12.7939 33.0389C12.8613 33.0196 12.9262 32.9888 12.984 32.9484L13.7347 32.4237L16.6728 37.3198C17.0549 37.9569 17.7543 38.3525 18.4973 38.3525C18.882 38.3525 19.2596 38.2478 19.5897 38.0494C20.5948 37.447 20.9223 36.1375 20.3193 35.1319L17.3863 30.2427ZM15.2542 27.0638L14.8695 27.2944L14.8682 27.295L12.3232 28.8222L12.3225 28.8228L11.8454 29.1092C11.6662 29.2165 11.234 29.0585 10.9444 28.5749C10.8005 28.336 10.7305 28.0689 10.7504 27.8428C10.7568 27.7709 10.7845 27.5962 10.8975 27.5281L14.3063 25.4827C14.3416 25.4615 14.3834 25.4512 14.4341 25.4512C14.6428 25.4512 14.9742 25.6279 15.2073 26.017C15.497 26.4993 15.4282 26.9591 15.2542 27.0638ZM12.3373 31.8341L10.0466 32.4924C9.32408 31.0365 7.13287 26.378 6.24406 21.7425C6.23764 21.7098 6.23186 21.677 6.22544 21.6449C6.1214 21.0913 6.03791 20.5384 5.97626 19.9919C5.96727 19.9129 5.95763 19.8332 5.94993 19.7542C5.9358 19.6136 5.92424 19.4742 5.91396 19.3349C5.90562 19.2251 5.89855 19.1152 5.89213 19.0061C5.88507 18.8821 5.878 18.7582 5.87351 18.6355C5.86773 18.4621 5.86516 18.29 5.86516 18.1192C5.86516 18.0068 5.86708 17.8951 5.86965 17.784C5.87415 17.6144 5.87993 17.4455 5.89085 17.2792C5.89663 17.1931 5.90433 17.109 5.9114 17.0236C5.92488 16.8682 5.94158 16.7147 5.96085 16.5625C5.97048 16.4886 5.97947 16.4141 5.99039 16.3409C6.02378 16.12 6.06231 15.9017 6.11048 15.6884C11.4273 17.1462 16.9682 24.1771 18.7754 26.64C18.8961 26.8044 18.9995 26.9482 19.0862 27.069L17.4274 28.7811L16.7242 29.1394L16.0685 28.047C16.7839 27.4813 16.9034 26.3478 16.3087 25.3568C15.8681 24.6234 15.1502 24.1675 14.4341 24.1675C14.1522 24.1675 13.8792 24.2413 13.6448 24.382L10.236 26.4274C9.80059 26.6888 9.52187 27.1627 9.47114 27.7279C9.42683 28.2262 9.55848 28.7618 9.84298 29.2358C10.2829 29.9698 11.0009 30.4251 11.7176 30.4251C11.97 30.4251 12.2114 30.3577 12.4279 30.244L13.0733 31.3197L12.3373 31.8341ZM18.9295 36.948C18.5404 37.1831 18.0061 37.045 17.7749 36.659L14.4836 31.1739L14.4829 31.1727L13.535 29.5928L13.9923 29.3186H15.3338L19.2185 35.7927C19.4574 36.1908 19.3284 36.7091 18.9295 36.948Z" fill="white"/>
<path d="M6.10101 31.0566C4.39017 31.991 3.07879 32.2235 2.30878 31.7283C1.34355 31.1079 1.24722 29.3618 1.29346 28.6843C1.29346 28.6817 1.29474 28.6791 1.29474 28.6772C1.29474 28.6753 1.29346 28.6733 1.29346 28.6708V9.04626C1.29346 8.69176 1.00639 8.40405 0.65125 8.40405C0.29611 8.40405 0.00904414 8.69176 0.00904414 9.04626L0.0109709 28.6277C0.00133784 28.7498 -0.197747 31.6384 1.60878 32.8059C2.08465 33.1136 2.64016 33.267 3.27337 33.267C4.24375 33.267 5.39522 32.9055 6.71688 32.1836C7.02771 32.0135 7.14266 31.6236 6.97248 31.3122C6.80229 31.0007 6.41248 30.8864 6.10101 31.0566Z" fill="white"/>
<path d="M5.22228 11.0158C5.28714 11.0158 5.35329 11.0056 5.41816 10.985C5.75596 10.8771 5.94219 10.5156 5.83366 10.1778C5.36549 8.71481 4.91723 5.74076 4.91274 5.71057C4.86072 5.35993 4.53384 5.11589 4.18255 5.17048C3.83127 5.22314 3.5898 5.54938 3.64181 5.90066C3.66044 6.02654 4.10998 9.00701 4.61026 10.5695C4.6976 10.8418 4.95063 11.0158 5.22228 11.0158Z" fill="white"/>
</svg>
