<svg width="48" height="42" viewBox="0 0 48 42" fill="none" xmlns="http://www.w3.org/2000/svg">
<path d="M0.428875 32.7089L17.2291 41.5087C17.2628 41.5243 17.2976 41.5374 17.3333 41.5481C17.3551 41.5557 17.3754 41.5664 17.3974 41.5722C17.4633 41.5902 17.5312 41.5995 17.5994 41.6001H17.6003L17.6011 41.5998C17.7169 41.5975 17.8307 41.5699 17.9348 41.5191C17.9447 41.5148 17.956 41.5168 17.9659 41.5119L47.5654 26.3117C47.8321 26.1747 47.9998 25.8999 47.9998 25.6002V9.59998L47.9984 9.59389C47.9963 9.50132 47.9778 9.4102 47.9441 9.32432C47.9351 9.30023 47.9252 9.27818 47.9142 9.25496C47.8805 9.18416 47.8364 9.11887 47.7833 9.06084C47.774 9.05068 47.7677 9.03878 47.7578 9.02921C47.7027 8.97436 47.6397 8.92793 47.5709 8.89137L30.7707 0.0915929C30.5403 -0.0294097 30.2655 -0.0305685 30.0339 0.0884009L0.434394 15.2886C0.364172 15.3254 0.300042 15.3724 0.243749 15.4281C0.232722 15.4392 0.225178 15.4522 0.214732 15.4638C0.162791 15.5207 0.119558 15.5848 0.0861823 15.6542C0.0751554 15.6771 0.0649992 15.6989 0.0560041 15.7227C0.0211831 15.81 0.0023214 15.9029 0 15.9972L0.000290175 15.9989L0 16.0001V32.0003C0 32.298 0.165401 32.5708 0.428875 32.7089ZM1.60005 17.3223L16.8002 25.2841V39.4777L1.60005 31.5159V17.3223ZM18.4003 39.4896V25.2886L46.3997 10.91V25.111L18.4003 39.4896ZM30.3966 1.70091L45.4623 9.59293L17.604 23.8987L2.53827 16.0074L30.3966 1.70091Z" fill="white"/>
<path d="M20.7997 17.2004C20.7997 15.6041 18.7362 14.4005 15.9999 14.4005C13.2635 14.4005 11.1998 15.6041 11.1998 17.2004C11.1998 18.7963 13.2635 20.0003 15.9999 20.0003C18.7362 20.0003 20.7997 18.7963 20.7997 17.2004ZM15.9999 18.4002C14.0148 18.4002 12.7998 17.6234 12.7998 17.2004C12.7998 16.7773 14.0148 16.0002 15.9999 16.0002C17.985 16.0002 19.1996 16.7773 19.1996 17.2004C19.1996 17.6235 17.9849 18.4002 15.9999 18.4002Z" fill="white"/>
<path d="M24.3995 15.6005C27.1359 15.6005 29.1996 14.3965 29.1996 12.8006C29.1996 11.2044 27.1359 10.0007 24.3995 10.0007C21.6634 10.0007 19.5997 11.2044 19.5997 12.8006C19.5997 14.3965 21.6634 15.6005 24.3995 15.6005ZM24.3995 11.6004C26.3849 11.6004 27.5995 12.3775 27.5995 12.8005C27.5995 13.2236 26.3848 14.0004 24.3995 14.0004C22.4144 14.0004 21.1998 13.2236 21.1998 12.8005C21.1998 12.3775 22.4145 11.6004 24.3995 11.6004Z" fill="white"/>
<path d="M32.7996 11.2004C35.536 11.2004 37.5997 9.99644 37.5997 8.40051C37.5997 6.80428 35.536 5.60034 32.7996 5.60034C30.0633 5.60034 27.9999 6.80428 27.9999 8.40051C27.9999 9.99644 30.0633 11.2004 32.7996 11.2004ZM32.7996 7.20029C34.7848 7.20029 35.9997 7.97738 35.9997 8.40043C35.9997 8.82349 34.7848 9.60028 32.7996 9.60028C30.8145 9.60028 29.5996 8.82349 29.5996 8.40043C29.5996 7.97738 30.8145 7.20029 32.7996 7.20029Z" fill="white"/>
</svg>
