<svg width="40" height="35" viewBox="0 0 40 35" fill="none" xmlns="http://www.w3.org/2000/svg">
<path d="M39.4731 0H0.517525C0.230534 0 0 0.235901 0 0.529574V5.02614V5.03095V17.5V21.9966V22.0014V34.4656C0 34.7063 0.155257 34.9037 0.366972 34.9711C0.41402 34.9856 0.465773 34.9952 0.52223 34.9952C2.20654 34.9952 3.67443 34.0227 4.41778 32.6025C5.16114 34.0275 6.62903 34.9952 8.31334 34.9952C9.99765 34.9952 11.4655 34.0227 12.2089 32.6025C12.9522 34.0275 14.4201 34.9952 16.1044 34.9952C17.7888 34.9952 19.2566 34.0227 20 32.6025C20.7434 34.0275 22.2112 34.9952 23.8956 34.9952C25.5799 34.9952 27.0478 34.0227 27.7911 32.6025C28.5345 34.0275 30.0024 34.9952 31.6867 34.9952C33.371 34.9952 34.8342 34.0275 35.5822 32.6073C35.7845 32.9972 36.0433 33.3535 36.3585 33.6761C37.1912 34.5282 38.3016 35 39.4778 35C39.5295 35 39.5813 34.9904 39.633 34.9759C39.8447 34.9085 40 34.7063 40 34.4704V22.0014V17.5V0.529574C40 0.399588 39.9577 0.284044 39.8824 0.192573C39.7789 0.0770292 39.633 0 39.4731 0ZM32.1995 1.06396H38.9508V5.03095C38.9508 6.93741 37.4359 8.48281 35.5775 8.48762C33.7191 8.48762 32.2042 6.93741 32.2042 5.03095V1.06396H32.1995ZM35.0553 9.51788V13.5186C35.0553 15.425 33.5403 16.9752 31.6773 16.9752C29.8142 16.9752 28.2992 15.425 28.2992 13.5186V9.51788C29.7624 9.33975 31.0092 8.42985 31.6773 7.15887C32.3453 8.42985 33.5921 9.33975 35.0553 9.51788ZM24.4084 1.06396H31.1597V5.03095C31.1597 6.93741 29.6448 8.48762 27.7817 8.48762C25.9186 8.48762 24.4037 6.93741 24.4037 5.03095V1.06396H24.4084ZM27.2642 9.51788V13.5186C27.2642 15.425 25.7492 16.9752 23.8861 16.9752C22.0231 16.9752 20.5081 15.425 20.5081 13.5186V9.51788C21.9713 9.33975 23.2181 8.42985 23.8861 7.15887C24.5589 8.42985 25.801 9.33975 27.2642 9.51788ZM16.6173 1.06396H23.3686V5.03095C23.3686 6.93741 21.8537 8.48762 19.9906 8.48762C18.1275 8.48762 16.6126 6.93741 16.6126 5.03095V1.06396H16.6173ZM19.4778 9.51788V13.5186C19.4778 15.425 17.9628 16.9752 16.0997 16.9752C14.2367 16.9752 12.7217 15.425 12.7217 13.5186V9.51788C14.1849 9.33975 15.4317 8.42985 16.0997 7.15887C16.7678 8.42985 18.0146 9.33975 19.4778 9.51788ZM8.83086 1.06396H15.5822V5.03095C15.5822 6.93741 14.0673 8.48762 12.2042 8.48762C10.3411 8.48762 8.82616 6.93741 8.82616 5.03095V1.06396H8.83086ZM11.6867 9.51788V13.5186C11.6867 15.425 10.1717 16.9752 8.30863 16.9752C6.45025 16.9752 4.93531 15.4299 4.9306 13.5234V13.5186V9.51788C6.39379 9.33975 7.64056 8.42985 8.30863 7.15887C8.97671 8.42985 10.2235 9.33975 11.6867 9.51788ZM1.03976 1.06396H7.79111V5.03095C7.79111 6.93741 6.27617 8.48281 4.41778 8.48762C2.5594 8.48762 1.04917 6.94223 1.04446 5.04058V1.06396H1.03976ZM1.03976 7.93879C1.74547 8.79574 2.75229 9.37827 3.89555 9.51788V13.5186V13.5234C3.89555 15.2469 2.65349 16.6768 1.03976 16.9319V7.93879ZM1.03976 33.8975V24.9044C1.74547 25.7613 2.75229 26.3439 3.89555 26.4835V30.4842V30.489C3.89555 32.2077 2.65349 33.6376 1.03976 33.8975ZM4.41308 25.4532C2.55469 25.4532 1.03976 23.9078 1.03505 22.0062V18.0007C2.49824 17.8226 3.745 16.9127 4.41308 15.6369C5.08116 16.9127 6.32792 17.8226 7.79111 18.0007V22.0014C7.79111 23.903 6.27617 25.4532 4.41308 25.4532ZM11.6867 30.4842C11.6867 32.3906 10.1717 33.9409 8.30863 33.9409C6.45025 33.9409 4.93531 32.3955 4.9306 30.489V30.4842V26.4835C6.39379 26.3054 7.64056 25.3955 8.30863 24.1197C8.97671 25.3955 10.2235 26.3054 11.6867 26.4835V30.4842ZM12.2042 25.4532C10.3411 25.4532 8.82616 23.903 8.82616 21.9966V17.9959C10.2893 17.8177 11.5361 16.9078 12.2042 15.6321C12.8723 16.9078 14.119 17.8177 15.5822 17.9959V21.9966C15.5822 23.903 14.0673 25.4532 12.2042 25.4532ZM19.4778 30.4842C19.4778 32.3906 17.9628 33.9409 16.0997 33.9409C14.2367 33.9409 12.7217 32.3906 12.7217 30.4842V26.4835C14.1849 26.3054 15.4317 25.3955 16.0997 24.1197C16.7678 25.3955 18.0146 26.3054 19.4778 26.4835V30.4842ZM19.9953 25.4532C18.1322 25.4532 16.6173 23.903 16.6173 21.9966V17.9959C18.0805 17.8177 19.3272 16.9078 19.9953 15.6321C20.6634 16.9078 21.9101 17.8177 23.3733 17.9959V21.9966C23.3733 23.903 21.8584 25.4532 19.9953 25.4532ZM27.2642 30.4842C27.2642 32.3906 25.7492 33.9409 23.8861 33.9409C22.0231 33.9409 20.5081 32.3906 20.5081 30.4842V26.4835C21.9713 26.3054 23.2181 25.3955 23.8861 24.1197C24.5542 25.3955 25.801 26.3054 27.2642 26.4835V30.4842ZM27.7864 25.4532C25.9233 25.4532 24.4084 23.903 24.4084 21.9966V17.9959C25.8716 17.8177 27.1183 16.9078 27.7864 15.6321C28.4545 16.9078 29.7012 17.8177 31.1644 17.9959V21.9966C31.1597 23.903 29.6448 25.4532 27.7864 25.4532ZM35.0553 30.4842C35.0553 32.3906 33.5403 33.9409 31.6773 33.9409C29.8142 33.9409 28.2992 32.3906 28.2992 30.4842V26.4835C29.7624 26.3054 31.0092 25.3955 31.6773 24.1197C32.3453 25.3955 33.5921 26.3054 35.0553 26.4835V30.4842ZM32.1995 21.9966V17.9959C33.6627 17.8177 34.9047 16.9078 35.5728 15.6369C35.7751 16.0268 36.0339 16.3831 36.3491 16.7056C37.0595 17.4326 37.9675 17.8803 38.9508 17.9959V21.9917C38.9508 23.8982 37.4359 25.4484 35.5728 25.4484C33.7097 25.4484 32.1995 23.903 32.1995 21.9966ZM38.9508 33.8975C38.2451 33.7868 37.5959 33.4498 37.083 32.925C36.4432 32.2703 36.095 31.4037 36.095 30.4842V26.4835C37.2383 26.3439 38.2451 25.7613 38.9508 24.9044V33.8975ZM38.9508 16.9271C38.2451 16.8164 37.5959 16.4794 37.083 15.9546C36.4432 15.3047 36.095 14.4333 36.095 13.5138V9.51788C37.2383 9.37827 38.2451 8.79574 38.9508 7.93879V16.9271Z" fill="white"/>
</svg>
