<svg width="54" height="43" viewBox="0 0 54 43" fill="none" xmlns="http://www.w3.org/2000/svg">
<path d="M44.739 40.6716H8.9051V17.3701H6.57715V41.8359C6.57715 42.4788 7.09828 42.9999 7.74113 42.9999H45.903C46.5458 42.9999 47.0669 42.4788 47.0669 41.8359V17.3701H44.739V40.6716Z" fill="white"/>
<path d="M20.7683 16.293L17.0579 20.6526C16.6877 21.0876 16.6877 21.7264 17.0579 22.1614L22.3277 28.3534L19.2595 31.9588L21.0324 33.4676L24.7428 29.108C25.1129 28.673 25.1129 28.0342 24.7428 27.5992L19.473 21.4072L22.5412 17.8018L20.7683 16.293Z" fill="white"/>
<path d="M26.6804 16.293L22.97 20.6526C22.5998 21.0876 22.5998 21.7264 22.97 22.1614L28.2401 28.3534L25.1719 31.9588L26.9448 33.4676L30.6552 29.108C31.0254 28.673 31.0254 28.0342 30.6552 27.5992L25.3851 21.4072L28.4533 17.8018L26.6804 16.293Z" fill="white"/>
<path d="M32.5922 16.293L28.8821 20.6526C28.512 21.0876 28.512 21.7264 28.8821 22.1614L34.1519 28.3534L31.0837 31.9588L32.8566 33.4676L36.567 29.108C36.9372 28.673 36.9372 28.0342 36.567 27.5992L31.2969 21.4072L34.3651 17.8018L32.5922 16.293Z" fill="white"/>
<path d="M27.1712 0.146661C26.8194 -0.0488871 26.3917 -0.0488871 26.0402 0.146661L0 14.6239L1.13105 16.6585L26.6055 2.4959L52.08 16.6585L53.2111 14.6239L27.1712 0.146661Z" fill="white"/>
</svg>
